<?xml version="1.0" encoding="utf-8" ?>
<svg baseProfile="full" height="300mm" version="1.1" viewBox="0,0,200,300" width="200mm" xmlns="http://www.w3.org/2000/svg" xmlns:ev="http://www.w3.org/2001/xml-events" xmlns:xlink="http://www.w3.org/1999/xlink"><defs /><rect fill="#222222" height="300" width="200" x="0" y="0" /><text fill="#FFFFFF" style="font-size:12px; font-family:Arial; font-weight:bold;" x="10" y="20">Over 10km Runs</text><text fill="#FFFFFF" style="font-size:4px; font-family:Arial" x="10" y="280">Runner</text><text fill="#FFFFFF" style="font-size:9px; font-family:Arial" x="10" y="290">absx</text><text fill="#FFFFFF" style="font-size:4px; font-family:Arial" x="65" y="280">SPECIAL TRACKS</text><rect fill="yellow" height="2.6" width="2.6" x="65" y="283" /><text fill="#FFFFFF" style="font-size:3px; font-family:Arial" x="70" y="285.5">Over 20.0 km</text><rect fill="red" height="2.6" width="2.6" x="65" y="287" /><text fill="#FFFFFF" style="font-size:3px; font-family:Arial" x="70" y="289.5">Over 40.0 km</text><text fill="#FFFFFF" style="font-size:4px; font-family:Arial" x="120" y="280">STATISTICS</text><text fill="#FFFFFF" style="font-size:3px; font-family:Arial" x="120" y="285">Number: 1</text><text fill="#FFFFFF" style="font-size:3px; font-family:Arial" x="120" y="290">Weekly: 1.0</text><text fill="#FFFFFF" style="font-size:3px; font-family:Arial" x="141" y="285">Total: 12.0 km</text><text fill="#FFFFFF" style="font-size:3px; font-family:Arial" x="141" y="290">Avg: 12.0 km</text><text fill="#FFFFFF" style="font-size:3px; font-family:Arial" x="167" y="285">Min: 12.0 km</text><text fill="#FFFFFF" style="font-size:3px; font-family:Arial" x="167" y="290">Max: 12.0 km</text><polyline fill="none" points="39.43727854266763,111.40292935632169 62.730632949620485,126.62445139978081 84.1605190038681,211.42966474872082 123.29335440695286,231.0 149.38191134110093,216.86587269417942 158.69925310462713,187.5103158969432 138.2011012248695,89.65785906277597 94.40959494560957,72.26176996156573 63.66236712411046,107.05391894839704 83.22878482192755,205.99345394968987 126.08855693787336,228.82552013080567 158.69925310462713,192.94653639383614 138.2011012248695,95.09413091558963 99.06826582178473,72.26176996156573 62.730632949620485,109.22842438146472 84.1605190038681,211.42966474872082 136.33763287588954,225.56379947345704 158.69925310462713,187.5103158969432 136.33763287588954,88.57060435134917 96.27306329458952,70.08725676964968 61.79889877140522,105.96666606049985 83.22878482192755,202.73172610346228 113.97601263970137,229.91276012081653 144.72324046120048,220.12759609147906 159.6309872791171,194.03378015290946 139.13283539935946,98.35589265730232 96.27306329458952,72.26176996156573 64.59410130232573,105.96666606049985 86.02398735657334,202.73172610346228 129.81549363955855,226.6510398061946 157.76751893013716,194.03378015290946 135.40589870139956,92.91962251625955 99.06826582178473,73.34902638476342 64.59410130232573,109.22842438146472 86.02398735657334,205.99345394968987 120.49815187975764,226.6510398061946 158.69925310462713,190.7720485366881 136.33763287588954,94.00687677413225 94.40959494560957,74.43628269713372 65.5258354768157,110.3156769266352 89.75092406198382,210.34242281969637 132.61069616675377,224.4765590261668 157.76751893013716,190.7720485366881 139.13283539935946,95.09413091558963 96.27306329458952,73.34902638476342 64.59410130232573,104.87941306084394 87.8874557055533,205.99345394968987 126.08855693787336,226.6510398061946 157.76751893013716,188.59756022598594 137.26936705037951,94.00687677413225 95.34132911637425,73.34902638476342 65.5258354768157,111.40292935632169 87.8874557055533,205.99345394968987 123.29335440695286,226.6510398061946 157.76751893013716,188.59756022598594 137.26936705037951,94.00687677413225 99.06826582178473,72.26176996156573 64.59410130232573,103.79215994756669 86.95572152733803,205.99345394968987 122.36162022873759,225.56379947345704 148.45017716288567,213.60414826963097 157.76751893013716,190.7720485366881 136.33763287588954,95.09413091558963 95.34132911637425,73.34902638476342 63.66236712411046,111.40292935632169 86.02398735657334,208.16793861147016 126.08855693787336,228.82552013080567 159.6309872791171,190.7720485366881 139.13283539935946,92.91962251625955 94.40959494560957,73.34902638476342 63.66236712411046,111.40292935632169 85.09225317835808,208.16793861147016 128.8837594613433,224.4765590261668 158.69925310462713,188.59756022598594 137.26936705037951,92.91962251625955 94.40959494560957,73.34902638476342 63.66236712411046,108.1411717236042 87.8874557055533,207.08069633878767 128.8837594613433,225.56379947345704 157.76751893013716,187.5103158969432 135.40589870139956,90.74511366151273 94.40959494560957,73.34902638476342 65.5258354768157,108.1411717236042 86.95572152733803,205.99345394968987 116.77121517062187,227.7382800243795 144.72324046120048,217.95311394240707 157.76751893013716,194.03378015290946 140.99630375579,105.96666606049985 102.79520252719522,71.1745134210214 83.22878482192755,75.5235388930887 67.38930382952094,105.96666606049985 86.95572152733803,205.99345394968987 121.42988605424762,226.6510398061946 158.69925310462713,195.1210237974301 139.13283539935946,98.35589265730232 125.1568227596581,79.8725625379011 83.22878482192755,69.0 63.66236712411046,85.30883952602744 83.22878482192755,203.81896883342415 114.90774682164192,226.6510398061946 147.5184429883957,217.95311394240707 159.6309872791171,194.03378015290946 139.13283539935946,95.09413091558963 97.2047974690795,71.1745134210214 64.59410130232573,103.79215994756669 85.09225317835808,203.81896883342415 116.77121517062187,227.7382800243795 144.72324046120048,220.12759609147906 159.6309872791171,194.03378015290946 140.06456958130002,98.35589265730232 123.29335440695286,75.5235388930887 97.2047974690795,70.08725676964968 63.66236712411046,108.1411717236042 86.02398735657334,207.08069633878767 127.95202528685331,228.82552013080567 158.69925310462713,190.7720485366881 137.26936705037951,90.74511366151273 118.6346835270524,73.34902638476342 89.75092406198382,75.5235388930887 64.59410130232573,115.75193793792278 86.02398735657334,205.99345394968987 131.6789619922638,225.56379947345704 159.6309872791171,192.94653639383614 138.2011012248695,96.18138494621962 98.13653164356947,72.26176996156573 75.77491141483188,83.13432907313108 64.59410130232573,110.3156769266352 84.1605190038681,201.6444832580164 108.38560758531094,225.56379947345704 134.474164519459,224.4765590261668 158.69925310462713,189.68480443861336 131.6789619922638,84.2215843545273 89.75092406198382,73.34902638476342 62.730632949620485,114.6646859627217 88.81918988376856,212.51690656505525 129.81549363955855,226.6510398061946 159.6309872791171,189.68480443861336 137.26936705037951,91.83236814383417 93.47786076366901,72.26176996156573 63.66236712411046,105.96666606049985 86.02398735657334,205.99345394968987 125.1568227596581,227.7382800243795 160.56272146105766,191.85929252486676 137.26936705037951,92.91962251625955 92.54612658545375,71.1745134210214 64.59410130232573,111.40292935632169 85.09225317835808,203.81896883342415 131.6789619922638,225.56379947345704 159.6309872791171,191.85929252486676 137.26936705037951,91.83236814383417 100.93173417448997,70.08725676964968 64.59410130232573,108.1411717236042 86.95572152733803,203.81896883342415 130.74722781777382,226.6510398061946 158.69925310462713,188.59756022598594 134.474164519459,90.74511366151273 95.34132911637425,73.34902638476342 65.5258354768157,108.1411717236042 86.02398735657334,201.6444832580164 127.95202528685331,225.56379947345704 158.69925310462713,188.59756022598594 138.2011012248695,94.00687677413225 94.40959494560957,72.26176996156573 64.59410130232573,109.22842438146472 87.8874557055533,205.99345394968987 128.8837594613433,226.6510398061946 158.69925310462713,195.1210237974301 134.474164519459,90.74511366151273 91.61439241468906,73.34902638476342 64.59410130232573,113.57743387389928 86.02398735657334,204.90621144790202 108.38560758531094,225.56379947345704 132.61069616675377,224.4765590261668 158.69925310462713,189.68480443861336 135.40589870139956,89.65785906277597 100.0,71.1745134210214 64.59410130232573,104.87941306084394 87.8874557055533,207.08069633878767 126.08855693787336,226.6510398061946 158.69925310462713,190.7720485366881 137.26936705037951,91.83236814383417 99.06826582178473,72.26176996156573 75.77491141483188,83.13432907313108 65.5258354768157,110.3156769266352 86.95572152733803,205.99345394968987 132.61069616675377,225.56379947345704 157.76751893013716,194.03378015290946 136.33763287588954,91.83236814383417 93.47786076366901,73.34902638476342 63.66236712411046,110.3156769266352 88.81918988376856,209.25518077239394 122.36162022873759,226.6510398061946" stroke="#4DD2FF" stroke-linecap="round" stroke-linejoin="round" stroke-width="0.5"><title>2026-03-20 12.0km</title><desc>1774012772000</desc></polyline></svg>