<?xml version="1.0" encoding="utf-8" ?>
<svg baseProfile="full" height="300mm" version="1.1" viewBox="0,0,200,300" width="200mm" xmlns="http://www.w3.org/2000/svg" xmlns:ev="http://www.w3.org/2001/xml-events" xmlns:xlink="http://www.w3.org/1999/xlink"><defs /><rect fill="#222222" height="300" width="200" x="0" y="0" /><text fill="#FFFFFF" style="font-size:12px; font-family:Arial; font-weight:bold;" x="10" y="20">Over 10km Runs</text><text fill="#FFFFFF" style="font-size:4px; font-family:Arial" x="10" y="280">Runner</text><text fill="#FFFFFF" style="font-size:9px; font-family:Arial" x="10" y="290">absx</text><text fill="#FFFFFF" style="font-size:4px; font-family:Arial" x="65" y="280">SPECIAL TRACKS</text><rect fill="yellow" height="2.6" width="2.6" x="65" y="283" /><text fill="#FFFFFF" style="font-size:3px; font-family:Arial" x="70" y="285.5">Over 10.0 km</text><rect fill="red" height="2.6" width="2.6" x="65" y="287" /><text fill="#FFFFFF" style="font-size:3px; font-family:Arial" x="70" y="289.5">Over 20.0 km</text><text fill="#FFFFFF" style="font-size:4px; font-family:Arial" x="120" y="280">STATISTICS</text><text fill="#FFFFFF" style="font-size:3px; font-family:Arial" x="120" y="285">Number: 25</text><text fill="#FFFFFF" style="font-size:3px; font-family:Arial" x="120" y="290">Weekly: 2.5</text><text fill="#FFFFFF" style="font-size:3px; font-family:Arial" x="141" y="285">Total: 173.8 km</text><text fill="#FFFFFF" style="font-size:3px; font-family:Arial" x="141" y="290">Avg: 7.0 km</text><text fill="#FFFFFF" style="font-size:3px; font-family:Arial" x="167" y="285">Min: 5.2 km</text><text fill="#FFFFFF" style="font-size:3px; font-family:Arial" x="167" y="290">Max: 12.0 km</text><polyline fill="none" points="18.032839129678905,39.900049737188965 22.304479502141476,60.25387452612631 32.09365535713732,64.19999999995343 38.14514588564634,56.51543260808103 33.87350551225245,36.992343390127644 24.97425473574549,32.00769399700221 19.990674301050603,35.33079498738516 17.854854114353657,41.35390130826272 21.77052445523441,58.80003684130497 26.22014984395355,63.36923739674967 31.20373027957976,63.78461874171626 37.25522080808878,56.51543260808103 34.05149052850902,38.65389039716683 30.135820186696947,33.461551367188804 24.97425473574549,32.6307758577168 18.210824145004153,39.69235656806268 21.948509470559657,58.80003684130497 30.84776024799794,63.576928080176 37.25522080808878,56.30774118297268 32.80559541936964,36.16156936320476 24.97425473574549,31.79999999993015 18.210824145004153,39.48466337751597 22.660449532791972,59.838492439477704 32.09365535713732,63.16154669120442 37.25522080808878,55.47697526589036 32.44962538778782,35.953875801875256 24.26231467258185,32.83846976805944 18.032839129678905,41.14620829222258 23.194404580630362,60.66925652616192 31.915670341812074,63.78461874171626 37.43320582341403,56.10004973632749 32.80559541936964,36.36926290241536 24.440299688838422,32.42308192560449 18.210824145004153,40.938515253714286 23.016419565305114,60.66925652616192 25.864179813303053,63.36923739674967 32.80559541936964,63.16154669120442 37.43320582341403,55.269283732166514 32.80559541936964,36.57695641962346 28.533955046907067,33.046163655933924 23.194404580630362,33.046163655933924 18.210824145004153,40.10774288373068 22.838434549048543,60.25387452612631 31.737685326486826,63.36923739674967 37.25522080808878,55.47697526589036 33.16156545095146,37.20003684225958 28.0,33.046163655933924 23.194404580630362,33.253857522737235 18.210824145004153,41.35390130826272 22.482464518398046,59.423110266099684 31.02574526425451,63.78461874171626 37.25522080808878,55.89235826802906 32.983580434694886,36.992343390127644 24.440299688838422,32.83846976805944 18.210824145004153,40.938515253714286 22.482464518398046,59.838492439477704 32.09365535713732,62.95385596365668 37.07723579276353,56.30774118297268 32.80559541936964,36.36926290241536 24.440299688838422,32.83846976805944 19.278734237886965,36.36926290241536 18.3888091603294,41.35390130826272 22.838434549048543,59.630801363498904 31.915670341812074,62.74616521480493 36.89925077650696,54.85390059906058 31.915670341812074,35.7461822188925 23.55037461128086,33.461551367188804 18.210824145004153,41.769287275266834 22.838434549048543,60.25387452612631 31.381715294905007,63.78461874171626 37.43320582341403,56.30774118297268 32.44962538778782,35.538488614489324 23.37238959595561,32.83846976805944 18.210824145004153,41.769287275266834 22.838434549048543,60.25387452612631 32.09365535713732,63.16154669120442 37.43320582341403,56.30774118297268 32.44962538778782,35.953875801875256 23.906344641931355,32.83846976805944 18.210824145004153,41.561594302766025 22.838434549048543,60.46156553691253 27.466044953092933,63.576928080176 33.87350551225245,62.538474443834275 37.611190838739276,54.85390059906058 31.915670341812074,35.538488614489324" stroke="#4DD2FF" stroke-linecap="round" stroke-linejoin="round" stroke-width="0.5"><title>2026-04-15 5.5km</title><desc>1776236774000</desc></polyline><polyline fill="none" points="55.379936426877975,40.90593492076732 58.283536789007485,58.2706271330826 62.63893732987344,63.564710882958025 68.80908809788525,63.98823698353954 74.61628882028162,57.84709983225912 70.07941325567663,36.0353236803785 60.82418710552156,32.64706544682849 53.20223615691066,40.48240397556219 59.190911901183426,59.96473544440232 67.35728791728616,64.19999999995343 74.79776384215802,57.63533614925109 71.16826339159161,37.94121643539984 63.54631244298071,32.22353276750073 57.73911172058433,34.12942912464496 55.1984614059329,38.36474791436922 57.92058674339205,57.00004496600013 65.54253769107163,63.98823698353954 71.71268845908344,62.082368833362125 74.79776384215802,56.36475358181633 70.80531334597617,37.30591905047186 65.72401271387935,32.43529911863152 60.82418710552156,32.43529911863152 55.01698638219386,40.48240397556219 59.190911901183426,59.32944499410223 66.0869627604261,63.98823698353954 72.07563850469887,61.658842333359644 74.79776384215802,55.94122588133905 70.80531334597617,37.30591905047186 63.36483742110431,31.79999999993015 55.92436149530113,36.24708963080775 54.835511359386146,41.541231172392145 59.91681199148297,60.60002569446806 69.71646321099252,63.1411846941337 74.43481379747391,54.45887823065277 69.89793823286891,35.61179171234835 65.72401271387935,32.22353276750073 58.6464868336916,33.91766295116395 54.835511359386146,41.75299654516857 61.36861217301339,62.717658416950144 71.349738413468,62.50589524488896 74.25333877559751,53.40005781315267 69.71646321099252,36.0353236803785 64.27221253328025,32.43529911863152 59.190911901183426,33.28236429928802 54.835511359386146,40.69416945928242 59.91681199148297,60.17649888317101 63.54631244298071,63.35294779995456 70.07941325567663,63.1411846941337 74.43481379747391,55.09417021437548 69.3535131663084,35.61179171234835 60.09828701429069,33.07059803721495 55.01698638219386,41.11770036036614 59.73533696960658,59.96473544440232 68.62761307507753,63.1411846941337 74.25333877559751,55.09417021437548 69.3535131663084,35.400025694747455 64.09073751140386,32.22353276750073 58.827961856499314,33.28236429928802 55.01698638219386,40.48240397556219 60.64271208178252,61.23531574488152 68.80908809788525,63.1411846941337 74.0718637527898,55.7294619983295 69.5349881881848,36.0353236803785 59.91681199148297,32.858831753372215 55.01698638219386,40.90593492076732 59.55386194679886,59.11768146639224 68.44613805320114,63.35294779995456 74.43481379747391,55.51769809285179 68.62761307507753,34.76472750958055 62.45746230799705,32.01176639494952 56.46878656279296,35.400025694747455 55.01698638219386,40.69416945928242 61.36861217301339,61.658842333359644 68.62761307507753,63.35294779995456 74.25333877559751,54.882406242075376 69.5349881881848,36.0353236803785 64.9981126235798,32.64706544682849 59.91681199148297,33.07059803721495 55.1984614059329,40.27063846972305 60.82418710552156,61.023552416823804 69.3535131663084,63.1411846941337 74.25333877559751,54.24711419164669 69.89793823286891,36.67062146484386 59.55386194679886,33.91766295116395 55.561411450617015,41.11770036036614 60.461237059906125,59.75297198363114 68.2646630294621,63.1411846941337 74.43481379747391,54.882406242075376 69.17203814256936,35.400025694747455 59.91681199148297,33.07059803721495 55.379936426877975,40.90593492076732 60.27976203709841,59.96473544440232 69.5349881881848,62.929421566659585 74.25333877559751,54.670642247307114 69.3535131663084,35.61179171234835 59.372386923991144,33.49413053877652 55.561411450617015,40.48240397556219 60.461237059906125,60.17649888317101 65.54253769107163,63.564710882958025 70.26088827848434,62.50589524488896 74.0718637527898,54.882406242075376 68.99056312069297,35.400025694747455 64.4536875570193,32.43529911863152 59.372386923991144,33.49413053877652 55.379936426877975,40.69416945928242 61.00566212646663,61.23531574488152 70.80531334597617,62.50589524488896 74.25333877559751,54.24711419164669 68.80908809788525,34.76472750958055 58.827961856499314,33.70589675579686 54.65403633750975,40.69416945928242 60.64271208178252,61.23531574488152 69.5349881881848,63.1411846941337 74.61628882028162,54.670642247307114 69.17203814256936,35.400025694747455 63.00188737548888,32.43529911863152 57.73911172058433,34.55296140327118 55.379936426877975,40.90593492076732 60.461237059906125,60.38826230017003 69.71646321099252,62.929421566659585 74.43481379747391,54.670642247307114 69.5349881881848,36.67062146484386 61.00566212646663,33.28236429928802 55.561411450617015,40.69416945928242 59.91681199148297,59.11768146639224 68.62761307507753,63.35294779995456 74.61628882028162,55.7294619983295 70.07941325567663,36.88238734914921 61.550087194889784,32.858831753372215 55.379936426877975,40.69416945928242 59.55386194679886,58.694154343917035 68.62761307507753,63.35294779995456 74.25333877559751,56.78828119370155 69.89793823286891,36.45885555900168 61.00566212646663,32.858831753372215 55.379936426877975,41.11770036036614 60.82418710552156,60.81178906641435 65.72401271387935,63.77647394442465 70.44236330129206,62.50589524488896 74.0718637527898,54.03535013075452 69.17203814256936,35.61179171234835 63.90926248766482,32.43529911863152 57.92058674339205,34.976493593421765 55.379936426877975,41.32946577772964 61.18713715020567,61.023552416823804 70.80531334597617,62.29413205035962 74.25333877559751,53.40005781315267 69.5349881881848,36.24708963080775 64.27221253328025,32.858831753372215 58.827961856499314,34.12942912464496 55.561411450617015,41.541231172392145 61.36861217301339,61.23531574488152 69.89793823286891,62.717658416950144 74.0718637527898,54.670642247307114 68.99056312069297,35.61179171234835 63.183362398296595,32.858831753372215 57.55763669870794,35.400025694747455 55.561411450617015,41.11770036036614 61.7315622176975,60.81178906641435 67.35728791728616,62.929421566659585 72.43858854938298,60.38826230017003 74.0718637527898,54.670642247307114 72.07563850469887,49.164770586183295" stroke="yellow" stroke-linecap="round" stroke-linejoin="round" stroke-width="0.5"><title>2026-04-12 10.0km</title><desc>1775998912000</desc></polyline><polyline fill="none" points="92.26778615359217,50.460825109737925 95.78242881130427,60.713949846918695 101.0543927969411,63.78987677535042 108.43514237832278,61.3291356198024 110.89539223909378,53.53676818055101 105.79916038457304,35.08103710971773 100.17573213297874,31.79999999993015 95.07950027938932,33.235454413457774 90.5104648238048,40.82283879292663 96.66108947526664,61.94432119955309 103.16317839175463,64.19999999995343 109.13807091023773,60.91901179298293 109.31380304321647,46.769687031628564 102.98744625877589,32.62025979417376 97.36401800718158,32.005064981174655 92.26778615359217,35.491166361025535 91.9163218876347,48.41019370465074 98.41841080412269,62.9696300678188 104.21757118962705,63.99493839824572 110.0167315742001,58.8683913651621 107.0292853154242,37.746875704149716 98.76987507008016,31.79999999993015 91.03766122274101,38.36206870910246 94.55230388045311,57.43295578530524 101.40585706289858,63.78987677535042 108.43514237832278,61.3291356198024 110.36819584015757,56.612706409418024 106.50208891648799,37.746875704149716 98.41841080412269,32.005064981174655 92.79498255252838,34.875972451874986 90.68619695678353,39.59245413844474 94.55230388045311,57.63801807514392 102.10878559481353,63.37975346460007 107.0292853154242,61.94432119955309 110.19246370717883,56.40764401119668 106.32635678444058,37.33674692630302 99.29707146901637,32.41519487812184 91.21339335571975,38.77219727169722 95.4309645453468,58.8683913651621 103.16317839175463,62.764568336773664 110.0167315742001,55.38233169913292 105.62342825252563,36.51648911286611 98.06694653816521,33.235454413457774 91.56485762167722,40.20764656283427 95.4309645453468,58.25320481741801 104.5690354546532,62.9696300678188 110.0167315742001,55.9975191509584 105.09623185452074,35.901295526186004 97.36401800718158,33.03038956201635 91.56485762167722,39.38738995429594 95.4309645453468,58.66332920384593 104.39330332167447,62.9696300678188 109.84099944215268,56.20258159155492 105.44769611954689,36.51648911286611 97.36401800718158,33.03038956201635 91.56485762167722,41.027902826434 95.60669667739421,58.458267021225765 104.5690354546532,62.5595065850066 109.84099944215268,55.58739420445636 105.79916038457304,37.746875704149716 98.24267867114395,33.03038956201635 91.74058975465596,38.9772615210386 95.25523241143674,57.63801807514392 101.58158919587731,62.9696300678188 109.31380304321647,58.04814259172417 105.9748925184831,37.95194006105885 98.9456072030589,33.03038956201635 91.9163218876347,40.002582442597486 95.60669667739421,57.63801807514392 101.40585706289858,62.9696300678188 109.31380304321647,57.843080344377086 105.44769611954689,37.54181132605299 97.71548227220774,33.03038956201635 91.9163218876347,39.38738995429594 96.13389307633042,59.27851562295109 103.16317839175463,62.9696300678188 109.4895351761952,56.20258159155492 105.79916038457304,38.157004395732656 98.76987507008016,33.03038956201635 89.10460776090622,40.82283879292663 90.5104648238048,35.696230953908525" stroke="#4DD2FF" stroke-linecap="round" stroke-linejoin="round" stroke-width="0.5"><title>2026-04-09 5.2km</title><desc>1775733938000</desc></polyline><polyline fill="none" points="127.65215334296227,39.847107391105965 131.28165188990533,59.96473544463515 136.54442478250712,64.19999999995343 142.17014752980322,63.14118469483219 146.16259593050927,56.78828119393438 140.89982303790748,36.45885555970017 132.00755159929395,33.28236429952085 126.74477870669216,42.176527224481106 132.18902652710676,60.600025695050135 141.6257227472961,62.92942156724166 145.79964607581496,56.5765173996333 140.1739233294502,35.40002569544595 131.82607667148113,33.49413053947501 127.47067841608077,42.38829253078438 132.18902652710676,61.23531574488152 141.0812979657203,63.56471088412218 145.79964607581496,55.94122588227037 140.89982303790748,36.03532368061133 132.55197638180107,33.28236429952085 127.65215334296227,41.96476189605892 132.73345130775124,61.23531574488152 141.8071976741776,63.35294780076947 146.16259593050927,55.51769809308462 141.2627728935331,36.670621466240846 133.64082594495267,32.85883175430354 127.65215334296227,41.11770036118105 131.82607667148113,60.38826230028644 140.53687318321317,63.77647394500673 145.43669622205198,57.42357244400773 140.718348111026,35.82355770794675 133.27787609025836,32.6470654476434 127.28920348919928,41.11770036118105 132.37050145398825,60.81178906769492 140.35539825633168,63.56471088412218 145.61817114893347,57.00004496588372 141.4442478204146,36.45885555970017 133.27787609025836,32.43529911944643 127.47067841608077,40.05887294199783 131.82607667148113,59.54120850050822 140.1739233294502,63.56471088412218 145.43669622205198,56.78828119393438 141.2627728935331,36.45885555970017 133.64082594495267,32.6470654476434 127.47067841608077,40.48240397579502 132.00755159929395,60.1764988838695 140.35539825633168,63.77647394500673 145.98112100362778,56.152989743393846 141.0812979657203,36.03532368061133 132.91492623556405,32.85883175430354 127.47067841608077,40.48240397579502 131.64460174366832,59.96473544463515 140.1739233294502,63.77647394500673 145.79964607581496,56.78828119393438 141.6257227472961,36.45885555970017 133.09640116337687,32.85883175430354 127.47067841608077,41.54123117320705 132.18902652710676,60.600025695050135 141.2627728935331,63.35294780076947 145.98112100362778,56.36475358251482 141.0812979657203,36.03532368061133 132.37050145398825,33.07059803814627 125.83740406949073,43.65888389979955 132.91492623556405,61.65884233394172 141.4442478204146,62.92942156724166 145.79964607581496,56.152989743393846 140.35539825633168,35.40002569544595 132.73345130775124,32.85883175430354 127.47067841608077,40.48240397579502 131.64460174366832,60.1764988838695 140.53687318321317,63.56471088412218 145.79964607581496,56.152989743393846 140.53687318321317,35.61179171281401 133.09640116337687,32.43529911944643 127.28920348919928,40.6941694598645 131.82607667148113,60.1764988838695 136.3629498546943,63.56471088412218 141.6257227472961,62.92942156724166 145.61817114893347,55.729461998678744 139.99244840163738,35.40002569544595 132.37050145398825,33.07059803814627 127.65215334296227,41.96476189605892 132.00755159929395,60.38826230028644 141.4442478204146,63.14118469483219 145.43669622205198,55.51769809308462 140.718348111026,36.03532368061133 130.37427725363523,31.79999999993015 127.28920348919928,41.96476189605892 132.37050145398825,60.81178906769492 141.4442478204146,63.35294780076947 145.61817114893347,55.94122588227037 140.718348111026,36.03532368061133 132.18902652710676,33.07059803814627 127.10772856138647,40.48240397579502 131.64460174366832,59.75297198363114 140.35539825633168,63.56471088412218 145.79964607581496,56.152989743393846 140.89982303790748,36.670621466240846 133.64082594495267,32.223532768315636 127.47067841608077,39.847107391105965 131.64460174366832,59.75297198363114 140.718348111026,63.35294780076947 145.79964607581496,55.51769809308462 141.2627728935331,36.45885555970017 133.82230087183416,32.43529911944643 127.65215334296227,40.05887294199783 132.00755159929395,59.96473544463515 140.89982303790748,63.14118469483219 145.79964607581496,56.152989743393846 141.0812979657203,36.670621466240846 133.45935101807117,32.85883175430354 125.83740406949073,40.905934921931475" stroke="#4DD2FF" stroke-linecap="round" stroke-linejoin="round" stroke-width="0.5"><title>2026-03-31 7.6km</title><desc>1774955750000</desc></polyline><polyline fill="none" points="161.7843312136829,39.13589641160797 166.3246284518391,57.67928874492645 170.69029887393117,63.38491229072679 175.05596929509193,63.58868424978573 182.2156687863171,56.456652945955284 175.75447656214237,34.65285189845599 166.3246284518391,33.02265132730827 162.13358484767377,41.784963303478435 167.54701616987586,61.55096369399689 173.83358157705516,64.19999999995343 180.46940061822534,60.73587487230543 181.86641515325755,55.43778919207398 178.19925199914724,38.32079817913473 172.08731340896338,32.61510096990969 166.84850890282542,32.81887615926098 162.65746529772878,38.728347338270396 165.9753748178482,58.08683383942116 174.5320888441056,63.79245618812274 181.86641515325755,57.47551616537385 177.15149109717458,36.89437544904649 168.76940388884395,31.79999999993015 163.87985301576555,34.65285189845599 162.65746529772878,40.154768720734864 166.3246284518391,58.29060635517817 174.35746202711016,63.58868424978573 179.07238608319312,61.9585079762619 181.69178833533078,56.660425632144324 176.80223746411502,36.69060068728868 168.76940388884395,32.81887615926098 162.65746529772878,39.950994302053005 167.02313571888953,59.513240998610854 175.23059611208737,63.38491229072679 181.86641515325755,57.067970941308886 176.97686428017914,37.09815018926747 169.9917916059494,33.02265132730827 163.1813457487151,39.74721986125223 167.02313571888953,58.90192377346102 175.05596929509193,63.18114031013101 181.1679078862071,57.067970941308886 176.97686428017914,37.50569960498251 169.29328433889896,33.02265132730827 163.00671893171966,40.56231749476865 167.37238935288042,59.309468611492775 176.10373019613326,62.77359628456179 181.3425347013399,55.845334757701494 176.62761064711958,36.89437544904649 168.24552343785763,33.633976701879874 162.83209211565554,40.96986618312076 167.54701616987586,59.513240998610854 176.10373019613326,62.97736830811482 181.51716151926666,56.04910750861745 177.15149109717458,36.89437544904649 169.29328433889896,32.61510096990969 164.40373346675187,35.671726560918614 162.83209211565554,40.76609184942208 167.02313571888953,59.309468611492775 174.88134247809649,63.58868424978573 179.42163971625268,61.75473584595602 181.69178833533078,56.25288023822941 176.62761064711958,36.69060068728868 168.94403070490807,33.02265132730827 162.65746529772878,40.76609184942208 167.1977625368163,59.513240998610854 175.4052229281515,63.58868424978573 181.3425347013399,56.660425632144324 177.32611791417003,37.09815018926747 169.29328433889896,32.81887615926098 163.1813457487151,39.950994302053005 166.84850890282542,58.69815132196527 174.35746202711016,63.38491229072679 181.1679078862071,57.27174356393516 177.15149109717458,37.50569960498251 170.69029887393117,32.81887615926098 165.80074800085276,34.85662687383592 163.00671893171966,39.950994302053005 166.49925526883453,57.88306130282581 174.5320888441056,63.18114031013101 181.3425347013399,56.660425632144324 176.97686428017914,37.09815018926747 170.69029887393117,33.02265132730827 165.62612118478864,35.060401827446185 163.1813457487151,39.950994302053005 166.84850890282542,58.69815132196527 173.83358157705516,63.58868424978573 180.99328106828034,57.67928874492645 176.97686428017914,37.70947428047657 169.46791115496308,33.633976701879874 163.35597256571054,40.154768720734864 166.84850890282542,59.10569620330352 175.57984974607825,63.38491229072679 181.3425347013399,56.25288023822941 176.97686428017914,37.50569960498251 169.64253797288984,33.83775178366341 163.53059938177466,40.154768720734864 167.02313571888953,58.69815132196527 175.9291033791378,63.38491229072679 181.1679078862071,56.04910750861745 177.32611791417003,37.09815018926747 168.94403070490807,32.81887615926098 162.30821166466922,41.784963303478435 166.84850890282542,60.124558031908236 175.9291033791378,63.79245618812274 181.86641515325755,55.64156198571436 177.15149109717458,36.0792762755882 174.18283521104604,32.41132575948723 168.24552343785763,32.41132575948723 162.48283848073334,40.154768720734864 166.3246284518391,58.49437884881627 175.23059611208737,63.79245618812274 181.69178833533078,56.25288023822941 177.50074473116547,36.89437544904649 168.76940388884395,32.81887615926098 162.83209211565554,40.154768720734864 167.02313571888953,59.92078570870217 175.9291033791378,63.38491229072679 181.51716151926666,54.82647068367805 177.50074473116547,37.50569960498251 169.81716478895396,32.81887615926098 163.1813457487151,39.13589641160797 166.84850890282542,58.49437884881627 175.05596929509193,62.77359628456179 179.77089335024357,60.124558031908236 181.1679078862071,55.43778919207398 177.32611791417003,37.30192490760237 168.94403070490807,33.633976701879874 163.00671893171966,40.3585431186948 167.7216429868713,59.513240998610854 176.2783570131287,62.5698242392391 181.3425347013399,55.23401637724601 176.80223746411502,36.48682590504177 167.7216429868713,33.83775178366341 163.1813457487151,41.173640495631844 167.37238935288042,59.309468611492775 175.9291033791378,62.77359628456179 180.81865425221622,55.03024354111403 176.97686428017914,37.913248934666626 173.65895476005971,34.44907690200489 167.7216429868713,34.24530188390054 163.1813457487151,41.173640495631844 167.54701616987586,59.92078570870217 176.62761064711958,63.18114031013101 181.3425347013399,55.03024354111403 177.15149109717458,37.30192490760237 172.61119385901839,33.633976701879874 165.9753748178482,34.04152684472501 162.83209211565554,42.600060081575066 167.89626980386674,60.93964711006265 176.2783570131287,62.97736830811482 180.81865425221622,55.03024354111403 176.2783570131287,37.30192490760237 166.67388208489865,33.633976701879874" stroke="#4DD2FF" stroke-linecap="round" stroke-linejoin="round" stroke-width="0.5"><title>2026-03-29 9.9km</title><desc>1774773831000</desc></polyline><polyline fill="none" points="18.018735472112894,87.24708962929435 22.737151430919766,110.11768146464601 31.44807320088148,115.19999999995343 37.98126452974975,111.38826229830738 39.61456236150116,105.882406239165 32.89989349618554,87.0353236788651 22.737151430919766,83.22353276738431 16.385437639430165,92.3294657743536 25.27783694677055,112.6588423323119 30.90364059060812,114.98823698319029 36.52944423444569,112.87060559319798 39.25160728767514,105.882406239165 32.718415959738195,87.24708962929435 24.55192680004984,83.01176639460027 16.92987025063485,90.21181060303934 23.28158404212445,110.75297198165208 32.89989349618554,114.56471088284161 39.25160728767514,105.67064224497881 32.718415959738195,87.45885555737186 28.362955074757338,83.85883175244089 22.192718819715083,83.85883175244089 16.92987025063485,92.3294657743536 23.463061578571796,110.54120849829633 32.3554608868435,114.56471088284161 37.618309455923736,111.17649888189044 39.25160728767514,105.67064224497881 32.173983349464834,86.82355770573486 21.82976374682039,84.0705980368657 16.92987025063485,91.2706384670455 23.28158404212445,110.75297198165208 30.722163054160774,115.19999999995343 36.347966697998345,113.08236883231439 39.43308482412249,107.36475357948802 32.718415959738195,87.67062146367971 24.914881873875856,83.22353276738431 17.292825325392187,89.36474791227374 22.737151430919766,109.48239074787125 29.451820296235383,114.77647394454107 34.53319132886827,113.71765841648448 38.70717467740178,108.84709983028006 35.44057901389897,94.23535352875479 27.45556738972664,83.64706544659566 21.466808672994375,84.28236429882236 17.292825325392187,89.36474791227374 22.737151430919766,109.05886349186767 26.911134779453278,113.71765841648448 35.44057901389897,113.29413204954471 38.88865221384913,103.76476529310457 31.811028274707496,86.40002569346689 26.72965724300593,83.43529911828227 20.92237606178969,84.70589675521478 16.92987025063485,93.3882925270591 25.640792021527886,112.87060559319798 35.07762393914163,113.50589524384122 39.07012975029647,104.82358604390174 31.62955073826015,86.18825965363067 21.466808672994375,84.28236429882236 16.92987025063485,93.60005781054497 24.370449262671173,111.38826229830738 33.988758717663586,113.71765841648448 38.70717467740178,104.82358604390174 31.44807320088148,86.18825965363067 21.82976374682039,84.49413053807802 17.111347788013518,93.1765272206394 24.914881873875856,112.02355241565965 35.07762393914163,113.29413204954471 38.88865221384913,105.03535012714565 32.3554608868435,87.24708962929435 26.18522463273257,83.64706544659566 20.19646591413766,85.12942912313156 21.466808672994375,82.79999999993015 17.65578039828688,92.54123116948176 24.55192680004984,110.75297198165208 29.814775369130075,113.92942156619392 35.2591014765203,112.6588423323119 38.162742065265775,103.9765294874087 30.540685516782105,85.55296140257269 25.459314484149218,83.85883175244089 18.018735472112894,85.97649359225761 18.20021300856024,94.870649046381 25.640792021527886,112.02355241565965 34.53319132886827,113.08236883231439 38.70717467740178,105.882406239165 31.992505812086165,87.88238734740298 23.10010650474578,84.49413053807802 17.65578039828688,92.54123116948176 24.55192680004984,110.54120849829633 33.80728118121624,113.08236883231439 37.98126452974975,105.03535012714565 31.811028274707496,88.09415320889093 23.28158404212445,84.91766295046546 18.20021300856024,91.90593491797335 24.73340433742851,110.11768146464601 29.270342758856714,113.50589524384122 34.170236255042255,112.87060559319798 37.98126452974975,105.45887822762597 31.992505812086165,87.45885555737186 22.37419635709375,84.49413053807802 17.65578039828688,92.75299654249102 25.27783694677055,112.02355241565965 33.988758717663586,113.50589524384122 38.34421960264444,104.61182193853892 31.08511812798679,86.61179171036929 26.18522463273257,84.0705980368657 19.107600692659616,85.97649359225761" stroke="#4DD2FF" stroke-linecap="round" stroke-linejoin="round" stroke-width="0.5"><title>2026-03-26 6.5km</title><desc>1774530092000</desc></polyline><polyline fill="none" points="54.254428694956005,86.44770777202211 57.38036665972322,109.40666021755897 65.65490833390504,114.98543215286918 71.17126944940537,112.83975244080648 74.29720741510391,107.26097465050407 69.33248241059482,86.66227861423977 60.506304626353085,82.79999999981374 53.702792583964765,89.88083855179138 57.7481240676716,109.62122865044512 67.86145277973264,114.5562963904813 74.11332871112972,106.61726854089648 68.96472500264645,86.2331369065214 60.69018332939595,83.01457122527063 53.88667128607631,90.95369073888287 58.29976017866284,110.05036544846371 67.12593796476722,114.98543215286918 73.37781389523298,108.119249147363 69.33248241059482,87.09142023161985 65.28715092688799,83.44371360889636 59.770789810456336,83.01457122527063 53.88667128607631,91.16826110822149 58.48363888356835,110.69407047703862 67.67757407575846,114.34172847517766 73.74557130318135,106.18813102249987 68.96472500264645,86.01856601890177 59.58691110648215,83.44371360889636 54.254428694956005,89.88083855179138 59.035274994559586,112.41061622812413 67.67757407575846,114.34172847517766 73.56169260013849,106.40269979299046 68.78084629960358,86.44770777202211 60.322425921447575,83.01457122527063 54.07054999098182,90.30997949466109 58.29976017866284,110.47950215730816 62.5289703682065,114.34172847517766 68.04533148370683,114.12716053822078 73.56169260013849,106.61726854089648 68.78084629960358,86.44770777202211 59.95466851443052,82.79999999981374 53.702792583964765,91.59740178030916 61.057940737344325,115.19999999995343 68.5969675956294,114.5562963904813 73.92945000715554,105.32985571422614 68.4130888916552,85.37485322006978 59.770789810456336,83.01457122527063 53.702792583964765,91.16826110822149 58.11588147561997,110.2649338140618 67.12593796476722,114.12716053822078 73.56169260013849,106.18813102249987 68.5969675956294,86.2331369065214 59.95466851443052,83.01457122527063 53.88667128607631,90.95369073888287 58.48363888356835,110.69407047703862 62.712849071249366,114.12716053822078 68.5969675956294,113.6980245958548 73.56169260013849,107.47554330900311 68.5969675956294,86.2331369065214 59.58691110648215,83.22914242837578 53.88667128607631,91.81197208282538 57.932002771645784,110.05036544846371 67.30981666781008,114.34172847517766 73.74557130318135,105.97356222919188 69.51636111456901,87.73513249005191 65.10327222198248,83.22914242837578 59.58691110648215,83.22914242837578 53.88667128607631,91.81197208282538 58.29976017866284,110.47950215730816 62.896727776154876,114.12716053822078 68.4130888916552,113.91259257798083 73.56169260013849,105.75899341329932 68.78084629960358,86.44770777202211 59.21915369853377,83.22914242837578 53.88667128607631,91.59740178030916 58.48363888356835,110.2649338140618 68.22921018768102,113.91259257798083 73.56169260013849,105.32985571422614 68.4130888916552,85.8039951082319 59.21915369853377,83.22914242837578 53.88667128607631,91.81197208282538 61.4256981452927,115.19999999995343 69.33248241059482,114.5562963904813" stroke="#4DD2FF" stroke-linecap="round" stroke-linejoin="round" stroke-width="0.5"><title>2026-03-25 5.4km</title><desc>1774445603000</desc></polyline><polyline fill="none" points="84.6153642386198,87.55701112703537 83.84291390748695,88.2581315342104 84.186225165613,90.36148657245212 87.19019867572933,92.3646732243069 88.7780132452026,92.31459366047056 89.59337748354301,91.51331992525957 90.36582781467587,89.66036925686058 89.89377483446151,88.05781152297277 88.6921854307875,86.90596982630086 86.07443708647043,86.40516822072095 84.05748344375752,87.75733134857728 84.6153642386198,90.71204484388 85.94569536438212,91.96403656687471 88.30596026498824,92.3646732243069 89.85086092725396,90.71204484388 90.10834437119775,88.55861139326589 89.50754966889508,87.6571712483128 88.30596026498824,86.75572939979611 85.85986754973419,86.35508803135599 84.14331125863828,88.05781152297277 84.14331125863828,89.86068859518855 85.04450331139378,91.11268255277537 86.41774834459648,92.11427535294206 88.39178807963617,92.21443451728555 89.89377483446151,90.26132701907773 89.50754966889508,87.60709119038074 85.9886092718225,86.35508803135599 83.88582781492732,88.35829150822246 83.80000000004657,89.51012969817384 85.00158940418623,91.06260285747703 88.1772185433656,92.21443451728555 89.37880794727243,91.41316061356338 89.97960264934227,89.7605289366038 89.0784105961211,87.25653063712525 85.43072847696021,86.45524840502185 83.97165562934242,88.2581315342104 84.22913907305337,90.11108764956589 85.34490066254511,91.46324027207447 88.04847682127729,92.26451409154106 89.93668874190189,90.26132701907773 89.25006622518413,87.35669082144159 85.77403973531909,86.35508803135599 84.1003973511979,87.90757145945099 84.70119205326773,90.81220430260873 87.96264900662936,92.3646732243069 89.85086092725396,90.46164610492997 89.85086092725396,88.45845146127976 89.0784105961211,87.25653063712525 86.03152317903005,86.30500783675234 84.1003973511979,88.35829150822246 84.9157615895383,91.06260285747703 88.09139072848484,92.46483233608888 89.85086092725396,90.36148657245212 89.25006622518413,87.50693105859682 85.90278145717457,86.40516822072095 84.22913907305337,88.3082115239522 84.65827814582735,90.71204484388 86.24609271530062,91.96403656687471 88.22013245034032,92.31459366047056 89.89377483446151,90.46164610492997 89.63629139098339,87.90757145945099 88.56344370893203,86.90596982630086 86.24609271530062,86.40516822072095 84.22913907305337,87.6571712483128 84.57245033141226,90.61188536399277 87.74807947035879,92.3646732243069 89.12132450356148,91.76371811196441 89.89377483446151,90.21124723454705 89.25006622518413,87.50693105859682 86.16026490088552,86.35508803135599 84.48662251676433,87.20645053702174 84.14331125863828,90.06100784911541 87.19019867572933,92.26451409154106 89.42172185424715,91.262921606889 89.97960264934227,89.7605289366038 89.55046357610263,87.90757145945099 88.60635761613958,86.90596982630086 86.54649006645195,86.30500783675234 84.4007947021164,87.60709119038074 84.48662251676433,90.46164610492997 87.19019867572933,92.26451409154106 88.73509933799505,92.0141161675565 89.59337748354301,90.91236374038272 89.93668874190189,89.10949064325541 89.16423841076903,87.45685098483227 86.11735099367797,86.40516822072095 84.14331125863828,87.70725130100618 84.44370860932395,90.46164610492997 86.03152317903005,91.86387735005701 87.79099337779917,92.31459366047056 89.55046357610263,90.96244345130981 89.93668874190189,88.75893119419925 89.03549668891355,87.25653063712525 87.27602649037726,86.45524840502185 90.10834437119775,87.80741139085148 93.06940397364087,86.75572939979611 99.63523178803734,104.63400791405002 101.82384105981328,106.83744684123667 105.04238410620019,104.48377307123155 112.08026490057819,101.42898766999133 112.93854304635897,101.62930206605233 115.85668874159455,109.09095339878695 116.20000000018626,111.69499216324766" stroke="#4DD2FF" stroke-linecap="round" stroke-linejoin="round" stroke-width="0.5"><title>2026-03-24 6.2km</title><desc>1774357706000</desc></polyline><polyline fill="none" points="127.07532372884452,90.16368235193659 130.1403640639037,111.20262572378851 138.97489209007472,114.98961207922548 144.74437978118658,107.20524347608443 140.59756050258875,88.48055734252557 132.84481141902506,84.0623474670574 126.53443425800651,90.79485386610031 131.40243949741125,110.5714606360998 139.15518858097494,113.72728408896364 146.5473446836695,108.6779641789617 141.13844997435808,87.00782179913949 132.48421843815595,83.22078257682733 125.45265531539917,89.95329180336557 129.41917810309678,108.88835276279133 134.8280728124082,114.7792241362622 140.77785699348897,115.19999999995343 144.20349031034857,111.83379061345477 142.58082189690322,94.1610985858133 135.36896228417754,84.2727386347251 130.3206605548039,84.48312977969181 126.53443425800651,88.48055734252557 129.77977108303457,108.88835276279133 136.81133420579135,114.7792241362622 142.400525406003,112.67534349008929 144.74437978118658,107.41563221416436 140.77785699348897,89.11172938602977 132.84481141902506,83.64156506618019 126.1738412771374,89.74290123197716 130.3206605548039,109.51951838075183 138.6142991092056,114.56883617094718 144.74437978118658,108.46757557382807 140.41726401261985,88.05977586912923 132.48421843815595,83.4311738323886 125.8132482971996,90.37407287862152 130.5009570447728,109.72990687575657 139.15518858097494,114.1480601739604 144.74437978118658,107.62602093035821 140.59756050258875,88.27016661665402 131.22214300651103,83.85195627808571 126.1738412771374,91.005244327127 130.1403640639037,109.51951838075183 139.87637454271317,114.56883617094718 144.74437978118658,106.57407712948043 139.87637454271317,87.42860349325929 131.58273598644882,84.0623474670574 125.99354478623718,91.63641557609662 130.68125353567302,110.15068379975855 139.51578156184405,114.1480601739604 144.74437978118658,107.83640962454956 139.87637454271317,87.21821265737526 132.30392194818705,83.64156506618019 125.99354478623718,91.42602518200874 130.68125353567302,110.15068379975855 140.41726401261985,114.1480601739604 144.92467627022415,107.20524347608443 140.05667103268206,87.84938509901986 132.30392194818705,84.48312977969181 126.3541377671063,91.21563476521987 131.40243949741125,110.9922373831505 140.23696752265096,114.1480601739604 144.56408329028636,107.62602093035821 139.69607805181295,87.21821265737526 132.12362545728683,83.64156506618019 126.3541377671063,91.42602518200874 131.22214300651103,110.5714606360998 140.05667103268206,113.72728408896364 144.74437978118658,107.62602093035821 139.51578156184405,87.00782179913949 131.58273598644882,84.0623474670574 126.1738412771374,92.05719629838131 130.3206605548039,109.30912986386102 139.15518858097494,113.72728408896364 144.56408329028636,106.99485471576918 140.41726401261985,88.27016661665402 131.58273598644882,84.0623474670574 126.3541377671063,91.21563476521987 131.22214300651103,110.78184902085923 140.41726401261985,113.93767214240506 144.74437978118658,106.78446593368426 140.23696752265096,87.63899430679157 132.48421843815595,84.0623474670574 126.3541377671063,90.58446338353679 131.40243949741125,110.78184902085923 140.23696752265096,113.93767214240506 144.56408329028636,106.36368830339052 139.51578156184405,87.00782179913949 132.12362545728683,84.2727386347251 126.53443425800651,91.21563476521987 131.40243949741125,110.36107222910505 138.7945955991745,113.93767214240506 144.38378680031747,107.20524347608443 140.77785699348897,87.42860349325929 133.9265903616324,82.80000000004657 125.99354478623718,88.48055734252557 130.5009570447728,108.88835276279133 133.7462938707322,113.30650791572407 141.31874646432698,113.30650791572407 144.38378680031747,108.25718694552779 140.41726401261985,88.48055734252557 132.48421843815595,84.0623474670574 127.25562021974474,88.90133872698061 130.5009570447728,108.88835276279133 136.27044473495334,113.93767214240506 140.59756050258875,113.51689601363614 144.38378680031747,108.25718694552779 141.4990429552272,91.005244327127 135.00836930330843,83.4311738323886 127.07532372884452,88.48055734252557 130.3206605548039,107.62602093035821 135.36896228417754,113.72728408896364 146.5473446836695,108.46757557382807 141.4990429552272,94.1610985858133" stroke="#4DD2FF" stroke-linecap="round" stroke-linejoin="round" stroke-width="0.5"><title>2026-03-22 7.4km</title><desc>1774161813000</desc></polyline><polyline fill="none" points="159.88745570834726,91.2805858713109 164.54612659011036,94.3248902799096 168.83210380095989,111.28593294974416 176.6586708817631,115.19999999995343 181.87638226896524,112.37317453883588 183.73985062167048,106.50206317915581 179.64022024534643,86.93157181260176 170.8819189891219,83.45235399226658 164.73247342463583,90.41078378958628 168.6457569655031,110.19869078975171 177.21771138813347,114.765104026068 183.73985062167048,107.58930727886036 179.64022024534643,88.01882618316449 171.81365316547453,83.45235399226658 164.54612659011036,90.84568487619981 168.83210380095989,111.28593294974416 179.26752657536417,114.11275989469141 183.73985062167048,106.50206317915581 179.26752657536417,86.71412087022327 171.25461265910417,83.0174513538368 164.35977975465357,90.1933332120534 168.6457569655031,109.54634522064589 174.79520252905786,114.98255202407017 180.94464809261262,113.02551921806298 183.92619745619595,107.80675603053533 179.82656708080322,88.67117853136733 171.25461265910417,83.45235399226658 164.91882026102394,90.1933332120534 169.20479747187346,109.54634522064589 177.96309872809798,114.33020796114579 183.5535037862137,107.80675603053533 179.08117973990738,87.58392450329848 171.81365316547453,83.66980527690612 164.91882026102394,90.84568487619981 169.20479747187346,110.19869078975171 176.09963037632406,114.33020796114579 183.73985062167048,107.15440970729105 179.26752657536417,87.80137535464019 170.8819189891219,83.88725653942674 165.1051670955494,91.06313538528048 169.9501848127693,111.06848456384614 178.52213923353702,113.8953118051868 183.5535037862137,107.15440970729105 179.82656708080322,88.01882618316449 171.25461265910417,83.66980527690612 164.91882026102394,89.97588261216879 169.57749114185572,110.19869078975171 177.21771138813347,114.33020796114579 183.5535037862137,106.71951204515062 179.45387341082096,87.80137535464019 171.06826582364738,83.66980527690612 165.1051670955494,91.2805858713109 169.57749114185572,110.19869078975171 176.6586708817631,114.33020796114579 183.5535037862137,106.71951204515062 179.45387341082096,87.80137535464019 171.81365316547453,83.45235399226658 164.91882026102394,89.75843198923394 169.3911443054676,110.19869078975171 176.4723240463063,114.11275989469141 181.69003543350846,111.72082965401933 183.5535037862137,107.15440970729105 179.26752657536417,88.01882618316449 171.06826582364738,83.66980527690612 164.73247342463583,91.2805858713109 169.20479747187346,110.6335877222009 177.21771138813347,114.765104026068 183.92619745619595,107.15440970729105 179.82656708080322,87.58392450329848 170.8819189891219,83.66980527690612 164.73247342463583,91.2805858713109 169.01845063548535,110.6335877222009 177.7767518926412,113.8953118051868 183.73985062167048,106.71951204515062 179.45387341082096,87.58392450329848 170.8819189891219,83.66980527690612 164.73247342463583,90.6282343447674 169.57749114185572,110.41613926761784 177.7767518926412,114.11275989469141 183.5535037862137,106.50206317915581 179.08117973990738,87.14902273216285 170.8819189891219,83.66980527690612 165.1051670955494,90.6282343447674 169.3911443054676,110.19869078975171 175.3542430344969,114.54765600478277 180.94464809261262,112.59062278829515 183.5535037862137,107.80675603053533 180.1992607517168,90.1933332120534 172.55904050637037,83.23490268411115 168.6457569655031,84.10470777843148 165.47786076646298,90.1933332120534 169.3911443054676,110.19869078975171 176.28597721084952,114.33020796114579 183.73985062167048,108.02420475939289 179.82656708080322,88.67117853136733 177.03136455174536,84.97451250744052 168.6457569655031,82.80000000004657 164.73247342463583,86.06176790501922 168.6457569655031,109.76379376649857 174.98154936451465,114.33020796114579 181.50368859805167,112.59062278829515 183.92619745619595,107.80675603053533 179.82656708080322,88.01882618316449 171.44095949456096,83.23490268411115 164.91882026102394,89.75843198923394 169.01845063548535,109.76379376649857 175.3542430344969,114.54765600478277 180.94464809261262,113.02551921806298 183.92619745619595,107.80675603053533 180.01291391626,88.67117853136733 176.6586708817631,84.10470777843148 171.44095949456096,83.0174513538368 164.73247342463583,90.6282343447674 169.20479747187346,110.41613926761784 177.59040505811572,114.765104026068 183.73985062167048,107.15440970729105 179.45387341082096,87.14902273216285 175.7269367063418,83.66980527690612 169.9501848127693,84.10470777843148 164.91882026102394,92.15038758749142 169.20479747187346,110.19869078975171 178.33579239901155,114.11275989469141 183.92619745619595,107.58930727886036 179.64022024534643,88.23627698910423 171.62730632908642,83.45235399226658 167.15498228371143,85.62686581443995 164.91882026102394,91.06313538528048 168.83210380095989,109.32889665151015 173.67712151724845,114.11275989469141 178.8948329044506,113.8953118051868 183.73985062167048,106.93696088762954 178.33579239901155,85.84431687067263 169.9501848127693,83.66980527690612 164.54612659011036,91.93293719249777 169.7638379773125,111.50338131305762 177.96309872809798,114.33020796114579 183.92619745619595,106.93696088762954 179.45387341082096,87.3664736286737 170.69557215366513,83.45235399226658 164.73247342463583,90.1933332120534 169.20479747187346,110.19869078975171 177.03136455174536,114.54765600478277 184.11254429258406,107.37185850483365 179.45387341082096,87.58392450329848 170.50922531727701,83.23490268411115 164.91882026102394,91.2805858713109 169.01845063548535,109.76379376649857 178.33579239901155,114.11275989469141 183.92619745619595,107.37185850483365 179.45387341082096,87.3664736286737 172.1863468354568,83.0174513538368 164.91882026102394,90.6282343447674 169.3911443054676,109.76379376649857 178.14944556355476,114.33020796114579 183.73985062167048,106.71951204515062 178.8948329044506,87.14902273216285 171.06826582364738,83.66980527690612 165.1051670955494,90.6282343447674 169.20479747187346,109.32889665151015 177.59040505811572,114.11275989469141 183.73985062167048,106.71951204515062 179.64022024534643,87.80137535464019 170.8819189891219,83.45235399226658 164.91882026102394,90.84568487619981 169.57749114185572,110.19869078975171 177.7767518926412,114.33020796114579 183.73985062167048,108.02420475939289 178.8948329044506,87.14902273216285 170.32287848368287,83.66980527690612 164.91882026102394,91.71548677468672 169.20479747187346,109.98124228953384 173.67712151724845,114.11275989469141 178.52213923353702,113.8953118051868 183.73985062167048,106.93696088762954 179.08117973990738,86.93157181260176 172.0,83.23490268411115 164.91882026102394,89.97588261216879 169.57749114185572,110.41613926761784 177.21771138813347,114.33020796114579 183.73985062167048,107.15440970729105 179.45387341082096,87.3664736286737 171.81365316547453,83.45235399226658 167.15498228371143,85.62686581443995 165.1051670955494,91.06313538528048 169.3911443054676,110.19869078975171 178.52213923353702,114.11275989469141 183.5535037862137,107.80675603053533 179.26752657536417,87.3664736286737 170.69557215366513,83.66980527690612 164.73247342463583,91.06313538528048 169.7638379773125,110.85103615443222 176.4723240463063,114.33020796114579" stroke="yellow" stroke-linecap="round" stroke-linejoin="round" stroke-width="0.5"><title>2026-03-20 12.0km</title><desc>1774012772000</desc></polyline><polyline fill="none" points="18.346369061619043,146.88880354422145 22.39170012064278,162.76691173994914 27.540303288027644,166.19999999995343 34.159935931675136,165.3417284754105 38.38914567697793,156.32985571445897 33.976057248190045,138.3059910070151 25.33375907316804,133.79999999981374 17.610854323022068,141.09540903451853 21.472306697629392,160.1920917625539 31.033998294733465,165.7708642827347 37.83750962279737,159.33381771529093 33.608299878425896,138.52056176005863 26.069273812696338,133.79999999981374 18.162490376271307,140.88083855248988 22.575578805990517,161.05036544869654 29.562968818470836,165.3417284754105 34.7115719858557,163.62518434552476 37.46975225396454,158.69011194445193 33.79217856284231,139.80798580287956 25.33375907316804,134.2291424286086 18.346369061619043,141.30997949442826 22.575578805990517,160.83579706051387 30.666240925900638,165.55629639001563 37.46975225396454,158.69011194445193 33.42442119400948,139.16427388321608 25.70151644293219,133.79999999981374 18.346369061619043,140.45169751998037 22.39170012064278,160.6212286502123 31.40175566356629,165.12716053775512 37.28587356954813,158.69011194445193 33.056663825176656,138.52056176005863 25.149880388751626,134.2291424286086 18.530247745104134,140.45169751998037 22.575578805990517,160.6212286502123 31.217876979149878,165.12716053775512 37.28587356954813,158.47554330853745 32.505027770996094,138.3059910070151 25.33375907316804,134.44371360936202 18.346369061619043,140.45169751998037 22.39170012064278,160.1920917625539 30.666240925900638,165.12716053775512 37.28587356954813,157.83183726645075 33.056663825176656,139.16427388321608 25.149880388751626,134.2291424286086 18.530247745104134,141.73912034695968 22.759457489475608,160.4066602177918 31.033998294733465,165.3417284754105 37.28587356954813,158.47554330853745 33.42442119400948,140.02255639783107 25.517637758515775,134.44371360936202 18.71412643045187,141.09540903451853 22.943336174823344,160.83579706051387 30.666240925900638,164.91259257798083 37.28587356954813,158.26097465027124 33.056663825176656,139.16427388321608 25.517637758515775,134.44371360936202 18.346369061619043,141.5245499322191 22.943336174823344,160.83579706051387 30.666240925900638,165.3417284754105 37.28587356954813,158.904680557549 33.24054250959307,139.80798580287956 26.43703118059784,134.65828476729803 21.84006406739354,135.9457112425007 18.530247745104134,141.5245499322191 22.943336174823344,160.6212286502123 30.114604871720076,165.3417284754105 35.447086724452674,162.98147992556915 37.28587356954813,158.26097465027124 33.42442119400948,139.59341518534347 26.069273812696338,134.44371360936202 18.71412643045187,140.66626804787666 23.127214858308434,161.05036544869654 31.217876979149878,165.12716053775512 37.28587356954813,159.33381771529093 33.79217856284231,140.23712697066367 25.517637758515775,134.65828476729803 18.346369061619043,141.09540903451853 23.31109354365617,161.26493381382897 31.033998294733465,165.12716053775512 37.46975225396454,158.47554330853745 33.608299878425896,139.59341518534347 24.59824433643371,134.65828476729803 18.530247745104134,140.88083855248988 22.39170012064278,159.9775232844986 28.459696711041033,164.4834565911442" stroke="#4DD2FF" stroke-linecap="round" stroke-linejoin="round" stroke-width="0.5"><title>2026-03-19 5.5km</title><desc>1773929179000</desc></polyline><polyline fill="none" points="53.657751727849245,145.7597905441653 57.94372848980129,161.85103615443222 64.65221385471523,165.54765600548126 70.24261832609773,164.67786369263195 74.34224827121943,156.63226748886518 68.75184380076826,136.40941473469138 59.62084983102977,134.4523539915681 54.21679217554629,143.15038758702576 59.06180938426405,162.72082965401933 61.670664803124964,165.98255202476867 69.31088424753398,165.98255202476867 74.52859508711845,158.37185850460082 69.31088424753398,137.27921891584992 60.179890277795494,134.4523539915681 54.4031389914453,142.9329371920321 58.87546256836504,162.28593295044266 62.60239888262004,165.76510402630083 69.68357787840068,165.54765600548126 74.34224827121943,157.50206317938864 69.8699246942997,138.14902273193002 65.39760111737996,134.01745135290548 60.36623709462583,133.80000000004657 53.47140491288155,143.15038758702576 59.06180938426405,162.93827797216363 67.63376290630549,166.19999999995343 74.15590145625174,158.1544097077567 69.49723106343299,138.14902273193002 61.11162435635924,134.23490268411115 54.58948580827564,142.2805858713109 59.06180938426405,161.85103615443222 63.7204797770828,165.76510402630083 69.12453743256629,165.76510402630083 74.15590145625174,158.80675603053533 69.49723106343299,138.80137535417452 60.73893072549254,134.23490268411115 54.58948580827564,142.06313538504764 59.06180938426405,161.85103615443222 68.56549698486924,165.98255202476867 74.34224827121943,158.1544097077567 69.8699246942997,139.01882618293166 61.11162435635924,134.4523539915681 54.58948580827564,142.06313538504764 59.06180938426405,161.85103615443222 67.26106927543879,166.19999999995343 73.96955464035273,159.45910214842297 69.68357787840068,139.01882618293166 60.55258390959352,134.4523539915681 54.58948580827564,142.2805858713109 59.06180938426405,161.19869079021737 62.78874569758773,165.33020796184428 68.56549698486924,165.76510402630083 73.96955464035273,157.9369608880952 69.31088424753398,138.14902273193002 60.55258390959352,134.4523539915681 54.58948580827564,142.06313538504764 59.62084983102977,162.28593295044266 69.12453743256629,165.54765600548126 73.96955464035273,158.1544097077567 69.49723106343299,138.58392450259998 60.36623709462583,134.6698052766733 54.77583262231201,142.71548677468672 59.9935434628278,162.93827797216363 69.12453743256629,165.54765600548126 74.15590145625174,158.1544097077567 68.93819061573595,137.49666990432888 59.9935434628278,134.4523539915681 54.77583262231201,141.62823434406891 59.62084983102977,162.28593295044266 68.37915016897023,165.54765600548126 73.96955464035273,159.0242047593929 69.49723106343299,138.58392450259998 60.73893072549254,134.6698052766733 54.77583262231201,142.4980363342911 59.9935434628278,162.72082965401933 69.68357787840068,165.11275989515707 74.15590145625174,157.9369608880952 68.56549698486924,137.27921891584992 60.73893072549254,134.88725653872825 54.77583262231201,142.2805858713109 59.43450301513076,161.85103615443222 68.0064565371722,165.54765600548126 73.96955464035273,158.1544097077567 69.12453743256629,137.93157181260176 61.29797117225826,134.88725653872825 54.77583262231201,141.41078378935345 59.62084983102977,161.41613926761784 68.19280335307121,165.33020796184428 73.78320782445371,158.58930727932602 69.49723106343299,138.80137535417452 61.670664803124964,134.88725653872825 55.14852625411004,141.1933332120534 59.62084983102977,161.41613926761784 67.44741609040648,165.98255202476867 73.78320782445371,157.9369608880952 68.93819061573595,137.93157181260176 61.670664803124964,134.6698052766733 54.962179439142346,141.41078378935345 59.9935434628278,162.06848456384614 64.46586703974754,165.54765600548126 68.56549698486924,164.24296739930287" stroke="#4DD2FF" stroke-linecap="round" stroke-linejoin="round" stroke-width="0.5"><title>2026-03-18 6.4km</title><desc>1773842529000</desc></polyline><polyline fill="none" points="94.8614782942459,133.79999999993015 89.09191006235778,142.63641557330266 96.12357134465128,162.6234023378929 105.31882071401924,165.77922413614579 110.90808993857354,156.9429105812451 103.87642865628004,140.11172938439995 97.20536538865417,140.11172938439995 94.14028226491064,137.1662581448909 89.81310609169304,144.10914771514945 96.66446836665273,162.41301404091064 105.49911972135305,165.14806017337833 110.3671929165721,157.99485471344087 103.6961296480149,139.9013387253508 94.68117928691208,136.9558671762934 89.81310609169304,144.31953793286812 96.66446836665273,163.2545670948457 105.31882071401924,165.98961207899265 110.72779093123972,158.83640962222125 104.7779236920178,140.7429012301145 100.81134553346783,136.9558671762934 95.04177730157971,136.53508517355658 89.2722090696916,143.4779769302113 95.94327233731747,161.9922373817535 104.23702667001635,166.19999999995343 110.72779093123972,160.51951837877277 104.05672766361386,139.4805573405465 95.76297332998365,135.90391200291924 89.2722090696916,142.84680594597012 96.48416935931891,163.04417886480223 106.4006147570908,165.56883617048152 111.08838894590735,157.57407712657005 103.87642865628004,139.05977586726658 94.32058127131313,136.1143030814128 89.09191006235778,144.31953793286812 96.48416935931891,162.8337906121742 104.95822269935161,165.77922413614579 110.54749192390591,157.36368830036372 103.51583064161241,138.8493850971572 93.77968425024301,136.1143030814128 88.91161105502397,143.68836721382104 95.58267432264984,162.20262572262436 105.1385217057541,165.56883617048152 110.54749192390591,157.36368830036372 102.79463461227715,138.00782179809175 94.14028226491064,136.32469413871877 89.09191006235778,144.31953793286812 96.48416935931891,163.04417886480223 106.0400167433545,165.56883617048152 110.54749192390591,157.99485471344087 103.6961296480149,138.8493850971572 94.68117928691208,136.1143030814128 89.09191006235778,144.52992812823504 96.3038703519851,163.04417886480223 106.22031575068831,165.56883617048152 110.72779093123972,157.99485471344087 103.87642865628004,139.27016661514062 94.8614782942459,136.1143030814128 89.09191006235778,143.26758662390057 95.94327233731747,161.9922373817535 104.41732567828149,165.98961207899265 108.9248008588329,163.04417886480223 110.3671929165721,157.78446593147237 103.51583064161241,139.27016661514062 94.50088027957827,136.53508517355658 89.45250807702541,145.1610985827865 96.48416935931891,163.04417886480223 105.49911972135305,165.77922413614579 110.3671929165721,157.36368830036372 103.51583064161241,139.05977586726658 93.4190862365067,136.53508517355658 89.09191006235778,144.95070845377631 97.92656141798943,165.14806017337833 106.94151177909225,164.93767214170657 110.3671929165721,156.9429105812451 102.97493362054229,138.21821265586186 97.20536538865417,135.69352090219036 92.51759119983763,137.1662581448909 88.91161105502397,144.52992812823504 97.38566439505666,164.51689601293765 107.30210979375988,165.14806017337833 110.1868939101696,156.5221327736508 102.43403659854084,137.79743091808632 92.51759119983763,137.79743091808632 92.51759119983763,143.05719629570376" stroke="#4DD2FF" stroke-linecap="round" stroke-linejoin="round" stroke-width="0.5"><title>2026-03-17 5.6km</title><desc>1773751527000</desc></polyline><polyline fill="none" points="126.90422833152115,140.5034887320362 124.98932903259993,143.63177625043318 131.88296650722623,161.50761674228124 141.45746300090104,165.52966016810387 147.2021608967334,157.03867069049738 140.11703349091113,137.82209577248432 130.73402692843229,134.24689990538172 125.37230889312923,143.40832729404792 133.03190608602017,162.84829872869886 141.07448314037174,166.19999999995343 147.2021608967334,157.70901319687255 139.73405363224447,136.92829736857675 130.54253699909896,133.80000000004657 124.98932903259993,143.18487831461243 132.6489262273535,162.62485178909265 142.79789250995964,165.52966016810387 147.2021608967334,158.60280287545174 138.96809391211718,136.70484770881012 130.73402692843229,134.47034982335754 125.18081896286458,141.84418394579552 132.6489262273535,162.17795784049667 141.45746300090104,165.52966016810387 146.62769110593945,156.36832797387615 139.15958384238183,137.15174700459465 130.15955713856965,134.69379971781746 125.37230889312923,142.9614293121267 133.22339601721615,163.07174564432353 143.5638522291556,165.30621351045556 147.01067096646875,155.69798504631035 140.11703349091113,137.37519661756232 129.96806720923632,134.24689990538172 125.18081896286458,142.7379802854266 132.6489262273535,162.62485178909265 142.79789250995964,165.30621351045556 147.01067096646875,157.03867069049738 138.96809391211718,136.48139802599326 131.1170067889616,134.24689990538172 124.98932903259993,141.84418394579552 132.26594636775553,161.95451083080843 141.45746300090104,165.52966016810387 147.2021608967334,157.03867069049738 139.3510737726465,136.70484770881012 130.15955713856965,134.47034982335754 124.60634917393327,142.51453123567626 132.45743629802018,162.40140482690185 140.69150328077376,165.9765534128528 147.39365082606673,157.48556571803056 140.30852342117578,137.5986462070141 130.92551685869694,134.47034982335754 124.98932903259993,142.29108216287568 132.07445643749088,161.73106379830278 141.64895292930305,165.52966016810387 147.2021608967334,156.5917755693663 139.73405363224447,136.70484770881012 130.15955713856965,134.69379971781746 124.60634917393327,142.7379802854266 133.41488594654948,163.51863940479234 142.41491264943033,165.30621351045556 147.2021608967334,155.69798504631035 140.11703349091113,136.70484770881012 130.73402692843229,134.24689990538172 124.98932903259993,142.51453123567626 132.45743629802018,162.84829872869886 141.8404428595677,165.52966016810387 147.39365082606673,157.93246065150015 140.30852342117578,137.37519661756232 130.73402692843229,134.24689990538172 125.75528875272721,137.82209577248432 124.60634917393327,143.40832729404792 133.22339601721615,163.2951925357338 141.45746300090104,165.75310680177063 147.39365082606673,157.03867069049738 140.30852342117578,137.15174700459465 130.3510470688343,134.69379971781746 124.98932903259993,142.9614293121267 132.6489262273535,162.84829872869886 142.03193279076368,165.52966016810387 147.39365082606673,157.93246065150015 139.73405363224447,136.92829736857675 130.15955713856965,134.47034982335754 124.60634917393327,142.9614293121267 132.45743629802018,162.84829872869886 142.606402579695,165.52966016810387 147.39365082606673,156.36832797387615 139.5425637010485,136.48139802599326 129.77657727897167,134.917249588063 124.98932903259993,143.85522518283688 132.84041615761817,162.62485178909265 142.41491264943033,165.30621351045556 147.39365082606673,156.36832797387615 140.30852342117578,137.5986462070141 130.3510470688343,135.58759905933402 125.75528875272721,143.63177625043318 132.6489262273535,162.17795784049667 142.03193279076368,164.8593201241456 147.01067096646875,157.26211821613833 139.9255435615778,137.82209577248432 129.96806720923632,135.58759905933402 125.56379882246256,143.63177625043318 133.41488594654948,163.07174564432353 142.606402579695,164.8593201241456 146.8191810362041,155.4745373565238 139.5425637010485,137.15174700459465 129.77657727897167,135.36414925917052 125.56379882246256,144.07867409172468 133.03190608602017,162.40140482690185 141.8404428595677,165.30621351045556 146.62769110593945,156.81522314203903 140.8829932110384,139.83314080908895 137.81915433332324,137.82209577248432" stroke="#4DD2FF" stroke-linecap="round" stroke-linejoin="round" stroke-width="0.5"><title>2026-03-16 7.4km</title><desc>1773655562000</desc></polyline><polyline fill="none" points="161.79473193641752,138.94970319792628 165.47230601403862,159.5483862606343 173.9307263912633,165.34172847517766 181.46975324954838,158.69011194445193 177.6083004679531,138.30599100724794 168.96600138675421,133.79999999981374 162.16248934343457,141.3099794946611 165.84006342105567,160.83579706097953 173.37909027934074,166.19999999995343 179.26320880278945,163.62518434599042 182.02138936053962,158.26097465050407 178.3438152829185,139.1642738825176 173.56296898424625,134.01457122527063 167.67885045986623,133.79999999981374 161.97861064132303,141.95369073888287 167.127214348875,163.19604808813892 174.1146050952375,166.19999999995343 180.55035972967744,162.98147992580198 182.2052680645138,157.40269979299046 178.15993657987565,140.02255639783107 171.54030324146152,133.79999999981374 162.89800416026264,138.7351324900519 166.02394212502986,159.33381771552376 174.48236250318587,165.5562963904813 181.46975324954838,159.5483862606343 177.4244217639789,138.52056176005863 168.59824397880584,134.22914242837578 162.34636804834008,140.88083855179138 166.7594569409266,160.62122865044512 175.2178773181513,165.34172847517766 181.65363195259124,158.47554330900311 177.4244217639789,138.7351324900519 169.3337587947026,133.79999999981374 162.53024675231427,140.66626804717816 166.39169953297824,159.33381771552376 174.1146050952375,165.34172847517766 181.46975324954838,158.90468055708334 177.97605787590146,139.59341518511064 173.56296898424625,134.44371360889636 167.31109305191785,134.44371360889636 162.71412545535713,139.37884454499 166.20782082900405,158.90468055708334 173.37909027934074,165.34172847517766 178.52769398782402,163.83975244080648 181.65363195259124,158.47554330900311 177.4244217639789,138.30599100724794 171.17254583351314,133.79999999981374 165.28842731006444,135.51656917412765 162.53024675231427,141.0954090342857 166.7594569409266,160.40666021755897 174.85011991020292,165.12716053822078 181.46975324954838,159.76295478409156 177.4244217639789,138.30599100724794 169.88539490569383,134.01457122527063 162.53024675231427,140.66626804717816 166.39169953297824,159.76295478409156 174.66624120622873,164.91259257798083 181.2858745455742,158.26097465050407 177.05666435696185,138.30599100724794 169.1498800907284,134.22914242837578 162.53024675231427,141.0954090342857 167.127214348875,161.0503654484637 175.40175602212548,164.91259257798083 181.65363195259124,157.40269979299046 177.79217917192727,138.94970319792628 170.4370310176164,133.79999999981374 164.73679119814187,136.16028224257752 162.34636804834008,140.66626804717816 166.7594569409266,160.40666021755897 175.0339986141771,165.12716053822078 181.65363195259124,158.26097465050407 177.2405430600047,138.09142023161985 170.06927360966802,134.01457122527063 164.3690337901935,136.58942417497747 162.34636804834008,141.73912034672685 166.02394212502986,159.33381771552376 174.1146050952375,165.12716053822078 181.46975324954838,159.5483862606343 177.6083004679531,138.52056176005863 169.3337587947026,133.79999999981374 165.10454860609025,135.0874270151835 162.34636804834008,141.52454993175343 166.7594569409266,160.40666021755897 174.85011991020292,164.91259257798083 181.65363195259124,157.8318372669164 177.4244217639789,138.09142023161985 170.06927360966802,133.79999999981374 162.53024675231427,140.02255639783107 166.20782082900405,159.5483862606343 174.29848379828036,165.12716053822078 181.65363195259124,158.47554330900311 177.6083004679531,138.7351324900519 172.45969676040113,134.01457122527063 166.39169953297824,134.87285590241663 162.71412545535713,140.02255639783107 166.94333564396948,155.25701107247733" stroke="#4DD2FF" stroke-linecap="round" stroke-linejoin="round" stroke-width="0.5"><title>2026-03-13 6.0km</title><desc>1773408957000</desc></polyline><polyline fill="none" points="19.456595957279205,185.93287533777766 17.126576671376824,194.9958566329442 25.8641489893198,215.38742542918772 35.766730949282646,215.84056921419688 39.45592815056443,207.00424824096262 31.30086065363139,186.83917517960072 22.174951787106693,185.02657511550933 16.54407185036689,193.4098376526963 25.66998071502894,215.38742542918772 36.15506749693304,215.61399733368307 39.45592815056443,206.55110260029323 31.49502892792225,187.5188998109661 21.98078351467848,185.47972527425736 17.320744945667684,194.76928256382234 26.05831726361066,215.16085350047797 34.795889580622315,215.84056921419688 38.873423328623176,206.77767543238588 31.30086065363139,187.5188998109661 25.281644168309867,185.02657511550933 18.874091134406626,187.29232495720498 16.54407185036689,193.8629860514775 24.504971073009074,213.80142143112607 32.46587029565126,216.52028471441008 39.067591602914035,208.59025723254308 31.689197200350463,188.42519898712635 23.72829797770828,185.25315020699054 17.126576671376824,192.73011487652548 23.72829797770828,212.66856071865186 33.43671166431159,216.0671410714276 38.873423328623176,208.81682985066436 31.30086065363139,187.74547464028 23.534129704348743,185.25315020699054 17.126576671376824,193.4098376526963 23.922466251067817,212.66856071865186 33.048375117592514,216.29371290514246 39.067591602914035,208.59025723254308 31.49502892792225,187.74547464028 21.78661524038762,185.70630031777546 17.320744945667684,194.54270847165026 24.504971073009074,213.12170507456176 34.21338475961238,216.0671410714276 38.873423328623176,207.91053923568688 30.912524105980992,187.29232495720498 23.72829797770828,185.02657511550933 17.320744945667684,193.1832634175662 24.116634525358677,212.44198850542307 28.194168273359537,216.0671410714276 34.40755303297192,216.0671410714276 38.873423328623176,207.23082102509215 31.689197200350463,188.42519898712635 22.563288335688412,185.47972527425736 17.51491321902722,194.54270847165026 25.281644168309867,214.25456554908305 32.66003856994212,216.52028471441008 38.873423328623176,208.36368459067307 31.49502892792225,188.19862422905862 22.563288335688412,185.70630031777546 17.320744945667684,193.63641186407767 24.89330762065947,213.3482772174757 33.048375117592514,216.52028471441008 38.873423328623176,208.13711192552 32.07753374800086,189.33149778214283 24.310802799649537,185.25315020699054 17.70908149331808,192.73011487652548 24.116634525358677,212.8951329085976 33.82504821103066,216.0671410714276 38.67925505526364,207.68396652280353 31.49502892792225,188.42519898712635 22.369120061397552,185.70630031777546 17.51491321902722,194.31613435572945 25.281644168309867,214.02799350209534 35.18422612827271,215.38742542918772 38.873423328623176,207.68396652280353 31.49502892792225,187.74547464028 26.05831726361066,184.80000000004657 20.42743732407689,186.61260025505908 17.51491321902722,193.8629860514775 25.087475894019008,213.80142143112607 33.63087993860245,216.0671410714276 38.873423328623176,208.36368459067307 30.912524105980992,187.29232495720498 25.281644168309867,185.02657511550933 20.039100777357817,187.06575008039363 17.51491321902722,192.73011487652548 24.504971073009074,217.19999999995343 34.601721306331456,215.84056921419688 38.873423328623176,208.36368459067307 30.718355831690133,186.83917517960072 21.398278693668544,186.1594503337983 17.126576671376824,193.8629860514775 25.087475894019008,214.02799350209534 34.601721306331456,215.84056921419688 39.261759877204895,207.68396652280353 30.912524105980992,187.06575008039363 21.009942146018147,185.93287533777766 17.126576671376824,194.08956021536142 25.475812441669405,214.25456554908305 34.795889580622315,215.84056921419688 39.067591602914035,207.00424824096262 31.30086065363139,187.5188998109661 21.98078351467848,185.93287533777766 17.126576671376824,194.76928256382234 24.310802799649537,212.8951329085976 33.43671166431159,216.29371290514246 39.067591602914035,208.13711192552 31.689197200350463,188.65177372144535 22.369120061397552,185.70630031777546 17.320744945667684,194.31613435572945 24.310802799649537,216.74685650062747" stroke="#4DD2FF" stroke-linecap="round" stroke-linejoin="round" stroke-width="0.5"><title>2026-03-12 7.1km</title><desc>1773318933000</desc></polyline><polyline fill="none" points="60.19336970336735,189.50326505163684 54.96858302038163,197.69039834593423 60.34264932293445,213.54196715832222 67.06023219972849,217.19999999995343 73.0314169805497,209.88392625492997 67.5080710593611,193.6839339074213 60.93976780027151,190.72262788924854 55.117862639948726,198.03878610092215 60.93976780027151,213.71615938155446 68.40374877490103,216.32904053095262 73.0314169805497,209.01296294678468 66.7616729605943,192.8129620978143 59.745530844666064,191.24521168810315 56.31209959555417,194.03232250339352 55.26714225951582,198.90975516824983 60.64120856113732,213.71615938155446 67.06023219972849,216.85161626699846 71.98645964358002,213.36777491739485 73.0314169805497,209.7097336301813 67.65735067799687,194.20651677425485 60.790488180704415,191.07101710676216 55.26714225951582,198.03878610092215 60.49192894157022,213.36777491739485 68.25446915626526,216.32904053095262 72.8821373609826,209.1871556447586 67.20951181929559,194.55490526068024 59.44697160460055,192.29037879256066 55.86426073778421,199.6065300933551 61.2383270394057,213.71615938155446 67.95590991713107,216.15484858199488 72.43429850228131,209.88392625492997 67.20951181929559,194.55490526068024 60.64120856113732,191.94198983092792 55.86426073778421,197.69039834593423 61.3876066589728,213.71615938155446 68.55302839539945,215.9806566152256 72.7328577414155,209.88392625492997 66.91095258109272,194.20651677425485 60.64120856113732,191.7677953223465 55.86426073778421,197.69039834593423 61.08904742076993,213.54196715832222 68.25446915626526,215.80646462971345 72.43429850228131,209.5355409863405 67.35879143886268,195.07748785277363 60.34264932293445,192.29037879256066 56.0135403573513,198.56136759603396 61.68616589810699,214.06454377260525 68.70230801496655,215.45808060455602 72.28501888271421,209.5355409863405 66.7616729605943,194.38071102683898 60.34264932293445,192.29037879256066 55.86426073778421,198.90975516824983 60.93976780027151,212.84519808448385 67.20951181929559,215.9806566152256 72.43429850228131,210.0581188617507 66.7616729605943,194.20651677425485 60.19336970336735,192.29037879256066 56.0135403573513,198.21297995082568 61.536886278539896,213.36777491739485 68.25446915626526,215.6322726260405 72.28501888271421,209.7097336301813 66.46311372239143,194.38071102683898 60.044090083800256,192.29037879256066 55.86426073778421,198.90975516824983 61.68616589810699,213.89035158604383 67.95590991713107,215.80646462971345 72.28501888271421,209.5355409863405 66.61239334195852,194.20651677425485 60.19336970336735,192.4645732458448 56.0135403573513,198.38717378256842 61.3876066589728,213.71615938155446 68.85158763453364,215.45808060455602 72.13573926407844,209.01296294678468 66.61239334195852,194.03232250339352 60.64120856113732,192.11618432111572 56.75993845425546,194.90329367376398 56.0135403573513,198.73556139110588 61.2383270394057,213.19358265784103 67.5080710593611,215.80646462971345 72.13573926407844,209.88392625492997 66.61239334195852,194.20651677425485 59.44697160460055,192.4645732458448 56.0135403573513,198.90975516824983 61.68616589810699,213.89035158604383 67.5080710593611,215.9806566152256 72.43429850228131,210.929081621347 67.06023219972849,194.7290994762443 60.64120856113732,192.11618432111572 55.86426073778421,198.03878610092215 61.08904742076993,213.19358265784103 68.40374877490103,215.6322726260405 72.28501888271421,209.88392625492997 67.06023219972849,194.90329367376398 61.3876066589728,192.11618432111572 55.86426073778421,197.69039834593423 61.08904742076993,213.0193903807085 67.06023219972849,215.9806566152256 70.94150230754167,213.89035158604383 72.13573926407844,209.88392625492997 67.06023219972849,194.90329367376398 59.745530844666064,192.4645732458448 55.86426073778421,198.90975516824983 61.2383270394057,213.54196715832222 68.85158763453364,215.6322726260405 72.28501888271421,209.5355409863405 67.35879143886268,195.60007028083783 61.3876066589728,191.41940625139978 59.745530844666064,184.79999999993015" stroke="#4DD2FF" stroke-linecap="round" stroke-linejoin="round" stroke-width="0.5"><title>2026-03-10 7.0km</title><desc>1773146401000</desc></polyline><polyline fill="none" points="106.38893162319437,189.28454627777683 107.68593277968466,192.3115937251132 107.30163614056073,192.98426860535983 93.6110683765728,197.97324752027635 93.56303129694425,199.48674876301084 96.30114484974183,204.811996815959 92.60228969948366,206.77391692338279 93.03462341846898,208.6797752691782 91.35332562262192,209.85691967315506 90.87295482400805,211.48249577532988 92.98658633837476,216.5273556211032 94.47573581454344,217.20000000001164 96.06095945020206,216.63946307630977 96.68544148863293,214.6215252802358 94.66788413398899,209.52059296547668 92.0738818210084,209.3524295320385 91.16117730317637,211.31433295964962 92.89051217865199,216.13497934205225 94.1394762552809,216.97578530112514 95.48451449186541,216.75157050811686 96.49329316895455,214.6775792107801 94.6198470541276,209.68875634577125 92.3140672200825,209.3524295320385 91.16117730317637,211.42644150927663 92.98658633837476,216.30314063985134 95.34040325228125,216.9197316117352 96.58936732914299,214.7896870544064 94.71592121361755,209.96902852883795 92.36210429971106,209.4084840157302 91.16117730317637,211.53855003538774 93.03462341846898,216.3591943939682 95.5325515717268,216.80762421508553 96.58936732914299,214.90179487451678 94.66788413398899,209.85691967315506 92.3140672200825,209.4084840157302 91.20921438303776,211.65065853792476 93.03462341846898,216.4152481420897 95.19629201269709,216.9197316117352 96.54133024904877,214.7896870544064 94.71592121361755,209.912974103936 92.36210429971106,209.4084840157302 91.11314022331499,211.3703872373444 93.51499421685003,216.75157050811686 95.38844033214264,216.86367791634984 96.54133024904877,215.51838746410795 94.1394762552809,209.4084840157302 91.88173350133002,209.68875634577125 91.25725146313198,211.81882124755066 93.17873465782031,216.5273556211032 95.77273697126657,216.58340935170418 96.49329316895455,214.5654713436379 94.42769873468205,209.63270189159084 92.21799306035973,209.52059296547668 91.20921438303776,211.65065853792476 93.13069757795893,216.4152481420897 94.6198470541276,217.03183898475254 95.82077405112796,216.58340935170418 96.54133024904877,214.7896870544064 94.33162457472645,209.57664743153146 92.65032677934505,209.184266045806 91.49743686220609,210.1932461692486 91.88173350133002,213.33228325186064 93.56303129694425,216.695516795211 95.58058865158819,216.695516795211 96.49329316895455,215.51838746410795 94.18751333537512,209.52059296547668 92.0738818210084,209.57664743153146 91.20921438303776,211.53855003538774 92.98658633837476,216.24708687979728 95.5325515717268,216.75157050811686 96.49329316895455,214.50941740127746 94.47573581454344,209.7448107940727 92.89051217865199,209.184266045806 91.78565934160724,209.85691967315506 91.25725146313198,211.2022243865067 91.68958518188447,212.88385051250225 93.65910545666702,216.80762421508553 95.48451449186541,216.80762421508553 96.49329316895455,215.46233362186467 94.18751333537512,209.52059296547668 92.21799306035973,209.46453849348472 91.20921438303776,211.42644150927663 92.93854925851338,216.13497934205225 95.43647741200402,216.75157050811686 96.49329316895455,214.90179487451678 94.37966165458784,209.63270189159084 92.89051217865199,209.24032054713462 91.78565934160724,209.80086523661157 91.4493997823447,212.21120069769677 93.08266049809754,216.24708687979728 94.47573581454344,216.97578530112514 95.91684821085073,216.4152481420897 96.49329316895455,214.7896870544064 94.28358749486506,209.57664743153146 92.3140672200825,209.46453849348472 91.25725146313198,210.80984419514425 92.79443801869638,215.68654895591317 94.6198470541276,216.97578530112514 96.49329316895455,215.35022591945017 94.95610661339015,210.41746371565387 92.93854925851338,209.29637504252605 91.64154810202308,209.96902852883795 91.20921438303776,211.2022243865067 92.8424750987906,215.96681799157523 94.81199537357315,216.97578530112514 96.49329316895455,215.35022591945017 94.90806953329593,210.3614093379001 92.98658633837476,209.24032054713462 91.20921438303776,211.09011578990612 92.69836385920644,215.68654895591317 94.66788413398899,216.97578530112514 96.445256089326,215.63049513130682 94.37966165458784,209.68875634577125 92.12191890063696,209.57664743153146 91.20921438303776,211.42644150927663 93.08266049809754,216.30314063985134 95.5325515717268,216.695516795211 96.445256089326,214.7896870544064 94.52377289440483,209.85691967315506 92.55425261962228,209.3524295320385 91.25725146313198,211.31433295964962 93.13069757795893,216.30314063985134 95.19629201269709,216.86367791634984 96.49329316895455,214.73363313544542 94.71592121361755,210.08113736077212 92.4581784598995,209.4084840157302 91.20921438303776,211.53855003538774 93.51499421685003,216.75157050811686 95.24432909232564,216.86367791634984 96.49329316895455,215.4062797734514 94.86003245343454,210.30535495415097 93.17873465782031,209.57664743153146 92.36210429971106,207.11024536093464 95.29236617218703,205.09227155824192 95.48451449186541,204.1393368341378 94.04340209555812,201.16841177950846 93.70714253652841,198.19747019716306 106.96537658176385,193.04032480722526 108.35845189820975,195.50679185974877 106.00463498430327,199.4306932379841 108.26237773825414,195.45073591679102 105.66837542504072,187.0422778466018 106.43696870305575,185.9211401003413 109.12704517599195,185.75296923535643 108.0221923389472,184.79999999998836 109.07900809613056,185.0242282084073" stroke="#4DD2FF" stroke-linecap="round" stroke-linejoin="round" stroke-width="0.5"><title>2026-03-09 9.6km</title><desc>1773060645000</desc></polyline><polyline fill="none" points="127.41061745584011,188.76261529931799 132.00493835192174,214.63598844688386 141.19358014222234,216.500724415062 145.38839487265795,207.87630743533373 140.5943208951503,187.83023586543277 131.006172940135,185.2661904017441 126.4118520449847,192.49212912260555 131.40567910391837,213.93671205523424 140.5943208951503,216.73381630145013 145.58814795408398,209.04177114670165 140.79407397657633,188.29642563103698 132.00493835192174,184.79999999981374 126.4118520449847,192.025940237334 131.40567910391837,213.7036198754795 140.39456781186163,216.73381630145013 145.58814795408398,208.80867845308967 140.993827059865,188.76261529931799 131.60543218720704,185.03309521311894 126.4118520449847,191.79284575744532 131.006172940135,213.00434318953194 139.7953085647896,216.96690816315822 145.58814795408398,209.50795645988546 140.79407397657633,188.52952047693543 132.60419759899378,184.79999999981374 126.4118520449847,192.25903469207697 131.20592602249235,213.4705276710447 139.99506164714694,216.96690816315822 145.58814795408398,209.97414167551324 140.993827059865,188.76261529931799 131.60543218720704,185.03309521311894 126.4118520449847,192.25903469207697 131.40567910391837,213.93671205523424 139.7953085647896,216.96690816315822 145.58814795408398,209.7410490794573 140.79407397657633,188.29642563103698 132.00493835192174,184.79999999981374 126.4118520449847,191.5597512535751 130.80641985684633,212.77125091222115 139.99506164714694,216.96690816315822 145.58814795408398,209.04177114670165 140.993827059865,188.52952047693543 131.20592602249235,185.2661904017441 126.4118520449847,192.025940237334 131.006172940135,213.23743544286117 139.99506164714694,216.96690816315822 145.58814795408398,209.04177114670165 140.993827059865,188.52952047693543 131.80518526863307,185.03309521311894 126.4118520449847,192.025940237334 131.60543218720704,213.93671205523424 140.1948147295043,216.96690816315822 145.58814795408398,209.2748638158664 140.79407397657633,188.29642563103698 131.006172940135,185.2661904017441 126.4118520449847,192.25903469207697 131.006172940135,213.23743544286117 139.59555548243225,216.96690816315822 145.58814795408398,208.80867845308967 140.5943208951503,187.83023586543277 130.80641985684633,185.2661904017441 126.4118520449847,192.9583179098554 132.20469143427908,214.63598844688386 140.79407397657633,216.73381630145013 145.58814795408398,209.2748638158664 140.5943208951503,188.06333076045848 131.006172940135,185.2661904017441 126.4118520449847,192.025940237334 131.006172940135,213.00434318953194 139.59555548243225,216.96690816315822 145.58814795408398,209.7410490794573 140.993827059865,188.76261529931799 132.4044445157051,184.79999999981374 126.4118520449847,191.79284575744532 131.006172940135,213.23743544286117 139.7953085647896,216.96690816315822 145.58814795408398,209.7410490794573 141.19358014222234,188.76261529931799 132.20469143427908,184.79999999981374 126.4118520449847,192.025940237334 130.80641985684633,212.53815861069597 138.79654315300286,217.19999999995343 145.58814795408398,209.97414167551324 141.19358014222234,188.9957100970205 132.4044445157051,184.79999999981374 126.4118520449847,191.5597512535751 131.20592602249235,213.4705276710447 139.99506164714694,216.96690816315822 145.58814795408398,209.04177114670165" stroke="#4DD2FF" stroke-linecap="round" stroke-linejoin="round" stroke-width="0.5"><title>2026-03-07 5.8km</title><desc>1772888148000</desc></polyline><polyline fill="none" points="160.71459757722914,192.95230769435875 166.62599884718657,212.60132242098916 175.7618008069694,216.363877593074 181.49406870268285,208.8387601407012 176.47833429370075,188.9806747813709 168.2381991930306,185.6361356585985 161.78939780872315,191.9071419063257 166.26773210335523,211.9742292012088 175.04526731930673,216.363877593074 181.31493533123285,209.0477915648371 176.47833429370075,189.60777524195146 168.05906582064927,185.8451695179101 161.96853118017316,192.95230769435875 166.0885987309739,211.9742292012088 173.79133371729404,216.78193884005304 180.95666858833283,209.8839170426363 176.83660103660077,190.44390888139606 167.34253233391792,186.05420335603412 162.1476645525545,192.7432745808037 166.26773210335523,211.34713578422088 172.17913337145,216.363877593074 177.55313452426344,215.1096933259396 180.7775352159515,210.30197965027764 176.47833429370075,190.0258421053877 170.74606639705598,186.05420335603412 160.17719746287912,189.1897082903888 165.0137985004112,210.30197965027764 172.17913337145,216.363877593074 178.26966801192611,214.90066253766418 181.13580195885152,209.8839170426363 177.55313452426344,190.86197556974366 168.2381991930306,185.8451695179101 162.1476645525545,192.53424144536257 166.44686547480524,212.183260296355 174.32873383257538,216.5729082277976 181.31493533123285,209.0477915648371 176.83660103660077,189.81680868461262 168.41733256354928,185.8451695179101 162.1476645525545,193.57940690440591 166.62599884718657,213.01938445842825 175.7618008069694,216.5729082277976 181.31493533123285,209.25682296673767 177.0157344089821,189.81680868461262 169.13386605121195,185.8451695179101 163.75986489839852,188.9806747813709 162.1476645525545,193.78843993041664 166.80513221770525,212.60132242098916 175.40353406313807,216.15484693692997 180.95666858833283,210.5110109206289 176.65746766515076,190.0258421053877 167.87993244826794,186.05420335603412 161.96853118017316,194.2065059163142 166.62599884718657,213.01938445842825 169.8503995379433,216.15484693692997 177.0157344089821,215.94581625889987 182.38973556272686,209.0477915648371 177.73226789571345,190.0258421053877 174.32873383257538,185.42710177705158 170.20866628177464,185.2180678730365 162.3267979240045,190.86197556974366 165.9094653595239,212.183260296355 174.86613394785672,216.78193884005304 181.49406870268285,208.42069722583983 177.37400115281343,190.86197556974366 168.5964659359306,186.26323717168998 162.3267979240045,193.16134078626055 166.44686547480524,212.60132242098916 174.5078672049567,216.78193884005304 181.13580195885152,209.25682296673767 176.83660103660077,190.44390888139606 168.95473267883062,186.05420335603412 162.1476645525545,192.32520828733686 166.62599884718657,212.60132242098916 174.32873383257538,216.78193884005304 180.95666858833283,209.4658543477999 176.29920092225075,188.56260769814253 167.87993244826794,186.05420335603412 162.1476645525545,192.32520828733686 166.62599884718657,212.81035345059354 174.5078672049567,216.5729082277976 181.13580195885152,209.67488570592832 177.1948677804321,190.44390888139606 169.6712661664933,185.42710177705158 162.1476645525545,191.9071419063257 166.44686547480524,211.76519808440935 172.89566685911268,217.19999999995343 180.95666858833283,211.34713578422088 177.55313452426344,191.2800421701977 170.38779965322465,184.79999999993015 162.86419803928584,189.81680868461262 165.19293187186122,209.67488570592832 169.31299942266196,216.15484693692997 176.65746766515076,215.94581625889987 183.82280253618956,207.79360268975142" stroke="#4DD2FF" stroke-linecap="round" stroke-linejoin="round" stroke-width="0.5"><title>2026-03-03 6.2km</title><desc>1772541737000</desc></polyline><polyline fill="none" points="20.384278247132897,255.42521392402705 21.336243465542793,262.64575655257795 24.826782601885498,266.90401142602786 31.17321739718318,267.45943521731533 35.774382621981204,262.8308982824674 33.077147834934294,245.05720358609688 27.04803477972746,239.502887264709 21.65356520563364,240.98403999372385 18.639008678495884,245.7977777743945 21.812226075679064,263.01603999279905 24.19213912356645,266.533728802111 30.062591307796538,267.8297176475171 35.774382621981204,261.53490576450713 31.966521745547652,243.76119800831657 25.620086952112615,239.502887264709 20.384278247132897,242.28004761144985 18.639008678495884,246.35320821101777 22.28820868488401,263.7566066409927 25.778747821226716,267.27429397276137 31.014556526206434,267.27429397276137 35.45706088282168,260.6091962392675 31.80786087550223,244.31662908708677 24.033478253521025,239.87317556305788 18.797669548541307,247.09378185519017 24.19213912356645,266.90401142602786 31.80786087550223,267.27429397276137 36.09170436207205,261.53490576450713 32.125182615593076,243.94634172087535 25.620086952112615,239.502887264709 20.860260856337845,241.90975981787778 18.639008678495884,247.09378185519017 22.446869554929435,263.94174825481605 25.302765212021768,268.19999999995343 29.427947828546166,267.6445764423115 35.45706088282168,260.79433818359394 31.80786087550223,243.76119800831657 24.19213912356645,239.68803142372053 18.48034780845046,246.16806475131307 22.28820868488401,263.7566066409927 28.475982609204948,267.6445764423115 35.298400012776256,261.1646220127586 31.490539136342704,243.3909105261555 24.509460862725973,240.0583196837688 18.639008678495884,246.90863847348373 22.764191295020282,264.12688984838314 30.379913046956062,267.27429397276137 35.45706088282168,260.9794801075477 31.490539136342704,243.57605427701492 24.19213912356645,239.68803142372053 18.797669548541307,246.16806475131307 22.28820868488401,263.01603999279905 29.74526956770569,267.08915270946454 35.298400012776256,261.1646220127586 31.649200006388128,243.57605427701492 24.19213912356645,240.0583196837688 18.797669548541307,247.27892521745525 22.60553042497486,263.5714650079608 29.903930437751114,267.45943521731533 35.298400012776256,259.86862826999277 31.33187826629728,243.3909105261555 23.7161565143615,239.87317556305788 18.797669548541307,246.7234950721031 22.764191295020282,263.94174825481605 30.379913046956062,267.27429397276137 35.298400012776256,260.6091962392675 31.649200006388128,243.94634172087535 23.8748173834756,240.24346378445625 18.639008678495884,246.16806475131307 22.922852164134383,264.497172978241 30.062591307796538,267.27429397276137 35.298400012776256,260.9794801075477 31.490539136342704,243.76119800831657 23.7161565143615,240.7988959706854 19.590973897837102,244.31662908708677 18.95633041765541,248.38978498394135 22.60553042497486,265.05259752692655 31.014556526206434,268.0148588332813 36.09170436207205,260.79433818359394 31.966521745547652,243.02062296576332 24.509460862725973,239.502887264709 18.32168693933636,246.35320821101777 22.28820868488401,264.12688984838314 25.937408692203462,267.27429397276137 31.33187826629728,267.08915270946454 35.45706088282168,259.3132020889316 30.855895657092333,242.0949037245009 22.12954781483859,240.24346378445625 18.48034780845046,247.64921188401058 24.826782601885498,267.8297176475171 32.75982609577477,267.27429397276137 37.67831306066364,257.6469224966131 31.649200006388128,242.4651914787246 20.06695650704205,235.79999999993015" stroke="#4DD2FF" stroke-linecap="round" stroke-linejoin="round" stroke-width="0.5"><title>2026-03-02 6.1km</title><desc>1772458755000</desc></polyline><polyline fill="none" points="57.56526946113445,256.86891872016713 57.50059880246408,259.2844452492427 56.59520958084613,259.51090044510784 52.650299401488155,258.98250487737823 49.7401197606232,257.0198893661145 47.800000000046566,244.8666508421884 48.25269461073913,242.22461526159896 74.25029940134846,240.11097980081104 76.51377245527692,241.1677983085392 77.48383233556524,245.01762401050655 77.16047904221341,251.20749659260036 80.19999999995343,256.71794804232195 79.29461077856831,260.86963012052 74.76766467094421,263.81353560177376 67.58922155713663,263.36062785127433 61.89820359298028,259.8128405949683 54.39640718558803,259.51090044510784 50.71017964067869,258.0011977919494 49.48143712594174,255.81212330964627 47.800000000046566,243.35691741440678 49.28742514969781,241.54523311316734 76.06107784458436,240.6393892489723 77.48383233556524,244.64019103033934 76.96646706596948,251.20749659260036 80.00598802417517,258.15216820006026 78.51856287429109,261.6999636571272 75.02634730539285,263.73805099655874 67.20119760511443,263.28514319838723 61.962874251417816,259.9638106225175 57.82395209604874,259.4354153879103 57.43592814402655,258.15216820006026 57.37125748512335,259.4354153879103 55.68982035922818,259.5863854944473 51.03353293426335,258.2276533921249 49.546107784612104,256.4160065917531 47.800000000046566,243.1304571266519 49.28742514969781,241.54523311316734 75.99640718568116,240.5639022088144 77.48383233556524,244.7156776424381 76.96646706596948,250.98103877931135 80.00598802417517,258.07668299990473 77.9365269462578,262.37932674598414 74.1209580837749,263.88902019913075 67.52455089823343,263.28514319838723 62.41556886257604,260.1902656040038 53.62035928154364,259.35993032256374 50.322155688656494,257.62377163302153 47.800000000046566,244.18727119237883 48.770059880334884,241.7716939006932 76.06107784458436,240.6393892489723 77.54850299376994,243.88532447523903 77.09580838331021,251.1320106626954 79.94131736527197,257.6992568805581 78.00119760492817,262.3038419900113 74.63832335313782,263.88902019913075 68.23592814407311,263.58708176226355 62.09221556899138,260.11478061799426 57.69461077870801,259.51090044510784 63.64431137731299,261.1715696994215 57.629940119804814,259.35993032256374 57.82395209604874,254.07595604640665 60.47544910176657,253.84949913743185 60.34610778442584,254.90629743493628" stroke="#4DD2FF" stroke-linecap="round" stroke-linejoin="round" stroke-width="0.5"><title>2026-02-27 6.1km</title><desc>1772195478000</desc></polyline><polyline fill="none" points="96.34610778442584,254.07595648261486 93.75928143714555,254.3024133676081 93.37125748489052,259.3599318690831 89.10299401218072,258.98250634461874 85.99880239507183,257.09537574800197 83.80000000004657,244.41372955299448 84.44670658675022,241.99815251515247 111.8023952092044,240.4129256696324 113.54850299376994,244.791162731417 112.96646706550382,250.60360863880487 116.13532934105024,257.8502285814029 114.90658682631329,261.39802627504105 111.73772455076687,263.5870841970318 104.75329341320321,263.43611489917384 97.96287425141782,259.7373571952339 89.42634730553254,259.20896168303443 86.83952095825225,257.8502285814029 85.67544910172,256.7179490336566 83.80000000004657,244.18726955063175 85.352095808601,241.39425698644482 112.0610778441187,240.71487390995026 113.61317365220748,244.26275622588582 113.16047904174775,251.05652452690993 116.13532934105024,256.9444050861057 115.81197604793124,259.88832727022236 114.0011976044625,262.4548136907397 111.60838323342614,263.73805346299196 105.33532934146933,263.81353808398126 97.31616766471416,259.58638708875515 87.7449101798702,258.6050806219573 85.67544910172,256.3405221212306 83.92934131762013,244.791162731417 84.05868263496086,242.75302121194545 85.48143712570891,241.5452309161774 112.1257485030219,240.48841274157166 113.54850299376994,245.01762254326604 112.96646706550382,250.37715058791218 116.13532934105024,256.9444050861057 114.77724550873972,261.6999656953849 111.34970059874468,263.66256883397 105.01197604765184,263.66256883397 97.70419161673635,259.7373571952339 88.00359281455167,258.6805657821824 85.48143712570891,255.0572691358393 83.86467065871693,244.33824289345648 84.83473053923808,241.696204814245 111.22035928117111,240.11097730265465 113.41916167666204,243.88532276987098 113.22514970041811,251.8868695794954 116.19999999995343,257.8502285814029 113.41916167666204,262.7567526669591 109.99161676643416,263.88902269734535 103.97724550892599,263.3606302385451 97.57485029962845,259.7373571952339 88.58562874258496,259.0579914654372 85.6107784435153,256.26503671501996 83.86467065871693,244.33824289345648 84.96407185634598,241.696204814245 111.47904191585258,240.1864644062589 113.67784431111068,244.56470284826355 112.96646706550382,250.83006661845138 116.07065868237987,257.24634637794225 114.25988023914397,262.07738979218993 111.15568862250075,263.73805346299196 106.04670658684336,263.73805346299196 97.76886227540672,259.7373571952339 93.95329341315664,259.43541695008753 93.95329341315664,254.15144211880397 96.6047904191073,254.15144211880397" stroke="#4DD2FF" stroke-linecap="round" stroke-linejoin="round" stroke-width="0.5"><title>2026-02-22 7.4km</title><desc>1771753684000</desc></polyline><polyline fill="none" points="132.022754491074,254.22692526481114 129.95329341315664,254.07595400011633 129.0479041915387,259.5863846062566 124.90898203593679,259.0579889829387 121.93413173686713,257.1708585844608 119.80000000004657,244.79116024891846 120.25269461097196,242.4510713458876 147.67305389186367,240.48841025907313 149.54850299376994,244.56470036576502 149.09580838307738,251.20749394356972 152.13532934105024,257.1708585844608 150.4538922153879,261.9264176946599 147.02634730539285,263.7380509804934 141.1413173652254,263.58708171453327 134.22155688609928,259.9638098133146 124.06826347322203,258.9070187333273 121.86946107796393,257.0198879385716 119.86467065871693,245.62151254358469 120.1233532933984,242.67753189534415 121.352095808601,241.84717619803268 147.8670658681076,240.41292318713386 149.54850299376994,244.41372707049595 149.16047904174775,251.66040945076384 152.07065868237987,257.1708585844608 150.38922155671753,262.0019025062211 147.34970059874468,263.7380509804934 141.01197604765184,263.58708171453327 133.639520958066,259.81283975427505 123.61556886229664,258.45410779473605 121.86946107796393,256.86891726066824 119.92934131762013,245.31956636568066 119.9940119762905,242.67753189534415 121.28742514969781,241.6207153868163 147.67305389186367,240.26194901944837 149.48383233486675,244.41372707049595 149.22514970041811,251.50943764677504 152.19999999995343,257.7747408513678 150.51856287405826,261.77544804796344 145.4742514968384,263.7380509804934 140.6886227543,263.5115970695042 133.639520958066,259.7373547127354 126.3317365271505,259.35992938658455 122.45149700623006,257.6992555956822 119.92934131762013,245.31956636568066 120.1233532933984,242.37558448017808 123.9389221558813,241.39425450394629 148.0610778441187,240.5638973233872 149.61317365220748,244.86664686101722 148.96646706550382,251.13200799777405 152.19999999995343,257.47279978136066 150.19520958070643,262.2283568929997 147.15568862250075,263.66256635147147 141.5293413172476,263.58708171453327 134.1568862274289,259.88832478772383 129.95329341315664,259.35992938658455 130.017964071827,253.69852569972863 133.76886227540672,254.98178111214656" stroke="#4DD2FF" stroke-linecap="round" stroke-linejoin="round" stroke-width="0.5"><title>2026-02-17 6.0km</title><desc>1771315721000</desc></polyline><polyline fill="none" points="168.3963927857112,254.6147932453896 165.99398797610775,254.160064452386 165.27975951926783,259.5410034620436 160.99438877776265,259.1620654090657 158.07254509045742,257.3431599838659 155.86492985999212,244.9138501486159 156.31943887774833,242.1096469758777 183.52505010017194,240.06332967145136 185.73266533063725,244.76227187737823 185.27815631288104,251.12853183917468 188.20000000018626,257.9494623018545 186.83647294621915,261.5872655080748 183.26533066132106,263.70930890605086 176.05811623227783,263.48194741201587 169.75991983967833,259.844153761107 161.96833667368628,259.3136406542035 159.04649298614822,258.10103780176723 157.6829659321811,255.82740195892984 155.80000000004657,243.54964456136804 157.35831663338467,241.4275418528705 184.2392785572447,240.51806735200807 185.6677354706917,244.38332606019685 185.01843687379733,250.06749241420766 188.20000000018626,257.7978867701022 187.22605210426264,261.20832853013417 183.52505010017194,263.7850960547221 175.79839679365978,263.33037304272875 169.75991983967833,259.844153761107 161.70861723460257,259.3136406542035 158.7218436873518,257.7978867701022 155.86492985999212,243.54964456136804 157.4232464930974,241.50333134253742 184.10941883781925,240.44227775855688 185.6677354706917,244.45911523955874 185.1482965934556,250.2948581367964 188.20000000018626,258.10103780176723 187.16112224454992,261.2841159415548 183.78476953925565,263.63352174917236 177.096993988147,263.63352174917236 169.3054108216893,259.76836619823007 159.76072144322097,258.7073394827312 157.6829659321811,256.4337055510259 155.92985971970484,245.6717410266283 155.86492985999212,243.01911946962355 157.2284569137264,241.65491029887926 183.46012024092488,240.139119304833 185.6677354706917,244.23174767754972 185.34308617259376,251.12853183917468 188.20000000018626,257.4189478014596 186.44689378771,262.1177769427886 183.6549098198302,263.70930890605086 178.20080160326324,263.93667032849044 169.69498998019844,259.844153761107 165.86412825691514,259.5410034620436 165.9290581161622,254.160064452386 168.59118236484937,254.38742888486013" stroke="#4DD2FF" stroke-linecap="round" stroke-linejoin="round" stroke-width="0.5"><title>2026-02-14 5.9km</title><desc>1771077344000</desc></polyline></svg>