<?xml version="1.0" encoding="utf-8" ?>
<svg baseProfile="full" height="300mm" version="1.1" viewBox="0,0,200,300" width="200mm" xmlns="http://www.w3.org/2000/svg" xmlns:ev="http://www.w3.org/2001/xml-events" xmlns:xlink="http://www.w3.org/1999/xlink"><defs /><rect fill="#222222" height="300" width="200" x="0" y="0" /><text fill="#FFFFFF" style="font-size:12px; font-family:Arial; font-weight:bold;" x="10" y="20">Over 10km Runs</text><text fill="#FFFFFF" style="font-size:4px; font-family:Arial" x="10" y="280">Runner</text><text fill="#FFFFFF" style="font-size:9px; font-family:Arial" x="10" y="290">absx</text><text fill="#FFFFFF" style="font-size:4px; font-family:Arial" x="65" y="280">SPECIAL TRACKS</text><rect fill="yellow" height="2.6" width="2.6" x="65" y="283" /><text fill="#FFFFFF" style="font-size:3px; font-family:Arial" x="70" y="285.5">Over 10.0 km</text><rect fill="red" height="2.6" width="2.6" x="65" y="287" /><text fill="#FFFFFF" style="font-size:3px; font-family:Arial" x="70" y="289.5">Over 20.0 km</text><text fill="#FFFFFF" style="font-size:4px; font-family:Arial" x="120" y="280">STATISTICS</text><text fill="#FFFFFF" style="font-size:3px; font-family:Arial" x="120" y="285">Number: 23</text><text fill="#FFFFFF" style="font-size:3px; font-family:Arial" x="120" y="290">Weekly: 2.6</text><text fill="#FFFFFF" style="font-size:3px; font-family:Arial" x="141" y="285">Total: 158.3 km</text><text fill="#FFFFFF" style="font-size:3px; font-family:Arial" x="141" y="290">Avg: 6.9 km</text><text fill="#FFFFFF" style="font-size:3px; font-family:Arial" x="167" y="285">Min: 5.2 km</text><text fill="#FFFFFF" style="font-size:3px; font-family:Arial" x="167" y="290">Max: 12.0 km</text><polyline fill="none" points="21.408651282079518,52.73425012198277 25.31380979064852,64.12661094102077 31.1715475525707,67.54430752829649 39.37238042149693,64.81015068874694 42.10599137656391,56.151964645134285 36.44351153913885,35.64559678873047 30.195257926359773,32.0 24.532778088003397,33.594949348364025 19.456072026863694,42.025376436533406 26.29009941779077,65.49369022180326 33.514642658643425,68.0 40.153412122279406,64.35445754765533 40.34867004863918,48.632985590724275 33.31938473228365,32.9113997714594 27.07113111950457,32.2278499789536 21.408651282079518,36.1012959566433 21.018135431222618,50.455770782893524 28.24267867207527,66.63292229757644 34.686190211214125,67.77215377590619 41.129701749421656,62.075990405865014 37.810317017138004,38.60763967130333 28.633194522932172,32.0 20.041845803149045,39.29118745471351 23.947004311718047,60.48106198362075 31.562063404358923,67.54430752829649 39.37238042149693,64.81015068874694 41.520217600278556,59.56967378826812 37.224543240852654,38.60763967130333 28.24267867207527,32.2278499789536 21.994425058364868,35.417747168801725 19.651329953223467,40.65828237612732 23.947004311718047,60.70890897233039 32.3430951051414,67.08861496066675 37.810317017138004,65.49369022180326 41.32495967578143,59.34182667918503 37.02928531635553,38.1519410291221 29.218968299217522,32.6835498646833 20.237103729508817,39.74688585754484 24.92329393979162,62.075990405865014 33.514642658643425,66.40507592982613 41.129701749421656,58.202590776840225 36.2482536137104,37.240543458843604 27.85216282028705,33.594949348364025 20.627619579434395,41.34182951413095 24.92329393979162,61.39244979713112 35.0767060611397,66.63292229757644 41.129701749421656,58.886132390005514 35.662479838356376,36.55699502909556 27.07113111950457,33.36709951329976 20.627619579434395,40.430433282628655 24.92329393979162,61.848143559880555 34.88144813571125,66.63292229757644 40.93444382492453,59.11397954612039 36.052995689213276,37.240543458843604 27.07113111950457,33.36709951329976 20.627619579434395,42.253225362626836 25.118551864288747,61.62029669014737 35.0767060611397,66.17722953879274 40.93444382492453,58.43043800489977 36.44351153913885,38.60763967130333 28.04742074664682,33.36709951329976 20.822877505794168,39.97473502345383 24.728036013431847,60.70890897233039 31.75732132885605,66.63292229757644 40.34867004863918,61.164602879667655 36.638769465498626,38.835488956654444 28.828452448360622,33.36709951329976 21.018135431222618,41.113980491645634 25.118551864288747,60.70890897233039 31.562063404358923,66.63292229757644 40.34867004863918,60.93675593822263 36.052995689213276,38.379790362436324 27.46164697036147,33.36709951329976 21.018135431222618,40.430433282628655 25.704325640574098,62.5316840254236 33.514642658643425,66.63292229757644 40.54392797406763,59.11397954612039 36.44351153913885,39.06333821755834 28.633194522932172,33.36709951329976 17.894008623436093,42.025376436533406 19.456072026863694,36.329145504394546" stroke="#4DD2FF" stroke-linecap="round" stroke-linejoin="round" stroke-width="0.5"><title>2026-04-09 5.2km</title><desc>1775733938000</desc></polyline><polyline fill="none" points="67.39128149300814,40.94123043469153 71.42405765596777,63.29415049427189 77.27158309239894,68.0 83.52238614391536,66.8235385499429 87.95843992289156,59.7647568823304 82.11091448739171,37.17650617752224 72.23061288893223,33.647071443963796 66.38308745250106,43.529474694048986 72.43225169647485,64.00002855015919 82.91746971942484,66.5882461857982 87.55516230687499,59.5294637773186 81.30435925535858,36.00002855062485 72.02897408045828,33.88236726610921 67.18964268453419,43.764769478701055 72.43225169647485,64.70590638322756 82.31255329586565,67.29412320465781 87.55516230687499,58.82358431373723 82.11091448739171,36.70591520075686 72.83552931342274,33.647071443963796 67.39128149300814,43.29417988471687 73.03716812003404,64.70590638322756 83.11910852789879,67.0588308898732 87.95843992289156,58.35299788136035 82.5141921043396,37.411801629234105 74.04536216147244,33.1764797270298 67.39128149300814,42.35300040128641 72.02897408045828,63.76473588938825 81.70763687044382,67.52941549452953 87.15188469178975,60.4706360490527 81.90927567984909,36.47061967570335 73.64208454452455,32.94118383084424 66.98800387699157,42.35300040128641 72.6338905049488,64.2353211864829 81.5059980629012,67.29412320465781 87.35352349933237,60.0000499621965 82.71583091188222,37.17650617752224 73.64208454452455,32.70588791067712 67.18964268453419,41.176525491289794 72.02897408045828,62.82356500066817 81.30435925535858,67.29412320465781 87.15188469178975,59.7647568823304 82.5141921043396,37.17650617752224 74.04536216147244,32.94118383084424 67.18964268453419,41.64711552881636 72.23061288893223,63.529443204402924 81.5059980629012,67.52941549452953 87.75680111628026,59.05887749278918 82.31255329586565,36.70591520075686 73.2388069294393,33.1764797270298 67.18964268453419,41.64711552881636 71.82733527105302,63.29415049427189 81.30435925535858,67.52941549452953 87.55516230687499,59.7647568823304 82.91746971942484,37.17650617752224 73.44044573791325,33.1764797270298 67.18964268453419,42.82359019247815 72.43225169647485,64.00002855015919 82.5141921043396,67.0588308898732 87.75680111628026,59.29417064739391 82.31255329586565,36.70591520075686 72.6338905049488,33.41177559806965 65.37489341106266,45.17653766646981 73.2388069294393,65.17649148218334 82.71583091188222,66.5882461857982 87.55516230687499,59.05887749278918 81.5059980629012,36.00002855062485 73.03716812003404,33.1764797270298 67.18964268453419,41.64711552881636 71.82733527105302,63.529443204402924 81.70763687044382,67.29412320465781 87.55516230687499,59.05887749278918 81.70763687044382,36.23532412527129 73.44044573791325,32.70588791067712 66.98800387699157,41.88241051090881 72.02897408045828,63.529443204402924 77.06994428299367,67.29412320465781 82.91746971942484,66.5882461857982 87.35352349933237,58.5882911097724 81.10272044595331,36.00002855062485 72.6338905049488,33.41177559806965 67.39128149300814,43.29417988471687 72.23061288893223,63.76473588938825 82.71583091188222,66.8235385499429 87.15188469178975,58.35299788136035 81.90927567984909,36.70591520075686 70.4158636154607,32.0 66.98800387699157,43.29417988471687 72.6338905049488,64.2353211864829 82.71583091188222,67.0588308898732 87.35352349933237,58.82358431373723 81.90927567984909,36.70591520075686 72.43225169647485,33.41177559806965 66.78636506851763,41.64711552881636 71.82733527105302,63.05885775969364 81.5059980629012,67.29412320465781 87.55516230687499,59.05887749278918 82.11091448739171,37.411801629234105 74.04536216147244,32.47059196489863 67.18964268453419,40.94123043469153 71.82733527105302,63.05885775969364 81.90927567984909,67.0588308898732 87.55516230687499,58.35299788136035 82.5141921043396,37.17650617752224 74.24700096901506,32.70588791067712 67.39128149300814,41.176525491289794 72.23061288893223,63.29415049427189 82.11091448739171,66.8235385499429 87.55516230687499,59.05887749278918 82.31255329586565,37.411801629234105 73.84372335392982,33.1764797270298 65.37489341106266,42.11770546878688" stroke="#4DD2FF" stroke-linecap="round" stroke-linejoin="round" stroke-width="0.5"><title>2026-03-31 7.6km</title><desc>1774955750000</desc></polyline><polyline fill="none" points="111.98259023670107,40.15099601307884 117.02736494597048,60.7547652721405 121.87810985930264,67.09434698987752 126.7288547726348,67.32076027756557 134.6840764293447,59.39628105121665 127.50497395824641,35.16983544290997 117.02736494597048,33.358501475071535 112.3706498304382,43.094403670635074 118.38557352218777,65.05662632663734 125.37064619641751,68.0 132.74377846438438,64.15097208041698 134.2960168365389,58.2642102134414 130.22139110974967,39.24533131043427 123.43034823145717,32.90566774457693 117.60945433564484,33.13208462158218 112.95273922011256,39.69816370937042 116.63930535316467,61.20759315509349 126.14676538296044,67.54717354243621 134.2960168365389,60.52835129504092 129.05721233040094,37.660417165607214 119.74378209840506,32.0 114.31094779539853,35.16983544290997 112.95273922011256,41.28307635639794 117.02736494597048,61.43400706141256 125.95273558516055,67.32076027756557 131.19154009222984,65.50945330713876 134.10198703967035,59.62269514705986 128.66915273759514,37.43400076380931 119.74378209840506,33.13208462158218 112.95273922011256,41.0566603357438 117.8034841325134,62.792489998508245 126.92288456857204,67.09434698987752 134.2960168365389,60.075523268198594 128.86318253353238,37.886833543656394 121.10199067275971,33.358501475071535 113.53482860978693,40.83024429040961 117.8034841325134,62.11324863717891 126.7288547726348,66.86793367820792 133.5198976509273,60.075523268198594 128.86318253353238,38.339666227810085 120.3258714871481,33.358501475071535 113.34079881198704,41.7359083276242 118.1915437253192,62.56607623514719 127.89303355105221,66.41510698292404 133.71392744593322,58.71703861979768 128.47512294072658,37.660417165607214 119.1616927087307,34.0377518911846 113.14676901698112,42.18874020362273 118.38557352218777,62.792489998508245 127.89303355105221,66.64152034255676 133.9079572437331,58.94345278758556 129.05721233040094,37.660417165607214 120.3258714871481,32.90566774457693 114.8930371850729,36.30191840115003 113.14676901698112,41.962324277265 117.8034841325134,62.56607623514719 126.53482497576624,67.32076027756557 131.57959968503565,65.28303982899524 134.10198703967035,59.16986693139188 128.47512294072658,37.43400076380931 119.93781189341098,33.358501475071535 112.95273922011256,41.962324277265 117.99751392938197,62.792489998508245 127.11691436450928,67.32076027756557 133.71392744593322,59.62269514705986 129.2512421272695,37.886833543656394 120.3258714871481,33.13208462158218 113.53482860978693,41.0566603357438 117.60945433564484,61.88683480233885 125.95273558516055,67.09434698987752 133.5198976509273,60.30193729349412 129.05721233040094,38.339666227810085 121.87810985930264,33.13208462158218 116.44527555722743,35.39625208219513 113.34079881198704,41.0566603357438 117.22139474283904,60.98117922549136 126.14676538296044,66.86793367820792 133.71392744593322,59.62269514705986 128.86318253353238,37.886833543656394 121.87810985930264,33.358501475071535 116.25124576035887,35.62266869726591 113.53482860978693,41.0566603357438 117.60945433564484,61.88683480233885 125.37064619641751,67.32076027756557 133.32586785405874,60.7547652721405 128.86318253353238,38.566082533914596 120.51990128308535,34.0377518911846 113.72885840572417,41.28307635639794 117.60945433564484,62.339662448270246 127.31094416230917,67.09434698987752 133.71392744593322,59.16986693139188 128.86318253353238,38.339666227810085 120.71393108088523,34.2641686485149 113.92288820166141,41.28307635639794 117.8034841325134,61.88683480233885 127.69900375418365,67.09434698987752 133.5198976509273,58.94345278758556 129.2512421272695,37.886833543656394 119.93781189341098,33.13208462158218 112.56467962730676,43.094403670635074 117.60945433564484,63.47173114679754 127.69900375418365,67.54717354243621 134.2960168365389,58.49062442872673 129.05721233040094,36.75475141755305 125.75870579015464,32.67925084405579 119.1616927087307,32.67925084405579 112.75870942231268,41.28307635639794 117.02736494597048,61.66042094328441 126.92288456857204,67.54717354243621 134.10198703967035,59.16986693139188 129.44527192320675,37.660417165607214 119.74378209840506,33.13208462158218 113.14676901698112,41.28307635639794 117.8034841325134,63.245317454217 127.69900375418365,67.09434698987752 133.9079572437331,57.58496742649004 129.44527192320675,38.339666227810085 120.90796087682247,33.13208462158218 113.53482860978693,40.15099601307884 117.60945433564484,61.66042094328441 126.7288547726348,66.41510698292404 131.96765927784145,63.47173114679754 133.5198976509273,58.2642102134414 129.2512421272695,38.11324989749119 119.93781189341098,34.0377518911846 113.34079881198704,41.50949235423468 118.57960331905633,62.792489998508245 128.08706334792078,66.18869359930977 133.71392744593322,58.037795974873006 128.66915273759514,37.20758433896117 118.57960331905633,34.2641686485149 113.53482860978693,42.415156106464565 118.1915437253192,62.56607623514719 127.69900375418365,66.41510698292404 133.13183805719018,57.811381712323055 128.86318253353238,38.79249881650321 125.17661640048027,34.943418780108914 118.57960331905633,34.7170020933263 113.53482860978693,42.415156106464565 118.38557352218777,63.245317454217 128.47512294072658,66.86793367820792 133.71392744593322,57.811381712323055 129.05721233040094,38.11324989749119 124.01243762113154,34.0377518911846 116.63930535316467,34.49058538326062 113.14676901698112,44.00006675743498 118.77363311499357,64.37738567800261 128.08706334792078,66.64152034255676 133.13183805719018,57.811381712323055 128.08706334792078,38.11324989749119 117.41542453877628,34.0377518911846" stroke="#4DD2FF" stroke-linecap="round" stroke-linejoin="round" stroke-width="0.5"><title>2026-03-29 9.9km</title><desc>1774773831000</desc></polyline><polyline fill="none" points="158.90970607940108,36.941210699267685 164.15239047817886,62.352979405084625 173.83119244500995,68.0 181.09029392153025,63.76473588705994 182.905069289729,57.64711804362014 175.4443261064589,36.70591519866139 164.15239047817886,32.47059196373448 157.094930710271,42.588295304914936 166.9753743847832,65.17649148032069 173.2262673228979,67.76470775902271 179.4771602600813,65.41178399254568 182.50178587436676,57.64711804362014 175.24268439877778,36.941210699267685 166.16880755499005,32.23529599397443 157.69985583331436,40.235345114488155 164.75731560215354,63.05885775736533 175.4443261064589,67.294123203028 182.50178587436676,57.41182471672073 175.24268439877778,37.176506174961105 170.40328341536224,33.176479724934325 163.5474653551355,33.176479724934325 157.69985583331436,42.588295304914936 164.95895730890334,62.82356499810703 174.83940098434687,67.294123203028 180.687010506168,63.52944320207462 182.50178587436676,57.41182471672073 174.63775927666575,36.47061967314221 163.14418193977326,33.41177559643984 157.69985583331436,41.411820519017056 164.75731560215354,63.05885775736533 173.0246256152168,68.0 179.27551855240017,65.64707648032345 182.70342758204788,59.29417064390145 175.24268439877778,37.41180162644014 166.5720909703523,32.47059196373448 158.10313924960792,39.294164346996695 164.15239047817886,61.647100830916315 171.61313366144896,67.52941549406387 177.25910147558898,66.35295379604213 181.89686075225472,60.94122203369625 178.26731001399457,44.705948365386575 169.39507487695664,32.941183829680085 162.74089852534235,33.64707144303247 158.10313924960792,39.294164346996695 164.15239047817886,61.17651499109343 168.79014975391328,66.35295379604213 178.26731001399457,65.88236894388683 182.09850245900452,55.2941836589016 174.23447586037219,36.00002854829654 168.58850804623216,32.705887909280136 162.13597340136766,34.11766306147911 157.69985583331436,43.7647694745101 167.37865780107677,65.41178399254568 177.864026597701,66.11766138207167 182.30014416668564,56.470651159994304 174.0328341536224,35.76473294850439 162.74089852534235,33.64707144303247 157.69985583331436,44.00006423401646 165.96716584730893,63.76473588705994 176.65417635254562,66.35295379604213 181.89686075225472,56.470651159994304 173.83119244500995,35.76473294850439 163.14418193977326,33.8823672644794 157.90149754099548,43.529474689625204 166.5720909703523,64.47061379533261 177.864026597701,65.88236894388683 182.09850245900452,56.70594458584674 174.83940098434687,36.941210699267685 167.98358292412013,32.941183829680085 161.3294065706432,34.58825458120555 162.74089852534235,32.0 158.50642266403884,42.8235901882872 166.16880755499005,63.05885775736533 172.0164170768112,66.58824618463404 178.06566830631346,65.17649148032069 181.29193562828004,55.52947720838711 172.82298390753567,35.058846002910286 167.17701609339565,33.176479724934325 158.90970607940108,35.52943732473068 159.1113477870822,45.41183227370493 167.37865780107677,64.47061379533261 177.25910147558898,65.64707648032345 181.89686075225472,57.64711804362014 174.4361175680533,37.64709705254063 164.5556738935411,33.8823672644794 158.50642266403884,42.8235901882872 166.16880755499005,62.82356499810703 176.4525346448645,65.64707648032345 181.09029392153025,56.70594458584674 174.23447586037219,37.882392454426736 164.75731560215354,34.352958833798766 159.1113477870822,42.1177054643631 166.37044926267117,62.352979405084625 171.41149195376784,66.11766138207167 176.85581806022674,65.41178399254568 181.09029392153025,57.17653136397712 174.4361175680533,37.176506174961105 163.74910706281662,33.8823672644794 158.50642266403884,43.05888504721224 166.9753743847832,64.47061379533261 176.65417635254562,66.11766138207167 181.49357733596116,56.23535770946182 173.42790903057903,36.23532412271015 167.98358292412013,33.41177559643984 160.1195563254878,35.52943732473068" stroke="#4DD2FF" stroke-linecap="round" stroke-linejoin="round" stroke-width="0.5"><title>2026-03-26 6.5km</title><desc>1774530092000</desc></polyline><polyline fill="none" points="19.171587439253926,76.05300863552839 22.644851844757795,101.56295579741709 31.83878703787923,107.76159128104337 37.96807716507465,105.37750271218829 41.44134157244116,99.178860723041 35.92498045600951,76.29142068279907 26.118116251192987,72.0 18.558658426627517,79.86759839113802 23.053471187129617,101.80136516713537 34.29050308838487,107.2847737672273 41.23703190125525,98.46363171213306 35.51636111456901,75.81459656287916 26.322425921447575,72.23841247265227 18.762968095950782,81.05965637648478 23.666400198824704,102.2781838318333 33.47326440457255,107.76159128104337 40.41979321744293,100.13249905291013 35.92498045600951,76.76824470190331 31.43016769643873,72.71523734321818 25.300877566449344,72.23841247265227 18.762968095950782,81.2980678982567 23.870709870010614,102.99341164133511 34.08619341813028,107.04636497260071 40.82841255888343,97.98681224742904 35.51636111456901,75.57618446554989 25.096567896194756,72.71523734321818 19.171587439253926,79.86759839113802 24.483638882637024,104.90068469801918 34.08619341813028,107.04636497260071 40.62410288862884,98.22522199247032 35.3120514433831,76.05300863552839 25.913806580007076,72.23841247265227 18.967277768068016,80.34442166076042 23.666400198824704,102.75500239711255 28.365522631444037,107.04636497260071 34.49481275957078,106.8079561535269 40.62410288862884,98.46363171213306 35.3120514433831,76.05300863552839 25.505187238566577,72.0 18.558658426627517,81.77489086706191 26.731045263819396,108.0 35.10774177312851,107.2847737672273 41.03272223006934,97.03317301580682 34.9034321019426,74.86094802245498 25.300877566449344,72.23841247265227 18.558658426627517,81.2980678982567 23.462090527638793,102.51659312681295 33.47326440457255,106.8079561535269 40.62410288862884,97.98681224742904 35.10774177312851,75.81459656287916 25.505187238566577,72.23841247265227 18.762968095950782,81.05965637648478 23.870709870010614,102.99341164133511 28.569832301698625,106.8079561535269 35.10774177312851,106.33113843994215 40.62410288862884,99.41727034351788 35.10774177312851,75.81459656287916 25.096567896194756,72.4768249206245 18.762968095950782,82.01330231432803 23.257780857384205,102.2781838318333 33.67757407575846,107.04636497260071 40.82841255888343,97.74840247700922 36.12929012719542,77.48348054452799 31.225858024321496,72.4768249206245 25.096567896194756,72.4768249206245 18.762968095950782,82.01330231432803 23.666400198824704,102.75500239711255 28.774141972884536,106.8079561535269 34.9034321019426,106.56954730884172 40.62410288862884,97.50999268144369 35.3120514433831,76.05300863552839 24.687948553822935,72.4768249206245 18.762968095950782,81.77489086706191 23.870709870010614,102.51659312681295 34.69912243075669,106.56954730884172 40.62410288862884,97.03317301580682 34.9034321019426,75.33777234260924 24.687948553822935,72.4768249206245 18.762968095950782,82.01330231432803 27.139664606191218,108.0 35.92498045600951,107.2847737672273" stroke="#4DD2FF" stroke-linecap="round" stroke-linejoin="round" stroke-width="0.5"><title>2026-03-25 5.4km</title><desc>1774445603000</desc></polyline><polyline fill="none" points="59.57262693159282,77.28556791890878 58.714348786044866,78.06459059350891 59.095805739518255,80.40165174711728 62.433554084040225,82.62741469364846 64.19779249466956,82.57177073380444 65.1037527595181,81.68146658362821 65.96203090506606,79.62263250758406 65.4375275936909,77.84201280324487 64.10242825630121,76.56218869588338 61.19381898478605,76.00574246741598 58.95275938208215,77.50814594281837 59.57262693159282,80.7911609375733 61.05077262711711,82.18226285208948 63.6732891832944,82.62741469364846 65.38984547485597,80.7911609375733 65.67593819019385,78.3984571035835 65.00838852114975,77.39685694250511 63.6732891832944,76.39525488863 60.955408388515934,75.9500978125725 59.04812362068333,77.84201280324487 59.04812362068333,79.8452095501707 60.04944812366739,81.23631394753465 61.57527593849227,82.34919483656995 63.76865342189558,82.46048279694514 65.4375275936909,80.290363354492 65.00838852114975,77.34121243370464 61.0984547464177,75.9500978125725 58.762030905345455,78.17587945354171 58.66666666674428,79.4556996645988 60.00176600459963,81.1806698415894 63.530242825858295,82.46048279694514 64.86534216371365,81.57017845945666 65.53289183252491,79.73392104066443 64.53156732907519,76.95170070789754 60.4785871966742,76.06138711667154 58.8573951437138,78.06459059350891 59.143487859051675,80.1234307216946 60.38322295830585,81.62582252448192 63.38719646818936,82.51612676831428 65.48520971322432,80.290363354492 64.72229580581188,77.0629898015759 60.86004415014759,75.9500978125725 59.00044150138274,77.67507939937059 59.667991170194,80.90244922507554 63.29183222958818,82.62741469364846 65.38984547485597,80.51294011651771 65.38984547485597,78.28716829029145 64.53156732907519,76.95170070789754 61.14613686548546,75.89445315190824 59.00044150138274,78.17587945354171 59.90640176599845,81.1806698415894 63.43487858725712,82.73870259558316 65.38984547485597,80.40165174711728 64.72229580581188,77.22992339840857 61.00309050781652,76.00574246741598 59.143487859051675,78.12023502658121 59.62030905089341,80.7911609375733 61.38454746152274,82.18226285208948 63.57792494492605,82.57177073380444 65.4375275936909,80.51294011651771 65.15143487881869,77.67507939937059 63.95938189863227,76.56218869588338 61.38454746152274,76.00574246741598 59.143487859051675,77.39685694250511 59.524944812525064,80.67987262661336 63.05342163378373,82.62741469364846 64.57924944837578,81.95968679105863 65.4375275936909,80.23471914947731 64.72229580581188,77.22992339840857 61.289183223154396,75.9500978125725 59.42958057415672,76.89605615223991 59.04812362068333,80.06778649898479 62.433554084040225,82.51612676831428 64.91302428254858,81.40324622986373 65.53289183252491,79.73392104066443 65.05607064021751,77.67507939937059 64.00706401770003,76.56218869588338 61.718322295928374,75.89445315190824 59.33421633555554,77.34121243370464 59.42958057415672,80.51294011651771 62.433554084040225,82.51612676831428 64.15011037536897,82.23790685279528 65.1037527595181,81.01373748929473 65.48520971322432,79.010545159108 64.62693156744353,77.17427887197118 61.24150110385381,76.00574246741598 59.04812362068333,77.45250144554302 59.38189845485613,80.51294011651771 61.14613686548546,82.07097483339021 63.10110375308432,82.57177073380444 65.05607064021751,81.06938161252765 65.48520971322432,78.62103466020199 64.4838852097746,76.95170070789754 62.52891832240857,76.06138711667154 65.67593819019385,77.56379043427296 68.9660044151824,76.39525488863 76.26136865350418,96.26000879338244 78.69315673294477,98.70827426802134 82.26931567350402,96.09308119025081 90.08918322296813,92.69887518882751 91.04282560711727,92.921446739987 94.28520971303806,101.21217044309014 94.66666666674428,104.10554684803355" stroke="#4DD2FF" stroke-linecap="round" stroke-linejoin="round" stroke-width="0.5"><title>2026-03-24 6.2km</title><desc>1774357706000</desc></polyline><polyline fill="none" points="113.41702636517584,80.18186927982606 116.82262673787773,103.55847302637994 126.63876898866147,107.76623564353213 133.04931086767465,99.11693719564937 128.44173389207572,78.31173038040288 119.8275682432577,73.4026082966011 112.81603806372732,80.88317096233368 118.22493277397007,102.85717848455533 126.83909842278808,106.36364898784086 135.0526052042842,100.75329353217967 129.04272219352424,76.67535755457357 119.4269093759358,72.46753619634546 111.6140614617616,79.94810200366192 116.02130900323391,100.9870586253237 122.03119201399386,107.5324712623842 128.64206332620233,108.0 132.44832256622612,104.2597673481796 130.64535766281188,84.6234428731259 122.63218031544238,73.6363762607798 117.02295617200434,73.87014419957995 112.81603806372732,78.31173038040288 116.4219678696245,100.9870586253237 124.23481578473002,107.5324712623842 130.44502822868526,105.1948261000216 133.04931086767465,99.35070246015675 128.64206332620233,79.0130326510407 119.8275682432577,72.93507229583338 112.41537919640541,79.71433470211923 117.02295617200434,101.68835375644267 126.23811012133956,107.29870685655624 133.04931086767465,100.51952841528691 128.2414044579491,77.84419541014358 119.4269093759358,72.7013042580802 112.01472033001482,80.41563653177582 117.22328560426831,101.9221187508665 126.83909842278808,106.83117797109298 133.04931086767465,99.58446770021692 128.44173389207572,78.07796290749684 118.02460333984345,73.16884030890651 112.41537919640541,81.11693814117461 116.82262673787773,101.68835375644267 127.64041615836322,107.29870685655624 133.04931086767465,98.41564125497825 127.64041615836322,77.14289277023636 118.42526220716536,73.4026082966011 112.2150497622788,81.81823952891864 117.42361503839493,102.38964866637252 127.23975729010999,106.83117797109298 133.04931086767465,99.8182329160627 127.64041615836322,76.9091251748614 119.2265799427405,72.93507229583338 112.2150497622788,81.58447242435068 117.42361503839493,102.38964866637252 128.2414044579491,106.83117797109298 133.24964029993862,99.11693719564937 127.84074559155852,77.61042788764462 119.2265799427405,73.87014419957995 112.61570863053203,81.35070529463701 118.22493277397007,103.32470820355229 128.0410750247538,106.83117797109298 132.84898143354803,99.58446770021692 127.44008672330528,76.9091251748614 119.02625050768256,72.93507229583338 112.61570863053203,81.58447242435068 118.02460333984345,102.85717848455533 127.84074559155852,106.36364898784086 133.04931086767465,99.58446770021692 127.23975729010999,76.67535755457357 118.42526220716536,73.4026082966011 112.41537919640541,82.28577366494574 117.02295617200434,101.45458873757161 126.83909842278808,106.36364898784086 132.84898143354803,98.88317190646194 128.2414044579491,78.07796290749684 118.42526220716536,73.4026082966011 112.61570863053203,81.35070529463701 118.02460333984345,103.09094335651025 128.2414044579491,106.5974134914577 133.04931086767465,98.64940659306012 128.0410750247538,77.37666034069844 119.4269093759358,73.4026082966011 112.61570863053203,80.64940375951119 118.22493277397007,103.09094335651025 128.0410750247538,106.5974134914577 132.84898143354803,98.181875892682 127.23975729010999,76.67535755457357 119.02625050768256,73.6363762607798 112.81603806372732,81.35070529463701 118.22493277397007,102.62341358792037 126.43843955453485,106.5974134914577 132.64865200035274,99.11693719564937 128.64206332620233,77.14289277023636 121.02954484615475,72.0 112.2150497622788,78.31173038040288 117.22328560426831,100.9870586253237 120.82921541202813,105.8961199063342 129.24305162671953,105.8961199063342 132.64865200035274,100.28576327278279 128.2414044579491,78.31173038040288 119.4269093759358,73.4026082966011 113.61735579930246,78.77926525217481 117.22328560426831,100.9870586253237 123.6338274832815,106.5974134914577 128.44173389207572,106.12988445954397 132.64865200035274,100.28576327278279 129.44338106084615,81.11693814117461 122.23152144812047,72.7013042580802 113.41702636517584,78.31173038040288 117.02295617200434,99.58446770021692 122.63218031544238,106.36364898784086 135.0526052042842,100.51952841528691 129.44338106084615,84.6234428731259" stroke="#4DD2FF" stroke-linecap="round" stroke-linejoin="round" stroke-width="0.5"><title>2026-03-22 7.4km</title><desc>1774161813000</desc></polyline><polyline fill="none" points="156.54161745402962,81.42287319037132 161.71791843418032,84.80543364421465 166.48011533450335,103.65103661082685 175.1763009801507,108.0 180.9737580763176,104.85908282105811 183.04427846800536,98.33562575466931 178.48913360666484,76.5906353474129 168.75768776610494,72.72483776905574 161.9249704722315,80.45642643305473 166.27306329458952,102.44298976659775 175.79745709802955,107.5167822514195 183.04427846800536,99.54367475421168 178.48913360666484,77.79869575891644 169.7929479610175,72.72483776905574 161.71791843418032,80.9396498624701 166.48011533450335,103.65103661082685 178.07502952869982,106.79195543844253 183.04427846800536,98.33562575466931 178.07502952869982,76.34902318916284 169.17179184406996,72.24161261529662 161.5108663942665,80.21481468016282 166.27306329458952,101.71816135616973 173.10578058753163,107.75839113793336 179.93849788140506,105.58391024242155 183.25133050698787,99.7852844784502 178.69618564471602,78.52353170164861 169.17179184406996,72.72483776905574 162.13202251214534,80.21481468016282 166.8942194133997,101.71816135616973 176.62566525302827,107.03356440132484 182.83722642902285,99.7852844784502 177.8679774897173,77.31547167035751 169.7929479610175,72.96645030775107 162.13202251214534,80.9396498624701 166.8942194133997,102.44298976659775 174.55514486227185,107.03356440132484 183.04427846800536,99.06045523029752 178.07502952869982,77.55708372755907 168.75768776610494,73.20806282153353 162.33907455112785,81.1812615392264 167.72242756932974,103.40942729311064 177.24682137090713,106.55034645018168 182.83722642902285,99.06045523029752 178.69618564471602,77.79869575891644 169.17179184406996,72.96645030775107 162.13202251214534,79.97320290235803 167.30832349136472,102.44298976659775 175.79745709802955,107.03356440132484 182.83722642902285,98.57723560580052 178.28208156768233,77.55708372755907 168.96473980415612,72.96645030775107 162.33907455112785,81.42287319037132 167.30832349136472,102.44298976659775 175.1763009801507,107.03356440132484 182.83722642902285,98.57723560580052 178.28208156768233,77.55708372755907 169.7929479610175,72.72483776905574 162.13202251214534,79.73159109940752 167.10127145145088,102.44298976659775 174.96924894023687,106.79195543844253 180.7667060373351,104.13425517105497 182.83722642902285,99.06045523029752 178.07502952869982,77.79869575891644 168.96473980415612,72.96645030775107 161.9249704722315,81.42287319037132 166.8942194133997,102.92620858014561 175.79745709802955,107.5167822514195 183.25133050698787,99.06045523029752 178.69618564471602,77.31547167035751 168.75768776610494,72.96645030775107 161.9249704722315,81.42287319037132 166.68716737348586,102.92620858014561 176.41861321404576,106.55034645018168 183.04427846800536,98.57723560580052 178.28208156768233,77.31547167035751 168.75768776610494,72.96645030775107 161.9249704722315,80.69803816080093 167.30832349136472,102.68459918629378 176.41861321404576,106.79195543844253 182.83722642902285,98.33562575466931 177.8679774897173,76.83224748028442 168.75768776610494,72.96645030775107 162.33907455112785,80.69803816080093 167.10127145145088,102.44298976659775 173.72693670541048,107.27517333859578 179.93849788140506,105.10069198720157 182.83722642902285,99.7852844784502 179.11028972361237,80.21481468016282 170.62115611787885,72.48322520474903 166.27306329458952,73.44967530947179 162.7531786300242,80.21481468016282 167.10127145145088,102.44298976659775 174.76219690125436,107.03356440132484 183.04427846800536,100.02689417731017 178.69618564471602,78.52353170164861 175.59040505811572,74.41612500837073 166.27306329458952,72.0 161.9249704722315,75.62418656121008 166.27306329458952,101.95977085176855 173.31283262744546,107.03356440132484 180.5596539983526,105.10069198720157 183.25133050698787,99.7852844784502 178.69618564471602,77.79869575891644 169.37884388305247,72.48322520474903 162.13202251214534,79.73159109940752 166.68716737348586,101.95977085176855 173.72693670541048,107.27517333859578 179.93849788140506,105.58391024242155 183.25133050698787,99.7852844784502 178.90323768462986,78.52353170164861 175.1763009801507,73.44967530947179 169.37884388305247,72.24161261529662 161.9249704722315,80.69803816080093 166.8942194133997,102.68459918629378 176.21156117599458,107.5167822514195 183.04427846800536,99.06045523029752 178.28208156768233,76.83224748028442 174.14104078430682,72.96645030775107 167.72242756932974,73.44967530947179 162.13202251214534,82.3893195418641 166.8942194133997,102.44298976659775 177.03976933192462,106.79195543844253 183.25133050698787,99.54367475421168 178.48913360666484,78.04030776582658 169.58589592203498,72.72483776905574 164.6166469817981,75.14096201607026 162.13202251214534,81.1812615392264 166.48011533450335,101.47655183519237 171.86346835270524,106.79195543844253 177.66092544980347,106.55034645018168 183.04427846800536,98.81884543085471 177.03976933192462,75.3825743009802 167.72242756932974,72.96645030775107 161.71791843418032,82.14770799176767 167.51537553034723,103.89264590339735 176.62566525302827,107.03356440132484 183.25133050698787,98.81884543085471 178.28208156768233,77.07385958754458 168.5506357261911,72.72483776905574 161.9249704722315,80.21481468016282 166.8942194133997,102.44298976659775 175.59040505811572,107.27517333859578 183.4583825469017,99.30206500552595 178.28208156768233,77.31547167035751 168.34358368627727,72.48322520474903 162.13202251214534,81.42287319037132 166.68716737348586,101.95977085176855 177.03976933192462,106.79195543844253 183.25133050698787,99.30206500552595 178.28208156768233,77.07385958754458 170.2070520389825,72.24161261529662 162.13202251214534,80.69803816080093 167.10127145145088,101.95977085176855 176.8327172929421,107.03356440132484 183.04427846800536,98.57723560580052 177.66092544980347,76.83224748028442 168.96473980415612,72.96645030775107 162.33907455112785,80.69803816080093 166.8942194133997,101.47655183519237 176.21156117599458,106.79195543844253 183.04427846800536,98.57723560580052 178.48913360666484,77.55708372755907 168.75768776610494,72.72483776905574 162.13202251214534,80.9396498624701 167.30832349136472,102.44298976659775 176.41861321404576,107.03356440132484 183.04427846800536,100.02689417731017 177.66092544980347,76.83224748028442 168.13653164822608,72.96645030775107 162.13202251214534,81.90609641629271 166.8942194133997,102.201380321756 171.86346835270524,106.79195543844253 177.24682137090713,106.55034645018168 183.04427846800536,98.81884543085471 177.8679774897173,76.5906353474129 170.0,72.48322520474903 162.13202251214534,79.97320290235803 167.30832349136472,102.68459918629378 175.79745709802955,107.03356440132484 183.04427846800536,99.06045523029752 178.28208156768233,77.07385958754458 169.7929479610175,72.72483776905574 164.6166469817981,75.14096201607026 162.33907455112785,81.1812615392264 167.10127145145088,102.44298976659775 177.24682137090713,106.79195543844253 182.83722642902285,99.7852844784502 178.07502952869982,77.07385958754458 168.5506357261911,72.96645030775107 161.9249704722315,81.1812615392264 167.51537553034723,103.1678179493174 174.96924894023687,107.03356440132484" stroke="yellow" stroke-linecap="round" stroke-linejoin="round" stroke-width="0.5"><title>2026-03-20 12.0km</title><desc>1774012772000</desc></polyline><polyline fill="none" points="19.273743402212858,126.54311504913494 23.76855568960309,144.1854574889876 29.489225876517594,148.0 36.84437325783074,147.04636497283354 41.54349519778043,137.03317301603965 36.64006360992789,117.00665667466819 27.037510082125664,112.0 18.456504803150892,120.10601003840566 22.747007442638278,141.32454640301876 33.37110921740532,147.52318253647536 40.930566248483956,140.37090857280418 36.23144431039691,117.2450686225202 27.85474868118763,112.0 19.069433752447367,119.86759839183651 23.972865340299904,142.2781838318333 31.736632021144032,147.04636497283354 37.45730220712721,145.13909371756017 40.521946949884295,139.6556799383834 36.43575395923108,118.67553978110664 27.037510082125664,112.47682492085733 19.273743402212858,120.34442166076042 23.972865340299904,142.03977451194078 32.962489917874336,147.28477376676165 40.521946949884295,139.6556799383834 36.02713466063142,117.96030431496911 27.446129381656647,112.0 19.273743402212858,119.39077502232976 23.76855568960309,141.80136516713537 33.77972851600498,146.80795615306124 40.317637300118804,139.6556799383834 35.61851536203176,117.2450686225202 26.833200433291495,112.47682492085733 19.478053051047027,119.39077502232976 23.972865340299904,141.80136516713537 33.57541886717081,146.80795615306124 40.317637300118804,139.41727034305222 35.00558641273528,117.00665667466819 27.037510082125664,112.71523734391667 19.273743402212858,119.39077502232976 23.76855568960309,141.32454640301876 32.962489917874336,146.80795615306124 40.317637300118804,138.7020414073486 35.61851536203176,117.96030431496911 26.833200433291495,112.47682492085733 19.478053051047027,120.82124483003281 24.177174989134073,141.56295579764992 33.37110921740532,147.04636497283354 40.317637300118804,139.41727034305222 36.02713466063142,118.9139515531715 27.241819732822478,112.71523734391667 19.68236270081252,120.10601003840566 24.381484639830887,142.03977451194078 32.962489917874336,146.56954730907455 40.317637300118804,139.17886072257534 35.61851536203176,117.96030431496911 27.241819732822478,112.71523734391667 19.273743402212858,120.5828332582023 24.381484639830887,142.03977451194078 32.962489917874336,147.04636497283354 40.317637300118804,139.89408950833604 35.82282501086593,118.67553978110664 28.26336797978729,112.95364974159747 23.15562674216926,114.38412360288203 19.478053051047027,120.5828332582023 24.381484639830887,141.80136516713537 32.349560969509184,147.04636497283354 38.27454080525786,144.42386658419855 40.317637300118804,139.17886072257534 36.02713466063142,118.43712798389606 27.85474868118763,112.71523734391667 19.68236270081252,119.62918671988882 24.585794287733734,142.2781838318333 33.57541886717081,146.80795615306124 40.317637300118804,140.37090857280418 36.43575395923108,119.15236330078915 27.241819732822478,112.95364974159747 19.273743402212858,120.10601003840566 24.790103938430548,142.51659312658012 33.37110921740532,146.80795615306124 40.521946949884295,139.41727034305222 36.23144431039691,118.43712798389606 26.220271484926343,112.95364974159747 19.478053051047027,119.86759839183651 23.76855568960309,141.08613698277622 30.510774123482406,146.09272954589687" stroke="#4DD2FF" stroke-linecap="round" stroke-linejoin="round" stroke-width="0.5"><title>2026-03-19 5.5km</title><desc>1773929179000</desc></polyline><polyline fill="none" points="65.17527969740331,125.2886561602354 69.93747609946877,143.1678179493174 77.39134872704744,147.27517333929427 83.60290925111622,146.30873743630946 88.15805363375694,137.36918609892018 81.94649311155081,114.8993497050833 71.80094425659627,112.72483776835725 65.79643575008959,122.3893195411656 71.17978820391,144.13425517105497 74.07851644791663,147.75839113863185 82.56764916423708,147.75839113863185 88.36510565225035,139.30206500506029 82.56764916423708,115.86579879536293 72.42210030835122,112.72483776835725 66.003487768583,122.14770799130201 70.9727361863479,143.65103661152534 75.11377653572708,147.5167822514195 82.98175319842994,147.27517333929427 88.15805363375694,138.33562575490214 83.18880521599203,116.83224748005159 78.21955679729581,112.2416126143653 72.62915232684463,112.0 64.96822768077254,122.3893195411656 71.17978820391,144.37586441333406 80.70418100710958,148.0 87.95100161805749,139.060455230996 82.77470118086785,116.83224748005159 73.45736039523035,112.4832252045162 66.21053978614509,121.42287319037132 71.17978820391,143.1678179493174 76.35608864016831,147.5167822514195 82.36059714667499,147.5167822514195 87.95100161805749,139.78528447821736 82.77470118086785,117.55708372686058 73.04325636103749,112.4832252045162 66.21053978614509,121.18126153899357 71.17978820391,143.1678179493174 81.7394410930574,147.75839113863185 88.15805363375694,139.060455230996 83.18880521599203,117.79869575891644 73.45736039523035,112.72483776835725 66.21053978614509,121.18126153899357 71.17978820391,143.1678179493174 80.2900769719854,148.0 87.74394959956408,140.510113498196 82.98175319842994,117.79869575891644 72.8362043434754,112.72483776835725 66.21053978614509,121.42287319037132 71.17978820391,142.44298976683058 75.32082855328918,147.03356440202333 81.7394410930574,147.5167822514195 87.74394959956408,138.81884543132037 82.56764916423708,116.83224748005159 72.8362043434754,112.72483776835725 66.21053978614509,121.18126153899357 71.80094425659627,143.65103661152534 82.36059714667499,147.27517333929427 87.74394959956408,139.060455230996 82.77470118086785,117.31547166942619 72.62915232684463,112.96645030751824 66.41759180277586,121.90609641629271 72.21504829172045,144.37586441333406 82.36059714667499,147.27517333929427 87.95100161805749,139.060455230996 82.1535451291129,116.10741100483574 72.21504829172045,112.72483776835725 66.41759180277586,120.69803816010244 71.80094425659627,143.65103661152534 81.53238907642663,147.27517333929427 87.74394959956408,140.02689417707734 82.77470118086785,117.31547166942619 73.04325636103749,112.96645030751824 66.41759180277586,121.66448481590487 72.21504829172045,144.13425517105497 82.98175319842994,146.79195543914102 87.95100161805749,138.81884543132037 81.7394410930574,115.86579879536293 73.04325636103749,113.20806282083504 66.41759180277586,121.42287319037132 71.59389223810285,143.1678179493174 81.11828504130244,147.27517333929427 87.74394959956408,139.060455230996 82.36059714667499,116.59063534718007 73.66441241372377,113.20806282083504 66.41759180277586,120.45642643258907 71.80094425659627,142.68459918629378 81.32533705886453,147.03356440202333 87.5368975829333,139.54367475491017 82.77470118086785,117.55708372686058 74.07851644791663,113.20806282083504 66.83169583790004,120.21481468016282 71.80094425659627,142.68459918629378 80.49712898954749,147.75839113863185 87.5368975829333,138.81884543132037 82.1535451291129,116.59063534718007 74.07851644791663,112.96645030751824 66.62464382033795,120.45642643258907 72.21504829172045,143.40942729311064 77.18429671041667,147.27517333929427 81.7394410930574,145.82551933266222" stroke="#4DD2FF" stroke-linecap="round" stroke-linejoin="round" stroke-width="0.5"><title>2026-03-18 6.4km</title><desc>1773842529000</desc></polyline><polyline fill="none" points="117.62386477086693,112.0 111.2132334029302,121.81823952589184 119.02619038242847,144.02600259776227 129.24313412606716,147.5324712623842 135.45343326497823,137.71434509032406 127.64047628361732,119.01303264941089 120.22818376403302,119.01303264941089 116.82253585010767,115.7402868277859 112.01456232368946,123.45460857241414 119.62718707323074,143.7922378233634 129.44346635695547,146.83117797062732 134.85243657417595,138.8831719039008 127.44014405272901,118.779265250545 117.42353254090995,115.50651908479631 112.01456232368946,123.68837548117153 119.62718707323074,144.72729677218013 129.24313412606716,147.76623564353213 135.25310103408992,139.81823291350156 128.64213743526489,119.71433470025659 124.23482836969197,115.50651908479631 117.82419700175524,115.03898352617398 111.41356563288718,122.75330770039 118.82585815154016,143.3247082021553 128.0411407444626,148.0 135.25310103408992,141.6883537543472 127.84080851450562,118.31173037854023 118.62552592158318,114.33768000337295 111.41356563288718,122.05200660671107 119.42685484327376,144.49353207205422 130.4451275076717,147.2987068563234 135.65376549493521,138.41564125195146 127.64047628361732,117.84419540804811 117.02286807913333,114.5714478683658 111.2132334029302,123.68837548117153 119.42685484327376,144.25976734701544 128.8424696661532,147.5324712623842 135.05276880413294,138.18187588942237 127.23981182277203,117.61042788578197 116.42187138926238,114.5714478683658 111.0129011720419,122.98707468202338 118.42519369162619,143.5584730252158 129.04280189517885,147.2987068563234 135.05276880413294,138.18187588942237 126.43848290201277,116.67535755340941 116.82253585010767,114.80521570984274 111.2132334029302,123.68837548117153 119.42685484327376,144.49353207205422 130.04446304775774,147.2987068563234 135.05276880413294,138.8831719039008 127.44014405272901,117.61042788578197 117.42353254090995,114.5714478683658 111.2132334029302,123.92214236478321 119.22652261331677,144.49353207205422 130.24479527771473,147.2987068563234 135.25310103408992,138.8831719039008 127.64047628361732,118.07796290586703 117.62386477086693,114.5714478683658 111.2132334029302,122.51954069337808 118.82585815154016,143.3247082021553 128.2414729744196,147.76623564353213 133.2497787307948,144.49353207205422 134.85243657417595,138.64940659073181 127.23981182277203,118.07796290586703 117.22320031002164,115.03898352617398 111.61389786284417,124.62344286986627 119.42685484327376,144.49353207205422 129.44346635695547,147.5324712623842 134.85243657417595,138.18187588942237 127.23981182277203,117.84419540804811 116.02120692841709,115.03898352617398 111.2132334029302,124.38967605982907 121.0295126857236,146.83117797062732 131.046124198474,146.59741349099204 134.85243657417595,137.71434509032406 126.63881513290107,116.90912517323159 120.22818376403302,114.10391211370006 115.01954577676952,115.7402868277859 111.0129011720419,123.92214236478321 120.42851599399,146.12988445884548 131.44678865931928,146.83117797062732 134.65210434328765,137.24681419320405 126.0378184420988,116.44158990914002 115.01954577676952,116.44158990914002 115.01954577676952,122.28577366191894" stroke="#4DD2FF" stroke-linecap="round" stroke-linejoin="round" stroke-width="0.5"><title>2026-03-17 5.6km</title><desc>1773751527000</desc></polyline><polyline fill="none" points="159.89358703512698,119.44832081347704 157.7659211475402,122.92419583396986 165.42551834136248,142.78624082473107 176.06384777929634,147.25517796445638 182.44684544112533,137.8207452117931 174.57448165677488,116.46899530291557 164.14891881030053,112.49655545060523 158.19145432580262,122.67591921566054 166.70211787428707,144.27588747628033 175.63831460103393,148.0 182.44684544112533,138.5655702187214 174.1489484803751,115.47588596516289 163.93615222163498,112.0 157.7659211475402,122.42764257173985 166.27658469695598,144.02761309896596 177.55321389995515,147.25517796445638 182.44684544112533,139.55866986163892 173.29788212571293,115.22760856547393 164.14891881030053,112.74483313714154 157.97868773620576,120.93798216222785 166.27658469695598,143.53106426727027 176.06384777929634,147.25517796445638 181.80854567326605,137.07591997110285 173.51064871344715,115.72416333854198 163.51061904244125,112.99311079760082 158.19145432580262,122.17936590244062 166.91488446388394,144.524161827052 178.40428025461733,147.00690390076488 182.2340788524598,136.33109449595213 174.57448165677488,115.97244068630971 163.29785245470703,112.49655545060523 157.97868773620576,121.93108920590021 166.27658469695598,144.02761309896596 177.55321389995515,147.00690390076488 182.2340788524598,137.8207452117931 173.29788212571293,114.9793311401736 164.57445198763162,112.49655545060523 157.7659211475402,120.93798216222785 165.8510515205562,143.28278981195763 176.06384777929634,147.25517796445638 182.44684544112533,137.8207452117931 173.72341530304402,115.22760856547393 163.51061904244125,112.74483313714154 157.34038797114044,121.68281248398125 166.06381810829043,143.77933869650587 175.21278142370284,147.75172601430677 182.65961202885956,138.31729524233378 174.78724824637175,116.22071800776757 164.36168539896607,112.74483313714154 157.7659211475402,121.43453573668376 165.63828493095934,143.03451533149928 176.27661436609924,147.25517796445638 182.44684544112533,137.32419507717714 174.1489484803751,115.22760856547393 163.51061904244125,112.99311079760082 157.34038797114044,121.93108920590021 167.12765105161816,145.02071044966578 177.12768072169274,147.00690390076488 182.44684544112533,136.33109449595213 174.57448165677488,115.22760856547393 164.14891881030053,112.49655545060523 157.7659211475402,121.68281248398125 166.06381810829043,144.27588747628033 176.4893809556961,147.25517796445638 182.65961202885956,138.8138451683335 174.78724824637175,115.97244068630971 164.14891881030053,112.49655545060523 158.61698750406504,116.46899530291557 157.34038797114044,122.67591921566054 166.91488446388394,144.77243615104817 176.06384777929634,147.50345200207084 182.65961202885956,137.8207452117931 174.78724824637175,115.72416333854198 163.72338563203812,112.99311079760082 157.7659211475402,122.17936590244062 166.27658469695598,144.27588747628033 176.70214754529297,147.25517796445638 182.65961202885956,138.8138451683335 174.1489484803751,115.47588596516289 163.51061904244125,112.74483313714154 157.34038797114044,122.17936590244062 166.06381810829043,144.27588747628033 177.3404473112896,147.25517796445638 182.65961202885956,137.07591997110285 173.93618189077824,114.9793311401736 163.08508586604148,113.24138843128458 157.7659211475402,123.17247242527083 166.48935128655285,144.02761309896596 177.12768072169274,147.00690390076488 182.65961202885956,137.07591997110285 174.78724824637175,116.22071800776757 163.72338563203812,113.9862211770378 158.61698750406504,122.92419583396986 166.27658469695598,143.53106426727027 176.70214754529297,146.5103556937538 182.2340788524598,138.06902024010196 174.36171506810933,116.46899530291557 163.29785245470703,113.9862211770378 158.40422091446817,122.92419583396986 167.12765105161816,144.524161827052 177.3404473112896,146.5103556937538 182.02131226286292,136.08281928510405 173.93618189077824,115.72416333854198 163.08508586604148,113.73794362135231 158.40422091446817,123.42074899072759 166.70211787428707,143.77933869650587 176.4893809556961,147.00690390076488 181.80854567326605,137.57247015787289 175.42554801236838,118.7034897878766 172.02128259278834,116.46899530291557" stroke="#4DD2FF" stroke-linecap="round" stroke-linejoin="round" stroke-width="0.5"><title>2026-03-16 7.4km</title><desc>1773655562000</desc></polyline><polyline fill="none" points="18.660813262686133,157.7218924423214 22.747006681747735,180.60931806755252 32.14525154605508,187.0463649726007 40.52194805443287,179.6556799383834 36.23144496418536,157.00665667490102 26.628890429623425,152.0 19.069432604126632,160.34442166076042 23.155626023188233,182.0397745121736 31.532322532497346,188.0 38.07023200299591,185.139093717793 41.13487706705928,179.178860723041 37.04868364799768,157.96030431403778 31.73663220461458,152.23841247265227 25.198722734116018,152.0 18.865122934803367,161.05965637648478 24.585793720558286,184.66227565379813 32.34956121630967,188.0 39.50039969943464,184.42386658443138 41.33918673824519,178.22522199247032 36.84437397774309,158.9139515531715 29.489225823432207,152.0 19.886671288870275,157.483480544528 23.359935695305467,180.370908573037 32.75818055868149,187.2847737672273 40.52194805443287,180.60931806755252 36.027135292999446,157.24506862228736 26.220271088182926,152.4768249206245 19.273742276243865,159.86759839113802 24.177174378186464,181.80136516713537 33.57541924249381,187.0463649726007 40.72625772561878,179.41727034351788 36.027135292999446,157.483480544528 27.037509771995246,152.0 19.478051947429776,159.62918671942316 23.768555035814643,180.370908573037 32.34956121630967,187.0463649726007 40.52194805443287,179.8940895081032 36.64006430655718,158.43712798366323 31.73663220461458,152.71523734321818 24.790103390812874,152.71523734321818 19.68236161675304,158.19871616107412 23.564245365560055,179.8940895081032 31.532322532497346,187.0463649726007 37.25299331918359,185.3775027121883 40.72625772561878,179.41727034351788 36.027135292999446,157.00665667490102 29.080606481060386,152.0 22.542697011493146,153.9072990824934 19.478051947429776,160.10601003840566 24.177174378186464,181.5629557974171 33.16679990012199,186.8079561535269 40.52194805443287,180.84772753808647 36.027135292999446,157.00665667490102 27.650438784621656,152.23841247265227 19.478051947429776,159.62918671942316 23.768555035814643,180.84772753808647 32.962490228936076,186.56954730884172 40.31763838417828,179.178860723041 35.61851595155895,157.00665667490102 26.833200100809336,152.4768249206245 19.478051947429776,160.10601003840566 24.585793720558286,182.2781838318333 33.779728912748396,186.56954730884172 40.72625772561878,178.22522199247032 36.43575463537127,157.7218924423214 28.263367797248065,152.0 21.92976799700409,154.62253582500853 19.273742276243865,159.62918671942316 24.177174378186464,181.5629557974171 33.37110957223922,186.8079561535269 40.72625772561878,179.178860723041 35.82282562274486,156.7682447019033 27.854748454876244,152.23841247265227 21.521148655563593,155.0993601945229 19.273742276243865,160.82124482979998 23.359935695305467,180.370908573037 32.34956121630967,186.8079561535269 40.52194805443287,180.60931806755252 36.23144496418536,157.24506862228736 27.037509771995246,152.0 22.338387339375913,153.43047446128912 19.273742276243865,160.58283325773664 24.177174378186464,181.5629557974171 33.16679990012199,186.56954730884172 40.72625772561878,178.70204140804708 36.027135292999446,156.7682447019033 27.854748454876244,152.0 19.478051947429776,158.9139515531715 23.564245365560055,180.60931806755252 32.55387088749558,186.8079561535269 40.72625772561878,179.41727034351788 36.23144496418536,157.483480544528 30.510774177499115,152.23841247265227 23.768555035814643,153.19206211389974 19.68236161675304,158.9139515531715 24.381484049372375,175.84112341399305" stroke="#4DD2FF" stroke-linecap="round" stroke-linejoin="round" stroke-width="0.5"><title>2026-03-13 6.0km</title><desc>1773408957000</desc></polyline><polyline fill="none" points="67.17399550694972,153.25875037512742 64.58508518990129,163.3287295922637 74.2934988765046,185.98602825473063 85.2963677207008,186.48952134908177 89.39547572191805,176.671386934584 80.33428961411119,154.26575019955635 70.19439087435603,152.2517501283437 63.937857611104846,161.5664862806443 74.07775634992868,185.98602825473063 85.72785277385265,186.23777481517754 89.39547572191805,176.16789177828468 80.55003214161843,155.02099978993647 69.97864834871143,152.75525030470453 64.80082771647722,163.0769806264434 74.50924140308052,185.73428166704252 84.21765508968383,186.48952134908177 88.74824814219028,176.41963936924003 80.33428961411119,155.02099978993647 73.64627129770815,152.2517501283437 66.52676792722195,154.76924995239824 63.937857611104846,162.06998450146057 72.78330119233578,184.2238015900366 81.6287447726354,187.2447607938666 88.9639906687662,178.4336191471666 80.76577466633171,156.0279988744296 71.92033108603209,152.50350022991188 64.58508518990129,160.81123875151388 71.92033108603209,182.96506746509112 82.70745740458369,186.7412678571418 88.74824814219028,178.6853665006347 80.33428961411119,155.27274960046634 71.70458855945617,152.50350022991188 64.58508518990129,161.5664862806443 72.1360736116767,182.96506746509112 82.27597235236317,186.99301433912478 88.9639906687662,178.4336191471666 80.55003214161843,155.27274960046634 69.76290582213551,153.0070003529545 64.80082771647722,162.82523163524456 72.78330119233578,183.46856119390577 83.57042750995606,186.7412678571418 88.74824814219028,177.6783769284375 79.90280456189066,154.76924995239824 71.92033108603209,152.2517501283437 64.80082771647722,161.31473713065498 72.35181613918394,182.71332056168467 76.88240919262171,186.7412678571418 83.78617003653198,186.7412678571418 88.74824814219028,176.92313447222114 80.76577466633171,156.0279988744296 70.6258759284392,152.75525030470453 65.01657024305314,162.82523163524456 73.64627129770815,184.72729505435564 81.84448730014265,187.2447607938666 88.74824814219028,178.18187176738866 80.55003214161843,155.776249143295 70.6258759284392,153.0070003529545 64.80082771647722,161.81823540455662 73.21478624548763,183.72030801931396 82.27597235236317,187.2447607938666 88.74824814219028,177.9301243617665 81.19725971948355,157.03499753563665 72.56755866575986,152.50350022991188 65.23231276962906,160.81123875151388 72.35181613918394,183.2168143428862 83.13894245680422,186.7412678571418 88.53250561654568,177.42662946972996 80.55003214161843,156.0279988744296 70.41013340093195,153.0070003529545 65.01657024305314,162.57348261750303 73.64627129770815,184.47554833558388 84.64914014190435,185.98602825473063 88.74824814219028,177.42662946972996 80.55003214161843,155.27274960046634 74.50924140308052,152.0 68.25270813796669,154.01400028332137 65.01657024305314,162.06998450146057 73.43052877020091,184.2238015900366 82.92319993115962,186.7412678571418 88.74824814219028,178.18187176738866 79.90280456189066,154.76924995239824 73.64627129770815,152.2517501283437 67.82122308574617,154.51750008924864 65.01657024305314,160.81123875151388 72.78330119233578,188.0 84.00191256217659,186.48952134908177 88.74824814219028,178.18187176738866 79.68706203531474,154.26575019955635 69.33142076991498,153.51050037075765 64.58508518990129,162.06998450146057 73.43052877020091,184.47554833558388 84.00191256217659,186.48952134908177 89.17973319627345,177.42662946972996 79.90280456189066,154.51750008924864 68.89993571769446,153.25875037512742 64.58508518990129,162.32173357275315 73.86201382335275,184.72729505435564 84.21765508968383,186.48952134908177 88.9639906687662,176.671386934584 80.33428961411119,155.02099978993647 69.97864834871143,153.25875037512742 64.58508518990129,163.0769806264434 72.56755866575986,183.2168143428862 82.70745740458369,186.99301433912478 88.9639906687662,177.9301243617665 80.76577466633171,156.27974857925437 70.41013340093195,153.0070003529545 64.80082771647722,162.57348261750303 72.56755866575986,187.4965072227642" stroke="#4DD2FF" stroke-linecap="round" stroke-linejoin="round" stroke-width="0.5"><title>2026-03-12 7.1km</title><desc>1773318933000</desc></polyline><polyline fill="none" points="119.10374411381781,157.22585005743895 113.29842557758093,166.3226648288546 119.26961035747081,183.93551906489301 126.73359133303165,188.0 133.36824108846486,179.8710291722091 127.23119006492198,161.87103767495137 119.93307533301413,158.58069765474647 113.46429182123393,166.70976233435795 119.93307533301413,184.12906597950496 128.22638752683997,187.0322672566399 133.36824108846486,178.90329216315877 126.40185884479433,160.9032912198454 118.60614538192749,159.16134632006288 114.79122177232057,162.2581361150369 113.63015806488693,167.67750574252568 119.60134284477681,184.12906597950496 126.73359133303165,187.61290696344804 132.20717738103122,183.74197213049047 133.36824108846486,179.67748181137722 127.39705630764365,162.4516853048699 119.76720908842981,158.9677967854077 113.63015806488693,166.70976233435795 119.43547660112381,183.74197213049047 128.0605212841183,187.0322672566399 133.20237484481186,179.09683960536495 126.89945757668465,162.8387836230686 118.27441289369017,160.32264310284518 114.29362304043025,168.45170010370202 120.26480782125145,184.12906597950496 127.72878879588097,186.83872064680327 132.70477611292154,179.8710291722091 126.89945757668465,162.8387836230686 119.60134284477681,159.935544256703 114.29362304043025,166.3226648288546 120.43067406490445,184.12906597950496 128.3922537714243,186.64517401705962 133.03650860115886,179.8710291722091 126.56772508937865,162.4516853048699 119.60134284477681,159.74199480260722 114.29362304043025,166.3226648288546 120.09894157759845,183.93551906489301 128.0605212841183,186.4516273663612 132.70477611292154,179.48393442935776 127.06532382033765,163.41943094762973 119.26961035747081,160.32264310284518 114.45948928501457,167.29040844016708 120.76240655221045,184.51615974737797 128.55812001600862,186.06453400512692 132.5389098683372,179.48393442935776 126.40185884479433,162.6452344743302 119.26961035747081,160.32264310284518 114.29362304043025,167.67750574252568 119.93307533301413,183.16133120504674 126.89945757668465,186.64517401705962 132.70477611292154,180.06457651313394 126.40185884479433,162.4516853048699 119.10374411381781,160.32264310284518 114.45948928501457,166.9033110565506 120.59654030948877,183.74197213049047 128.0605212841183,186.25808069563936 132.5389098683372,179.67748181137722 126.07012635748833,162.6452344743302 118.93787787016481,160.32264310284518 114.29362304043025,167.67750574252568 120.76240655221045,184.32261287339497 127.72878879588097,186.4516273663612 132.5389098683372,179.48393442935776 126.23599260114133,162.4516853048699 119.10374411381781,160.51619249535725 114.45948928501457,167.09685975848697 120.43067406490445,184.12906597950496 128.72398625966161,186.06453400512692 132.37304362561554,178.90329216315877 126.23599260114133,162.2581361150369 119.60134284477681,160.12909369007684 115.28882050327957,163.22588185977656 114.45948928501457,167.48395710124169 120.26480782125145,183.548425175366 127.23119006492198,186.4516273663612 132.37304362561554,179.8710291722091 126.23599260114133,162.4516853048699 118.27441289369017,160.51619249535725 114.45948928501457,167.67750574252568 120.76240655221045,184.32261287339497 127.23119006492198,186.64517401705962 132.70477611292154,181.03231291275006 126.73359133303165,163.03233275131788 119.60134284477681,160.12909369007684 114.29362304043025,166.70976233435795 120.09894157759845,183.548425175366 128.22638752683997,186.25808069563936 132.5389098683372,179.8710291722091 126.73359133303165,163.22588185977656 120.43067406490445,160.12909369007684 114.29362304043025,166.3226648288546 120.09894157759845,183.35487820080016 126.73359133303165,186.64517401705962 131.04611367359757,184.32261287339497 132.37304362561554,179.8710291722091 126.73359133303165,163.22588185977656 118.60614538192749,160.51619249535725 114.29362304043025,167.67750574252568 120.26480782125145,183.93551906489301 128.72398625966161,186.25808069563936 132.5389098683372,179.48393442935776 127.06532382033765,164.00007808976807 120.43067406490445,159.35489583492745 118.60614538192749,152.0" stroke="#4DD2FF" stroke-linecap="round" stroke-linejoin="round" stroke-width="0.5"><title>2026-03-10 7.0km</title><desc>1773146401000</desc></polyline><polyline fill="none" points="177.09881291468628,156.98282919748453 178.53992531076074,160.34621525008697 178.1129290452227,161.09363178367494 162.9011870850809,166.6369416891248 162.84781255223788,168.31860973662697 165.8901609443128,174.23555201775162 161.7803218883928,176.41546324820956 162.26069268700667,178.53308363235556 160.39258402516134,179.84102185902884 159.8588386932388,181.64721752813784 162.207318153698,187.25261735677486 163.8619286827743,188.0 165.62328827823512,187.3771811958286 166.31715720961802,185.13502808916382 164.07542681554332,179.46732551715104 161.19320202316158,179.2804772577947 160.17908589239232,181.46036995510804 162.10056908754632,186.81664371333318 163.4883069503121,187.75087255676044 164.98279387992807,187.50174500897992 166.10365907661617,185.19731023418717 164.02205228223465,179.6541737174848 161.46007468900643,179.2804772577947 160.17908589239232,181.58493501023622 162.207318153698,187.00348959985422 164.8226702802349,187.68859067972517 166.21040814346634,185.3218745048507 164.12880134861916,179.9655872542644 161.51344922208227,179.34276001743274 160.17908589239232,181.70950003928738 162.26069268700667,187.06577154877596 165.0361684130039,187.56402690563118 166.21040814346634,185.44643874943722 164.07542681554332,179.84102185902884 161.46007468900643,179.34276001743274 160.232460425701,181.83406504214508 162.26069268700667,187.12805349123664 164.66254668077454,187.68859067972517 166.15703361015767,185.3218745048507 164.12880134861916,179.90330455993535 161.51344922208227,179.34276001743274 160.12571135908365,181.52265248587355 162.7944380189292,187.50174500897992 164.87604481354356,187.6263087958796 166.15703361015767,186.13154162676074 163.4883069503121,179.34276001743274 160.97970389039256,179.6541737174848 160.28583495900966,182.02091249730438 162.42081628646702,187.25261735677486 165.3030410790816,187.31489927961957 166.10365907661617,185.0727459373884 163.80855414946564,179.59189099061769 161.35332562262192,179.46732551715104 160.232460425701,181.83406504214508 162.36744175339118,187.12805349123664 164.02205228223465,187.81315442745108 165.35641561215743,187.31489927961957 166.15703361015767,185.3218745048507 163.70180508308113,179.5296082572313 161.83369642146863,179.09362893970683 160.5527076246217,180.2147179658059 160.97970389039256,183.70253694651183 162.84781255223788,187.4394631058094 165.08954294607975,187.4394631058094 166.10365907661617,186.13154162676074 163.54168148362078,179.46732551715104 161.19320202316158,179.5296082572313 160.232460425701,181.70950003928738 162.207318153698,186.9412076441804 165.0361684130039,187.50174500897992 166.10365907661617,185.0104637791519 163.8619286827743,179.71645643783268 162.10056908754632,179.09362893970683 160.87295482400805,179.84102185902884 160.28583495900966,181.3358048738446 160.76620575785637,183.20427834719885 162.95456161838956,187.56402690563118 164.98279387992807,187.56402690563118 166.10365907661617,186.0692595798173 163.54168148362078,179.46732551715104 161.35332562262192,179.4050427704933 160.232460425701,181.58493501023622 162.15394362062216,186.81664371333318 164.9294193466194,187.50174500897992 166.10365907661617,185.44643874943722 163.75517961615697,179.59189099061769 162.10056908754632,179.15591171901906 160.87295482400805,179.7787391517777 160.49933309154585,182.456889664114 162.3140672200825,186.9412076441804 163.8619286827743,187.75087255676044 165.46316467877477,187.12805349123664 166.10365907661617,185.3218745048507 163.6484305500053,179.5296082572313 161.46007468900643,179.4050427704933 160.28583495900966,180.89982688351301 161.99382002092898,186.31838772876654 164.02205228223465,187.75087255676044 166.10365907661617,185.9446954660234 164.39567401492968,180.46384857292287 162.15394362062216,179.2181944916374 160.7128312245477,179.9655872542644 160.232460425701,181.3358048738446 162.04719455423765,186.62979776842985 164.23555041500367,187.75087255676044 166.10365907661617,185.9446954660234 164.342299481621,180.40156593103893 162.207318153698,179.15591171901906 160.232460425701,181.21123976656236 161.88707095454447,186.31838772876654 164.07542681554332,187.75087255676044 166.05028454377316,186.25610570143908 163.75517961615697,179.6541737174848 161.24657655647025,179.5296082572313 160.232460425701,181.58493501023622 162.3140672200825,187.00348959985422 165.0361684130039,187.4394631058094 166.05028454377316,185.3218745048507 163.91530321608298,179.84102185902884 161.72694735508412,179.2804772577947 160.28583495900966,181.46036995510804 162.36744175339118,187.00348959985422 164.66254668077454,187.6263087958796 166.10365907661617,185.25959237269126 164.12880134861916,180.09015262307366 161.6201982886996,179.34276001743274 160.232460425701,181.70950003928738 162.7944380189292,187.50174500897992 164.71592121361755,187.6263087958796 166.10365907661617,186.00697752606357 164.2889249480795,180.3392832824029 162.42081628646702,179.5296082572313 161.51344922208227,176.78916151210433 164.76929574692622,174.54696839803364 164.98279387992807,173.48815203789854 163.3815578839276,170.18712419946678 163.00793615169823,166.88607799680904 177.73930731299333,161.15591645240784 179.28716877568513,163.8964353997144 176.67181664914824,168.25632581999525 179.1804197090678,163.83415101864375 176.29819491668604,154.4914198295446 177.15218744776212,153.24571122258203 180.1411613067612,153.05885470594512 178.91354704322293,152.0 180.08778677345254,152.24914245377295" stroke="#4DD2FF" stroke-linecap="round" stroke-linejoin="round" stroke-width="0.5"><title>2026-03-09 9.6km</title><desc>1773060645000</desc></polyline><polyline fill="none" points="20.456241618841887,196.40290588815697 25.561042613349855,225.151098274393 35.770644603297114,227.22302712779492 40.43154986016452,217.64034159481525 35.10480099450797,195.36692873947322 24.45130326692015,192.517989335116 19.34650227241218,200.54681013640948 24.89519900549203,224.37412450602278 35.10480099450797,227.48201811267063 40.65349772758782,218.9353012740612 35.32674886379391,195.88491736794822 25.561042613349855,192.0 19.34650227241218,200.02882248605601 24.89519900549203,224.11513319495134 34.88285312522203,227.48201811267063 40.65349772758782,218.67630939232185 35.54869673401117,196.40290588815697 25.117146875709295,192.258994681295 19.34650227241218,199.76982861943543 24.45130326692015,223.3381590996869 34.217009517364204,227.74100907007232 40.65349772758782,219.4532849555835 35.32674886379391,196.1439116410911 26.22688622120768,192.0 19.34650227241218,200.2878163245041 24.67325113620609,223.85614185687155 34.438957386650145,227.74100907007232 40.65349772758782,219.9712685283739 35.54869673401117,196.40290588815697 25.117146875709295,192.258994681295 19.34650227241218,200.2878163245041 24.89519900549203,224.37412450602278 34.217009517364204,227.74100907007232 40.65349772758782,219.7122767549008 35.32674886379391,195.88491736794822 25.561042613349855,192.0 19.34650227241218,199.51083472603932 24.229355397634208,223.0791676803492 34.438957386650145,227.74100907007232 40.65349772758782,218.9353012740612 35.54869673401117,196.1439116410911 24.67325113620609,192.517989335116 19.34650227241218,200.02882248605601 24.45130326692015,223.59715049201623 34.438957386650145,227.74100907007232 40.65349772758782,218.9353012740612 35.54869673401117,196.1439116410911 25.33909474313259,192.258994681295 19.34650227241218,200.02882248605601 25.117146875709295,224.37412450602278 34.660905255936086,227.74100907007232 40.65349772758782,219.19429312855937 35.32674886379391,195.88491736794822 24.45130326692015,192.517989335116 19.34650227241218,200.2878163245041 24.45130326692015,223.59715049201623 33.99506164807826,227.74100907007232 40.65349772758782,218.67630939232185 35.10480099450797,195.36692873947322 24.229355397634208,192.517989335116 19.34650227241218,201.06479767756537 25.78299048356712,225.151098274393 35.32674886379391,227.48201811267063 40.65349772758782,219.19429312855937 35.10480099450797,195.62592306709848 24.45130326692015,192.517989335116 19.34650227241218,200.02882248605601 24.45130326692015,223.3381590996869 33.99506164807826,227.74100907007232 40.65349772758782,219.7122767549008 35.54869673401117,196.40290588815697 26.004938351921737,192.0 19.34650227241218,199.76982861943543 24.45130326692015,223.59715049201623 34.217009517364204,227.74100907007232 40.65349772758782,219.7122767549008 35.770644603297114,196.40290588815697 25.78299048356712,192.0 19.34650227241218,200.02882248605601 24.229355397634208,222.820176234236 33.1072701709345,228.0 40.65349772758782,219.9712685283739 35.770644603297114,196.6619001077488 26.004938351921737,192.0 19.34650227241218,199.51083472603932 24.67325113620609,223.85614185687155 34.438957386650145,227.74100907007232 40.65349772758782,218.9353012740612" stroke="#4DD2FF" stroke-linecap="round" stroke-linejoin="round" stroke-width="0.5"><title>2026-03-07 5.8km</title><desc>1772888148000</desc></polyline><polyline fill="none" points="64.12733064219356,201.05811966047622 70.69555427506566,222.8903582454659 80.84644534159452,227.07097510341555 87.21563189290464,218.709733489668 81.64259366039187,196.64519420149736 72.4868879923597,192.92903962079436 65.32155312038958,199.89682434033602 70.29748011473566,222.19358800142072 80.05029702186584,227.07097510341555 87.0165948132053,218.9419906276744 81.64259366039187,197.34197249123827 72.28785091266036,193.16129946429282 65.52059020102024,201.05811966047622 70.098443034105,222.19358800142072 78.6570374649018,227.53548760013655 86.61852065473795,219.87101893639192 82.04066781885922,198.2710098682437 71.49170259386301,193.39355928450823 65.7196272816509,200.82586064538918 70.29748011473566,221.49681753804907 76.86570374667645,227.07097510341555 82.83681613765657,225.67743702884763 86.41948357410729,220.33553294464946 81.64259366039187,197.80649122828618 75.27340710815042,193.39355928450823 63.530219404026866,196.87745365593582 68.9042205568403,220.33553294464946 76.86570374667645,227.07097510341555 83.63296445738524,225.44518059748225 86.81755773257464,219.87101893639192 82.83681613765657,198.73552841087803 72.4868879923597,193.16129946429282 65.7196272816509,200.59360160608776 70.496517194435,222.42584477365017 79.25414870399982,227.3032313643489 87.0165948132053,218.9419906276744 82.04066781885922,197.57423187186942 72.68592507112771,193.16129946429282 65.7196272816509,201.75489656045102 70.69555427506566,223.3548716204241 80.84644534159452,227.3032313643489 87.0165948132053,219.17424774100073 82.23970489948988,197.57423187186942 73.48207339085639,193.16129946429282 67.51096099894494,196.64519420149736 65.7196272816509,201.98715547821485 70.89459135383368,222.8903582454659 80.44837118126452,226.8387188189663 86.61852065473795,220.56778991175815 81.8416307400912,197.80649122828618 72.0888138320297,193.39355928450823 65.52059020102024,202.45167324040085 70.69555427506566,223.3548716204241 74.27822170965374,226.8387188189663 82.23970489948988,226.606462509837 88.21081729233265,218.9419906276744 83.03585321828723,197.80649122828618 79.25414870399982,192.696779752383 74.67629586998373,192.46451985905878 65.91866436041892,198.73552841087803 69.89940595533699,222.42584477365017 79.85125994216651,227.53548760013655 87.21563189290464,218.2452191398479 82.63777905981988,198.73552841087803 72.88496215175837,193.62581907981075 65.91866436041892,201.29037865134887 70.496517194435,222.8903582454659 79.45318578369915,227.53548760013655 86.81755773257464,219.17424774100073 82.04066781885922,198.2710098682437 73.28303631022573,193.39355928450823 65.7196272816509,200.36134254164062 70.69555427506566,222.8903582454659 79.25414870399982,227.53548760013655 86.61852065473795,219.40650483081117 81.44355658069253,196.1806752202101 72.0888138320297,193.39355928450823 65.7196272816509,200.36134254164062 70.69555427506566,223.12261494528502 79.45318578369915,227.3032313643489 86.81755773257464,219.6387618954759 82.43874197918922,198.2710098682437 74.0791846299544,192.696779752383 65.7196272816509,199.89682434033602 70.496517194435,221.9613312049769 77.66185206640512,228.0 86.61852065473795,221.49681753804907 82.83681613765657,199.20004685595632 74.87533294875175,192.0 66.51577559951693,197.57423187186942 69.10325763653964,219.6387618954759 73.68111047055572,226.8387188189663 81.8416307400912,226.606462509837 89.80311392992735,217.54844743316062" stroke="#4DD2FF" stroke-linecap="round" stroke-linejoin="round" stroke-width="0.5"><title>2026-03-03 6.2km</title><desc>1772541737000</desc></polyline><polyline fill="none" points="114.87142027448863,213.80579324893188 115.92915940657258,221.8286183917662 119.80753622483462,226.5600126956124 126.85913044121116,227.17715024144854 131.9715362470597,222.0343314249767 128.97460870537907,202.28578176232986 122.27559420000762,196.1143191830488 116.28173911757767,197.76004443748388 112.93223186489195,203.10864197160117 116.45802897308022,222.24004443641752 119.10237680468708,226.14858755795285 125.62510145269334,227.58857516397256 131.9715362470597,220.59433973836713 127.74057971779257,200.84577556489967 120.68898550234735,196.1143191830488 114.87142027448863,199.2000529016368 112.93223186489195,203.72578690119553 116.98689853865653,223.0628962678602 120.8652753578499,226.97143774759024 126.68284058570862,226.97143774759024 131.61895653698593,219.56577359919902 127.56428986229002,201.46292120788712 118.92608694825321,196.52575062564574 113.10852172132581,204.54864650580566 119.10237680468708,226.5600126956124 127.56428986229002,226.97143774759024 132.3241159580648,220.59433973836713 127.91686957329512,201.0514908010373 120.68898550234735,196.1143191830488 115.40028984099627,198.78862201992888 112.93223186489195,204.54864650580566 117.16318839415908,223.2686091719661 120.33640579134226,228.0 124.91994203161448,227.38286271377 131.61895653698593,219.77148687071167 127.56428986229002,200.84577556489967 119.10237680468708,196.32003491534851 112.7559420093894,203.52007194596808 116.98689853865653,223.0628962678602 123.86220289859921,227.38286271377 131.44266668055207,220.18291334749665 127.21171015128493,200.43434502906166 119.45495651476085,196.73146631533746 112.93223186489195,204.34293163730763 117.51576810516417,223.47432205383666 125.97768116369843,226.97143774759024 131.61895653698593,219.97720011952333 127.21171015128493,200.6400603079237 119.10237680468708,196.32003491534851 113.10852172132581,203.52007194596808 116.98689853865653,222.24004443641752 125.27252174261957,226.76572523266077 131.44266668055207,220.18291334749665 127.38800000678748,200.6400603079237 119.10237680468708,196.73146631533746 113.10852172132581,204.75436135276686 117.33947824966162,222.85718334221747 125.44881159812212,227.17715024144854 131.44266668055207,218.74292029999197 127.03542029671371,200.43434502906166 118.57350723817945,196.52575062564574 113.10852172132581,204.1372167469235 117.51576810516417,223.2686091719661 125.97768116369843,226.97143774759024 131.44266668055207,219.56577359919902 127.38800000678748,201.0514908010373 118.74979709275067,196.93718198267743 112.93223186489195,203.52007194596808 117.6920579597354,223.88574775354937 125.62510145269334,226.97143774759024 131.44266668055207,219.97720011952333 127.21171015128493,200.84577556489967 118.57350723817945,197.55432885640766 113.98997099790722,201.46292120788712 113.28481157589704,205.98864998226054 117.33947824966162,224.5028861410683 126.68284058570862,227.79428759252187 132.3241159580648,219.77148687071167 127.74057971779257,200.02291440637782 119.45495651476085,196.1143191830488 112.57965215481818,203.72578690119553 116.98689853865653,223.47432205383666 121.04156521335244,226.97143774759024 127.03542029671371,226.76572523266077 131.61895653698593,218.12578009895515 126.50655073020607,198.99433747166768 116.81060868315399,196.93718198267743 112.7559420093894,205.1657909823116 119.80753622483462,227.58857516397256 128.6220289953053,226.97143774759024 134.08701451215893,216.274358329596 127.38800000678748,199.40576830971986 114.51884056441486,192.0" stroke="#4DD2FF" stroke-linecap="round" stroke-linejoin="round" stroke-width="0.5"><title>2026-03-02 6.1km</title><desc>1772458755000</desc></polyline><polyline fill="none" points="162.85029940120876,215.40990968915867 162.77844311390072,218.09382805478526 161.77245508972555,218.34544493909925 157.38922155741602,217.75833875266835 154.1556886229664,215.57765485125128 152.0,202.07405649137218 152.50299401208758,199.1384614018025 181.38922155695036,196.7899775565602 183.90419161738828,197.9642203428666 184.98203592840582,202.24180445616366 184.62275449139997,209.11944065848365 188.0,215.24216449150117 186.9940119762905,219.85514457843965 181.96407185681164,223.12615066865692 173.988023952581,222.622919834801 167.6646706587635,218.6809339944739 159.329341317527,218.34544493909925 155.23353293398395,216.66799754666863 153.8682634732686,214.2356925663189 152.0,200.39657490496757 153.65269461087883,198.38359234802192 183.4011976053007,197.3770991655765 184.98203592840582,201.82243447820656 184.4071856290102,209.11944065848365 187.7844311380759,216.83574244455667 186.13173652719706,220.77773739682743 182.2514970060438,223.04227888514288 173.55688622780144,222.53904799825978 167.73652694607154,218.84867846948327 163.13772455137223,218.2615726533113 162.70658682659268,216.83574244455667 162.63473053928465,218.2615726533113 160.76646706601605,218.42931721609784 155.59281437145546,216.91961488017114 153.9401197610423,214.90667399088852 152.0,200.14495236298535 153.65269461087883,198.38359234802192 183.329341317527,197.29322467651218 184.98203592840582,201.9063084916561 184.4071856290102,208.8678208659403 187.7844311380759,216.75186999992002 185.4850299404934,221.5325852733804 181.2455089823343,223.21002244349802 173.9161676648073,222.53904799825978 168.23952095862478,219.10029511561152 158.46706586843356,218.17770035844296 154.80239520967007,216.24863514781464 152.0,201.319190213806 153.0778443114832,198.635215445247 183.4011976053007,197.3770991655765 185.05389221571386,200.98369386140257 184.55089820362628,209.0355674030725 187.7125748503022,216.33250764512923 185.55688622780144,221.4487133222283 181.82035928126425,223.21002244349802 174.70658682659268,222.87453529139748 167.88023952115327,219.01642290892778 162.9940119762905,218.34544493909925 169.60479041934013,220.190632999409 162.9221556885168,218.17770035844296 163.13772455137223,212.3066178293666 166.0838323351927,212.05499904160388 165.94011976057664,213.22921937220963" stroke="#4DD2FF" stroke-linecap="round" stroke-linejoin="round" stroke-width="0.5"><title>2026-02-27 6.1km</title><desc>1772195478000</desc></polyline><polyline fill="none" points="25.940119760576636,252.30661831400357 23.06586826359853,252.55823707510717 22.634730538353324,258.1777020767331 17.892215569037944,257.7583403828903 14.443113772198558,255.66152860893635 12.0,241.57081061444478 12.718562874011695,238.88683612796012 43.1137724542059,237.12547296629054 45.0538922152482,241.99018081265967 44.40718562807888,248.44845404312946 47.9281437122263,256.5002539793495 46.56287425151095,260.44225141673815 43.041916167363524,262.8745379966567 35.28143712552264,262.70679433242185 27.736526946071535,258.5970635502599 18.25149700604379,258.00995742558734 15.377245509065688,256.5002539793495 14.08383233519271,255.24216559296474 12.0,241.3191883895779 13.724550898186862,238.2158410960692 43.40119760436937,237.4609710110817 45.12574850209057,241.40306247322587 44.62275449046865,248.9516939187888 47.9281437122263,255.4937834290322 47.568862275220454,258.76480807800544 45.55688622733578,261.61645965639036 42.89820359228179,263.04228162555955 35.92814371269196,263.1261534266523 27.01796407159418,258.4293189875316 16.383233532775193,257.3389784687897 14.08383233519271,254.82280235690996 12.143712575081736,241.99018081265967 12.28742514969781,239.7255791243515 13.868263472802937,238.38358990690904 43.47305389214307,237.20934749062872 45.0538922152482,242.2418028258253 44.40718562807888,248.19683398655616 47.9281437122263,255.4937834290322 46.41916167642921,260.7777396615711 42.61077844258398,262.958409815561 35.56886227475479,262.958409815561 27.449101796373725,258.5970635502599 16.670658682473004,257.42285086907214 13.868263472802937,253.39696570648812 12.071856287308037,241.4869365482591 13.149700598791242,238.55133868253324 42.467065867967904,236.78997478069505 44.91017964063212,240.98369196651038 44.69461077824235,249.87429953279207 48.0,256.5002539793495 44.91017964063212,261.95194740773877 41.10179640678689,263.21002521924675 34.41916167642921,262.6229224872659 27.30538922175765,258.5970635502599 17.317365269642323,257.84221273940057 14.011976048350334,254.73892968340078 12.071856287308037,241.4869365482591 13.293413173407316,238.55133868253324 42.754491017665714,236.87384934030706 45.19760478986427,241.73855872033164 44.40718562807888,248.70007402054034 47.856287424918264,255.82927375327563 45.84431137656793,261.19709976913873 42.395209580659866,263.04228162555955 36.718562874011695,263.04228162555955 27.520958083681762,258.5970635502599 23.281437125522643,258.26157438900555 23.281437125522643,252.3904912431608 26.227544910274446,252.3904912431608" stroke="#4DD2FF" stroke-linecap="round" stroke-linejoin="round" stroke-width="0.5"><title>2026-02-22 7.4km</title><desc>1771753684000</desc></polyline><polyline fill="none" points="72.24750498961657,252.47436140535865 69.94810379203409,252.30661555565894 68.94211576785892,258.42931622918695 64.34331337315962,257.84220998105593 61.03792415140197,255.74539842718514 58.666666666511446,241.99017805431504 59.16966067859903,239.390079273202 89.63672654610127,237.20934473228408 91.72055888175964,241.738555961987 91.21756486967206,249.11943771503866 94.59481037873775,255.74539842718514 92.72654690546915,261.0293529940536 88.91816367208958,263.0422788672149 82.37924151634797,262.8745352383121 74.69061876181513,258.84867757029133 63.40918163675815,257.67446525924606 60.96606786409393,255.57765326503431 58.73852295381948,242.91279171506176 59.025948103517294,239.64170210593147 60.39121756469831,238.71908466448076 89.85229540849105,237.1254702079459 91.72055888175964,241.57080785610015 91.2894211569801,249.6226771674701 94.52295409142971,255.74539842718514 92.65469061816111,261.11322500690585 89.27744510909542,263.0422788672149 82.23552894126624,262.8745352383121 74.04391217557713,258.68093306029914 62.906187624204904,257.1712308830465 60.96606786409393,255.40990806743503 58.81037924159318,242.577295961848 58.88223552890122,239.64170210593147 60.31936127692461,238.4674615408876 89.63672654610127,236.95772113272687 91.64870259398594,241.57080785610015 91.3612774447538,249.45493071863893 94.66666666651145,256.4163787237485 92.79840319324285,260.86160894221393 87.19361277390271,263.0422788672149 81.87624750472605,262.7906634105602 74.04391217557713,258.5970607919153 65.92415169626474,258.1776993183885 61.61277445079759,256.3325062174117 58.81037924159318,242.577295961848 59.025948103517294,239.30620497796917 63.26546906167641,238.21583833772456 90.06786427088082,237.29321924818214 91.79241516860202,242.07405206776457 91.07385229459032,249.03556444199057 94.66666666651145,256.0808886458981 92.43912175577134,261.3648409922025 89.06187624717131,262.9584070572164 82.81037924112752,262.8745352383121 74.6187624745071,258.7648053196608 69.94810379203409,258.1776993183885 70.01996007934213,251.8872507775086 74.18762475019321,253.31309012463316" stroke="#4DD2FF" stroke-linecap="round" stroke-linejoin="round" stroke-width="0.5"><title>2026-02-17 6.0km</title><desc>1771315721000</desc></polyline><polyline fill="none" points="119.32932531740516,252.90532582823653 116.65998663986102,252.40007161378162 115.86639946559444,258.3788927356363 111.10487641952932,257.95785045454977 107.85838343389332,255.9368444265565 105.40547762205824,242.12650016514817 105.91048764204606,239.01071886211867 136.13894455553964,236.7370329683181 138.59185036737472,241.95807986380532 138.0868403473869,249.03170204354683 141.33333333348855,256.61051366874017 139.8183032735251,260.65251723118126 135.85036740126088,263.0103432289907 127.8423513690941,262.75771934667137 120.84435537736863,258.7157264012494 112.18704074854031,258.1262673935853 108.94054776243865,256.77893089089775 107.42551770247519,254.2526688433136 105.33333333348855,240.6107161793625 107.06479625916108,238.25282428099308 136.93253173027188,237.24229705776088 138.51970607833937,241.53702895576134 137.79826319310814,247.85276934917783 141.33333333348855,256.44209641125053 140.25116900447756,260.2314761446323 136.13894455553964,263.09455117193284 127.55377421528101,262.58930338086793 120.84435537736863,258.7157264012494 111.8984635937959,258.1262673935853 108.57982631912455,256.44209641125053 105.40547762205824,240.6107161793625 107.13694054773077,238.33703482506098 136.7882431531325,237.1580863984418 138.51970607833937,241.62123915506527 137.94255177024752,248.1053979297867 141.33333333348855,256.77893089089775 140.17902471590787,260.3156843795441 136.42752171028405,262.9261352769099 128.99665998667479,262.9261352769099 120.33934535738081,258.6315179980593 109.73413493670523,257.45259942521807 107.42551770247519,254.92633950116578 105.47762191062793,242.9686011407175 105.40547762205824,240.02124385518255 106.92050768202171,238.50545588764362 136.0668002674356,236.8212436720496 138.51970607833937,241.368608530669 138.15898463595659,249.03170204354683 141.33333333348855,256.02105311275227 139.3854375416413,261.24197438085685 136.28323313314468,263.0103432289907 130.2231128923595,263.2629670316819 120.77221108879894,258.7157264012494 116.5156980631873,258.3788927356363 116.58784235129133,252.40007161378162 119.54575818311423,252.65269876096863" stroke="#4DD2FF" stroke-linecap="round" stroke-linejoin="round" stroke-width="0.5"><title>2026-02-14 5.9km</title><desc>1771077344000</desc></polyline></svg>