<?xml version="1.0" encoding="utf-8" ?>
<svg baseProfile="full" height="300mm" version="1.1" viewBox="0,0,200,300" width="200mm" xmlns="http://www.w3.org/2000/svg" xmlns:ev="http://www.w3.org/2001/xml-events" xmlns:xlink="http://www.w3.org/1999/xlink"><defs /><rect fill="#222222" height="300" width="200" x="0" y="0" /><text fill="#FFFFFF" style="font-size:12px; font-family:Arial; font-weight:bold;" x="10" y="20">Over 10km Runs</text><text fill="#FFFFFF" style="font-size:4px; font-family:Arial" x="10" y="280">Runner</text><text fill="#FFFFFF" style="font-size:9px; font-family:Arial" x="10" y="290">absx</text><text fill="#FFFFFF" style="font-size:4px; font-family:Arial" x="65" y="280">SPECIAL TRACKS</text><rect fill="yellow" height="2.6" width="2.6" x="65" y="283" /><text fill="#FFFFFF" style="font-size:3px; font-family:Arial" x="70" y="285.5">Over 10.0 km</text><rect fill="red" height="2.6" width="2.6" x="65" y="287" /><text fill="#FFFFFF" style="font-size:3px; font-family:Arial" x="70" y="289.5">Over 20.0 km</text><text fill="#FFFFFF" style="font-size:4px; font-family:Arial" x="120" y="280">STATISTICS</text><text fill="#FFFFFF" style="font-size:3px; font-family:Arial" x="120" y="285">Number: 24</text><text fill="#FFFFFF" style="font-size:3px; font-family:Arial" x="120" y="290">Weekly: 2.7</text><text fill="#FFFFFF" style="font-size:3px; font-family:Arial" x="141" y="285">Total: 168.3 km</text><text fill="#FFFFFF" style="font-size:3px; font-family:Arial" x="141" y="290">Avg: 7.0 km</text><text fill="#FFFFFF" style="font-size:3px; font-family:Arial" x="167" y="285">Min: 5.2 km</text><text fill="#FFFFFF" style="font-size:3px; font-family:Arial" x="167" y="290">Max: 12.0 km</text><polyline fill="none" points="20.422151585109532,42.1177054673899 23.648374209180474,61.4118079256732 28.487708143889904,67.29412320326082 35.34343121945858,67.76470775948837 41.79587646666914,60.941222035791725 36.75490361638367,36.70591520052403 26.471319005824625,32.941183829912916 18.00248461868614,41.647115528350696 24.656568778678775,63.29415049380623 33.73031990788877,68.0 41.99751538038254,60.70592905464582 37.96473710145801,38.82357381703332 29.495902713388205,32.47059196396731 23.043457467108965,34.58825458283536 20.22051267232746,39.294164349325 23.245096381753683,60.0000499621965 31.713930767960846,67.76470775948837 38.5696538425982,65.6470764814876 41.99751538038254,59.29417064646259 37.56145927216858,38.1176878339611 31.915569681674242,32.70588790951297 26.471319005824625,32.70588790951297 20.01887375768274,41.647115528350696 24.656568778678775,62.58827221556567 32.31884751096368,67.76470775948837 38.972931670956314,65.17649148148485 41.99751538038254,58.823584312573075 37.56145927216858,38.1176878339611 29.29426380060613,32.0 21.02706832718104,36.9412107008975 19.817234843038023,42.82359019154683 25.46312443446368,64.0000285494607 36.35162578895688,66.82353854901157 41.594237552024424,57.17653136746958 36.553264702670276,36.23532412480563 31.915569681674242,32.47059196396731 24.051652037538588,34.35295883473009 19.817234843038023,43.05888505023904 27.076235746964812,66.35295379650779 38.166376014240086,66.11766138323583 41.39259863924235,56.00006423681043 36.35162578895688,36.70591520052403 30.302458370104432,32.70588790951297 24.656568778678775,33.647071443730965 19.817234843038023,41.88241051021032 25.46312443446368,63.5294432034716 29.495902713388205,67.05883088894188 36.75490361638367,66.82353854901157 41.594237552024424,57.88241134933196 35.94834796153009,36.23532412480563 25.664763349108398,33.4117755969055 20.01887375768274,42.353000400355086 25.261485521681607,63.29415049380623 35.141792305745184,66.82353854901157 41.39259863924235,57.88241134933196 35.94834796153009,36.000028549693525 30.100819456391037,32.47059196396731 24.253290951251984,33.647071443730965 20.01887375768274,41.647115528350696 26.269680091179907,64.70590638322756 35.34343121945858,66.82353854901157 41.19095972459763,58.58829110930674 36.149986875243485,36.70591520052403 25.46312443446368,33.17647972586565 20.01887375768274,42.1177054673899 25.05984660703689,62.3529794071801 34.94015339203179,67.05883088894188 41.594237552024424,58.35299788089469 35.141792305745184,35.294141677208245 28.28606923017651,32.235295994440094 21.63198506925255,36.000028549693525 20.01887375768274,41.88241051021032 27.076235746964812,65.17649148148485 35.141792305745184,67.05883088894188 41.39259863924235,57.64711804664694 36.149986875243485,36.70591520052403 31.109014025889337,32.941183829912916 25.46312443446368,33.4117755969055 20.22051267232746,41.41182052181102 26.471319005824625,64.47061379649676 35.94834796153009,66.82353854901157 41.39259863924235,56.94123799074441 36.553264702670276,37.41180162760429 25.05984660703689,34.35295883473009 20.62379049975425,42.353000400355086 26.06804117746651,63.05885775969364 34.73851447738707,66.82353854901157 41.594237552024424,57.64711804664694 35.746709047816694,36.000028549693525 25.46312443446368,33.4117755969055 20.422151585109532,42.1177054673899 25.866402263753116,63.29415049380623 36.149986875243485,66.5882461850997 41.39259863924235,57.41182471928187 35.94834796153009,36.23532412480563 24.858207693323493,33.88236726517789 20.62379049975425,41.647115528350696 26.06804117746651,63.5294432034716 31.713930767960846,67.29412320326082 36.95654253102839,66.11766138323583 41.19095972459763,57.64711804664694 35.5450701341033,36.000028549693525 30.50409728474915,32.70588790951297 24.858207693323493,33.88236726517789 20.422151585109532,41.88241051021032 26.6729579186067,64.70590638322756 37.56145927216858,66.11766138323583 41.39259863924235,56.94123799074441 35.34343121945858,35.294141677208245 24.253290951251984,34.11766306194477 19.61559593025595,41.88241051021032 26.269680091179907,64.70590638322756 36.149986875243485,66.82353854901157 41.79587646666914,57.41182471928187 35.746709047816694,36.000028549693525 28.890985972248018,32.70588790951297 23.043457467108965,35.05884600360878 20.422151585109532,42.1177054673899 26.06804117746651,63.76473588915542 36.35162578895688,66.5882461850997 41.594237552024424,57.41182471928187 36.149986875243485,37.41180162760429 26.6729579186067,33.647071443730965 20.62379049975425,41.88241051021032 25.46312443446368,62.3529794071801 35.141792305745184,67.05883088894188 41.79587646666914,58.58829110930674 36.75490361638367,37.647097054636106 27.277874660678208,33.17647972586565 20.422151585109532,41.88241051021032 25.05984660703689,61.8823937154375 35.141792305745184,67.05883088894188 41.39259863924235,59.76475688186474 36.553264702670276,37.17650617659092 26.6729579186067,33.17647972586565 20.422151585109532,42.353000400355086 26.471319005824625,64.23532118485309 31.915569681674242,67.52941549383104 37.158181444741786,66.11766138323583 41.19095972459763,56.70594458980486 35.746709047816694,36.23532412480563 29.89918054174632,32.70588790951297 23.245096381753683,35.52943732589483 20.422151585109532,42.58829530864023 26.874596833251417,64.47061379649676 37.56145927216858,65.88236894481815 41.39259863924235,56.00006423681043 36.149986875243485,36.9412107008975 30.302458370104432,33.17647972586565 24.253290951251984,34.58825458283536 20.62379049975425,42.82359019154683 27.076235746964812,64.70590638322756 36.553264702670276,66.35295379650779 41.19095972459763,57.41182471928187 35.5450701341033,36.23532412480563 29.092624885961413,33.17647972586565 22.84181855339557,36.000028549693525 20.62379049975425,42.353000400355086 27.479513574391603,64.23532118485309 33.73031990788877,66.5882461850997 39.376209498383105,63.76473588915542 41.19095972459763,57.41182471928187 38.972931670956314,51.29418954020366" stroke="yellow" stroke-linecap="round" stroke-linejoin="round" stroke-width="0.5"><title>2026-04-12 10.0km</title><desc>1775998912000</desc></polyline><polyline fill="none" points="68.07531794905663,52.73425012198277 71.98047645762563,64.12661094102077 77.83821421954781,67.54430752829649 86.03904708847404,64.81015068874694 88.77265804354101,56.151964645134285 83.11017820611596,35.64559678873047 76.86192459333688,32.0 71.1994447549805,33.594949348364025 66.1227386938408,42.025376436533406 72.95676608476788,65.49369022180326 80.18130932562053,68.0 86.82007878925651,64.35445754765533 87.01533671561629,48.632985590724275 79.98605139926076,32.9113997714594 73.73779778648168,32.2278499789536 68.07531794905663,36.1012959566433 67.68480209819973,50.455770782893524 74.90934533905238,66.63292229757644 81.35285687819123,67.77215377590619 87.79636841639876,62.075990405865014 84.47698368411511,38.60763967130333 75.29986118990928,32.0 66.70851247012615,39.29118745471351 70.61367097869515,60.48106198362075 78.22873007133603,67.54430752829649 86.03904708847404,64.81015068874694 88.18688426725566,59.56967378826812 83.89120990782976,38.60763967130333 74.90934533905238,32.2278499789536 68.66109172534198,35.417747168801725 66.31799662020057,40.65828237612732 70.61367097869515,60.70890897233039 79.00976177211851,67.08861496066675 84.47698368411511,65.49369022180326 87.99162634275854,59.34182667918503 83.69595198333263,38.1519410291221 75.88563496619463,32.6835498646833 66.90377039648592,39.74688585754484 71.58996060676873,62.075990405865014 80.18130932562053,66.40507592982613 87.79636841639876,58.202590776840225 82.91492028068751,37.240543458843604 74.51882948726416,33.594949348364025 67.2942862464115,41.34182951413095 71.58996060676873,61.39244979713112 81.74337272811681,66.63292229757644 87.79636841639876,58.886132390005514 82.32914650533348,36.55699502909556 73.73779778648168,33.36709951329976 67.2942862464115,40.430433282628655 71.58996060676873,61.848143559880555 81.54811480268836,66.63292229757644 87.60111049190164,59.11397954612039 82.71966235619038,37.240543458843604 73.73779778648168,33.36709951329976 67.2942862464115,42.253225362626836 71.78521853126585,61.62029669014737 81.74337272811681,66.17722953879274 87.60111049190164,58.43043800489977 83.11017820611596,38.60763967130333 74.71408741362393,33.36709951329976 67.48954417277128,39.97473502345383 71.39470268040895,60.70890897233039 78.42398799583316,66.63292229757644 87.01533671561629,61.164602879667655 83.30543613247573,38.835488956654444 75.49511911533773,33.36709951329976 67.68480209819973,41.113980491645634 71.78521853126585,60.70890897233039 78.22873007133603,66.63292229757644 87.01533671561629,60.93675593822263 82.71966235619038,38.379790362436324 74.12831363733858,33.36709951329976 67.68480209819973,40.430433282628655 72.3709923075512,62.5316840254236 80.18130932562053,66.63292229757644 87.21059464104474,59.11397954612039 83.11017820611596,39.06333821755834 75.29986118990928,33.36709951329976 64.5606752904132,42.025376436533406 66.1227386938408,36.329145504394546" stroke="#4DD2FF" stroke-linecap="round" stroke-linejoin="round" stroke-width="0.5"><title>2026-04-09 5.2km</title><desc>1775733938000</desc></polyline><polyline fill="none" points="114.05794815905392,40.94123043469153 118.09072432201356,63.29415049427189 123.93824975844473,68.0 130.18905280996114,66.8235385499429 134.62510658893734,59.7647568823304 128.7775811534375,37.17650617752224 118.89727955497801,33.647071443963796 113.04975411854684,43.529474694048986 119.09891836252064,64.00002855015919 129.58413638547063,66.5882461857982 134.22182897292078,59.5294637773186 127.97102592140436,36.00002855062485 118.69564074650407,33.88236726610921 113.85630935057998,43.764769478701055 119.09891836252064,64.70590638322756 128.97921996191144,67.29412320465781 134.22182897292078,58.82358431373723 128.7775811534375,36.70591520075686 119.50219597946852,33.647071443963796 114.05794815905392,43.29417988471687 119.70383478607982,64.70590638322756 129.78577519394457,67.0588308898732 134.62510658893734,58.35299788136035 129.18085877038538,37.411801629234105 120.71202882751822,33.1764797270298 114.05794815905392,42.35300040128641 118.69564074650407,63.76473588938825 128.3743035364896,67.52941549452953 133.81855135783553,60.4706360490527 128.57594234589487,36.47061967570335 120.30875121057034,32.94118383084424 113.65467054303735,42.35300040128641 119.30055717099458,64.2353211864829 128.17266472894698,67.29412320465781 134.02019016537815,60.0000499621965 129.382497577928,37.17650617752224 120.30875121057034,32.70588791067712 113.85630935057998,41.176525491289794 118.69564074650407,62.82356500066817 127.97102592140436,67.29412320465781 133.81855135783553,59.7647568823304 129.18085877038538,37.17650617752224 120.71202882751822,32.94118383084424 113.85630935057998,41.64711552881636 118.89727955497801,63.529443204402924 128.17266472894698,67.52941549452953 134.42346778232604,59.05887749278918 128.97921996191144,36.70591520075686 119.90547359548509,33.1764797270298 113.85630935057998,41.64711552881636 118.4940019370988,63.29415049427189 127.97102592140436,67.52941549452953 134.22182897292078,59.7647568823304 129.58413638547063,37.17650617752224 120.10711240395904,33.1764797270298 113.85630935057998,42.82359019247815 119.09891836252064,64.00002855015919 129.18085877038538,67.0588308898732 134.42346778232604,59.29417064739391 128.97921996191144,36.70591520075686 119.30055717099458,33.41177559806965 112.04156007710844,45.17653766646981 119.90547359548509,65.17649148218334 129.382497577928,66.5882461857982 134.22182897292078,59.05887749278918 128.17266472894698,36.00002855062485 119.70383478607982,33.1764797270298 113.85630935057998,41.64711552881636 118.4940019370988,63.529443204402924 128.3743035364896,67.29412320465781 134.22182897292078,59.05887749278918 128.3743035364896,36.23532412527129 120.10711240395904,32.70588791067712 113.65467054303735,41.88241051090881 118.69564074650407,63.529443204402924 123.73661094903946,67.29412320465781 129.58413638547063,66.5882461857982 134.02019016537815,58.5882911097724 127.7693871119991,36.00002855062485 119.30055717099458,33.41177559806965 114.05794815905392,43.29417988471687 118.89727955497801,63.76473588938825 129.382497577928,66.8235385499429 133.81855135783553,58.35299788136035 128.57594234589487,36.70591520075686 117.08253028150648,32.0 113.65467054303735,43.29417988471687 119.30055717099458,64.2353211864829 129.382497577928,67.0588308898732 134.02019016537815,58.82358431373723 128.57594234589487,36.70591520075686 119.09891836252064,33.41177559806965 113.45303173456341,41.64711552881636 118.4940019370988,63.05885775969364 128.17266472894698,67.29412320465781 134.22182897292078,59.05887749278918 128.7775811534375,37.411801629234105 120.71202882751822,32.47059196489863 113.85630935057998,40.94123043469153 118.4940019370988,63.05885775969364 128.57594234589487,67.0588308898732 134.22182897292078,58.35299788136035 129.18085877038538,37.17650617752224 120.91366763506085,32.70588791067712 114.05794815905392,41.176525491289794 118.89727955497801,63.29415049427189 128.7775811534375,66.8235385499429 134.22182897292078,59.05887749278918 128.97921996191144,37.411801629234105 120.5103900199756,33.1764797270298 112.04156007710844,42.11770546878688" stroke="#4DD2FF" stroke-linecap="round" stroke-linejoin="round" stroke-width="0.5"><title>2026-03-31 7.6km</title><desc>1774955750000</desc></polyline><polyline fill="none" points="158.64925690367818,40.15099601307884 163.69403161294758,60.7547652721405 168.54477652627975,67.09434698987752 173.3955214396119,67.32076027756557 181.35074309632182,59.39628105121665 174.17164062522352,35.16983544290997 163.69403161294758,33.358501475071535 159.0373164974153,43.094403670635074 165.05224018916488,65.05662632663734 172.03731286339462,68.0 179.41044513136148,64.15097208041698 180.96268350351602,58.2642102134414 176.88805777672678,39.24533131043427 170.09701489843428,32.90566774457693 164.27612100262195,33.13208462158218 159.61940588708967,39.69816370937042 163.30597202014178,61.20759315509349 172.81343204993755,67.54717354243621 180.96268350351602,60.52835129504092 175.72387899737805,37.660417165607214 166.41044876538217,32.0 160.97761446237564,35.16983544290997 159.61940588708967,41.28307635639794 163.69403161294758,61.43400706141256 172.61940225213766,67.32076027756557 177.85820675920695,65.50945330713876 180.76865370664746,59.62269514705986 175.33581940457225,37.43400076380931 166.41044876538217,33.13208462158218 159.61940588708967,41.0566603357438 164.4701507994905,62.792489998508245 173.58955123554915,67.09434698987752 180.96268350351602,60.075523268198594 175.5298492005095,37.886833543656394 167.76865733973682,33.358501475071535 160.20149527676404,40.83024429040961 164.4701507994905,62.11324863717891 173.3955214396119,66.86793367820792 180.1865643179044,60.075523268198594 175.5298492005095,38.339666227810085 166.9925381541252,33.358501475071535 160.00746547896415,41.7359083276242 164.85821039229631,62.56607623514719 174.55970021802932,66.41510698292404 180.38059411291033,58.71703861979768 175.14178960770369,37.660417165607214 165.8283593757078,34.0377518911846 159.81343568395823,42.18874020362273 165.05224018916488,62.792489998508245 174.55970021802932,66.64152034255676 180.57462391071022,58.94345278758556 175.72387899737805,37.660417165607214 166.9925381541252,32.90566774457693 161.55970385205,36.30191840115003 159.81343568395823,41.962324277265 164.4701507994905,62.56607623514719 173.20149164274335,67.32076027756557 178.24626635201275,65.28303982899524 180.76865370664746,59.16986693139188 175.14178960770369,37.43400076380931 166.6044785603881,33.358501475071535 159.61940588708967,41.962324277265 164.66418059635907,62.792489998508245 173.7835810314864,67.32076027756557 180.38059411291033,59.62269514705986 175.9179087942466,37.886833543656394 166.9925381541252,33.13208462158218 160.20149527676404,41.0566603357438 164.27612100262195,61.88683480233885 172.61940225213766,67.09434698987752 180.1865643179044,60.30193729349412 175.72387899737805,38.339666227810085 168.54477652627975,33.13208462158218 163.11194222420454,35.39625208219513 160.00746547896415,41.0566603357438 163.88806140981615,60.98117922549136 172.81343204993755,66.86793367820792 180.38059411291033,59.62269514705986 175.5298492005095,37.886833543656394 168.54477652627975,33.358501475071535 162.91791242733598,35.62266869726591 160.20149527676404,41.0566603357438 164.27612100262195,61.88683480233885 172.03731286339462,67.32076027756557 179.99253452103585,60.7547652721405 175.5298492005095,38.566082533914596 167.18656795006245,34.0377518911846 160.39552507270128,41.28307635639794 164.27612100262195,62.339662448270246 173.97761082928628,67.09434698987752 180.38059411291033,59.16986693139188 175.5298492005095,38.339666227810085 167.38059774786234,34.2641686485149 160.58955486863852,41.28307635639794 164.4701507994905,61.88683480233885 174.36567042116076,67.09434698987752 180.1865643179044,58.94345278758556 175.9179087942466,37.886833543656394 166.6044785603881,33.13208462158218 159.23134629428387,43.094403670635074 164.27612100262195,63.47173114679754 174.36567042116076,67.54717354243621 180.96268350351602,58.49062442872673 175.72387899737805,36.75475141755305 172.42537245713174,32.67925084405579 165.8283593757078,32.67925084405579 159.42537608928978,41.28307635639794 163.69403161294758,61.66042094328441 173.58955123554915,67.54717354243621 180.76865370664746,59.16986693139188 176.11193859018385,37.660417165607214 166.41044876538217,33.13208462158218 159.81343568395823,41.28307635639794 164.4701507994905,63.245317454217 174.36567042116076,67.09434698987752 180.57462391071022,57.58496742649004 176.11193859018385,38.339666227810085 167.57462754379958,33.13208462158218 160.20149527676404,40.15099601307884 164.27612100262195,61.66042094328441 173.3955214396119,66.41510698292404 178.63432594481856,63.47173114679754 180.1865643179044,58.2642102134414 175.9179087942466,38.11324989749119 166.6044785603881,34.0377518911846 160.00746547896415,41.50949235423468 165.24626998603344,62.792489998508245 174.75373001489788,66.18869359930977 180.38059411291033,58.037795974873006 175.33581940457225,37.20758433896117 165.24626998603344,34.2641686485149 160.20149527676404,42.415156106464565 164.85821039229631,62.56607623514719 174.36567042116076,66.41510698292404 179.7985047241673,57.811381712323055 175.5298492005095,38.79249881650321 171.84328306745738,34.943418780108914 165.24626998603344,34.7170020933263 160.20149527676404,42.415156106464565 165.05224018916488,63.245317454217 175.14178960770369,66.86793367820792 180.38059411291033,57.811381712323055 175.72387899737805,38.11324989749119 170.67910428810865,34.0377518911846 163.30597202014178,34.49058538326062 159.81343568395823,44.00006675743498 165.44029978197068,64.37738567800261 174.75373001489788,66.64152034255676 179.7985047241673,57.811381712323055 174.75373001489788,38.11324989749119 164.0820912057534,34.0377518911846" stroke="#4DD2FF" stroke-linecap="round" stroke-linejoin="round" stroke-width="0.5"><title>2026-03-29 9.9km</title><desc>1774773831000</desc></polyline><polyline fill="none" points="18.909706079401076,76.94121069926769 24.15239047817886,102.35297940508462 33.83119244500995,108.0 41.09029392153025,103.76473588705994 42.905069289729,97.64711804362014 35.4443261064589,76.70591519866139 24.15239047817886,72.47059196373448 17.094930710271,82.58829530491494 26.97537438478321,105.17649148032069 33.22626732289791,107.76470775902271 39.47716026008129,105.41178399254568 42.50178587436676,97.64711804362014 35.24268439877778,76.94121069926769 26.168807554990053,72.23529599397443 17.69985583331436,80.23534511448815 24.75731560215354,103.05885775736533 35.4443261064589,107.294123203028 42.50178587436676,97.41182471672073 35.24268439877778,77.1765061749611 30.40328341536224,73.17647972493432 23.5474653551355,73.17647972493432 17.69985583331436,82.58829530491494 24.958957308903337,102.82356499810703 34.83940098434687,107.294123203028 40.68701050616801,103.52944320207462 42.50178587436676,97.41182471672073 34.63775927666575,76.47061967314221 23.14418193977326,73.41177559643984 17.69985583331436,81.41182051901706 24.75731560215354,103.05885775736533 33.02462561521679,108.0 39.27551855240017,105.64707648032345 42.70342758204788,99.29417064390145 35.24268439877778,77.41180162644014 26.572090970352292,72.47059196373448 18.10313924960792,79.2941643469967 24.15239047817886,101.64710083091632 31.613133661448956,107.52941549406387 37.25910147558898,106.35295379604213 41.896860752254725,100.94122203369625 38.267310013994575,84.70594836538658 29.39507487695664,72.94118382968009 22.740898525342345,73.64707144303247 18.10313924960792,79.2941643469967 24.15239047817886,101.17651499109343 28.790149753913283,106.35295379604213 38.267310013994575,105.88236894388683 42.09850245900452,95.2941836589016 34.234475860372186,76.00002854829654 28.588508046232164,72.70588790928014 22.135973401367664,74.1176630614791 17.69985583331436,83.7647694745101 27.37865780107677,105.41178399254568 37.86402659770101,106.11766138207167 42.30014416668564,96.4706511599943 34.03283415362239,75.76473294850439 22.740898525342345,73.64707144303247 17.69985583331436,84.00006423401646 25.967165847308934,103.76473588705994 36.65417635254562,106.35295379604213 41.896860752254725,96.4706511599943 33.83119244500995,75.76473294850439 23.14418193977326,73.8823672644794 17.90149754099548,83.5294746896252 26.572090970352292,104.47061379533261 37.86402659770101,105.88236894388683 42.09850245900452,96.70594458584674 34.83940098434687,76.94121069926769 27.983582924120128,72.94118382968009 21.329406570643187,74.58825458120555 22.740898525342345,72.0 18.506422664038837,82.8235901882872 26.168807554990053,103.05885775736533 32.016417076811194,106.58824618463404 38.065668306313455,105.17649148032069 41.291935628280044,95.5294772083871 32.82298390753567,75.05884600291029 27.17701609339565,73.17647972493432 18.909706079401076,75.52943732473068 19.111347787082195,85.41183227370493 27.37865780107677,104.47061379533261 37.25910147558898,105.64707648032345 41.896860752254725,97.64711804362014 34.436117568053305,77.64709705254063 24.555673893541098,73.8823672644794 18.506422664038837,82.8235901882872 26.168807554990053,102.82356499810703 36.4525346448645,105.64707648032345 41.09029392153025,96.70594458584674 34.234475860372186,77.88239245442674 24.75731560215354,74.35295883379877 19.111347787082195,82.1177054643631 26.370449262671173,102.35297940508462 31.411491953767836,106.11766138207167 36.85581806022674,105.41178399254568 41.09029392153025,97.17653136397712 34.436117568053305,77.1765061749611 23.74910706281662,73.8823672644794 18.506422664038837,83.05888504721224 26.97537438478321,104.47061379533261 36.65417635254562,106.11766138207167 41.49357733596116,96.23535770946182 33.42790903057903,76.23532412271015 27.983582924120128,73.41177559643984 20.119556325487792,75.52943732473068" stroke="#4DD2FF" stroke-linecap="round" stroke-linejoin="round" stroke-width="0.5"><title>2026-03-26 6.5km</title><desc>1774530092000</desc></polyline><polyline fill="none" points="65.83825410623103,76.05300863552839 69.3115185117349,101.56295579741709 78.50545370485634,107.76159128104337 84.63474383205175,105.37750271218829 88.10800823941827,99.178860723041 82.59164712298661,76.29142068279907 72.7847829181701,72.0 65.22532509360462,79.86759839113802 69.72013785410672,101.80136516713537 80.95716975536197,107.2847737672273 87.90369856823236,98.46363171213306 82.18302778154612,75.81459656287916 72.98909258842468,72.23841247265227 65.42963476292789,81.05965637648478 70.33306686580181,102.2781838318333 80.13993107154965,107.76159128104337 87.08645988442004,100.13249905291013 82.59164712298661,76.76824470190331 78.09683436341584,72.71523734321818 71.96754423342645,72.23841247265227 65.42963476292789,81.2980678982567 70.53737653698772,102.99341164133511 80.75286008510739,107.04636497260071 87.49507922586054,97.98681224742904 82.18302778154612,75.57618446554989 71.76323456317186,72.71523734321818 65.83825410623103,79.86759839113802 71.15030554961413,104.90068469801918 80.75286008510739,107.04636497260071 87.29076955560595,98.22522199247032 81.9787181103602,76.05300863552839 72.58047324698418,72.23841247265227 65.63394443504512,80.34442166076042 70.33306686580181,102.75500239711255 75.03218929842114,107.04636497260071 81.16147942654788,106.8079561535269 87.29076955560595,98.46363171213306 81.9787181103602,76.05300863552839 72.17185390554368,72.0 65.22532509360462,81.77489086706191 73.3977119307965,108.0 81.77440844010562,107.2847737672273 87.69938889704645,97.03317301580682 81.5700987689197,74.86094802245498 71.96754423342645,72.23841247265227 65.22532509360462,81.2980678982567 70.1287571946159,102.51659312681295 80.13993107154965,106.8079561535269 87.29076955560595,97.98681224742904 81.77440844010562,75.81459656287916 72.17185390554368,72.23841247265227 65.42963476292789,81.05965637648478 70.53737653698772,102.99341164133511 75.23649896867573,106.8079561535269 81.77440844010562,106.33113843994215 87.29076955560595,99.41727034351788 81.77440844010562,75.81459656287916 71.76323456317186,72.4768249206245 65.42963476292789,82.01330231432803 69.92444752436131,102.2781838318333 80.34424074273556,107.04636497260071 87.49507922586054,97.74840247700922 82.79595679417253,77.48348054452799 77.8925246912986,72.4768249206245 71.76323456317186,72.4768249206245 65.42963476292789,82.01330231432803 70.33306686580181,102.75500239711255 75.44080863986164,106.8079561535269 81.5700987689197,106.56954730884172 87.29076955560595,97.50999268144369 81.9787181103602,76.05300863552839 71.35461522080004,72.4768249206245 65.42963476292789,81.77489086706191 70.53737653698772,102.51659312681295 81.3657890977338,106.56954730884172 87.29076955560595,97.03317301580682 81.5700987689197,75.33777234260924 71.35461522080004,72.4768249206245 65.42963476292789,82.01330231432803 73.80633127316833,108.0 82.59164712298661,107.2847737672273" stroke="#4DD2FF" stroke-linecap="round" stroke-linejoin="round" stroke-width="0.5"><title>2026-03-25 5.4km</title><desc>1774445603000</desc></polyline><polyline fill="none" points="106.23929359810427,77.28556791890878 105.38101545255631,78.06459059350891 105.7624724060297,80.40165174711728 109.10022075055167,82.62741469364846 110.864459161181,82.57177073380444 111.77041942602955,81.68146658362821 112.6286975715775,79.62263250758406 112.10419426020235,77.84201280324487 110.76909492281266,76.56218869588338 107.8604856512975,76.00574246741598 105.6194260485936,77.50814594281837 106.23929359810427,80.7911609375733 107.71743929362856,82.18226285208948 110.33995584980585,82.62741469364846 112.05651214136742,80.7911609375733 112.3426048567053,78.3984571035835 111.6750551876612,77.39685694250511 110.33995584980585,76.39525488863 107.62207505502738,75.9500978125725 105.71479028719477,77.84201280324487 105.71479028719477,79.8452095501707 106.71611479017884,81.23631394753465 108.24194260500371,82.34919483656995 110.43532008840702,82.46048279694514 112.10419426020235,80.290363354492 111.6750551876612,77.34121243370464 107.76512141292915,75.9500978125725 105.4286975718569,78.17587945354171 105.33333333325572,79.4556996645988 106.66843267111108,81.1806698415894 110.19690949236974,82.46048279694514 111.5320088302251,81.57017845945666 112.19955849903636,79.73392104066443 111.19823399558663,76.95170070789754 107.14525386318564,76.06138711667154 105.52406181022525,78.06459059350891 105.81015452556312,80.1234307216946 107.0498896248173,81.62582252448192 110.0538631347008,82.51612676831428 112.15187637973577,80.290363354492 111.38896247232333,77.0629898015759 107.52671081665903,75.9500978125725 105.66710816789418,77.67507939937059 106.33465783670545,80.90244922507554 109.95849889609963,82.62741469364846 112.05651214136742,80.51294011651771 112.05651214136742,78.28716829029145 111.19823399558663,76.95170070789754 107.8128035319969,75.89445315190824 105.66710816789418,78.17587945354171 106.5730684325099,81.1806698415894 110.10154525376856,82.73870259558316 112.05651214136742,80.40165174711728 111.38896247232333,77.22992339840857 107.66975717432797,76.00574246741598 105.81015452556312,78.12023502658121 106.28697571740486,80.7911609375733 108.05121412803419,82.18226285208948 110.2445916114375,82.57177073380444 112.10419426020235,80.51294011651771 111.81810154533014,77.67507939937059 110.62604856514372,76.56218869588338 108.05121412803419,76.00574246741598 105.81015452556312,77.39685694250511 106.19161147903651,80.67987262661336 109.72008830029517,82.62741469364846 111.24591611488722,81.95968679105863 112.10419426020235,80.23471914947731 111.38896247232333,77.22992339840857 107.95584988966584,75.9500978125725 106.09624724066816,76.89605615223991 105.71479028719477,80.06778649898479 109.10022075055167,82.51612676831428 111.57969094906002,81.40324622986373 112.19955849903636,79.73392104066443 111.72273730672896,77.67507939937059 110.67373068421148,76.56218869588338 108.38498896243982,75.89445315190824 106.00088300206698,77.34121243370464 106.09624724066816,80.51294011651771 109.10022075055167,82.51612676831428 110.81677704188041,82.23790685279528 111.77041942602955,81.01373748929473 112.15187637973577,79.010545159108 111.29359823395498,77.17427887197118 107.90816777036525,76.00574246741598 105.71479028719477,77.45250144554302 106.04856512136757,80.51294011651771 107.8128035319969,82.07097483339021 109.76777041959576,82.57177073380444 111.72273730672896,81.06938161252765 112.15187637973577,78.62103466020199 111.15055187628604,76.95170070789754 109.19558498892002,76.06138711667154 112.3426048567053,77.56379043427296 115.63267108169384,76.39525488863 122.92803532001562,96.26000879338244 125.35982339945622,98.70827426802134 128.93598234001547,96.09308119025081 136.75584988947958,92.69887518882751 137.7094922736287,92.921446739987 140.9518763795495,101.21217044309014 141.33333333325572,104.10554684803355" stroke="#4DD2FF" stroke-linecap="round" stroke-linejoin="round" stroke-width="0.5"><title>2026-03-24 6.2km</title><desc>1774357706000</desc></polyline><polyline fill="none" points="160.08369303215295,80.18186927982606 163.48929340485483,103.55847302637994 173.30543565563858,107.76623564353213 179.71597753465176,99.11693719564937 175.10840055905282,78.31173038040288 166.4942349102348,73.4026082966011 159.48270473070443,80.88317096233368 164.89159944094718,102.85717848455533 173.5057650897652,106.36364898784086 181.7192718712613,100.75329353217967 175.70938886050135,76.67535755457357 166.0935760429129,72.46753619634546 158.2807281287387,79.94810200366192 162.68797567021102,100.9870586253237 168.69785868097097,107.5324712623842 175.30872999317944,108.0 179.11498923320323,104.2597673481796 177.31202432978898,84.6234428731259 169.2988469824195,73.6363762607798 163.68962283898145,73.87014419957995 159.48270473070443,78.31173038040288 163.0886345366016,100.9870586253237 170.90148245170712,107.5324712623842 177.11169489566237,105.1948261000216 179.71597753465176,99.35070246015675 175.30872999317944,79.0130326510407 166.4942349102348,72.93507229583338 159.08204586338252,79.71433470211923 163.68962283898145,101.68835375644267 172.90477678831667,107.29870685655624 179.71597753465176,100.51952841528691 174.9080711249262,77.84419541014358 166.0935760429129,72.7013042580802 158.68138699699193,80.41563653177582 163.88995227124542,101.9221187508665 173.5057650897652,106.83117797109298 179.71597753465176,99.58446770021692 175.10840055905282,78.07796290749684 164.69127000682056,73.16884030890651 159.08204586338252,81.11693814117461 163.48929340485483,101.68835375644267 174.30708282534033,107.29870685655624 179.71597753465176,98.41564125497825 174.30708282534033,77.14289277023636 165.09192887414247,73.4026082966011 158.8817164292559,81.81823952891864 164.09028170537204,102.38964866637252 173.9064239570871,106.83117797109298 179.71597753465176,99.8182329160627 174.30708282534033,76.9091251748614 165.8932466097176,72.93507229583338 158.8817164292559,81.58447242435068 164.09028170537204,102.38964866637252 174.9080711249262,106.83117797109298 179.91630696691573,99.11693719564937 174.50741225853562,77.61042788764462 165.8932466097176,73.87014419957995 159.28237529750913,81.35070529463701 164.89159944094718,103.32470820355229 174.70774169173092,106.83117797109298 179.51564810052514,99.58446770021692 174.1067533902824,76.9091251748614 165.69291717465967,72.93507229583338 159.28237529750913,81.58447242435068 164.69127000682056,102.85717848455533 174.50741225853562,106.36364898784086 179.71597753465176,99.58446770021692 173.9064239570871,76.67535755457357 165.09192887414247,73.4026082966011 159.08204586338252,82.28577366494574 163.68962283898145,101.45458873757161 173.5057650897652,106.36364898784086 179.51564810052514,98.88317190646194 174.9080711249262,78.07796290749684 165.09192887414247,73.4026082966011 159.28237529750913,81.35070529463701 164.69127000682056,103.09094335651025 174.9080711249262,106.5974134914577 179.71597753465176,98.64940659306012 174.70774169173092,77.37666034069844 166.0935760429129,73.4026082966011 159.28237529750913,80.64940375951119 164.89159944094718,103.09094335651025 174.70774169173092,106.5974134914577 179.51564810052514,98.181875892682 173.9064239570871,76.67535755457357 165.69291717465967,73.6363762607798 159.48270473070443,81.35070529463701 164.89159944094718,102.62341358792037 173.10510622151196,106.5974134914577 179.31531866732985,99.11693719564937 175.30872999317944,77.14289277023636 167.69621151313186,72.0 158.8817164292559,78.31173038040288 163.88995227124542,100.9870586253237 167.49588207900524,105.8961199063342 175.90971829369664,105.8961199063342 179.31531866732985,100.28576327278279 174.9080711249262,78.31173038040288 166.0935760429129,73.4026082966011 160.28402246627957,78.77926525217481 163.88995227124542,100.9870586253237 170.3004941502586,106.5974134914577 175.10840055905282,106.12988445954397 179.31531866732985,100.28576327278279 176.11004772782326,81.11693814117461 168.89818811509758,72.7013042580802 160.08369303215295,78.31173038040288 163.68962283898145,99.58446770021692 169.2988469824195,106.36364898784086 181.7192718712613,100.51952841528691 176.11004772782326,84.6234428731259" stroke="#4DD2FF" stroke-linecap="round" stroke-linejoin="round" stroke-width="0.5"><title>2026-03-22 7.4km</title><desc>1774161813000</desc></polyline><polyline fill="none" points="16.54161745402962,121.42287319037132 21.71791843418032,124.80543364421465 26.480115334503353,143.65103661082685 35.1763009801507,148.0 40.97375807631761,144.8590828210581 43.04427846800536,138.3356257546693 38.489133606664836,116.5906353474129 28.757687766104937,112.72483776905574 21.924970472231507,120.45642643305473 26.27306329458952,142.44298976659775 35.797457098029554,147.5167822514195 43.04427846800536,139.54367475421168 38.489133606664836,117.79869575891644 29.79294796101749,112.72483776905574 21.71791843418032,120.9396498624701 26.480115334503353,143.65103661082685 38.075029528699815,146.79195543844253 43.04427846800536,138.3356257546693 38.075029528699815,116.34902318916284 29.171791844069958,112.24161261529662 21.510866394266486,120.21481468016282 26.27306329458952,141.71816135616973 33.105780587531626,147.75839113793336 39.938497881405056,145.58391024242155 43.25133050698787,139.7852844784502 38.696185644716024,118.52353170164861 29.171791844069958,112.72483776905574 22.13202251214534,120.21481468016282 26.894219413399696,141.71816135616973 36.625665253028274,147.03356440132484 42.83722642902285,139.7852844784502 37.867977489717305,117.31547167035751 29.79294796101749,112.96645030775107 22.13202251214534,120.9396498624701 26.894219413399696,142.44298976659775 34.555144862271845,147.03356440132484 43.04427846800536,139.06045523029752 38.075029528699815,117.55708372755907 28.757687766104937,113.20806282153353 22.33907455112785,121.1812615392264 27.72242756932974,143.40942729311064 37.24682137090713,146.55034645018168 42.83722642902285,139.06045523029752 38.696185644716024,117.79869575891644 29.171791844069958,112.96645030775107 22.13202251214534,119.97320290235803 27.308323491364717,142.44298976659775 35.797457098029554,147.03356440132484 42.83722642902285,138.57723560580052 38.282081567682326,117.55708372755907 28.964739804156125,112.96645030775107 22.33907455112785,121.42287319037132 27.308323491364717,142.44298976659775 35.1763009801507,147.03356440132484 42.83722642902285,138.57723560580052 38.282081567682326,117.55708372755907 29.79294796101749,112.72483776905574 22.13202251214534,119.73159109940752 27.101271451450884,142.44298976659775 34.96924894023687,146.79195543844253 40.7667060373351,144.13425517105497 42.83722642902285,139.06045523029752 38.075029528699815,117.79869575891644 28.964739804156125,112.96645030775107 21.924970472231507,121.42287319037132 26.894219413399696,142.9262085801456 35.797457098029554,147.5167822514195 43.25133050698787,139.06045523029752 38.696185644716024,117.31547167035751 28.757687766104937,112.96645030775107 21.924970472231507,121.42287319037132 26.687167373485863,142.9262085801456 36.41861321404576,146.55034645018168 43.04427846800536,138.57723560580052 38.282081567682326,117.31547167035751 28.757687766104937,112.96645030775107 21.924970472231507,120.69803816080093 27.308323491364717,142.68459918629378 36.41861321404576,146.79195543844253 42.83722642902285,138.3356257546693 37.867977489717305,116.83224748028442 28.757687766104937,112.96645030775107 22.33907455112785,120.69803816080093 27.101271451450884,142.44298976659775 33.72693670541048,147.27517333859578 39.938497881405056,145.10069198720157 42.83722642902285,139.7852844784502 39.11028972361237,120.21481468016282 30.621156117878854,112.48322520474903 26.27306329458952,113.44967530947179 22.753178630024195,120.21481468016282 27.101271451450884,142.44298976659775 34.762196901254356,147.03356440132484 43.04427846800536,140.02689417731017 38.696185644716024,118.52353170164861 35.59040505811572,114.41612500837073 26.27306329458952,112.0 21.924970472231507,115.62418656121008 26.27306329458952,141.95977085176855 33.31283262744546,147.03356440132484 40.55965399835259,145.10069198720157 43.25133050698787,139.7852844784502 38.696185644716024,117.79869575891644 29.37884388305247,112.48322520474903 22.13202251214534,119.73159109940752 26.687167373485863,141.95977085176855 33.72693670541048,147.27517333859578 39.938497881405056,145.58391024242155 43.25133050698787,139.7852844784502 38.90323768462986,118.52353170164861 35.1763009801507,113.44967530947179 29.37884388305247,112.24161261529662 21.924970472231507,120.69803816080093 26.894219413399696,142.68459918629378 36.211561175994575,147.5167822514195 43.04427846800536,139.06045523029752 38.282081567682326,116.83224748028442 34.141040784306824,112.96645030775107 27.72242756932974,113.44967530947179 22.13202251214534,122.3893195418641 26.894219413399696,142.44298976659775 37.03976933192462,146.79195543844253 43.25133050698787,139.54367475421168 38.489133606664836,118.04030776582658 29.58589592203498,112.72483776905574 24.616646981798112,115.14096201607026 22.13202251214534,121.1812615392264 26.480115334503353,141.47655183519237 31.86346835270524,146.79195543844253 37.66092544980347,146.55034645018168 43.04427846800536,138.8188454308547 37.03976933192462,115.3825743009802 27.72242756932974,112.96645030775107 21.71791843418032,122.14770799176767 27.515375530347228,143.89264590339735 36.625665253028274,147.03356440132484 43.25133050698787,138.8188454308547 38.282081567682326,117.07385958754458 28.550635726191103,112.72483776905574 21.924970472231507,120.21481468016282 26.894219413399696,142.44298976659775 35.59040505811572,147.27517333859578 43.4583825469017,139.30206500552595 38.282081567682326,117.31547167035751 28.34358368627727,112.48322520474903 22.13202251214534,121.42287319037132 26.687167373485863,141.95977085176855 37.03976933192462,146.79195543844253 43.25133050698787,139.30206500552595 38.282081567682326,117.07385958754458 30.20705203898251,112.24161261529662 22.13202251214534,120.69803816080093 27.101271451450884,141.95977085176855 36.83271729294211,147.03356440132484 43.04427846800536,138.57723560580052 37.66092544980347,116.83224748028442 28.964739804156125,112.96645030775107 22.33907455112785,120.69803816080093 26.894219413399696,141.47655183519237 36.211561175994575,146.79195543844253 43.04427846800536,138.57723560580052 38.489133606664836,117.55708372755907 28.757687766104937,112.72483776905574 22.13202251214534,120.9396498624701 27.308323491364717,142.44298976659775 36.41861321404576,147.03356440132484 43.04427846800536,140.02689417731017 37.66092544980347,116.83224748028442 28.136531648226082,112.96645030775107 22.13202251214534,121.90609641629271 26.894219413399696,142.201380321756 31.86346835270524,146.79195543844253 37.24682137090713,146.55034645018168 43.04427846800536,138.8188454308547 37.867977489717305,116.5906353474129 30.0,112.48322520474903 22.13202251214534,119.97320290235803 27.308323491364717,142.68459918629378 35.797457098029554,147.03356440132484 43.04427846800536,139.06045523029752 38.282081567682326,117.07385958754458 29.79294796101749,112.72483776905574 24.616646981798112,115.14096201607026 22.33907455112785,121.1812615392264 27.101271451450884,142.44298976659775 37.24682137090713,146.79195543844253 42.83722642902285,139.7852844784502 38.075029528699815,117.07385958754458 28.550635726191103,112.96645030775107 21.924970472231507,121.1812615392264 27.515375530347228,143.1678179493174 34.96924894023687,147.03356440132484" stroke="yellow" stroke-linecap="round" stroke-linejoin="round" stroke-width="0.5"><title>2026-03-20 12.0km</title><desc>1774012772000</desc></polyline><polyline fill="none" points="65.94041006825864,126.54311504913494 70.43522235564888,144.1854574889876 76.15589254256338,148.0 83.51103992387652,147.04636497283354 88.21016186382622,137.03317301603965 83.30673027597368,117.00665667466819 73.70417674817145,112.0 65.12317146919668,120.10601003840566 69.41367410868406,141.32454640301876 80.0377758834511,147.52318253647536 87.59723291452974,140.37090857280418 82.8981109764427,117.2450686225202 74.52141534723341,112.0 65.73610041849315,119.86759839183651 70.63953200634569,142.2781838318333 78.40329868718982,147.04636497283354 84.123968873173,145.13909371756017 87.18861361593008,139.6556799383834 83.10242062527686,118.67553978110664 73.70417674817145,112.47682492085733 65.94041006825864,120.34442166076042 70.63953200634569,142.03977451194078 79.62915658392012,147.28477376676165 87.18861361593008,139.6556799383834 82.6938013266772,117.96030431496911 74.11279604770243,112.0 65.94041006825864,119.39077502232976 70.43522235564888,141.80136516713537 80.44639518205076,146.80795615306124 86.98430396616459,139.6556799383834 82.28518202807754,117.2450686225202 73.49986709933728,112.47682492085733 66.14471971709281,119.39077502232976 70.63953200634569,141.80136516713537 80.2420855332166,146.80795615306124 86.98430396616459,139.41727034305222 81.67225307878107,117.00665667466819 73.70417674817145,112.71523734391667 65.94041006825864,119.39077502232976 70.43522235564888,141.32454640301876 79.62915658392012,146.80795615306124 86.98430396616459,138.7020414073486 82.28518202807754,117.96030431496911 73.49986709933728,112.47682492085733 66.14471971709281,120.82124483003281 70.84384165517986,141.56295579764992 80.0377758834511,147.04636497283354 86.98430396616459,139.41727034305222 82.6938013266772,118.9139515531715 73.90848639886826,112.71523734391667 66.3490293668583,120.10601003840566 71.04815130587667,142.03977451194078 79.62915658392012,146.56954730907455 86.98430396616459,139.17886072257534 82.28518202807754,117.96030431496911 73.90848639886826,112.71523734391667 65.94041006825864,120.5828332582023 71.04815130587667,142.03977451194078 79.62915658392012,147.04636497283354 86.98430396616459,139.89408950833604 82.48949167691171,118.67553978110664 74.93003464583308,112.95364974159747 69.82229340821505,114.38412360288203 66.14471971709281,120.5828332582023 71.04815130587667,141.80136516713537 79.01622763555497,147.04636497283354 84.94120747130364,144.42386658419855 86.98430396616459,139.17886072257534 82.6938013266772,118.43712798389606 74.52141534723341,112.71523734391667 66.3490293668583,119.62918671988882 71.25246095377952,142.2781838318333 80.2420855332166,146.80795615306124 86.98430396616459,140.37090857280418 83.10242062527686,119.15236330078915 73.90848639886826,112.95364974159747 65.94041006825864,120.10601003840566 71.45677060447633,142.51659312658012 80.0377758834511,146.80795615306124 87.18861361593008,139.41727034305222 82.8981109764427,118.43712798389606 72.88693815097213,112.95364974159747 66.14471971709281,119.86759839183651 70.43522235564888,141.08613698277622 77.17744078952819,146.09272954589687" stroke="#4DD2FF" stroke-linecap="round" stroke-linejoin="round" stroke-width="0.5"><title>2026-03-19 5.5km</title><desc>1773929179000</desc></polyline><polyline fill="none" points="111.84194636438042,125.2886561602354 116.60414276644588,143.1678179493174 124.05801539402455,147.27517333929427 130.26957591809332,146.30873743630946 134.82472030073404,137.36918609892018 128.61315977852792,114.8993497050833 118.46761092357337,112.72483776835725 112.4631024170667,122.3893195411656 117.8464548708871,144.13425517105497 120.74518311489373,147.75839113863185 129.2343158312142,147.75839113863185 135.03177231922746,139.30206500506029 129.2343158312142,115.86579879536293 119.08876697532833,112.72483776835725 112.67015443556011,122.14770799130201 117.63940285332501,143.65103661152534 121.78044320270419,147.5167822514195 129.64841986540705,147.27517333929427 134.82472030073404,138.33562575490214 129.85547188296914,116.83224748005159 124.88622346427292,112.2416126143653 119.29581899382174,112.0 111.63489434774965,122.3893195411656 117.8464548708871,144.37586441333406 127.37084767408669,148.0 134.6176682850346,139.060455230996 129.44136784784496,116.83224748005159 120.12402706220746,112.4832252045162 112.8772064531222,121.42287319037132 117.8464548708871,143.1678179493174 123.02275530714542,147.5167822514195 129.0272638136521,147.5167822514195 134.6176682850346,139.78528447821736 129.44136784784496,117.55708372686058 119.7099230280146,112.4832252045162 112.8772064531222,121.18126153899357 117.8464548708871,143.1678179493174 128.4061077600345,147.75839113863185 134.82472030073404,139.060455230996 129.85547188296914,117.79869575891644 120.12402706220746,112.72483776835725 112.8772064531222,121.18126153899357 117.8464548708871,143.1678179493174 126.95674363896251,148.0 134.41061626654118,140.510113498196 129.64841986540705,117.79869575891644 119.50287101045251,112.72483776835725 112.8772064531222,121.42287319037132 117.8464548708871,142.44298976683058 121.98749522026628,147.03356440202333 128.4061077600345,147.5167822514195 134.41061626654118,138.81884543132037 129.2343158312142,116.83224748005159 119.50287101045251,112.72483776835725 112.8772064531222,121.18126153899357 118.46761092357337,143.65103661152534 129.0272638136521,147.27517333929427 134.41061626654118,139.060455230996 129.44136784784496,117.31547166942619 119.29581899382174,112.96645030751824 113.08425846975297,121.90609641629271 118.88171495869756,144.37586441333406 129.0272638136521,147.27517333929427 134.6176682850346,139.060455230996 128.82021179609,116.10741100483574 118.88171495869756,112.72483776835725 113.08425846975297,120.69803816010244 118.46761092357337,143.65103661152534 128.19905574340373,147.27517333929427 134.41061626654118,140.02689417707734 129.44136784784496,117.31547166942619 119.7099230280146,112.96645030751824 113.08425846975297,121.66448481590487 118.88171495869756,144.13425517105497 129.64841986540705,146.79195543914102 134.6176682850346,138.81884543132037 128.4061077600345,115.86579879536293 119.7099230280146,113.20806282083504 113.08425846975297,121.42287319037132 118.26055890507996,143.1678179493174 127.78495170827955,147.27517333929427 134.41061626654118,139.060455230996 129.0272638136521,116.59063534718007 120.33107908070087,113.20806282083504 113.08425846975297,120.45642643258907 118.46761092357337,142.68459918629378 127.99200372584164,147.03356440202333 134.20356424991041,139.54367475491017 129.44136784784496,117.55708372686058 120.74518311489373,113.20806282083504 113.49836250487715,120.21481468016282 118.46761092357337,142.68459918629378 127.1637956565246,147.75839113863185 134.20356424991041,138.81884543132037 128.82021179609,116.59063534718007 120.74518311489373,112.96645030751824 113.29131048731506,120.45642643258907 118.88171495869756,143.40942729311064 123.85096337739378,147.27517333929427 128.4061077600345,145.82551933266222" stroke="#4DD2FF" stroke-linecap="round" stroke-linejoin="round" stroke-width="0.5"><title>2026-03-18 6.4km</title><desc>1773842529000</desc></polyline><polyline fill="none" points="164.29053143691272,112.0 157.87990006897599,121.81823952589184 165.69285704847425,144.02600259776227 175.90980079211295,147.5324712623842 182.12009993102401,137.71434509032406 174.3071429496631,119.01303264941089 166.8948504300788,119.01303264941089 163.48920251615345,115.7402868277859 158.68122898973525,123.45460857241414 166.29385373927653,143.7922378233634 176.11013302300125,146.83117797062732 181.51910324022174,138.8831719039008 174.1068107187748,118.779265250545 164.09019920695573,115.50651908479631 158.68122898973525,123.68837548117153 166.29385373927653,144.72729677218013 175.90980079211295,147.76623564353213 181.9197677001357,139.81823291350156 175.30880410131067,119.71433470025659 170.90149503573775,115.50651908479631 164.49086366780102,115.03898352617398 158.08023229893297,122.75330770039 165.49252481758595,143.3247082021553 174.7078074105084,148.0 181.9197677001357,141.6883537543472 174.5074751805514,118.31173037854023 165.29219258762896,114.33768000337295 158.08023229893297,122.05200660671107 166.09352150931954,144.49353207205422 177.1117941737175,147.2987068563234 182.320432160981,138.41564125195146 174.3071429496631,117.84419540804811 163.68953474517912,114.5714478683658 157.87990006897599,123.68837548117153 166.09352150931954,144.25976734701544 175.50913633219898,147.5324712623842 181.71943547017872,138.18187588942237 173.9064784888178,117.61042788578197 163.08853805530816,114.5714478683658 157.67956783808768,122.98707468202338 165.09186035767198,143.5584730252158 175.70946856122464,147.2987068563234 181.71943547017872,138.18187588942237 173.10514956805855,116.67535755340941 163.48920251615345,114.80521570984274 157.87990006897599,123.68837548117153 166.09352150931954,144.49353207205422 176.71112971380353,147.2987068563234 181.71943547017872,138.8831719039008 174.1068107187748,117.61042788578197 164.09019920695573,114.5714478683658 157.87990006897599,123.92214236478321 165.89318927936256,144.49353207205422 176.91146194376051,147.2987068563234 181.9197677001357,138.8831719039008 174.3071429496631,118.07796290586703 164.29053143691272,114.5714478683658 157.87990006897599,122.51954069337808 165.49252481758595,143.3247082021553 174.90813964046538,147.76623564353213 179.91644539684057,144.49353207205422 181.51910324022174,138.64940659073181 173.9064784888178,118.07796290586703 163.88986697606742,115.03898352617398 158.28056452888995,124.62344286986627 166.09352150931954,144.49353207205422 176.11013302300125,147.5324712623842 181.51910324022174,138.18187588942237 173.9064784888178,117.84419540804811 162.68787359446287,115.03898352617398 157.87990006897599,124.38967605982907 167.6961793517694,146.83117797062732 177.71279086451977,146.59741349099204 181.51910324022174,137.71434509032406 173.30548179894686,116.90912517323159 166.8948504300788,114.10391211370006 161.6862124428153,115.7402868277859 157.67956783808768,123.92214236478321 167.0951826600358,146.12988445884548 178.11345532536507,146.83117797062732 181.31877100933343,137.24681419320405 172.70448510814458,116.44158990914002 161.6862124428153,116.44158990914002 161.6862124428153,122.28577366191894" stroke="#4DD2FF" stroke-linecap="round" stroke-linejoin="round" stroke-width="0.5"><title>2026-03-17 5.6km</title><desc>1773751527000</desc></polyline><polyline fill="none" points="19.893587035126984,159.44832081347704 17.76592114754021,162.92419583396986 25.425518341362476,182.78624082473107 36.06384777929634,187.25517796445638 42.44684544112533,177.8207452117931 34.57448165677488,156.46899530291557 24.14891881030053,152.49655545060523 18.191454325802624,162.67591921566054 26.70211787428707,184.27588747628033 35.638314601033926,188.0 42.44684544112533,178.5655702187214 34.14894848037511,155.4758859651629 23.936152221634984,152.0 17.76592114754021,162.42764257173985 26.27658469695598,184.02761309896596 37.55321389995515,187.25517796445638 42.44684544112533,179.55866986163892 33.29788212571293,155.22760856547393 24.14891881030053,152.74483313714154 17.978687736205757,160.93798216222785 26.27658469695598,183.53106426727027 36.06384777929634,187.25517796445638 41.80854567326605,177.07591997110285 33.510648713447154,155.72416333854198 23.51061904244125,152.99311079760082 18.191454325802624,162.17936590244062 26.914884463883936,184.524161827052 38.40428025461733,187.00690390076488 42.23407885245979,176.33109449595213 34.57448165677488,155.9724406863097 23.297852454707026,152.49655545060523 17.978687736205757,161.9310892059002 26.27658469695598,184.02761309896596 37.55321389995515,187.00690390076488 42.23407885245979,177.8207452117931 33.29788212571293,154.9793311401736 24.57445198763162,152.49655545060523 17.76592114754021,160.93798216222785 25.85105152055621,183.28278981195763 36.06384777929634,187.25517796445638 42.44684544112533,177.8207452117931 33.72341530304402,155.22760856547393 23.51061904244125,152.74483313714154 17.340387971140444,161.68281248398125 26.063818108290434,183.77933869650587 35.212781423702836,187.75172601430677 42.659612028859556,178.31729524233378 34.787248246371746,156.22071800776757 24.361685398966074,152.74483313714154 17.76592114754021,161.43453573668376 25.638284930959344,183.03451533149928 36.27661436609924,187.25517796445638 42.44684544112533,177.32419507717714 34.14894848037511,155.22760856547393 23.51061904244125,152.99311079760082 17.340387971140444,161.9310892059002 27.12765105161816,185.02071044966578 37.12768072169274,187.00690390076488 42.44684544112533,176.33109449595213 34.57448165677488,155.22760856547393 24.14891881030053,152.49655545060523 17.76592114754021,161.68281248398125 26.063818108290434,184.27588747628033 36.489380955696106,187.25517796445638 42.659612028859556,178.8138451683335 34.787248246371746,155.9724406863097 24.14891881030053,152.49655545060523 18.616987504065037,156.46899530291557 17.340387971140444,162.67591921566054 26.914884463883936,184.77243615104817 36.06384777929634,187.50345200207084 42.659612028859556,177.8207452117931 34.787248246371746,155.72416333854198 23.723385632038116,152.99311079760082 17.76592114754021,162.17936590244062 26.27658469695598,184.27588747628033 36.70214754529297,187.25517796445638 42.659612028859556,178.8138451683335 34.14894848037511,155.4758859651629 23.51061904244125,152.74483313714154 17.340387971140444,162.17936590244062 26.063818108290434,184.27588747628033 37.34044731128961,187.25517796445638 42.659612028859556,177.07591997110285 33.93618189077824,154.9793311401736 23.08508586604148,153.24138843128458 17.76592114754021,163.17247242527083 26.489351286552846,184.02761309896596 37.12768072169274,187.00690390076488 42.659612028859556,177.07591997110285 34.787248246371746,156.22071800776757 23.723385632038116,153.9862211770378 18.616987504065037,162.92419583396986 26.27658469695598,183.53106426727027 36.70214754529297,186.5103556937538 42.23407885245979,178.06902024010196 34.36171506810933,156.46899530291557 23.297852454707026,153.9862211770378 18.40422091446817,162.92419583396986 27.12765105161816,184.524161827052 37.34044731128961,186.5103556937538 42.02131226286292,176.08281928510405 33.93618189077824,155.72416333854198 23.08508586604148,153.73794362135231 18.40422091446817,163.4207489907276 26.70211787428707,183.77933869650587 36.489380955696106,187.00690390076488 41.80854567326605,177.57247015787289 35.42554801236838,158.7034897878766 32.02128259278834,156.46899530291557" stroke="#4DD2FF" stroke-linecap="round" stroke-linejoin="round" stroke-width="0.5"><title>2026-03-16 7.4km</title><desc>1773655562000</desc></polyline><polyline fill="none" points="65.32747992873192,157.7218924423214 69.41367334779352,180.60931806755252 78.81191821210086,187.0463649726007 87.18861472047865,179.6556799383834 82.89811163023114,157.00665667490102 73.29555709566921,152.0 65.73609927017242,160.34442166076042 69.82229268923402,182.0397745121736 78.19898919854313,188.0 84.7368986690417,185.139093717793 87.80154373310506,179.178860723041 83.71535031404346,157.96030431403778 78.40329887066036,152.23841247265227 71.8653894001618,152.0 65.53178960084915,161.05965637648478 71.25246038660407,184.66227565379813 79.01622788235545,188.0 86.16706636548042,184.42386658443138 88.00585340429097,178.22522199247032 83.51104064378887,158.9139515531715 76.15589248947799,152.0 66.55333795491606,157.483480544528 70.02660236135125,180.370908573037 79.42484722472727,187.2847737672273 87.18861472047865,180.60931806755252 82.69380195904523,157.24506862228736 72.88693775422871,152.4768249206245 65.94040894228965,159.86759839113802 70.84384104423225,181.80136516713537 80.2420859085396,187.0463649726007 87.39292439166456,179.41727034351788 82.69380195904523,157.483480544528 73.70417643804103,152.0 66.14471861347556,159.62918671942316 70.43522170186043,180.370908573037 79.01622788235545,187.0463649726007 87.18861472047865,179.8940895081032 83.30673097260296,158.43712798366323 78.40329887066036,152.71523734321818 71.45677005685866,152.71523734321818 66.34902828279883,158.19871616107412 70.23091203160584,179.8940895081032 78.19898919854313,187.0463649726007 83.91965998522937,185.3775027121883 87.39292439166456,179.41727034351788 82.69380195904523,157.00665667490102 75.74727314710617,152.0 69.20936367753893,153.9072990824934 66.14471861347556,160.10601003840566 70.84384104423225,181.5629557974171 79.83346656616777,186.8079561535269 87.18861472047865,180.84772753808647 82.69380195904523,157.00665667490102 74.31710545066744,152.23841247265227 66.14471861347556,159.62918671942316 70.43522170186043,180.84772753808647 79.62915689498186,186.56954730884172 86.98430505022407,179.178860723041 82.28518261760473,157.00665667490102 73.49986676685512,152.4768249206245 66.14471861347556,160.10601003840566 71.25246038660407,182.2781838318333 80.44639557879418,186.56954730884172 87.39292439166456,178.22522199247032 83.10242130141705,157.7218924423214 74.93003446329385,152.0 68.59643466304988,154.62253582500853 65.94040894228965,159.62918671942316 70.84384104423225,181.5629557974171 80.037776238285,186.8079561535269 87.39292439166456,179.178860723041 82.48949228879064,156.7682447019033 74.52141512092203,152.23841247265227 68.18781532160938,155.0993601945229 65.94040894228965,160.82124482979998 70.02660236135125,180.370908573037 79.01622788235545,186.8079561535269 87.18861472047865,180.60931806755252 82.89811163023114,157.24506862228736 73.70417643804103,152.0 69.0050540054217,153.43047446128912 65.94040894228965,160.58283325773664 70.84384104423225,181.5629557974171 79.83346656616777,186.56954730884172 87.39292439166456,178.70204140804708 82.69380195904523,156.7682447019033 74.52141512092203,152.0 66.14471861347556,158.9139515531715 70.23091203160584,180.60931806755252 79.22053755354136,186.8079561535269 87.39292439166456,179.41727034351788 82.89811163023114,157.483480544528 77.1774408435449,152.23841247265227 70.43522170186043,153.19206211389974 66.34902828279883,158.9139515531715 71.04815071541816,175.84112341399305" stroke="#4DD2FF" stroke-linecap="round" stroke-linejoin="round" stroke-width="0.5"><title>2026-03-13 6.0km</title><desc>1773408957000</desc></polyline><polyline fill="none" points="113.84066217392683,153.25875037512742 111.2517518568784,163.3287295922637 120.96016554348171,185.98602825473063 131.9630343876779,186.48952134908177 136.06214238889515,176.671386934584 127.00095628108829,154.26575019955635 116.86105754133314,152.2517501283437 110.60452427808195,161.5664862806443 120.74442301690578,185.98602825473063 132.39451944082975,186.23777481517754 136.06214238889515,176.16789177828468 127.21669880859554,155.02099978993647 116.64531501568854,152.75525030470453 111.46749438345432,163.0769806264434 121.17590807005763,185.73428166704252 130.88432175666094,186.48952134908177 135.41491480916739,176.41963936924003 127.00095628108829,155.02099978993647 120.31293796468526,152.2517501283437 113.19343459419906,154.76924995239824 110.60452427808195,162.06998450146057 119.44996785931289,184.2238015900366 128.2954114396125,187.2447607938666 135.6306573357433,178.4336191471666 127.43244133330882,156.0279988744296 118.5869977530092,152.50350022991188 111.2517518568784,160.81123875151388 118.5869977530092,182.96506746509112 129.3741240715608,186.7412678571418 135.41491480916739,178.6853665006347 127.00095628108829,155.27274960046634 118.37125522643328,152.50350022991188 111.2517518568784,161.5664862806443 118.8027402786538,182.96506746509112 128.94263901934028,186.99301433912478 135.6306573357433,178.4336191471666 127.21669880859554,155.27274960046634 116.42957248911262,153.0070003529545 111.46749438345432,162.82523163524456 119.44996785931289,183.46856119390577 130.23709417693317,186.7412678571418 135.41491480916739,177.6783769284375 126.56947122886777,154.76924995239824 118.5869977530092,152.2517501283437 111.46749438345432,161.31473713065498 119.01848280616105,182.71332056168467 123.54907585959882,186.7412678571418 130.4528367035091,186.7412678571418 135.41491480916739,176.92313447222114 127.43244133330882,156.0279988744296 117.29254259541631,152.75525030470453 111.68323691003025,162.82523163524456 120.31293796468526,184.72729505435564 128.51115396711975,187.2447607938666 135.41491480916739,178.18187176738866 127.21669880859554,155.776249143295 117.29254259541631,153.0070003529545 111.46749438345432,161.81823540455662 119.88145291246474,183.72030801931396 128.94263901934028,187.2447607938666 135.41491480916739,177.9301243617665 127.86392638646066,157.03499753563665 119.23422533273697,152.50350022991188 111.89897943660617,160.81123875151388 119.01848280616105,183.2168143428862 129.80560912378132,186.7412678571418 135.19917228352278,177.42662946972996 127.21669880859554,156.0279988744296 117.07680006790906,153.0070003529545 111.68323691003025,162.57348261750303 120.31293796468526,184.47554833558388 131.31580680888146,185.98602825473063 135.41491480916739,177.42662946972996 127.21669880859554,155.27274960046634 121.17590807005763,152.0 114.9193748049438,154.01400028332137 111.68323691003025,162.06998450146057 120.09719543717802,184.2238015900366 129.58986659813672,186.7412678571418 135.41491480916739,178.18187176738866 126.56947122886777,154.76924995239824 120.31293796468526,152.2517501283437 114.48788975272328,154.51750008924864 111.68323691003025,160.81123875151388 119.44996785931289,188.0 130.6685792291537,186.48952134908177 135.41491480916739,178.18187176738866 126.35372870229185,154.26575019955635 115.99808743689209,153.51050037075765 111.2517518568784,162.06998450146057 120.09719543717802,184.47554833558388 130.6685792291537,186.48952134908177 135.84639986325055,177.42662946972996 126.56947122886777,154.51750008924864 115.56660238467157,153.25875037512742 111.2517518568784,162.32173357275315 120.52868049032986,184.72729505435564 130.88432175666094,186.48952134908177 135.6306573357433,176.671386934584 127.00095628108829,155.02099978993647 116.64531501568854,153.25875037512742 111.2517518568784,163.0769806264434 119.23422533273697,183.2168143428862 129.3741240715608,186.99301433912478 135.6306573357433,177.9301243617665 127.43244133330882,156.27974857925437 117.07680006790906,153.0070003529545 111.46749438345432,162.57348261750303 119.23422533273697,187.4965072227642" stroke="#4DD2FF" stroke-linecap="round" stroke-linejoin="round" stroke-width="0.5"><title>2026-03-12 7.1km</title><desc>1773318933000</desc></polyline><polyline fill="none" points="165.77041078079492,157.22585005743895 159.96509224455804,166.3226648288546 165.93627702444792,183.93551906489301 173.40025800000876,188.0 180.03490775544196,179.8710291722091 173.89785673189908,161.87103767495137 166.59974199999124,158.58069765474647 160.13095848821104,166.70976233435795 166.59974199999124,184.12906597950496 174.89305419381708,187.0322672566399 180.03490775544196,178.90329216315877 173.06852551177144,160.9032912198454 165.2728120489046,159.16134632006288 161.45788843929768,162.2581361150369 160.29682473186404,167.67750574252568 166.26800951175392,184.12906597950496 173.40025800000876,187.61290696344804 178.87384404800832,183.74197213049047 180.03490775544196,179.67748181137722 174.06372297462076,162.4516853048699 166.43387575540692,158.9677967854077 160.29682473186404,166.70976233435795 166.10214326810092,183.74197213049047 174.7271879510954,187.0322672566399 179.86904151178896,179.09683960536495 173.56612424366176,162.8387836230686 164.94107956066728,160.32264310284518 160.96028970740736,168.45170010370202 166.93147448822856,184.12906597950496 174.39545546285808,186.83872064680327 179.37144277989864,179.8710291722091 173.56612424366176,162.8387836230686 166.26800951175392,159.935544256703 160.96028970740736,166.3226648288546 167.09734073188156,184.12906597950496 175.0589204384014,186.64517401705962 179.70317526813596,179.8710291722091 173.23439175635576,162.4516853048699 166.26800951175392,159.74199480260722 160.96028970740736,166.3226648288546 166.76560824457556,183.93551906489301 174.7271879510954,186.4516273663612 179.37144277989864,179.48393442935776 173.73199048731476,163.41943094762973 165.93627702444792,160.32264310284518 161.12615595199168,167.29040844016708 167.42907321918756,184.51615974737797 175.22478668298572,186.06453400512692 179.20557653531432,179.48393442935776 173.06852551177144,162.6452344743302 165.93627702444792,160.32264310284518 160.96028970740736,167.67750574252568 166.59974199999124,183.16133120504674 173.56612424366176,186.64517401705962 179.37144277989864,180.06457651313394 173.06852551177144,162.4516853048699 165.77041078079492,160.32264310284518 161.12615595199168,166.9033110565506 167.26320697646588,183.74197213049047 174.7271879510954,186.25808069563936 179.20557653531432,179.67748181137722 172.73679302446544,162.6452344743302 165.60454453714192,160.32264310284518 160.96028970740736,167.67750574252568 167.42907321918756,184.32261287339497 174.39545546285808,186.4516273663612 179.20557653531432,179.48393442935776 172.90265926811844,162.4516853048699 165.77041078079492,160.51619249535725 161.12615595199168,167.09685975848697 167.09734073188156,184.12906597950496 175.39065292663872,186.06453400512692 179.03971029259264,178.90329216315877 172.90265926811844,162.2581361150369 166.26800951175392,160.12909369007684 161.95548717025667,163.22588185977656 161.12615595199168,167.48395710124169 166.93147448822856,183.548425175366 173.89785673189908,186.4516273663612 179.03971029259264,179.8710291722091 172.90265926811844,162.4516853048699 164.94107956066728,160.51619249535725 161.12615595199168,167.67750574252568 167.42907321918756,184.32261287339497 173.89785673189908,186.64517401705962 179.37144277989864,181.03231291275006 173.40025800000876,163.03233275131788 166.26800951175392,160.12909369007684 160.96028970740736,166.70976233435795 166.76560824457556,183.548425175366 174.89305419381708,186.25808069563936 179.20557653531432,179.8710291722091 173.40025800000876,163.22588185977656 167.09734073188156,160.12909369007684 160.96028970740736,166.3226648288546 166.76560824457556,183.35487820080016 173.40025800000876,186.64517401705962 177.71278034057468,184.32261287339497 179.03971029259264,179.8710291722091 173.40025800000876,163.22588185977656 165.2728120489046,160.51619249535725 160.96028970740736,167.67750574252568 166.93147448822856,183.93551906489301 175.39065292663872,186.25808069563936 179.20557653531432,179.48393442935776 173.73199048731476,164.00007808976807 167.09734073188156,159.35489583492745 165.2728120489046,152.0" stroke="#4DD2FF" stroke-linecap="round" stroke-linejoin="round" stroke-width="0.5"><title>2026-03-10 7.0km</title><desc>1773146401000</desc></polyline><polyline fill="none" points="37.09881291468628,196.98282919748453 38.53992531076074,200.34621525008697 38.1129290452227,201.09363178367494 22.901187085080892,206.6369416891248 22.847812552237883,208.31860973662697 25.89016094431281,214.23555201775162 21.78032188839279,216.41546324820956 22.260692687006667,218.53308363235556 20.39258402516134,219.84102185902884 19.858838693238795,221.64721752813784 22.207318153697997,227.25261735677486 23.861928682774305,228.0 25.623288278235123,227.3771811958286 26.317157209618017,225.13502808916382 24.075426815543324,219.46732551715104 21.193202023161575,219.2804772577947 20.179085892392322,221.46036995510804 22.10056908754632,226.81664371333318 23.488306950312108,227.75087255676044 24.982793879928067,227.50174500897992 26.103659076616168,225.19731023418717 24.022052282234654,219.6541737174848 21.460074689006433,219.2804772577947 20.179085892392322,221.58493501023622 22.207318153697997,227.00348959985422 24.822670280234888,227.68859067972517 26.21040814346634,225.3218745048507 24.128801348619163,219.9655872542644 21.513449222082272,219.34276001743274 20.179085892392322,221.70950003928738 22.260692687006667,227.06577154877596 25.036168413003907,227.56402690563118 26.21040814346634,225.44643874943722 24.075426815543324,219.84102185902884 21.460074689006433,219.34276001743274 20.232460425700992,221.83406504214508 22.260692687006667,227.12805349123664 24.66254668077454,227.68859067972517 26.15703361015767,225.3218745048507 24.128801348619163,219.90330455993535 21.513449222082272,219.34276001743274 20.125711359083652,221.52265248587355 22.794438018929213,227.50174500897992 24.876044813543558,227.6263087958796 26.15703361015767,226.13154162676074 23.488306950312108,219.34276001743274 20.979703890392557,219.6541737174848 20.285834959009662,222.02091249730438 22.420816286467016,227.25261735677486 25.303041079081595,227.31489927961957 26.103659076616168,225.0727459373884 23.808554149465635,219.59189099061769 21.353325622621924,219.46732551715104 20.232460425700992,221.83406504214508 22.367441753391176,227.12805349123664 24.022052282234654,227.81315442745108 25.356415612157434,227.31489927961957 26.15703361015767,225.3218745048507 23.701805083081126,219.5296082572313 21.83369642146863,219.09362893970683 20.55270762462169,220.2147179658059 20.979703890392557,223.70253694651183 22.847812552237883,227.4394631058094 25.089542946079746,227.4394631058094 26.103659076616168,226.13154162676074 23.541681483620778,219.46732551715104 21.193202023161575,219.5296082572313 20.232460425700992,221.70950003928738 22.207318153697997,226.9412076441804 25.036168413003907,227.50174500897992 26.103659076616168,225.0104637791519 23.861928682774305,219.71645643783268 22.10056908754632,219.09362893970683 20.872954824008048,219.84102185902884 20.285834959009662,221.3358048738446 20.76620575785637,223.20427834719885 22.95456161838956,227.56402690563118 24.982793879928067,227.56402690563118 26.103659076616168,226.0692595798173 23.541681483620778,219.46732551715104 21.353325622621924,219.4050427704933 20.232460425700992,221.58493501023622 22.153943620622158,226.81664371333318 24.929419346619397,227.50174500897992 26.103659076616168,225.44643874943722 23.755179616156965,219.59189099061769 22.10056908754632,219.15591171901906 20.872954824008048,219.7787391517777 20.49933309154585,222.456889664114 22.314067220082507,226.9412076441804 23.861928682774305,227.75087255676044 25.463164678774774,227.12805349123664 26.103659076616168,225.3218745048507 23.648430550005287,219.5296082572313 21.460074689006433,219.4050427704933 20.285834959009662,220.89982688351301 21.99382002092898,226.31838772876654 24.022052282234654,227.75087255676044 26.103659076616168,225.9446954660234 24.395674014929682,220.46384857292287 22.153943620622158,219.2181944916374 20.7128312245477,219.9655872542644 20.232460425700992,221.3358048738446 22.04719455423765,226.62979776842985 24.235550415003672,227.75087255676044 26.103659076616168,225.9446954660234 24.342299481621012,220.40156593103893 22.207318153697997,219.15591171901906 20.232460425700992,221.21123976656236 21.88707095454447,226.31838772876654 24.075426815543324,227.75087255676044 26.05028454377316,226.25610570143908 23.755179616156965,219.6541737174848 21.246576556470245,219.5296082572313 20.232460425700992,221.58493501023622 22.314067220082507,227.00348959985422 25.036168413003907,227.4394631058094 26.05028454377316,225.3218745048507 23.915303216082975,219.84102185902884 21.72694735508412,219.2804772577947 20.285834959009662,221.46036995510804 22.367441753391176,227.00348959985422 24.66254668077454,227.6263087958796 26.103659076616168,225.25959237269126 24.128801348619163,220.09015262307366 21.620198288699612,219.34276001743274 20.232460425700992,221.70950003928738 22.794438018929213,227.50174500897992 24.71592121361755,227.6263087958796 26.103659076616168,226.00697752606357 24.28892494807951,220.3392832824029 22.420816286467016,219.5296082572313 21.513449222082272,216.78916151210433 24.76929574692622,214.54696839803364 24.982793879928067,213.48815203789854 23.3815578839276,210.18712419946678 23.00793615169823,206.88607799680904 37.73930731299333,201.15591645240784 39.28716877568513,203.8964353997144 36.67181664914824,208.25632581999525 39.18041970906779,203.83415101864375 36.29819491668604,194.4914198295446 37.15218744776212,193.24571122258203 40.141161306761205,193.05885470594512 38.913547043222934,192.0 40.087786773452535,192.24914245377295" stroke="#4DD2FF" stroke-linecap="round" stroke-linejoin="round" stroke-width="0.5"><title>2026-03-09 9.6km</title><desc>1773060645000</desc></polyline><polyline fill="none" points="67.122908285819,196.40290588815697 72.22770928032696,225.151098274393 82.43731127027422,227.22302712779492 87.09821652714163,217.64034159481525 81.77146766148508,195.36692873947322 71.11796993389726,192.517989335116 66.01316893938929,200.54681013640948 71.56186567246914,224.37412450602278 81.77146766148508,227.48201811267063 87.32016439456493,218.9353012740612 81.99341553077102,195.88491736794822 72.22770928032696,192.0 66.01316893938929,200.02882248605601 71.56186567246914,224.11513319495134 81.54951979219913,227.48201811267063 87.32016439456493,218.67630939232185 82.21536340098828,196.40290588815697 71.7838135426864,192.258994681295 66.01316893938929,199.76982861943543 71.11796993389726,223.3381590996869 80.88367618434131,227.74100907007232 87.32016439456493,219.4532849555835 81.99341553077102,196.1439116410911 72.89355288818479,192.0 66.01316893938929,200.2878163245041 71.3399178031832,223.85614185687155 81.10562405362725,227.74100907007232 87.32016439456493,219.9712685283739 82.21536340098828,196.40290588815697 71.7838135426864,192.258994681295 66.01316893938929,200.2878163245041 71.56186567246914,224.37412450602278 80.88367618434131,227.74100907007232 87.32016439456493,219.7122767549008 81.99341553077102,195.88491736794822 72.22770928032696,192.0 66.01316893938929,199.51083472603932 70.89602206461132,223.0791676803492 81.10562405362725,227.74100907007232 87.32016439456493,218.9353012740612 82.21536340098828,196.1439116410911 71.3399178031832,192.517989335116 66.01316893938929,200.02882248605601 71.11796993389726,223.59715049201623 81.10562405362725,227.74100907007232 87.32016439456493,218.9353012740612 82.21536340098828,196.1439116410911 72.0057614101097,192.258994681295 66.01316893938929,200.02882248605601 71.7838135426864,224.37412450602278 81.3275719229132,227.74100907007232 87.32016439456493,219.19429312855937 81.99341553077102,195.88491736794822 71.11796993389726,192.517989335116 66.01316893938929,200.2878163245041 71.11796993389726,223.59715049201623 80.66172831505537,227.74100907007232 87.32016439456493,218.67630939232185 81.77146766148508,195.36692873947322 70.89602206461132,192.517989335116 66.01316893938929,201.06479767756537 72.44965715054423,225.151098274393 81.99341553077102,227.48201811267063 87.32016439456493,219.19429312855937 81.77146766148508,195.62592306709848 71.11796993389726,192.517989335116 66.01316893938929,200.02882248605601 71.11796993389726,223.3381590996869 80.66172831505537,227.74100907007232 87.32016439456493,219.7122767549008 82.21536340098828,196.40290588815697 72.67160501889884,192.0 66.01316893938929,199.76982861943543 71.11796993389726,223.59715049201623 80.88367618434131,227.74100907007232 87.32016439456493,219.7122767549008 82.43731127027422,196.40290588815697 72.44965715054423,192.0 66.01316893938929,200.02882248605601 70.89602206461132,222.820176234236 79.7739368379116,228.0 87.32016439456493,219.9712685283739 82.43731127027422,196.6619001077488 72.67160501889884,192.0 66.01316893938929,199.51083472603932 71.3399178031832,223.85614185687155 81.10562405362725,227.74100907007232 87.32016439456493,218.9353012740612" stroke="#4DD2FF" stroke-linecap="round" stroke-linejoin="round" stroke-width="0.5"><title>2026-03-07 5.8km</title><desc>1772888148000</desc></polyline><polyline fill="none" points="110.79399730823934,201.05811966047622 117.36222094111145,222.8903582454659 127.5131120076403,227.07097510341555 133.88229855895042,218.709733489668 128.30926032643765,196.64519420149736 119.15355465840548,192.92903962079436 111.98821978643537,199.89682434033602 116.96414678078145,222.19358800142072 126.71696368791163,227.07097510341555 133.6832614792511,218.9419906276744 128.30926032643765,197.34197249123827 118.95451757870615,193.16129946429282 112.18725686706603,201.05811966047622 116.76510970015079,222.19358800142072 125.32370413094759,227.53548760013655 133.28518732078373,219.87101893639192 128.707334484905,198.2710098682437 118.1583692599088,193.39355928450823 112.38629394769669,200.82586064538918 116.96414678078145,221.49681753804907 123.53237041272223,227.07097510341555 129.50348280370235,225.67743702884763 133.08615024015307,220.33553294464946 128.30926032643765,197.80649122828618 121.94007377419621,193.39355928450823 110.19688607007265,196.87745365593582 115.57088722288609,220.33553294464946 123.53237041272223,227.07097510341555 130.29963112343103,225.44518059748225 133.48422439862043,219.87101893639192 129.50348280370235,198.73552841087803 119.15355465840548,193.16129946429282 112.38629394769669,200.59360160608776 117.16318386048079,222.42584477365017 125.9208153700456,227.3032313643489 133.6832614792511,218.9419906276744 128.707334484905,197.57423187186942 119.3525917371735,193.16129946429282 112.38629394769669,201.75489656045102 117.36222094111145,223.3548716204241 127.5131120076403,227.3032313643489 133.6832614792511,219.17424774100073 128.90637156553566,197.57423187186942 120.14874005690217,193.16129946429282 114.17762766499072,196.64519420149736 112.38629394769669,201.98715547821485 117.56125801987946,222.8903582454659 127.1150378473103,226.8387188189663 133.28518732078373,220.56778991175815 128.508297406137,197.80649122828618 118.75548049807549,193.39355928450823 112.18725686706603,202.45167324040085 117.36222094111145,223.3548716204241 120.94488837569952,226.8387188189663 128.90637156553566,226.606462509837 134.87748395837843,218.9419906276744 129.70251988433301,197.80649122828618 125.9208153700456,192.696779752383 121.34296253602952,192.46451985905878 112.5853310264647,198.73552841087803 116.56607262138277,222.42584477365017 126.51792660821229,227.53548760013655 133.88229855895042,218.2452191398479 129.30444572586566,198.73552841087803 119.55162881780416,193.62581907981075 112.5853310264647,201.29037865134887 117.16318386048079,222.8903582454659 126.11985244974494,227.53548760013655 133.48422439862043,219.17424774100073 128.707334484905,198.2710098682437 119.94970297627151,193.39355928450823 112.38629394769669,200.36134254164062 117.36222094111145,222.8903582454659 125.9208153700456,227.53548760013655 133.28518732078373,219.40650483081117 128.11022324673831,196.1806752202101 118.75548049807549,193.39355928450823 112.38629394769669,200.36134254164062 117.36222094111145,223.12261494528502 126.11985244974494,227.3032313643489 133.48422439862043,219.6387618954759 129.105408645235,198.2710098682437 120.74585129600018,192.696779752383 112.38629394769669,199.89682434033602 117.16318386048079,221.9613312049769 124.3285187324509,228.0 133.28518732078373,221.49681753804907 129.50348280370235,199.20004685595632 121.54199961479753,192.0 113.18244226556271,197.57423187186942 115.76992430258542,219.6387618954759 120.34777713660151,226.8387188189663 128.508297406137,226.606462509837 136.46978059597313,217.54844743316062" stroke="#4DD2FF" stroke-linecap="round" stroke-linejoin="round" stroke-width="0.5"><title>2026-03-03 6.2km</title><desc>1772541737000</desc></polyline><polyline fill="none" points="161.53808694146574,213.80579324893188 162.5958260735497,221.8286183917662 166.47420289181173,226.5600126956124 173.52579710818827,227.17715024144854 178.6382029140368,222.0343314249767 175.64127537235618,202.28578176232986 168.94226086698472,196.1143191830488 162.94840578455478,197.76004443748388 159.59889853186905,203.10864197160117 163.12469564005733,222.24004443641752 165.7690434716642,226.14858755795285 172.29176811967045,227.58857516397256 178.6382029140368,220.59433973836713 174.40724638476968,200.84577556489967 167.35565216932446,196.1143191830488 161.53808694146574,199.2000529016368 159.59889853186905,203.72578690119553 163.65356520563364,223.0628962678602 167.531942024827,226.97143774759024 173.34950725268573,226.97143774759024 178.28562320396304,219.56577359919902 174.23095652926713,201.46292120788712 165.59275361523032,196.52575062564574 159.77518838830292,204.54864650580566 165.7690434716642,226.5600126956124 174.23095652926713,226.97143774759024 178.9907826250419,220.59433973836713 174.58353624027222,201.0514908010373 167.35565216932446,196.1143191830488 162.06695650797337,198.78862201992888 159.59889853186905,204.54864650580566 163.8298550611362,223.2686091719661 167.00307245831937,228.0 171.5866086985916,227.38286271377 178.28562320396304,219.77148687071167 174.23095652926713,200.84577556489967 165.7690434716642,196.32003491534851 159.4226086763665,203.52007194596808 163.65356520563364,223.0628962678602 170.52886956557631,227.38286271377 178.10933334752917,220.18291334749665 173.87837681826204,200.43434502906166 166.12162318173796,196.73146631533746 159.59889853186905,204.34293163730763 164.18243477214128,223.47432205383666 172.64434783067554,226.97143774759024 178.28562320396304,219.97720011952333 173.87837681826204,200.6400603079237 165.7690434716642,196.32003491534851 159.77518838830292,203.52007194596808 163.65356520563364,222.24004443641752 171.93918840959668,226.76572523266077 178.10933334752917,220.18291334749665 174.0546666737646,200.6400603079237 165.7690434716642,196.73146631533746 159.77518838830292,204.75436135276686 164.00614491663873,222.85718334221747 172.11547826509923,227.17715024144854 178.10933334752917,218.74292029999197 173.70208696369082,200.43434502906166 165.24017390515655,196.52575062564574 159.77518838830292,204.1372167469235 164.18243477214128,223.2686091719661 172.64434783067554,226.97143774759024 178.10933334752917,219.56577359919902 174.0546666737646,201.0514908010373 165.41646375972778,196.93718198267743 159.59889853186905,203.52007194596808 164.3587246267125,223.88574775354937 172.29176811967045,226.97143774759024 178.10933334752917,219.97720011952333 173.87837681826204,200.84577556489967 165.24017390515655,197.55432885640766 160.65663766488433,201.46292120788712 159.95147824287415,205.98864998226054 164.00614491663873,224.5028861410683 173.34950725268573,227.79428759252187 178.9907826250419,219.77148687071167 174.40724638476968,200.02291440637782 166.12162318173796,196.1143191830488 159.24631882179528,203.72578690119553 163.65356520563364,223.47432205383666 167.70823188032955,226.97143774759024 173.70208696369082,226.76572523266077 178.28562320396304,218.12578009895515 173.17321739718318,198.99433747166768 163.4772753501311,196.93718198267743 159.4226086763665,205.1657909823116 166.47420289181173,227.58857516397256 175.2886956622824,226.97143774759024 180.75368117913604,216.274358329596 174.0546666737646,199.40576830971986 161.18550723139197,192.0" stroke="#4DD2FF" stroke-linecap="round" stroke-linejoin="round" stroke-width="0.5"><title>2026-03-02 6.1km</title><desc>1772458755000</desc></polyline><polyline fill="none" points="22.85029940120876,255.40990968915867 22.77844311390072,258.09382805478526 21.772455089725554,258.34544493909925 17.389221557416022,257.75833875266835 14.155688622966409,255.57765485125128 12.0,242.07405649137218 12.502994012087584,239.1384614018025 41.38922155695036,236.7899775565602 43.90419161738828,237.9642203428666 44.98203592840582,242.24180445616366 44.622754491399974,249.11944065848365 48.0,255.24216449150117 46.994011976290494,259.85514457843965 41.96407185681164,263.1261506686569 33.98802395258099,262.622919834801 27.664670658763498,258.6809339944739 19.329341317526996,258.34544493909925 15.233532933983952,256.66799754666863 13.868263473268598,254.2356925663189 12.0,240.39657490496757 13.652694610878825,238.38359234802192 43.401197605300695,237.3770991655765 44.98203592840582,241.82243447820656 44.4071856290102,249.11944065848365 47.78443113807589,256.8357424445567 46.13173652719706,260.77773739682743 42.25149700604379,263.0422788851429 33.55688622780144,262.5390479982598 27.736526946071535,258.8486784694833 23.13772455137223,258.2615726533113 22.706586826592684,256.8357424445567 22.634730539284647,258.2615726533113 20.766467066016048,258.42931721609784 15.59281437145546,256.91961488017114 13.940119761042297,254.90667399088852 12.0,240.14495236298535 13.652694610878825,238.38359234802192 43.329341317526996,237.29322467651218 44.98203592840582,241.9063084916561 44.4071856290102,248.8678208659403 47.78443113807589,256.75186999992 45.485029940493405,261.5325852733804 41.245508982334286,263.210022443498 33.91616766480729,262.5390479982598 28.23952095862478,259.1002951156115 18.467065868433565,258.17770035844296 14.802395209670067,256.24863514781464 12.0,241.319190213806 13.077844311483204,238.635215445247 43.401197605300695,237.3770991655765 45.05389221571386,240.98369386140257 44.550898203626275,249.0355674030725 47.71257485030219,256.3325076451292 45.55688622780144,261.4487133222283 41.820359281264246,263.210022443498 34.706586826592684,262.8745352913975 27.88023952115327,259.0164229089278 22.994011976290494,258.34544493909925 29.604790419340134,260.190632999409 22.922155688516796,258.17770035844296 23.13772455137223,252.3066178293666 26.08383233519271,252.05499904160388 25.940119760576636,253.22921937220963" stroke="#4DD2FF" stroke-linecap="round" stroke-linejoin="round" stroke-width="0.5"><title>2026-02-27 6.1km</title><desc>1772195478000</desc></polyline><polyline fill="none" points="72.60678642708808,252.30661831400357 69.73253493010998,252.55823707510717 69.30139720486477,258.1777020767331 64.55888223554939,257.7583403828903 61.109780438710004,255.66152860893635 58.666666666511446,241.57081061444478 59.38522954052314,238.88683612796012 89.78043912071735,237.12547296629054 91.72055888175964,241.99018081265967 91.07385229459032,248.44845404312946 94.59481037873775,256.5002539793495 93.2295409180224,260.44225141673815 89.70858283387497,262.8745379966567 81.94810379203409,262.70679433242185 74.40319361258298,258.5970635502599 64.91816367255524,258.00995742558734 62.043912175577134,256.5002539793495 60.750499001704156,255.24216559296474 58.666666666511446,241.3191883895779 60.39121756469831,238.2158410960692 90.06786427088082,237.4609710110817 91.79241516860202,241.40306247322587 91.2894211569801,248.9516939187888 94.59481037873775,255.4937834290322 94.2355289417319,258.76480807800544 92.22355289384723,261.61645965639036 89.56487025879323,263.04228162555955 82.59481037920341,263.1261534266523 73.68463073810562,258.4293189875316 63.04990019928664,257.3389784687897 60.750499001704156,254.82280235690996 58.81037924159318,241.99018081265967 58.95409181620926,239.7255791243515 60.53493013931438,238.38358990690904 90.13972055865452,237.20934749062872 91.72055888175964,242.2418028258253 91.07385229459032,248.19683398655616 94.59481037873775,255.4937834290322 93.08582834294066,260.7777396615711 89.27744510909542,262.958409815561 82.23552894126624,262.958409815561 74.11576846288517,258.5970635502599 63.33732534898445,257.42285086907214 60.53493013931438,253.39696570648812 58.73852295381948,241.4869365482591 59.81636726530269,238.55133868253324 89.13373253447935,236.78997478069505 91.57684630714357,240.98369196651038 91.3612774447538,249.87429953279207 94.66666666651145,256.5002539793495 91.57684630714357,261.95194740773877 87.76846307329834,263.21002521924675 81.08582834294066,262.6229224872659 73.9720558882691,258.5970635502599 63.98403193615377,257.84221273940057 60.67864271486178,254.73892968340078 58.73852295381948,241.4869365482591 59.96007983991876,238.55133868253324 89.42115768417716,236.87384934030706 91.86427145637572,241.73855872033164 91.07385229459032,248.70007402054034 94.52295409142971,255.82927375327563 92.51097804307938,261.19709976913873 89.06187624717131,263.04228162555955 83.38522954052314,263.04228162555955 74.18762475019321,258.5970635502599 69.94810379203409,258.26157438900555 69.94810379203409,252.3904912431608 72.89421157678589,252.3904912431608" stroke="#4DD2FF" stroke-linecap="round" stroke-linejoin="round" stroke-width="0.5"><title>2026-02-22 7.4km</title><desc>1771753684000</desc></polyline><polyline fill="none" points="118.91417165659368,252.47436140535865 116.6147704590112,252.30661555565894 115.60878243483603,258.42931622918695 111.00998004013672,257.84220998105593 107.70459081837907,255.74539842718514 105.33333333348855,241.99017805431504 105.83632734557614,239.390079273202 136.30339321307838,237.20934473228408 138.38722554873675,241.738555961987 137.88423153664917,249.11943771503866 141.26147704571486,255.74539842718514 139.39321357244626,261.0293529940536 135.58483033906668,263.0422788672149 129.04590818332508,262.8745352383121 121.35728542879224,258.84867757029133 110.07584830373526,257.67446525924606 107.63273453107104,255.57765326503431 105.40518962079659,242.91279171506176 105.6926147704944,239.64170210593147 107.05788423167542,238.71908466448076 136.51896207546815,237.1254702079459 138.38722554873675,241.57080785610015 137.9560878239572,249.6226771674701 141.18962075840682,255.74539842718514 139.32135728513822,261.11322500690585 135.94411177607253,263.0422788672149 128.90219560824335,262.8745352383121 120.71057884255424,258.68093306029914 109.57285429118201,257.1712308830465 107.63273453107104,255.40990806743503 105.47704590857029,242.577295961848 105.54890219587833,239.64170210593147 106.98602794390172,238.4674615408876 136.30339321307838,236.95772113272687 138.31536926096305,241.57080785610015 138.0279441117309,249.45493071863893 141.33333333348855,256.4163787237485 139.46506986021996,260.86160894221393 133.86027944087982,263.0422788672149 128.54291417170316,262.7906634105602 120.71057884255424,258.5970607919153 112.59081836324185,258.1776993183885 108.2794411177747,256.3325062174117 105.47704590857029,242.577295961848 105.6926147704944,239.30620497796917 109.93213572865352,238.21583833772456 136.73453093785793,237.29321924818214 138.45908183557913,242.07405206776457 137.74051896156743,249.03556444199057 141.33333333348855,256.0808886458981 139.10578842274845,261.3648409922025 135.72854291414842,262.9584070572164 129.47704590810463,262.8745352383121 121.2854291414842,258.7648053196608 116.6147704590112,258.1776993183885 116.68662674631923,251.8872507775086 120.85429141717032,253.31309012463316" stroke="#4DD2FF" stroke-linecap="round" stroke-linejoin="round" stroke-width="0.5"><title>2026-02-17 6.0km</title><desc>1771315721000</desc></polyline><polyline fill="none" points="165.9959919839166,252.90532582823653 163.32665330637246,252.40007161378162 162.5330661321059,258.3788927356363 157.77154308604077,257.95785045454977 154.52505010040477,255.9368444265565 152.0721442885697,242.12650016514817 152.5771543085575,239.01071886211867 182.80561122205108,236.7370329683181 185.25851703388616,241.95807986380532 184.75350701389834,249.03170204354683 188.0,256.61051366874017 186.48496994003654,260.65251723118126 182.51703406777233,263.0103432289907 174.50901803560555,262.75771934667137 167.51102204388008,258.7157264012494 158.85370741505176,258.1262673935853 155.6072144289501,256.77893089089775 154.09218436898664,254.2526688433136 152.0,240.6107161793625 153.73146292567253,238.25282428099308 183.59919839678332,237.24229705776088 185.18637274485081,241.53702895576134 184.4649298596196,247.85276934917783 188.0,256.44209641125053 186.917835670989,260.2314761446323 182.80561122205108,263.09455117193284 174.22044088179246,262.58930338086793 167.51102204388008,258.7157264012494 158.56513026030734,258.1262673935853 155.246492985636,256.44209641125053 152.0721442885697,240.6107161793625 153.80360721424222,238.33703482506098 183.45490981964394,237.1580863984418 185.18637274485081,241.62123915506527 184.60921843675897,248.1053979297867 188.0,256.77893089089775 186.84569138241932,260.3156843795441 183.0941883767955,262.9261352769099 175.66332665318623,262.9261352769099 167.00601202389225,258.6315179980593 156.40080160321668,257.45259942521807 154.09218436898664,254.92633950116578 152.14428857713938,242.9686011407175 152.0721442885697,240.02124385518255 153.58717434853315,238.50545588764362 182.73346693394706,236.8212436720496 185.18637274485081,241.368608530669 184.82565130246803,249.03170204354683 188.0,256.02105311275227 186.05210420815274,261.24197438085685 182.94989979965612,263.0103432289907 176.88977955887094,263.2629670316819 167.4388777553104,258.7157264012494 163.18236472969875,258.3788927356363 163.25450901780277,252.40007161378162 166.21242484962568,252.65269876096863" stroke="#4DD2FF" stroke-linecap="round" stroke-linejoin="round" stroke-width="0.5"><title>2026-02-14 5.9km</title><desc>1771077344000</desc></polyline></svg>