<?xml version="1.0" encoding="utf-8" ?>
<svg baseProfile="full" height="300mm" version="1.1" viewBox="0,0,200,300" width="200mm" xmlns="http://www.w3.org/2000/svg" xmlns:ev="http://www.w3.org/2001/xml-events" xmlns:xlink="http://www.w3.org/1999/xlink"><defs /><rect fill="#222222" height="300" width="200" x="0" y="0" /><text fill="#FFFFFF" style="font-size:12px; font-family:Arial; font-weight:bold;" x="10" y="20">Over 10km Runs</text><text fill="#FFFFFF" style="font-size:4px; font-family:Arial" x="10" y="280">Runner</text><text fill="#FFFFFF" style="font-size:9px; font-family:Arial" x="10" y="290">absx</text><text fill="#FFFFFF" style="font-size:4px; font-family:Arial" x="65" y="280">SPECIAL TRACKS</text><rect fill="yellow" height="2.6" width="2.6" x="65" y="283" /><text fill="#FFFFFF" style="font-size:3px; font-family:Arial" x="70" y="285.5">Over 10.0 km</text><rect fill="red" height="2.6" width="2.6" x="65" y="287" /><text fill="#FFFFFF" style="font-size:3px; font-family:Arial" x="70" y="289.5">Over 20.0 km</text><text fill="#FFFFFF" style="font-size:4px; font-family:Arial" x="120" y="280">STATISTICS</text><text fill="#FFFFFF" style="font-size:3px; font-family:Arial" x="120" y="285">Number: 22</text><text fill="#FFFFFF" style="font-size:3px; font-family:Arial" x="120" y="290">Weekly: 2.8</text><text fill="#FFFFFF" style="font-size:3px; font-family:Arial" x="141" y="285">Total: 153.1 km</text><text fill="#FFFFFF" style="font-size:3px; font-family:Arial" x="141" y="290">Avg: 7.0 km</text><text fill="#FFFFFF" style="font-size:3px; font-family:Arial" x="167" y="285">Min: 5.4 km</text><text fill="#FFFFFF" style="font-size:3px; font-family:Arial" x="167" y="290">Max: 12.0 km</text><polyline fill="none" points="20.72461482603103,40.94123043469153 24.757390988990664,63.29415049427189 30.604916425421834,68.0 36.85571947693825,66.8235385499429 41.29177325591445,59.7647568823304 35.4442478204146,37.17650617752224 25.56394622195512,33.647071443963796 19.71642078552395,43.529474694048986 25.765585029497743,64.00002855015919 36.250803052447736,66.5882461857982 40.88849563989788,59.5294637773186 34.63769258838147,36.00002855062485 25.362307413481176,33.88236726610921 20.522976017557085,43.764769478701055 25.765585029497743,64.70590638322756 35.64588662888855,67.29412320465781 40.88849563989788,58.82358431373723 35.4442478204146,36.70591520075686 26.168862646445632,33.647071443963796 20.72461482603103,43.29417988471687 26.37050145305693,64.70590638322756 36.45244186092168,67.0588308898732 41.29177325591445,58.35299788136035 35.84752543736249,37.411801629234105 27.378695494495332,33.1764797270298 20.72461482603103,42.35300040128641 25.362307413481176,63.76473588938825 35.04097020346671,67.52941549452953 40.48521802481264,60.4706360490527 35.24260901287198,36.47061967570335 26.975417877547443,32.94118383084424 20.321337210014462,42.35300040128641 25.967223837971687,64.2353211864829 34.83933139592409,67.29412320465781 40.68685683235526,60.0000499621965 36.049164244905114,37.17650617752224 26.975417877547443,32.70588791067712 20.522976017557085,41.176525491289794 25.362307413481176,62.82356500066817 34.63769258838147,67.29412320465781 40.48521802481264,59.7647568823304 35.84752543736249,37.17650617752224 27.378695494495332,32.94118383084424 20.522976017557085,41.64711552881636 25.56394622195512,63.529443204402924 34.83933139592409,67.52941549452953 41.09013444930315,59.05887749278918 35.64588662888855,36.70591520075686 26.5721402624622,33.1764797270298 20.522976017557085,41.64711552881636 25.16066860407591,63.29415049427189 34.63769258838147,67.52941549452953 40.88849563989788,59.7647568823304 36.250803052447736,37.17650617752224 26.773779070936143,33.1764797270298 20.522976017557085,42.82359019247815 25.765585029497743,64.00002855015919 35.84752543736249,67.0588308898732 41.09013444930315,59.29417064739391 35.64588662888855,36.70591520075686 25.967223837971687,33.41177559806965 18.70822674408555,45.17653766646981 26.5721402624622,65.17649148218334 36.049164244905114,66.5882461857982 40.88849563989788,59.05887749278918 34.83933139592409,36.00002855062485 26.37050145305693,33.1764797270298 20.522976017557085,41.64711552881636 25.16066860407591,63.529443204402924 35.04097020346671,67.29412320465781 40.88849563989788,59.05887749278918 35.04097020346671,36.23532412527129 26.773779070936143,32.70588791067712 20.321337210014462,41.88241051090881 25.362307413481176,63.529443204402924 30.403277616016567,67.29412320465781 36.250803052447736,66.5882461857982 40.68685683235526,58.5882911097724 34.4360537789762,36.00002855062485 25.967223837971687,33.41177559806965 20.72461482603103,43.29417988471687 25.56394622195512,63.76473588938825 36.049164244905114,66.8235385499429 40.48521802481264,58.35299788136035 35.24260901287198,36.70591520075686 23.749196948483586,32.0 20.321337210014462,43.29417988471687 25.967223837971687,64.2353211864829 36.049164244905114,67.0588308898732 40.68685683235526,58.82358431373723 35.24260901287198,36.70591520075686 25.765585029497743,33.41177559806965 20.119698401540518,41.64711552881636 25.16066860407591,63.05885775969364 34.83933139592409,67.29412320465781 40.88849563989788,59.05887749278918 35.4442478204146,37.411801629234105 27.378695494495332,32.47059196489863 20.522976017557085,40.94123043469153 25.16066860407591,63.05885775969364 35.24260901287198,67.0588308898732 40.88849563989788,58.35299788136035 35.84752543736249,37.17650617752224 27.580334302037954,32.70588791067712 20.72461482603103,41.176525491289794 25.56394622195512,63.29415049427189 35.4442478204146,66.8235385499429 40.88849563989788,59.05887749278918 35.64588662888855,37.411801629234105 27.17705668695271,33.1764797270298 18.70822674408555,42.11770546878688" stroke="#4DD2FF" stroke-linecap="round" stroke-linejoin="round" stroke-width="0.5"><title>2026-03-31 7.6km</title><desc>1774955750000</desc></polyline><polyline fill="none" points="65.31592357065529,40.15099601307884 70.36069827992469,60.7547652721405 75.21144319325686,67.09434698987752 80.06218810658902,67.32076027756557 88.01740976329893,59.39628105121665 80.83830729220062,35.16983544290997 70.36069827992469,33.358501475071535 65.70398316439241,43.094403670635074 71.71890685614198,65.05662632663734 78.70397953037173,68.0 86.07711179833859,64.15097208041698 87.62935017049313,58.2642102134414 83.55472444370389,39.24533131043427 76.76368156541139,32.90566774457693 70.94278766959906,33.13208462158218 66.28607255406678,39.69816370937042 69.97263868711889,61.20759315509349 79.48009871691465,67.54717354243621 87.62935017049313,60.52835129504092 82.39054566435516,37.660417165607214 73.07711543235928,32.0 67.64428112935275,35.16983544290997 66.28607255406678,41.28307635639794 70.36069827992469,61.43400706141256 79.28606891911477,67.32076027756557 84.52487342618406,65.50945330713876 87.43532037362456,59.62269514705986 82.00248607154936,37.43400076380931 73.07711543235928,33.13208462158218 66.28607255406678,41.0566603357438 71.13681746646762,62.792489998508245 80.25621790252626,67.09434698987752 87.62935017049313,60.075523268198594 82.1965158674866,37.886833543656394 74.43532400671393,33.358501475071535 66.86816194374114,40.83024429040961 71.13681746646762,62.11324863717891 80.06218810658902,66.86793367820792 86.85323098488152,60.075523268198594 82.1965158674866,38.339666227810085 73.65920482110232,33.358501475071535 66.67413214594126,41.7359083276242 71.52487705927342,62.56607623514719 81.22636688500643,66.41510698292404 87.04726077988744,58.71703861979768 81.8084562746808,37.660417165607214 72.49502604268491,34.0377518911846 66.48010235093534,42.18874020362273 71.71890685614198,62.792489998508245 81.22636688500643,66.64152034255676 87.24129057768732,58.94345278758556 82.39054566435516,37.660417165607214 73.65920482110232,32.90566774457693 68.22637051902711,36.30191840115003 66.48010235093534,41.962324277265 71.13681746646762,62.56607623514719 79.86815830972046,67.32076027756557 84.91293301898986,65.28303982899524 87.43532037362456,59.16986693139188 81.8084562746808,37.43400076380931 73.2711452273652,33.358501475071535 66.28607255406678,41.962324277265 71.33084726333618,62.792489998508245 80.4502476984635,67.32076027756557 87.04726077988744,59.62269514705986 82.58457546122372,37.886833543656394 73.65920482110232,33.13208462158218 66.86816194374114,41.0566603357438 70.94278766959906,61.88683480233885 79.28606891911477,67.09434698987752 86.85323098488152,60.30193729349412 82.39054566435516,38.339666227810085 75.21144319325686,33.13208462158218 69.77860889118165,35.39625208219513 66.67413214594126,41.0566603357438 70.55472807679325,60.98117922549136 79.48009871691465,66.86793367820792 87.04726077988744,59.62269514705986 82.1965158674866,37.886833543656394 75.21144319325686,33.358501475071535 69.58457909431309,35.62266869726591 66.86816194374114,41.0566603357438 70.94278766959906,61.88683480233885 78.70397953037173,67.32076027756557 86.65920118801296,60.7547652721405 82.1965158674866,38.566082533914596 73.85323461703956,34.0377518911846 67.06219173967838,41.28307635639794 70.94278766959906,62.339662448270246 80.64427749626338,67.09434698987752 87.04726077988744,59.16986693139188 82.1965158674866,38.339666227810085 74.04726441483945,34.2641686485149 67.25622153561562,41.28307635639794 71.13681746646762,61.88683480233885 81.03233708813787,67.09434698987752 86.85323098488152,58.94345278758556 82.58457546122372,37.886833543656394 73.2711452273652,33.13208462158218 65.89801296126097,43.094403670635074 70.94278766959906,63.47173114679754 81.03233708813787,67.54717354243621 87.62935017049313,58.49062442872673 82.39054566435516,36.75475141755305 79.09203912410885,32.67925084405579 72.49502604268491,32.67925084405579 66.09204275626689,41.28307635639794 70.36069827992469,61.66042094328441 80.25621790252626,67.54717354243621 87.43532037362456,59.16986693139188 82.77860525716096,37.660417165607214 73.07711543235928,33.13208462158218 66.48010235093534,41.28307635639794 71.13681746646762,63.245317454217 81.03233708813787,67.09434698987752 87.24129057768732,57.58496742649004 82.77860525716096,38.339666227810085 74.24129421077669,33.13208462158218 66.86816194374114,40.15099601307884 70.94278766959906,61.66042094328441 80.06218810658902,66.41510698292404 85.30099261179566,63.47173114679754 86.85323098488152,58.2642102134414 82.58457546122372,38.11324989749119 73.2711452273652,34.0377518911846 66.67413214594126,41.50949235423468 71.91293665301055,62.792489998508245 81.42039668187499,66.18869359930977 87.04726077988744,58.037795974873006 82.00248607154936,37.20758433896117 71.91293665301055,34.2641686485149 66.86816194374114,42.415156106464565 71.52487705927342,62.56607623514719 81.03233708813787,66.41510698292404 86.4651713911444,57.811381712323055 82.1965158674866,38.79249881650321 78.50994973443449,34.943418780108914 71.91293665301055,34.7170020933263 66.86816194374114,42.415156106464565 71.71890685614198,63.245317454217 81.8084562746808,66.86793367820792 87.04726077988744,57.811381712323055 82.39054566435516,38.11324989749119 77.34577095508575,34.0377518911846 69.97263868711889,34.49058538326062 66.48010235093534,44.00006675743498 72.10696644894779,64.37738567800261 81.42039668187499,66.64152034255676 86.4651713911444,57.811381712323055 81.42039668187499,38.11324989749119 70.7487578727305,34.0377518911846" stroke="#4DD2FF" stroke-linecap="round" stroke-linejoin="round" stroke-width="0.5"><title>2026-03-29 9.9km</title><desc>1774773831000</desc></polyline><polyline fill="none" points="112.24303941242397,36.941210699267685 117.48572381120175,62.352979405084625 127.16452577803284,68.0 134.42362725455314,63.76473588705994 136.2384026227519,57.64711804362014 128.7776594394818,36.70591519866139 117.48572381120175,32.47059196373448 110.4282640432939,42.588295304914936 120.3087077178061,65.17649148032069 126.5596006559208,67.76470775902271 132.81049359310418,65.41178399254568 135.83511920738965,57.64711804362014 128.57601773180068,36.941210699267685 119.50214088801295,32.23529599397443 111.03318916633725,40.235345114488155 118.09064893517643,63.05885775736533 128.7776594394818,67.294123203028 135.83511920738965,57.41182471672073 128.57601773180068,37.176506174961105 123.73661674838513,33.176479724934325 116.8807986881584,33.176479724934325 111.03318916633725,42.588295304914936 118.29229064192623,62.82356499810703 128.17273431736976,67.294123203028 134.0203438391909,63.52944320207462 135.83511920738965,57.41182471672073 127.97109260968864,36.47061967314221 116.47751527279615,33.41177559643984 111.03318916633725,41.411820519017056 118.09064893517643,63.05885775736533 126.35795894823968,68.0 132.60885188542306,65.64707648032345 136.03676091507077,59.29417064390145 128.57601773180068,37.41180162644014 119.90542430337518,32.47059196373448 111.43647258263081,39.294164346996695 117.48572381120175,61.647100830916315 124.94646699447185,67.52941549406387 130.59243480861187,66.35295379604213 135.23019408527762,60.94122203369625 131.60064334701747,44.705948365386575 122.72840820997953,32.941183829680085 116.07423185836524,33.64707144303247 111.43647258263081,39.294164346996695 117.48572381120175,61.17651499109343 122.12348308693618,66.35295379604213 131.60064334701747,65.88236894388683 135.4318357920274,55.2941836589016 127.56780919339508,36.00002854829654 121.92184137925506,32.705887909280136 115.46930673439056,34.11766306147911 111.03318916633725,43.7647694745101 120.71199113409966,65.41178399254568 131.1973599307239,66.11766138207167 135.63347749970853,56.470651159994304 127.36616748664528,35.76473294850439 116.07423185836524,33.64707144303247 111.03318916633725,44.00006423401646 119.30049918033183,63.76473588705994 129.9875096855685,66.35295379604213 135.23019408527762,56.470651159994304 127.16452577803284,35.76473294850439 116.47751527279615,33.8823672644794 111.23483087401837,43.529474689625204 119.90542430337518,64.47061379533261 131.1973599307239,65.88236894388683 135.4318357920274,56.70594458584674 128.17273431736976,36.941210699267685 121.31691625714302,32.941183829680085 114.66273990366608,34.58825458120555 116.07423185836524,32.0 111.83975599706173,42.8235901882872 119.50214088801295,63.05885775736533 125.34975040983409,66.58824618463404 131.39900163933635,65.17649148032069 134.62526896130294,55.52947720838711 126.15631724055856,35.058846002910286 120.51034942641854,33.176479724934325 112.24303941242397,35.52943732473068 112.44468112010509,45.41183227370493 120.71199113409966,64.47061379533261 130.59243480861187,65.64707648032345 135.23019408527762,57.64711804362014 127.7694509010762,37.64709705254063 117.88900722656399,33.8823672644794 111.83975599706173,42.8235901882872 119.50214088801295,62.82356499810703 129.7858679778874,65.64707648032345 134.42362725455314,56.70594458584674 127.56780919339508,37.882392454426736 118.09064893517643,34.352958833798766 112.44468112010509,42.1177054643631 119.70378259569407,62.352979405084625 124.74482528679073,66.11766138207167 130.18915139324963,65.41178399254568 134.42362725455314,57.17653136397712 127.7694509010762,37.176506174961105 117.08244039583951,33.8823672644794 111.83975599706173,43.05888504721224 120.3087077178061,64.47061379533261 129.9875096855685,66.11766138207167 134.82691066898406,56.23535770946182 126.76124236360192,36.23532412271015 121.31691625714302,33.41177559643984 113.45288965851068,35.52943732473068" stroke="#4DD2FF" stroke-linecap="round" stroke-linejoin="round" stroke-width="0.5"><title>2026-03-26 6.5km</title><desc>1774530092000</desc></polyline><polyline fill="none" points="159.17158743925393,36.053008635528386 162.6448518447578,61.56295579741709 171.83878703787923,67.76159128104337 177.96807716507465,65.37750271218829 181.44134157244116,59.178860723041 175.9249804560095,36.29142068279907 166.118116251193,32.0 158.55865842662752,39.86759839113802 163.05347118712962,61.80136516713537 174.29050308838487,67.2847737672273 181.23703190125525,58.463631712133065 175.516361114569,35.81459656287916 166.32242592144758,32.23841247265227 158.76296809595078,41.05965637648478 163.6664001988247,62.2781838318333 173.47326440457255,67.76159128104337 180.41979321744293,60.132499052910134 175.9249804560095,36.76824470190331 171.43016769643873,32.71523734321818 165.30087756644934,32.23841247265227 158.76296809595078,41.298067898256704 163.87070987001061,62.993411641335115 174.08619341813028,67.04636497260071 180.82841255888343,57.98681224742904 175.516361114569,35.576184465549886 165.09656789619476,32.71523734321818 159.17158743925393,39.86759839113802 164.48363888263702,64.90068469801918 174.08619341813028,67.04636497260071 180.62410288862884,58.225221992470324 175.3120514433831,36.053008635528386 165.91380658000708,32.23841247265227 158.96727776806802,40.34442166076042 163.6664001988247,62.75500239711255 168.36552263144404,67.04636497260071 174.49481275957078,66.8079561535269 180.62410288862884,58.463631712133065 175.3120514433831,36.053008635528386 165.50518723856658,32.0 158.55865842662752,41.77489086706191 166.7310452638194,68.0 175.1077417731285,67.2847737672273 181.03272223006934,57.033173015806824 174.9034321019426,34.86094802245498 165.30087756644934,32.23841247265227 158.55865842662752,41.298067898256704 163.4620905276388,62.51659312681295 173.47326440457255,66.8079561535269 180.62410288862884,57.98681224742904 175.1077417731285,35.81459656287916 165.50518723856658,32.23841247265227 158.76296809595078,41.05965637648478 163.87070987001061,62.993411641335115 168.56983230169863,66.8079561535269 175.1077417731285,66.33113843994215 180.62410288862884,59.417270343517885 175.1077417731285,35.81459656287916 165.09656789619476,32.476824920624495 158.76296809595078,42.01330231432803 163.2577808573842,62.2781838318333 173.67757407575846,67.04636497260071 180.82841255888343,57.74840247700922 176.12929012719542,37.48348054452799 171.2258580243215,32.476824920624495 165.09656789619476,32.476824920624495 158.76296809595078,42.01330231432803 163.6664001988247,62.75500239711255 168.77414197288454,66.8079561535269 174.9034321019426,66.56954730884172 180.62410288862884,57.50999268144369 175.3120514433831,36.053008635528386 164.68794855382293,32.476824920624495 158.76296809595078,41.77489086706191 163.87070987001061,62.51659312681295 174.6991224307567,66.56954730884172 180.62410288862884,57.033173015806824 174.9034321019426,35.33777234260924 164.68794855382293,32.476824920624495 158.76296809595078,42.01330231432803 167.13966460619122,68.0 175.9249804560095,67.2847737672273" stroke="#4DD2FF" stroke-linecap="round" stroke-linejoin="round" stroke-width="0.5"><title>2026-03-25 5.4km</title><desc>1774445603000</desc></polyline><polyline fill="none" points="12.905960264848545,77.28556791890878 12.047682119300589,78.06459059350891 12.429139072773978,80.40165174711728 15.766887417295948,82.62741469364846 17.53112582792528,82.57177073380444 18.437086092773825,81.68146658362821 19.29536423832178,79.62263250758406 18.770860926946625,77.84201280324487 17.435761589556932,76.56218869588338 14.527152318041772,76.00574246741598 12.286092715337873,77.50814594281837 12.905960264848545,80.7911609375733 14.384105960372835,82.18226285208948 17.006622516550124,82.62741469364846 18.723178808111697,80.7911609375733 19.00927152344957,78.3984571035835 18.341721854405478,77.39685694250511 17.006622516550124,76.39525488863 14.288741721771657,75.9500978125725 12.38145695393905,77.84201280324487 12.38145695393905,79.8452095501707 13.382781456923112,81.23631394753465 14.908609271747991,82.34919483656995 17.1019867551513,82.46048279694514 18.770860926946625,80.290363354492 18.341721854405478,77.34121243370464 14.431788079673424,75.9500978125725 12.095364238601178,78.17587945354171 12.0,79.4556996645988 13.335099337855354,81.1806698415894 16.863576159114018,82.46048279694514 18.198675496969372,81.57017845945666 18.866225165780634,79.73392104066443 17.86490066233091,76.95170070789754 13.811920529929921,76.06138711667154 12.190728476969525,78.06459059350891 12.476821192307398,80.1234307216946 13.716556291561574,81.62582252448192 16.720529801445082,82.51612676831428 18.818543046480045,80.290363354492 18.055629139067605,77.0629898015759 14.19337748340331,75.9500978125725 12.333774834638461,77.67507939937059 13.001324503449723,80.90244922507554 16.625165562843904,82.62741469364846 18.723178808111697,80.51294011651771 18.723178808111697,78.28716829029145 17.86490066233091,76.95170070789754 14.479470198741183,75.89445315190824 12.333774834638461,78.17587945354171 13.239735099254176,81.1806698415894 16.76821192051284,82.73870259558316 18.723178808111697,80.40165174711728 18.055629139067605,77.22992339840857 14.336423841072246,76.00574246741598 12.476821192307398,78.12023502658121 12.953642384149134,80.7911609375733 14.717880794778466,82.18226285208948 16.911258278181776,82.57177073380444 18.770860926946625,80.51294011651771 18.484768212074414,77.67507939937059 17.292715231887996,76.56218869588338 14.717880794778466,76.00574246741598 12.476821192307398,77.39685694250511 12.858278145780787,80.67987262661336 16.38675496703945,82.62741469364846 17.9125827816315,81.95968679105863 18.770860926946625,80.23471914947731 18.055629139067605,77.22992339840857 14.622516556410119,75.9500978125725 12.76291390741244,76.89605615223991 12.38145695393905,80.06778649898479 15.766887417295948,82.51612676831428 18.2463576158043,81.40324622986373 18.866225165780634,79.73392104066443 18.389403973473236,77.67507939937059 17.340397350955755,76.56218869588338 15.051655629184097,75.89445315190824 12.667549668811262,77.34121243370464 12.76291390741244,80.51294011651771 15.766887417295948,82.51612676831428 17.48344370862469,82.23790685279528 18.437086092773825,81.01373748929473 18.818543046480045,79.010545159108 17.960264900699258,77.17427887197118 14.57483443710953,76.00574246741598 12.38145695393905,77.45250144554302 12.71523178811185,80.51294011651771 14.479470198741183,82.07097483339021 16.43443708634004,82.57177073380444 18.389403973473236,81.06938161252765 18.818543046480045,78.62103466020199 17.81721854303032,76.95170070789754 15.862251655664295,76.06138711667154 19.00927152344957,77.56379043427296 22.29933774843812,76.39525488863 29.5947019867599,96.26000879338244 32.026490066200495,98.70827426802134 35.60264900675975,96.09308119025081 43.422516556223854,92.69887518882751 44.37615894037299,92.921446739987 47.61854304629378,101.21217044309014 48.0,104.10554684803355" stroke="#4DD2FF" stroke-linecap="round" stroke-linejoin="round" stroke-width="0.5"><title>2026-03-24 6.2km</title><desc>1774357706000</desc></polyline><polyline fill="none" points="66.75035969913006,80.18186927982606 70.15596007183194,103.55847302637994 79.97210232261568,107.76623564353213 86.38264420162886,99.11693719564937 81.77506722602993,78.31173038040288 73.16090157721192,73.4026082966011 66.14937139768153,80.88317096233368 71.55826610792428,102.85717848455533 80.1724317567423,106.36364898784086 88.3859385382384,100.75329353217967 82.37605552747846,76.67535755457357 72.76024270989001,72.46753619634546 64.94739479571581,79.94810200366192 69.35464233718812,100.9870586253237 75.36452534794807,107.5324712623842 81.97539666015655,108.0 85.78165590018034,104.2597673481796 83.97869099676609,84.6234428731259 75.9655136493966,73.6363762607798 70.35628950595856,73.87014419957995 66.14937139768153,78.31173038040288 69.75530120357871,100.9870586253237 77.56814911868423,107.5324712623842 83.77836156263947,105.1948261000216 86.38264420162886,99.35070246015675 81.97539666015655,79.0130326510407 73.16090157721192,72.93507229583338 65.74871253035963,79.71433470211923 70.35628950595856,101.68835375644267 79.57144345529377,107.29870685655624 86.38264420162886,100.51952841528691 81.57473779190332,77.84419541014358 72.76024270989001,72.7013042580802 65.34805366396904,80.41563653177582 70.55661893822253,101.9221187508665 80.1724317567423,106.83117797109298 86.38264420162886,99.58446770021692 81.77506722602993,78.07796290749684 71.35793667379767,73.16884030890651 65.74871253035963,81.11693814117461 70.15596007183194,101.68835375644267 80.97374949231744,107.29870685655624 86.38264420162886,98.41564125497825 80.97374949231744,77.14289277023636 71.75859554111958,73.4026082966011 65.54838309623301,81.81823952891864 70.75694837234914,102.38964866637252 80.5730906240642,106.83117797109298 86.38264420162886,99.8182329160627 80.97374949231744,76.9091251748614 72.55991327669472,72.93507229583338 65.54838309623301,81.58447242435068 70.75694837234914,102.38964866637252 81.57473779190332,106.83117797109298 86.58297363389283,99.11693719564937 81.17407892551273,77.61042788764462 72.55991327669472,73.87014419957995 65.94904196448624,81.35070529463701 71.55826610792428,103.32470820355229 81.37440835870802,106.83117797109298 86.18231476750225,99.58446770021692 80.7734200572595,76.9091251748614 72.35958384163678,72.93507229583338 65.94904196448624,81.58447242435068 71.35793667379767,102.85717848455533 81.17407892551273,106.36364898784086 86.38264420162886,99.58446770021692 80.5730906240642,76.67535755457357 71.75859554111958,73.4026082966011 65.74871253035963,82.28577366494574 70.35628950595856,101.45458873757161 80.1724317567423,106.36364898784086 86.18231476750225,98.88317190646194 81.57473779190332,78.07796290749684 71.75859554111958,73.4026082966011 65.94904196448624,81.35070529463701 71.35793667379767,103.09094335651025 81.57473779190332,106.5974134914577 86.38264420162886,98.64940659306012 81.37440835870802,77.37666034069844 72.76024270989001,73.4026082966011 65.94904196448624,80.64940375951119 71.55826610792428,103.09094335651025 81.37440835870802,106.5974134914577 86.18231476750225,98.181875892682 80.5730906240642,76.67535755457357 72.35958384163678,73.6363762607798 66.14937139768153,81.35070529463701 71.55826610792428,102.62341358792037 79.77177288848907,106.5974134914577 85.98198533430696,99.11693719564937 81.97539666015655,77.14289277023636 74.36287818010896,72.0 65.54838309623301,78.31173038040288 70.55661893822253,100.9870586253237 74.16254874598235,105.8961199063342 82.57638496067375,105.8961199063342 85.98198533430696,100.28576327278279 81.57473779190332,78.31173038040288 72.76024270989001,73.4026082966011 66.95068913325667,78.77926525217481 70.55661893822253,100.9870586253237 76.96716081723571,106.5974134914577 81.77506722602993,106.12988445954397 85.98198533430696,100.28576327278279 82.77671439480036,81.11693814117461 75.56485478207469,72.7013042580802 66.75035969913006,78.31173038040288 70.35628950595856,99.58446770021692 75.9655136493966,106.36364898784086 88.3859385382384,100.51952841528691 82.77671439480036,84.6234428731259" stroke="#4DD2FF" stroke-linecap="round" stroke-linejoin="round" stroke-width="0.5"><title>2026-03-22 7.4km</title><desc>1774161813000</desc></polyline><polyline fill="none" points="109.87495078705251,81.42287319037132 115.05125176720321,84.80543364421465 119.81344866752625,103.65103661082685 128.5096343131736,108.0 134.3070914093405,104.85908282105811 136.37761180102825,98.33562575466931 131.82246693968773,76.5906353474129 122.09102109912783,72.72483776905574 115.2583038052544,80.45642643305473 119.60639662761241,102.44298976659775 129.13079043105245,107.5167822514195 136.37761180102825,99.54367475421168 131.82246693968773,77.79869575891644 123.12628129404038,72.72483776905574 115.05125176720321,80.9396498624701 119.81344866752625,103.65103661082685 131.4083628617227,106.79195543844253 136.37761180102825,98.33562575466931 131.4083628617227,76.34902318916284 122.50512517709285,72.24161261529662 114.84419972728938,80.21481468016282 119.60639662761241,101.71816135616973 126.43911392055452,107.75839113793336 133.27183121442795,105.58391024242155 136.58466384001076,99.7852844784502 132.02951897773892,78.52353170164861 122.50512517709285,72.72483776905574 115.46535584516823,80.21481468016282 120.22755274642259,101.71816135616973 129.95899858605117,107.03356440132484 136.17055976204574,99.7852844784502 131.2013108227402,77.31547167035751 123.12628129404038,72.96645030775107 115.46535584516823,80.9396498624701 120.22755274642259,102.44298976659775 127.88847819529474,107.03356440132484 136.37761180102825,99.06045523029752 131.4083628617227,77.55708372755907 122.09102109912783,73.20806282153353 115.67240788415074,81.1812615392264 121.05576090235263,103.40942729311064 130.58015470393002,106.55034645018168 136.17055976204574,99.06045523029752 132.02951897773892,77.79869575891644 122.50512517709285,72.96645030775107 115.46535584516823,79.97320290235803 120.64165682438761,102.44298976659775 129.13079043105245,107.03356440132484 136.17055976204574,98.57723560580052 131.61541490070522,77.55708372755907 122.29807313717902,72.96645030775107 115.67240788415074,81.42287319037132 120.64165682438761,102.44298976659775 128.5096343131736,107.03356440132484 136.17055976204574,98.57723560580052 131.61541490070522,77.55708372755907 123.12628129404038,72.72483776905574 115.46535584516823,79.73159109940752 120.43460478447378,102.44298976659775 128.30258227325976,106.79195543844253 134.100039370358,104.13425517105497 136.17055976204574,99.06045523029752 131.4083628617227,77.79869575891644 122.29807313717902,72.96645030775107 115.2583038052544,81.42287319037132 120.22755274642259,102.92620858014561 129.13079043105245,107.5167822514195 136.58466384001076,99.06045523029752 132.02951897773892,77.31547167035751 122.09102109912783,72.96645030775107 115.2583038052544,81.42287319037132 120.02050070650876,102.92620858014561 129.75194654706866,106.55034645018168 136.37761180102825,98.57723560580052 131.61541490070522,77.31547167035751 122.09102109912783,72.96645030775107 115.2583038052544,80.69803816080093 120.64165682438761,102.68459918629378 129.75194654706866,106.79195543844253 136.17055976204574,98.33562575466931 131.2013108227402,76.83224748028442 122.09102109912783,72.96645030775107 115.67240788415074,80.69803816080093 120.43460478447378,102.44298976659775 127.06027003843337,107.27517333859578 133.27183121442795,105.10069198720157 136.17055976204574,99.7852844784502 132.44362305663526,80.21481468016282 123.95448945090175,72.48322520474903 119.60639662761241,73.44967530947179 116.08651196304709,80.21481468016282 120.43460478447378,102.44298976659775 128.09553023427725,107.03356440132484 136.37761180102825,100.02689417731017 132.02951897773892,78.52353170164861 128.9237383911386,74.41612500837073 119.60639662761241,72.0 115.2583038052544,75.62418656121008 119.60639662761241,101.95977085176855 126.64616596046835,107.03356440132484 133.89298733137548,105.10069198720157 136.58466384001076,99.7852844784502 132.02951897773892,77.79869575891644 122.71217721607536,72.48322520474903 115.46535584516823,79.73159109940752 120.02050070650876,101.95977085176855 127.06027003843337,107.27517333859578 133.27183121442795,105.58391024242155 136.58466384001076,99.7852844784502 132.23657101765275,78.52353170164861 128.5096343131736,73.44967530947179 122.71217721607536,72.24161261529662 115.2583038052544,80.69803816080093 120.22755274642259,102.68459918629378 129.54489450901747,107.5167822514195 136.37761180102825,99.06045523029752 131.61541490070522,76.83224748028442 127.47437411732972,72.96645030775107 121.05576090235263,73.44967530947179 115.46535584516823,82.3893195418641 120.22755274642259,102.44298976659775 130.3731026649475,106.79195543844253 136.58466384001076,99.54367475421168 131.82246693968773,78.04030776582658 122.91922925505787,72.72483776905574 117.949980314821,75.14096201607026 115.46535584516823,81.1812615392264 119.81344866752625,101.47655183519237 125.19680168572813,106.79195543844253 130.99425878282636,106.55034645018168 136.37761180102825,98.81884543085471 130.3731026649475,75.3825743009802 121.05576090235263,72.96645030775107 115.05125176720321,82.14770799176767 120.84870886337012,103.89264590339735 129.95899858605117,107.03356440132484 136.58466384001076,98.81884543085471 131.61541490070522,77.07385958754458 121.883969059214,72.72483776905574 115.2583038052544,80.21481468016282 120.22755274642259,102.44298976659775 128.9237383911386,107.27517333859578 136.7917158799246,99.30206500552595 131.61541490070522,77.31547167035751 121.67691701930016,72.48322520474903 115.46535584516823,81.42287319037132 120.02050070650876,101.95977085176855 130.3731026649475,106.79195543844253 136.58466384001076,99.30206500552595 131.61541490070522,77.07385958754458 123.5403853720054,72.24161261529662 115.46535584516823,80.69803816080093 120.43460478447378,101.95977085176855 130.166050625965,107.03356440132484 136.37761180102825,98.57723560580052 130.99425878282636,76.83224748028442 122.29807313717902,72.96645030775107 115.67240788415074,80.69803816080093 120.22755274642259,101.47655183519237 129.54489450901747,106.79195543844253 136.37761180102825,98.57723560580052 131.82246693968773,77.55708372755907 122.09102109912783,72.72483776905574 115.46535584516823,80.9396498624701 120.64165682438761,102.44298976659775 129.75194654706866,107.03356440132484 136.37761180102825,100.02689417731017 130.99425878282636,76.83224748028442 121.46986498124897,72.96645030775107 115.46535584516823,81.90609641629271 120.22755274642259,102.201380321756 125.19680168572813,106.79195543844253 130.58015470393002,106.55034645018168 136.37761180102825,98.81884543085471 131.2013108227402,76.5906353474129 123.33333333302289,72.48322520474903 115.46535584516823,79.97320290235803 120.64165682438761,102.68459918629378 129.13079043105245,107.03356440132484 136.37761180102825,99.06045523029752 131.61541490070522,77.07385958754458 123.12628129404038,72.72483776905574 117.949980314821,75.14096201607026 115.67240788415074,81.1812615392264 120.43460478447378,102.44298976659775 130.58015470393002,106.79195543844253 136.17055976204574,99.7852844784502 131.4083628617227,77.07385958754458 121.883969059214,72.96645030775107 115.2583038052544,81.1812615392264 120.84870886337012,103.1678179493174 128.30258227325976,107.03356440132484" stroke="yellow" stroke-linecap="round" stroke-linejoin="round" stroke-width="0.5"><title>2026-03-20 12.0km</title><desc>1774012772000</desc></polyline><polyline fill="none" points="159.27374340221286,86.54311504913494 163.7685556896031,104.1854574889876 169.4892258765176,108.0 176.84437325783074,107.04636497283354 181.54349519778043,97.03317301603965 176.6400636099279,77.00665667466819 167.03751008212566,72.0 158.4565048031509,80.10601003840566 162.74700744263828,101.32454640301876 173.37110921740532,107.52318253647536 180.93056624848396,100.37090857280418 176.2314443103969,77.2450686225202 167.85474868118763,72.0 159.06943375244737,79.86759839183651 163.9728653402999,102.2781838318333 171.73663202114403,107.04636497283354 177.4573022071272,105.13909371756017 180.5219469498843,99.6556799383834 176.43575395923108,78.67553978110664 167.03751008212566,72.47682492085733 159.27374340221286,80.34442166076042 163.9728653402999,102.03977451194078 172.96248991787434,107.28477376676165 180.5219469498843,99.6556799383834 176.02713466063142,77.96030431496911 167.44612938165665,72.0 159.27374340221286,79.39077502232976 163.7685556896031,101.80136516713537 173.77972851600498,106.80795615306124 180.3176373001188,99.6556799383834 175.61851536203176,77.2450686225202 166.8332004332915,72.47682492085733 159.47805305104703,79.39077502232976 163.9728653402999,101.80136516713537 173.5754188671708,106.80795615306124 180.3176373001188,99.41727034305222 175.00558641273528,77.00665667466819 167.03751008212566,72.71523734391667 159.27374340221286,79.39077502232976 163.7685556896031,101.32454640301876 172.96248991787434,106.80795615306124 180.3176373001188,98.70204140734859 175.61851536203176,77.96030431496911 166.8332004332915,72.47682492085733 159.47805305104703,80.82124483003281 164.17717498913407,101.56295579764992 173.37110921740532,107.04636497283354 180.3176373001188,99.41727034305222 176.02713466063142,78.9139515531715 167.24181973282248,72.71523734391667 159.68236270081252,80.10601003840566 164.3814846398309,102.03977451194078 172.96248991787434,106.56954730907455 180.3176373001188,99.17886072257534 175.61851536203176,77.96030431496911 167.24181973282248,72.71523734391667 159.27374340221286,80.5828332582023 164.3814846398309,102.03977451194078 172.96248991787434,107.04636497283354 180.3176373001188,99.89408950833604 175.82282501086593,78.67553978110664 168.2633679797873,72.95364974159747 163.15562674216926,74.38412360288203 159.47805305104703,80.5828332582023 164.3814846398309,101.80136516713537 172.34956096950918,107.04636497283354 178.27454080525786,104.42386658419855 180.3176373001188,99.17886072257534 176.02713466063142,78.43712798389606 167.85474868118763,72.71523734391667 159.68236270081252,79.62918671988882 164.58579428773373,102.2781838318333 173.5754188671708,106.80795615306124 180.3176373001188,100.37090857280418 176.43575395923108,79.15236330078915 167.24181973282248,72.95364974159747 159.27374340221286,80.10601003840566 164.79010393843055,102.51659312658012 173.37110921740532,106.80795615306124 180.5219469498843,99.41727034305222 176.2314443103969,78.43712798389606 166.22027148492634,72.95364974159747 159.47805305104703,79.86759839183651 163.7685556896031,101.08613698277622 170.5107741234824,106.09272954589687" stroke="#4DD2FF" stroke-linecap="round" stroke-linejoin="round" stroke-width="0.5"><title>2026-03-19 5.5km</title><desc>1773929179000</desc></polyline><polyline fill="none" points="18.508613030426204,125.2886561602354 23.27080943249166,143.1678179493174 30.724682060070336,147.27517333929427 36.93624258413911,146.30873743630946 41.49138696677983,137.36918609892018 35.2798264445737,114.8993497050833 25.13427758961916,112.72483776835725 19.12976908311248,122.3893195411656 24.513121536932886,144.13425517105497 27.41184978093952,147.75839113863185 35.900982497259974,147.75839113863185 41.69843898527324,139.30206500506029 35.900982497259974,115.86579879536293 25.75543364137411,112.72483776835725 19.336821101605892,122.14770799130201 24.306069519370794,143.65103661152534 28.447109868749976,147.5167822514195 36.315086531452835,147.27517333929427 41.49138696677983,138.33562575490214 36.522138549014926,116.83224748005159 31.5528901303187,112.2416126143653 25.962485659867525,112.0 18.301561013795435,122.3893195411656 24.513121536932886,144.37586441333406 34.037514340132475,148.0 41.28433495108038,139.060455230996 36.10803451389074,116.83224748005159 26.790693728253245,112.4832252045162 19.543873119167984,121.42287319037132 24.513121536932886,143.1678179493174 29.6894219731912,147.5167822514195 35.69393047969788,147.5167822514195 41.28433495108038,139.78528447821736 36.10803451389074,117.55708372686058 26.376589694060385,112.4832252045162 19.543873119167984,121.18126153899357 24.513121536932886,143.1678179493174 35.07277442608029,147.75839113863185 41.49138696677983,139.060455230996 36.522138549014926,117.79869575891644 26.790693728253245,112.72483776835725 19.543873119167984,121.18126153899357 24.513121536932886,143.1678179493174 33.62341030500829,148.0 41.07728293258697,140.510113498196 36.315086531452835,117.79869575891644 26.169537676498294,112.72483776835725 19.543873119167984,121.42287319037132 24.513121536932886,142.44298976683058 28.654161886312068,147.03356440202333 35.07277442608029,147.5167822514195 41.07728293258697,138.81884543132037 35.900982497259974,116.83224748005159 26.169537676498294,112.72483776835725 19.543873119167984,121.18126153899357 25.13427758961916,143.65103661152534 35.69393047969788,147.27517333929427 41.07728293258697,139.060455230996 36.10803451389074,117.31547166942619 25.962485659867525,112.96645030751824 19.750925135798752,121.90609641629271 25.548381624743342,144.37586441333406 35.69393047969788,147.27517333929427 41.28433495108038,139.060455230996 35.48687846213579,116.10741100483574 25.548381624743342,112.72483776835725 19.750925135798752,120.69803816010244 25.13427758961916,143.65103661152534 34.86572240944952,147.27517333929427 41.07728293258697,140.02689417707734 36.10803451389074,117.31547166942619 26.376589694060385,112.96645030751824 19.750925135798752,121.66448481590487 25.548381624743342,144.13425517105497 36.315086531452835,146.79195543914102 41.28433495108038,138.81884543132037 35.07277442608029,115.86579879536293 26.376589694060385,113.20806282083504 19.750925135798752,121.42287319037132 24.927225571125746,143.1678179493174 34.451618374325335,147.27517333929427 41.07728293258697,139.060455230996 35.69393047969788,116.59063534718007 26.99774574674666,113.20806282083504 19.750925135798752,120.45642643258907 25.13427758961916,142.68459918629378 34.658670391887426,147.03356440202333 40.8702309159562,139.54367475491017 36.10803451389074,117.55708372686058 27.41184978093952,113.20806282083504 20.165029170922935,120.21481468016282 25.13427758961916,142.68459918629378 33.83046232257038,147.75839113863185 40.8702309159562,138.81884543132037 35.48687846213579,116.59063534718007 27.41184978093952,112.96645030751824 19.957977153360844,120.45642643258907 25.548381624743342,143.40942729311064 30.517630043439567,147.27517333929427 35.07277442608029,145.82551933266222" stroke="#4DD2FF" stroke-linecap="round" stroke-linejoin="round" stroke-width="0.5"><title>2026-03-18 6.4km</title><desc>1773842529000</desc></polyline><polyline fill="none" points="70.95719810388982,112.0 64.54656673595309,121.81823952589184 72.35952371545136,144.02600259776227 82.57646745909005,147.5324712623842 88.78676659800112,137.71434509032406 80.97380961664021,119.01303264941089 73.56151709705591,119.01303264941089 70.15586918313056,115.7402868277859 65.34789565671235,123.45460857241414 72.96052040625364,143.7922378233634 82.77679968997836,146.83117797062732 88.18576990719885,138.8831719039008 80.7734773857519,118.779265250545 70.75686587393284,115.50651908479631 65.34789565671235,123.68837548117153 72.96052040625364,144.72729677218013 82.57646745909005,147.76623564353213 88.58643436711282,139.81823291350156 81.97547076828778,119.71433470025659 77.56816170271486,115.50651908479631 71.15753033477813,115.03898352617398 64.74689896591008,122.75330770039 72.15919148456305,143.3247082021553 81.3744740774855,148.0 88.58643436711282,141.6883537543472 81.17414184752852,118.31173037854023 71.95885925460607,114.33768000337295 64.74689896591008,122.05200660671107 72.76018817629665,144.49353207205422 83.7784608406946,147.2987068563234 88.9870988279581,138.41564125195146 80.97380961664021,117.84419540804811 70.35620141215622,114.5714478683658 64.54656673595309,123.68837548117153 72.76018817629665,144.25976734701544 82.17580299917608,147.5324712623842 88.38610213715583,138.18187588942237 80.57314515579492,117.61042788578197 69.75520472228527,114.5714478683658 64.34623450506479,122.98707468202338 71.75852702464908,143.5584730252158 82.37613522820175,147.2987068563234 88.38610213715583,138.18187588942237 79.77181623503566,116.67535755340941 70.15586918313056,114.80521570984274 64.54656673595309,123.68837548117153 72.76018817629665,144.49353207205422 83.37779638078064,147.2987068563234 88.38610213715583,138.8831719039008 80.7734773857519,117.61042788578197 70.75686587393284,114.5714478683658 64.54656673595309,123.92214236478321 72.55985594633967,144.49353207205422 83.57812861073762,147.2987068563234 88.58643436711282,138.8831719039008 80.97380961664021,118.07796290586703 70.95719810388982,114.5714478683658 64.54656673595309,122.51954069337808 72.15919148456305,143.3247082021553 81.57480630744249,147.76623564353213 86.58311206381768,144.49353207205422 88.18576990719885,138.64940659073181 80.57314515579492,118.07796290586703 70.55653364304453,115.03898352617398 64.94723119586706,124.62344286986627 72.76018817629665,144.49353207205422 82.77679968997836,147.5324712623842 88.18576990719885,138.18187588942237 80.57314515579492,117.84419540804811 69.35454026143998,115.03898352617398 64.54656673595309,124.38967605982907 74.3628460187465,146.83117797062732 84.37945753149688,146.59741349099204 88.18576990719885,137.71434509032406 79.97214846592396,116.90912517323159 73.56151709705591,114.10391211370006 68.35287910979241,115.7402868277859 64.34623450506479,123.92214236478321 73.7618493270129,146.12988445884548 84.78012199234217,146.83117797062732 87.98543767631054,137.24681419320405 79.37115177512169,116.44158990914002 68.35287910979241,116.44158990914002 68.35287910979241,122.28577366191894" stroke="#4DD2FF" stroke-linecap="round" stroke-linejoin="round" stroke-width="0.5"><title>2026-03-17 5.6km</title><desc>1773751527000</desc></polyline><polyline fill="none" points="113.22692036814988,119.44832081347704 111.0992544805631,122.92419583396986 118.75885167438537,142.78624082473107 129.39718111231923,147.25517796445638 135.78017877414823,137.8207452117931 127.90781498979777,116.46899530291557 117.48225214332342,112.49655545060523 111.52478765882552,122.67591921566054 120.03545120730996,144.27588747628033 128.97164793405682,148.0 135.78017877414823,138.5655702187214 127.482281813398,115.47588596516289 117.26948555465788,112.0 111.0992544805631,122.42764257173985 119.60991802997887,144.02761309896596 130.88654723297805,147.25517796445638 135.78017877414823,139.55866986163892 126.63121545873582,115.22760856547393 117.48225214332342,112.74483313714154 111.31202106922865,120.93798216222785 119.60991802997887,143.53106426727027 129.39718111231923,147.25517796445638 135.14187900628895,137.07591997110285 126.84398204647005,115.72416333854198 116.84395237546414,112.99311079760082 111.52478765882552,122.17936590244062 120.24821779690683,144.524161827052 131.73761358764023,147.00690390076488 135.56741218548268,136.33109449595213 127.90781498979777,115.97244068630971 116.63118578772992,112.49655545060523 111.31202106922865,121.93108920590021 119.60991802997887,144.02761309896596 130.88654723297805,147.00690390076488 135.56741218548268,137.8207452117931 126.63121545873582,114.9793311401736 117.90778532065451,112.49655545060523 111.0992544805631,120.93798216222785 119.1843848535791,143.28278981195763 129.39718111231923,147.25517796445638 135.78017877414823,137.8207452117931 127.05674863606691,115.22760856547393 116.84395237546414,112.74483313714154 110.67372130416334,121.68281248398125 119.39715144131333,143.77933869650587 128.54611475672573,147.75172601430677 135.99294536188245,138.31729524233378 128.12058157939464,116.22071800776757 117.69501873198897,112.74483313714154 111.0992544805631,121.43453573668376 118.97161826398224,143.03451533149928 129.60994769912213,147.25517796445638 135.78017877414823,137.32419507717714 127.482281813398,115.22760856547393 116.84395237546414,112.99311079760082 110.67372130416334,121.93108920590021 120.46098438464105,145.02071044966578 130.46101405471563,147.00690390076488 135.78017877414823,136.33109449595213 127.90781498979777,115.22760856547393 117.48225214332342,112.49655545060523 111.0992544805631,121.68281248398125 119.39715144131333,144.27588747628033 129.822714288719,147.25517796445638 135.99294536188245,138.8138451683335 128.12058157939464,115.97244068630971 117.48225214332342,112.49655545060523 111.95032083708793,116.46899530291557 110.67372130416334,122.67591921566054 120.24821779690683,144.77243615104817 129.39718111231923,147.50345200207084 135.99294536188245,137.8207452117931 128.12058157939464,115.72416333854198 117.05671896506101,112.99311079760082 111.0992544805631,122.17936590244062 119.60991802997887,144.27588747628033 130.03548087831587,147.25517796445638 135.99294536188245,138.8138451683335 127.482281813398,115.47588596516289 116.84395237546414,112.74483313714154 110.67372130416334,122.17936590244062 119.39715144131333,144.27588747628033 130.6737806443125,147.25517796445638 135.99294536188245,137.07591997110285 127.26951522380114,114.9793311401736 116.41841919906437,113.24138843128458 111.0992544805631,123.17247242527083 119.82268461957574,144.02761309896596 130.46101405471563,147.00690390076488 135.99294536188245,137.07591997110285 128.12058157939464,116.22071800776757 117.05671896506101,113.9862211770378 111.95032083708793,122.92419583396986 119.60991802997887,143.53106426727027 130.03548087831587,146.5103556937538 135.56741218548268,138.06902024010196 127.69504840113223,116.46899530291557 116.63118578772992,113.9862211770378 111.73755424749106,122.92419583396986 120.46098438464105,144.524161827052 130.6737806443125,146.5103556937538 135.3546455958858,136.08281928510405 127.26951522380114,115.72416333854198 116.41841919906437,113.73794362135231 111.73755424749106,123.42074899072759 120.03545120730996,143.77933869650587 129.822714288719,147.00690390076488 135.14187900628895,137.57247015787289 128.75888134539127,118.7034897878766 125.35461592581123,116.46899530291557" stroke="#4DD2FF" stroke-linecap="round" stroke-linejoin="round" stroke-width="0.5"><title>2026-03-16 7.4km</title><desc>1773655562000</desc></polyline><polyline fill="none" points="158.66081326268613,117.7218924423214 162.74700668174773,140.60931806755252 172.14525154605508,147.0463649726007 180.52194805443287,139.6556799383834 176.23144496418536,117.00665667490102 166.62889042962343,112.0 159.06943260412663,120.34442166076042 163.15562602318823,142.0397745121736 171.53232253249735,148.0 178.0702320029959,145.139093717793 181.13487706705928,139.178860723041 177.04868364799768,117.96030431403778 171.73663220461458,112.23841247265227 165.19872273411602,112.0 158.86512293480337,121.05965637648478 164.58579372055829,144.66227565379813 172.34956121630967,148.0 179.50039969943464,144.42386658443138 181.3391867382452,138.22522199247032 176.8443739777431,118.9139515531715 169.4892258234322,112.0 159.88667128887028,117.48348054452799 163.35993569530547,140.370908573037 172.7581805586815,147.2847737672273 180.52194805443287,140.60931806755252 176.02713529299945,117.24506862228736 166.22027108818293,112.4768249206245 159.27374227624387,119.86759839113802 164.17717437818646,141.80136516713537 173.5754192424938,147.0463649726007 180.72625772561878,139.41727034351788 176.02713529299945,117.48348054452799 167.03750977199525,112.0 159.47805194742978,119.62918671942316 163.76855503581464,140.370908573037 172.34956121630967,147.0463649726007 180.52194805443287,139.8940895081032 176.64006430655718,118.43712798366323 171.73663220461458,112.71523734321818 164.79010339081287,112.71523734321818 159.68236161675304,118.19871616107412 163.56424536556005,139.8940895081032 171.53232253249735,147.0463649726007 177.2529933191836,145.3775027121883 180.72625772561878,139.41727034351788 176.02713529299945,117.00665667490102 169.08060648106039,112.0 162.54269701149315,113.90729908249341 159.47805194742978,120.10601003840566 164.17717437818646,141.5629557974171 173.166799900122,146.8079561535269 180.52194805443287,140.84772753808647 176.02713529299945,117.00665667490102 167.65043878462166,112.23841247265227 159.47805194742978,119.62918671942316 163.76855503581464,140.84772753808647 172.96249022893608,146.56954730884172 180.31763838417828,139.178860723041 175.61851595155895,117.00665667490102 166.83320010080934,112.4768249206245 159.47805194742978,120.10601003840566 164.58579372055829,142.2781838318333 173.7797289127484,146.56954730884172 180.72625772561878,138.22522199247032 176.43575463537127,117.7218924423214 168.26336779724807,112.0 161.9297679970041,114.62253582500853 159.27374227624387,119.62918671942316 164.17717437818646,141.5629557974171 173.37110957223922,146.8079561535269 180.72625772561878,139.178860723041 175.82282562274486,116.76824470190331 167.85474845487624,112.23841247265227 161.5211486555636,115.09936019452289 159.27374227624387,120.82124482979998 163.35993569530547,140.370908573037 172.34956121630967,146.8079561535269 180.52194805443287,140.60931806755252 176.23144496418536,117.24506862228736 167.03750977199525,112.0 162.3383873393759,113.43047446128912 159.27374227624387,120.58283325773664 164.17717437818646,141.5629557974171 173.166799900122,146.56954730884172 180.72625772561878,138.70204140804708 176.02713529299945,116.76824470190331 167.85474845487624,112.0 159.47805194742978,118.9139515531715 163.56424536556005,140.60931806755252 172.55387088749558,146.8079561535269 180.72625772561878,139.41727034351788 176.23144496418536,117.48348054452799 170.51077417749912,112.23841247265227 163.76855503581464,113.19206211389974 159.68236161675304,118.9139515531715 164.38148404937238,135.84112341399305" stroke="#4DD2FF" stroke-linecap="round" stroke-linejoin="round" stroke-width="0.5"><title>2026-03-13 6.0km</title><desc>1773408957000</desc></polyline><polyline fill="none" points="20.507328839972615,153.25875037512742 17.918418522924185,163.3287295922637 27.626832209527493,185.98602825473063 38.62970105372369,186.48952134908177 42.72880905494094,176.671386934584 33.66762294713408,154.26575019955635 23.527724207378924,152.2517501283437 17.27119094412774,161.5664862806443 27.41108968295157,185.98602825473063 39.06118610687554,186.23777481517754 42.72880905494094,176.16789177828468 33.88336547464132,155.02099978993647 23.311981681734324,152.75525030470453 18.134161049500108,163.0769806264434 27.842574736103415,185.73428166704252 37.55098842270672,186.48952134908177 42.08158147521317,176.41963936924003 33.66762294713408,155.02099978993647 26.979604630731046,152.2517501283437 19.860101260244846,154.76924995239824 17.27119094412774,162.06998450146057 26.116634525358677,184.2238015900366 34.96207810565829,187.2447607938666 42.29732400178909,178.4336191471666 34.0991079993546,156.0279988744296 25.253664419054985,152.50350022991188 17.918418522924185,160.81123875151388 25.253664419054985,182.96506746509112 36.040790737606585,186.7412678571418 42.08158147521317,178.6853665006347 33.66762294713408,155.27274960046634 25.037921892479062,152.50350022991188 17.918418522924185,161.5664862806443 25.469406944699585,182.96506746509112 35.60930568538606,186.99301433912478 42.29732400178909,178.4336191471666 33.88336547464132,155.27274960046634 23.0962391551584,153.0070003529545 18.134161049500108,162.82523163524456 26.116634525358677,183.46856119390577 36.903760842978954,186.7412678571418 42.08158147521317,177.6783769284375 33.236137894913554,154.76924995239824 25.253664419054985,152.2517501283437 18.134161049500108,161.31473713065498 25.68514947220683,182.71332056168467 30.2157425256446,186.7412678571418 37.11950336955488,186.7412678571418 42.08158147521317,176.92313447222114 34.0991079993546,156.0279988744296 23.959209261462092,152.75525030470453 18.34990357607603,162.82523163524456 26.979604630731046,184.72729505435564 35.17782063316554,187.2447607938666 42.08158147521317,178.18187176738866 33.88336547464132,155.776249143295 23.959209261462092,153.0070003529545 18.134161049500108,161.81823540455662 26.548119578510523,183.72030801931396 35.60930568538606,187.2447607938666 42.08158147521317,177.9301243617665 34.53059305250645,157.03499753563665 25.900891998782754,152.50350022991188 18.565646102651954,160.81123875151388 25.68514947220683,183.2168143428862 36.47227578982711,186.7412678571418 41.86583894956857,177.42662946972996 33.88336547464132,156.0279988744296 23.743466733954847,153.0070003529545 18.34990357607603,162.57348261750303 26.979604630731046,184.47554833558388 37.98247347492725,185.98602825473063 42.08158147521317,177.42662946972996 33.88336547464132,155.27274960046634 27.842574736103415,152.0 21.586041470989585,154.01400028332137 18.34990357607603,162.06998450146057 26.7638621032238,184.2238015900366 36.25653326418251,186.7412678571418 42.08158147521317,178.18187176738866 33.236137894913554,154.76924995239824 26.979604630731046,152.2517501283437 21.15455641876906,154.51750008924864 18.34990357607603,160.81123875151388 26.116634525358677,188.0 37.33524589519948,186.48952134908177 42.08158147521317,178.18187176738866 33.02039536833763,154.26575019955635 22.664754102937877,153.51050037075765 17.918418522924185,162.06998450146057 26.7638621032238,184.47554833558388 37.33524589519948,186.48952134908177 42.51306652929634,177.42662946972996 33.236137894913554,154.51750008924864 22.233269050717354,153.25875037512742 17.918418522924185,162.32173357275315 27.195347156375647,184.72729505435564 37.55098842270672,186.48952134908177 42.29732400178909,176.671386934584 33.66762294713408,155.02099978993647 23.311981681734324,153.25875037512742 17.918418522924185,163.0769806264434 25.900891998782754,183.2168143428862 36.040790737606585,186.99301433912478 42.29732400178909,177.9301243617665 34.0991079993546,156.27974857925437 23.743466733954847,153.0070003529545 18.134161049500108,162.57348261750303 25.900891998782754,187.4965072227642" stroke="#4DD2FF" stroke-linecap="round" stroke-linejoin="round" stroke-width="0.5"><title>2026-03-12 7.1km</title><desc>1773318933000</desc></polyline><polyline fill="none" points="72.43707744777203,157.22585005743895 66.63175891153514,166.3226648288546 72.60294369142503,183.93551906489301 80.06692466698587,188.0 86.70157442241907,179.8710291722091 80.56452339887619,161.87103767495137 73.26640866696835,158.58069765474647 66.79762515518814,166.70976233435795 73.26640866696835,184.12906597950496 81.55972086079419,187.0322672566399 86.70157442241907,178.90329216315877 79.73519217874855,160.9032912198454 71.9394787158817,159.16134632006288 68.12455510627478,162.2581361150369 66.96349139884114,167.67750574252568 72.93467617873102,184.12906597950496 80.06692466698587,187.61290696344804 85.54051071498543,183.74197213049047 86.70157442241907,179.67748181137722 80.73038964159787,162.4516853048699 73.10054242238402,158.9677967854077 66.96349139884114,166.70976233435795 72.76880993507802,183.74197213049047 81.39385461807251,187.0322672566399 86.53570817876607,179.09683960536495 80.23279091063887,162.8387836230686 71.60774622764438,160.32264310284518 67.62695637438446,168.45170010370202 73.59814115520567,184.12906597950496 81.06212212983519,186.83872064680327 86.03810944687575,179.8710291722091 80.23279091063887,162.8387836230686 72.93467617873102,159.935544256703 67.62695637438446,166.3226648288546 73.76400739885867,184.12906597950496 81.72558710537851,186.64517401705962 86.36984193511307,179.8710291722091 79.90105842333287,162.4516853048699 72.93467617873102,159.74199480260722 67.62695637438446,166.3226648288546 73.43227491155267,183.93551906489301 81.39385461807251,186.4516273663612 86.03810944687575,179.48393442935776 80.39865715429187,163.41943094762973 72.60294369142503,160.32264310284518 67.79282261896878,167.29040844016708 74.09573988616467,184.51615974737797 81.89145334996283,186.06453400512692 85.87224320229143,179.48393442935776 79.73519217874855,162.6452344743302 72.60294369142503,160.32264310284518 67.62695637438446,167.67750574252568 73.26640866696835,183.16133120504674 80.23279091063887,186.64517401705962 86.03810944687575,180.06457651313394 79.73519217874855,162.4516853048699 72.43707744777203,160.32264310284518 67.79282261896878,166.9033110565506 73.92987364344299,183.74197213049047 81.39385461807251,186.25808069563936 85.87224320229143,179.67748181137722 79.40345969144255,162.6452344743302 72.27121120411903,160.32264310284518 67.62695637438446,167.67750574252568 74.09573988616467,184.32261287339497 81.06212212983519,186.4516273663612 85.87224320229143,179.48393442935776 79.56932593509555,162.4516853048699 72.43707744777203,160.51619249535725 67.79282261896878,167.09685975848697 73.76400739885867,184.12906597950496 82.05731959361583,186.06453400512692 85.70637695956975,178.90329216315877 79.56932593509555,162.2581361150369 72.93467617873102,160.12909369007684 68.62215383723378,163.22588185977656 67.79282261896878,167.48395710124169 73.59814115520567,183.548425175366 80.56452339887619,186.4516273663612 85.70637695956975,179.8710291722091 79.56932593509555,162.4516853048699 71.60774622764438,160.51619249535725 67.79282261896878,167.67750574252568 74.09573988616467,184.32261287339497 80.56452339887619,186.64517401705962 86.03810944687575,181.03231291275006 80.06692466698587,163.03233275131788 72.93467617873102,160.12909369007684 67.62695637438446,166.70976233435795 73.43227491155267,183.548425175366 81.55972086079419,186.25808069563936 85.87224320229143,179.8710291722091 80.06692466698587,163.22588185977656 73.76400739885867,160.12909369007684 67.62695637438446,166.3226648288546 73.43227491155267,183.35487820080016 80.06692466698587,186.64517401705962 84.37944700755179,184.32261287339497 85.70637695956975,179.8710291722091 80.06692466698587,163.22588185977656 71.9394787158817,160.51619249535725 67.62695637438446,167.67750574252568 73.59814115520567,183.93551906489301 82.05731959361583,186.25808069563936 85.87224320229143,179.48393442935776 80.39865715429187,164.00007808976807 73.76400739885867,159.35489583492745 71.9394787158817,152.0" stroke="#4DD2FF" stroke-linecap="round" stroke-linejoin="round" stroke-width="0.5"><title>2026-03-10 7.0km</title><desc>1773146401000</desc></polyline><polyline fill="none" points="130.43214624817483,156.98282919748453 131.8732586442493,160.34621525008697 131.44626237871125,161.09363178367494 116.23452041856945,166.6369416891248 116.18114588572644,168.31860973662697 119.22349427780136,174.23555201775162 115.11365522188134,176.41546324820956 115.59402602049522,178.53308363235556 113.7259173586499,179.84102185902884 113.19217202672735,181.64721752813784 115.54065148718655,187.25261735677486 117.19526201626286,188.0 118.95662161172368,187.3771811958286 119.65049054310657,185.13502808916382 117.40876014903188,179.46732551715104 114.52653535665013,179.2804772577947 113.51241922588088,181.46036995510804 115.43390242103487,186.81664371333318 116.82164028380066,187.75087255676044 118.31612721341662,187.50174500897992 119.43699241010472,185.19731023418717 117.35538561572321,179.6541737174848 114.79340802249499,179.2804772577947 113.51241922588088,181.58493501023622 115.54065148718655,187.00348959985422 118.15600361372344,187.68859067972517 119.54374147695489,185.3218745048507 117.46213468210772,179.9655872542644 114.84678255557083,179.34276001743274 113.51241922588088,181.70950003928738 115.59402602049522,187.06577154877596 118.36950174649246,187.56402690563118 119.54374147695489,185.44643874943722 117.40876014903188,179.84102185902884 114.79340802249499,179.34276001743274 113.56579375918955,181.83406504214508 115.59402602049522,187.12805349123664 117.9958800142631,187.68859067972517 119.49036694364622,185.3218745048507 117.46213468210772,179.90330455993535 114.84678255557083,179.34276001743274 113.4590446925722,181.52265248587355 116.12777135241777,187.50174500897992 118.20937814703211,187.6263087958796 119.49036694364622,186.13154162676074 116.82164028380066,179.34276001743274 114.31303722388111,179.6541737174848 113.61916829249822,182.02091249730438 115.75414961995557,187.25261735677486 118.63637441257015,187.31489927961957 119.43699241010472,185.0727459373884 117.14188748295419,179.59189099061769 114.68665895611048,179.46732551715104 113.56579375918955,181.83406504214508 115.70077508687973,187.12805349123664 117.35538561572321,187.81315442745108 118.68974894564599,187.31489927961957 119.49036694364622,185.3218745048507 117.03513841656968,179.5296082572313 115.16702975495718,179.09362893970683 113.88604095811024,180.2147179658059 114.31303722388111,183.70253694651183 116.18114588572644,187.4394631058094 118.4228762795683,187.4394631058094 119.43699241010472,186.13154162676074 116.87501481710933,179.46732551715104 114.52653535665013,179.5296082572313 113.56579375918955,181.70950003928738 115.54065148718655,186.9412076441804 118.36950174649246,187.50174500897992 119.43699241010472,185.0104637791519 117.19526201626286,179.71645643783268 115.43390242103487,179.09362893970683 114.2062881574966,179.84102185902884 113.61916829249822,181.3358048738446 114.09953909134492,183.20427834719885 116.28789495187812,187.56402690563118 118.31612721341662,187.56402690563118 119.43699241010472,186.0692595798173 116.87501481710933,179.46732551715104 114.68665895611048,179.4050427704933 113.56579375918955,181.58493501023622 115.48727695411071,186.81664371333318 118.26275268010795,187.50174500897992 119.43699241010472,185.44643874943722 117.08851294964552,179.59189099061769 115.43390242103487,179.15591171901906 114.2062881574966,179.7787391517777 113.8326664250344,182.456889664114 115.64740055357106,186.9412076441804 117.19526201626286,187.75087255676044 118.79649801226333,187.12805349123664 119.43699241010472,185.3218745048507 116.98176388349384,179.5296082572313 114.79340802249499,179.4050427704933 113.61916829249822,180.89982688351301 115.32715335441753,186.31838772876654 117.35538561572321,187.75087255676044 119.43699241010472,185.9446954660234 117.72900734841824,180.46384857292287 115.48727695411071,179.2181944916374 114.04616455803625,179.9655872542644 113.56579375918955,181.3358048738446 115.3805278877262,186.62979776842985 117.56888374849223,187.75087255676044 119.43699241010472,185.9446954660234 117.67563281510957,180.40156593103893 115.54065148718655,179.15591171901906 113.56579375918955,181.21123976656236 115.22040428803302,186.31838772876654 117.40876014903188,187.75087255676044 119.38361787726171,186.25610570143908 117.08851294964552,179.6541737174848 114.5799098899588,179.5296082572313 113.56579375918955,181.58493501023622 115.64740055357106,187.00348959985422 118.36950174649246,187.4394631058094 119.38361787726171,185.3218745048507 117.24863654957153,179.84102185902884 115.06028068857267,179.2804772577947 113.61916829249822,181.46036995510804 115.70077508687973,187.00348959985422 117.9958800142631,187.6263087958796 119.43699241010472,185.25959237269126 117.46213468210772,180.09015262307366 114.95353162218817,179.34276001743274 113.56579375918955,181.70950003928738 116.12777135241777,187.50174500897992 118.0492545471061,187.6263087958796 119.43699241010472,186.00697752606357 117.62225828156807,180.3392832824029 115.75414961995557,179.5296082572313 114.84678255557083,176.78916151210433 118.10262908041477,174.54696839803364 118.31612721341662,173.48815203789854 116.71489121741615,170.18712419946678 116.34126948518679,166.88607799680904 131.0726406464819,161.15591645240784 132.62050210917369,163.8964353997144 130.0051499826368,168.25632581999525 132.51375304255635,163.83415101864375 129.6315282501746,154.4914198295446 130.48552078125067,153.24571122258203 133.47449464024976,153.05885470594512 132.2468803767115,152.0 133.4211201069411,152.24914245377295" stroke="#4DD2FF" stroke-linecap="round" stroke-linejoin="round" stroke-width="0.5"><title>2026-03-09 9.6km</title><desc>1773060645000</desc></polyline><polyline fill="none" points="160.4562416188419,156.40290588815697 165.56104261334985,185.151098274393 175.77064460329711,187.22302712779492 180.43154986016452,177.64034159481525 175.10480099450797,155.36692873947322 164.45130326692015,152.517989335116 159.34650227241218,160.54681013640948 164.89519900549203,184.37412450602278 175.10480099450797,187.48201811267063 180.65349772758782,178.9353012740612 175.3267488637939,155.88491736794822 165.56104261334985,152.0 159.34650227241218,160.02882248605601 164.89519900549203,184.11513319495134 174.88285312522203,187.48201811267063 180.65349772758782,178.67630939232185 175.54869673401117,156.40290588815697 165.1171468757093,152.258994681295 159.34650227241218,159.76982861943543 164.45130326692015,183.3381590996869 174.2170095173642,187.74100907007232 180.65349772758782,179.4532849555835 175.3267488637939,156.1439116410911 166.22688622120768,152.0 159.34650227241218,160.2878163245041 164.6732511362061,183.85614185687155 174.43895738665015,187.74100907007232 180.65349772758782,179.9712685283739 175.54869673401117,156.40290588815697 165.1171468757093,152.258994681295 159.34650227241218,160.2878163245041 164.89519900549203,184.37412450602278 174.2170095173642,187.74100907007232 180.65349772758782,179.7122767549008 175.3267488637939,155.88491736794822 165.56104261334985,152.0 159.34650227241218,159.51083472603932 164.2293553976342,183.0791676803492 174.43895738665015,187.74100907007232 180.65349772758782,178.9353012740612 175.54869673401117,156.1439116410911 164.6732511362061,152.517989335116 159.34650227241218,160.02882248605601 164.45130326692015,183.59715049201623 174.43895738665015,187.74100907007232 180.65349772758782,178.9353012740612 175.54869673401117,156.1439116410911 165.3390947431326,152.258994681295 159.34650227241218,160.02882248605601 165.1171468757093,184.37412450602278 174.6609052559361,187.74100907007232 180.65349772758782,179.19429312855937 175.3267488637939,155.88491736794822 164.45130326692015,152.517989335116 159.34650227241218,160.2878163245041 164.45130326692015,183.59715049201623 173.99506164807826,187.74100907007232 180.65349772758782,178.67630939232185 175.10480099450797,155.36692873947322 164.2293553976342,152.517989335116 159.34650227241218,161.06479767756537 165.78299048356712,185.151098274393 175.3267488637939,187.48201811267063 180.65349772758782,179.19429312855937 175.10480099450797,155.62592306709848 164.45130326692015,152.517989335116 159.34650227241218,160.02882248605601 164.45130326692015,183.3381590996869 173.99506164807826,187.74100907007232 180.65349772758782,179.7122767549008 175.54869673401117,156.40290588815697 166.00493835192174,152.0 159.34650227241218,159.76982861943543 164.45130326692015,183.59715049201623 174.2170095173642,187.74100907007232 180.65349772758782,179.7122767549008 175.77064460329711,156.40290588815697 165.78299048356712,152.0 159.34650227241218,160.02882248605601 164.2293553976342,182.820176234236 173.1072701709345,188.0 180.65349772758782,179.9712685283739 175.77064460329711,156.6619001077488 166.00493835192174,152.0 159.34650227241218,159.51083472603932 164.6732511362061,183.85614185687155 174.43895738665015,187.74100907007232 180.65349772758782,178.9353012740612" stroke="#4DD2FF" stroke-linecap="round" stroke-linejoin="round" stroke-width="0.5"><title>2026-03-07 5.8km</title><desc>1772888148000</desc></polyline><polyline fill="none" points="17.46066397521645,201.05811966047622 24.028887608088553,222.8903582454659 34.17977867461741,227.07097510341555 40.54896522592753,218.709733489668 34.97592699341476,196.64519420149736 25.82022132538259,192.92903962079436 18.654886453412473,199.89682434033602 23.630813447758555,222.19358800142072 33.38363035488874,227.07097510341555 40.349928146228194,218.9419906276744 34.97592699341476,197.34197249123827 25.621184245683253,193.16129946429282 18.853923534043133,201.05811966047622 23.431776367127895,222.19358800142072 31.990370797924697,227.53548760013655 39.95185398776084,219.87101893639192 35.37400115188211,198.2710098682437 24.825035926885903,193.39355928450823 19.052960614673793,200.82586064538918 23.630813447758555,221.49681753804907 30.199037079699337,227.07097510341555 36.17014947067946,225.67743702884763 39.75281690713018,220.33553294464946 34.97592699341476,197.80649122828618 28.606740441173315,193.39355928450823 16.86355273704976,196.87745365593582 22.237553889863193,220.33553294464946 30.199037079699337,227.07097510341555 36.966297790408134,225.44518059748225 40.150891065597534,219.87101893639192 36.17014947067946,198.73552841087803 25.82022132538259,193.16129946429282 19.052960614673793,200.59360160608776 23.829850527457893,222.42584477365017 32.58748203702271,227.3032313643489 40.349928146228194,218.9419906276744 35.37400115188211,197.57423187186942 26.019258404150605,193.16129946429282 19.052960614673793,201.75489656045102 24.028887608088553,223.3548716204241 34.17977867461741,227.3032313643489 40.349928146228194,219.17424774100073 35.57303823251277,197.57423187186942 26.815406723879278,193.16129946429282 20.84429433196783,196.64519420149736 19.052960614673793,201.98715547821485 24.227924686856568,222.8903582454659 33.78170451428741,226.8387188189663 39.95185398776084,220.56778991175815 35.1749640731141,197.80649122828618 25.422147165052593,193.39355928450823 18.853923534043133,202.45167324040085 24.028887608088553,223.3548716204241 27.611555042676628,226.8387188189663 35.57303823251277,226.606462509837 41.54415062535554,218.9419906276744 36.36918655131012,197.80649122828618 32.58748203702271,192.696779752383 28.009629203006625,192.46451985905878 19.25199769344181,198.73552841087803 23.23273928835988,222.42584477365017 33.1845932751894,227.53548760013655 40.54896522592753,218.2452191398479 35.97111239284277,198.73552841087803 26.218295484781265,193.62581907981075 19.25199769344181,201.29037865134887 23.829850527457893,222.8903582454659 32.78651911672205,227.53548760013655 40.150891065597534,219.17424774100073 35.37400115188211,198.2710098682437 26.616369643248618,193.39355928450823 19.052960614673793,200.36134254164062 24.028887608088553,222.8903582454659 32.58748203702271,227.53548760013655 39.95185398776084,219.40650483081117 34.77688991371542,196.1806752202101 25.422147165052593,193.39355928450823 19.052960614673793,200.36134254164062 24.028887608088553,223.12261494528502 32.78651911672205,227.3032313643489 40.150891065597534,219.6387618954759 35.77207531221211,198.2710098682437 27.41251796297729,192.696779752383 19.052960614673793,199.89682434033602 23.829850527457893,221.9613312049769 30.99518539942801,228.0 39.95185398776084,221.49681753804907 36.17014947067946,199.20004685595632 28.20866628177464,192.0 19.84910893253982,197.57423187186942 22.43659096956253,219.6387618954759 27.014443803578615,226.8387188189663 35.1749640731141,226.606462509837 43.13644726295024,217.54844743316062" stroke="#4DD2FF" stroke-linecap="round" stroke-linejoin="round" stroke-width="0.5"><title>2026-03-03 6.2km</title><desc>1772541737000</desc></polyline><polyline fill="none" points="68.20475360751152,213.80579324893188 69.26249273959547,221.8286183917662 73.14086955785751,226.5600126956124 80.19246377423406,227.17715024144854 85.3048695800826,222.0343314249767 82.30794203840196,202.28578176232986 75.60892753303051,196.1143191830488 69.61507245060056,197.76004443748388 66.26556519791484,203.10864197160117 69.79136230610311,222.24004443641752 72.43571013770998,226.14858755795285 78.95843478571624,227.58857516397256 85.3048695800826,220.59433973836713 81.07391305081546,200.84577556489967 74.02231883537024,196.1143191830488 68.20475360751152,199.2000529016368 66.26556519791484,203.72578690119553 70.32023187167943,223.0628962678602 74.19860869087279,226.97143774759024 80.01617391873151,226.97143774759024 84.95228987000883,219.56577359919902 80.89762319531292,201.46292120788712 72.2594202812761,196.52575062564574 66.44185505434871,204.54864650580566 72.43571013770998,226.5600126956124 80.89762319531292,226.97143774759024 85.65744929108769,220.59433973836713 81.25020290631801,201.0514908010373 74.02231883537024,196.1143191830488 68.73362317401916,198.78862201992888 66.26556519791484,204.54864650580566 70.49652172718197,223.2686091719661 73.66973912436515,228.0 78.25327536463737,227.38286271377 84.95228987000883,219.77148687071167 80.89762319531292,200.84577556489967 72.43571013770998,196.32003491534851 66.0892753424123,203.52007194596808 70.32023187167943,223.0628962678602 77.1955362316221,227.38286271377 84.77600001357496,220.18291334749665 80.54504348430783,200.43434502906166 72.78828984778374,196.73146631533746 66.26556519791484,204.34293163730763 70.84910143818706,223.47432205383666 79.31101449672133,226.97143774759024 84.95228987000883,219.97720011952333 80.54504348430783,200.6400603079237 72.43571013770998,196.32003491534851 66.44185505434871,203.52007194596808 70.32023187167943,222.24004443641752 78.60585507564247,226.76572523266077 84.77600001357496,220.18291334749665 80.72133333981037,200.6400603079237 72.43571013770998,196.73146631533746 66.44185505434871,204.75436135276686 70.67281158268452,222.85718334221747 78.78214493114501,227.17715024144854 84.77600001357496,218.74292029999197 80.3687536297366,200.43434502906166 71.90684057120234,196.52575062564574 66.44185505434871,204.1372167469235 70.84910143818706,223.2686091719661 79.31101449672133,226.97143774759024 84.77600001357496,219.56577359919902 80.72133333981037,201.0514908010373 72.08313042577356,196.93718198267743 66.26556519791484,203.52007194596808 71.02539129275829,223.88574775354937 78.95843478571624,226.97143774759024 84.77600001357496,219.97720011952333 80.54504348430783,200.84577556489967 71.90684057120234,197.55432885640766 67.32330433093011,201.46292120788712 66.61814490891993,205.98864998226054 70.67281158268452,224.5028861410683 80.01617391873151,227.79428759252187 85.65744929108769,219.77148687071167 81.07391305081546,200.02291440637782 72.78828984778374,196.1143191830488 65.91298548784107,203.72578690119553 70.32023187167943,223.47432205383666 74.37489854637533,226.97143774759024 80.3687536297366,226.76572523266077 84.95228987000883,218.12578009895515 79.83988406322896,198.99433747166768 70.14394201617688,196.93718198267743 66.0892753424123,205.1657909823116 73.14086955785751,227.58857516397256 81.95536232832819,226.97143774759024 87.42034784518182,216.274358329596 80.72133333981037,199.40576830971986 67.85217389743775,192.0" stroke="#4DD2FF" stroke-linecap="round" stroke-linejoin="round" stroke-width="0.5"><title>2026-03-02 6.1km</title><desc>1772458755000</desc></polyline><polyline fill="none" points="116.18363273469731,215.40990968915867 116.11177644738927,218.09382805478526 115.10578842321411,218.34544493909925 110.72255489090458,217.75833875266835 107.48902195645496,215.57765485125128 105.33333333348855,202.07405649137218 105.83632734557614,199.1384614018025 134.72255489043891,196.7899775565602 137.23752495087683,197.9642203428666 138.31536926189438,202.24180445616366 137.95608782488853,209.11944065848365 141.33333333348855,215.24216449150117 140.32734530977905,219.85514457843965 135.2974051903002,223.12615066865692 127.32135728606954,222.622919834801 120.99800399225205,218.6809339944739 112.66267465101555,218.34544493909925 108.5668662674725,216.66799754666863 107.20159680675715,214.2356925663189 105.33333333348855,200.39657490496757 106.98602794436738,198.38359234802192 136.73453093878925,197.3770991655765 138.31536926189438,201.82243447820656 137.74051896249875,209.11944065848365 141.11776447156444,216.83574244455667 139.46506986068562,220.77773739682743 135.58483033953235,223.04227888514288 126.89021956129,222.53904799825978 121.06986027956009,218.84867846948327 116.47105788486078,218.2615726533113 116.03992016008124,216.83574244455667 115.9680638727732,218.2615726533113 114.0998003995046,218.42931721609784 108.92614770494401,216.91961488017114 107.27345309453085,214.90667399088852 105.33333333348855,200.14495236298535 106.98602794436738,198.38359234802192 136.66267465101555,197.29322467651218 138.31536926189438,201.9063084916561 137.74051896249875,208.8678208659403 141.11776447156444,216.75186999992002 138.81836327398196,221.5325852733804 134.57884231582284,223.21002244349802 127.24950099829584,222.53904799825978 121.57285429211333,219.10029511561152 111.80039920192212,218.17770035844296 108.13572854315862,216.24863514781464 105.33333333348855,201.319190213806 106.41117764497176,198.635215445247 136.73453093878925,197.3770991655765 138.3872255492024,200.98369386140257 137.88423153711483,209.0355674030725 141.04590818379074,216.33250764512923 138.89021956129,221.4487133222283 135.1536926147528,223.21002244349802 128.03992016008124,222.87453529139748 121.21357285464182,219.01642290892778 116.32734530977905,218.34544493909925 122.93812375282869,220.190632999409 116.25548902200535,218.17770035844296 116.47105788486078,212.3066178293666 119.41716566868126,212.05499904160388 119.27345309406519,213.22921937220963" stroke="#4DD2FF" stroke-linecap="round" stroke-linejoin="round" stroke-width="0.5"><title>2026-02-27 6.1km</title><desc>1772195478000</desc></polyline><polyline fill="none" points="165.94011976057664,212.30661831400357 163.06586826359853,212.55823707510717 162.63473053835332,218.1777020767331 157.89221556903794,217.7583403828903 154.44311377219856,215.66152860893635 152.0,201.57081061444478 152.7185628740117,198.88683612796012 183.1137724542059,197.12547296629054 185.0538922152482,201.99018081265967 184.40718562807888,208.44845404312946 187.9281437122263,216.5002539793495 186.56287425151095,220.44225141673815 183.04191616736352,222.87453799665673 175.28143712552264,222.70679433242185 167.73652694607154,218.59706355025992 158.2514970060438,218.00995742558734 155.3772455090657,216.5002539793495 154.0838323351927,215.24216559296474 152.0,201.3191883895779 153.72455089818686,198.2158410960692 183.40119760436937,197.4609710110817 185.12574850209057,201.40306247322587 184.62275449046865,208.9516939187888 187.9281437122263,215.4937834290322 187.56886227522045,218.76480807800544 185.55688622733578,221.61645965639036 182.8982035922818,223.04228162555955 175.92814371269196,223.1261534266523 167.01796407159418,218.4293189875316 156.3832335327752,217.33897846878972 154.0838323351927,214.82280235690996 152.14371257508174,201.99018081265967 152.2874251496978,199.7255791243515 153.86826347280294,198.38358990690904 183.47305389214307,197.20934749062872 185.0538922152482,202.2418028258253 184.40718562807888,208.19683398655616 187.9281437122263,215.4937834290322 186.4191616764292,220.7777396615711 182.61077844258398,222.95840981556103 175.5688622747548,222.95840981556103 167.44910179637372,218.59706355025992 156.670658682473,217.42285086907214 153.86826347280294,213.39696570648812 152.07185628730804,201.4869365482591 153.14970059879124,198.55133868253324 182.4670658679679,196.78997478069505 184.91017964063212,200.98369196651038 184.69461077824235,209.87429953279207 188.0,216.5002539793495 184.91017964063212,221.95194740773877 181.1017964067869,223.21002521924675 174.4191616764292,222.6229224872659 167.30538922175765,218.59706355025992 157.31736526964232,217.84221273940057 154.01197604835033,214.73892968340078 152.07185628730804,201.4869365482591 153.29341317340732,198.55133868253324 182.7544910176657,196.87384934030706 185.19760478986427,201.73855872033164 184.40718562807888,208.70007402054034 187.85628742491826,215.82927375327563 185.84431137656793,221.19709976913873 182.39520958065987,223.04228162555955 176.7185628740117,223.04228162555955 167.52095808368176,218.59706355025992 163.28143712552264,218.26157438900555 163.28143712552264,212.3904912431608 166.22754491027445,212.3904912431608" stroke="#4DD2FF" stroke-linecap="round" stroke-linejoin="round" stroke-width="0.5"><title>2026-02-22 7.4km</title><desc>1771753684000</desc></polyline><polyline fill="none" points="25.580838323105127,252.47436140535865 23.281437125522643,252.30661555565894 22.275449101347476,258.42931622918695 17.67664670664817,257.84220998105593 14.37125748489052,255.74539842718514 12.0,241.99017805431504 12.502994012087584,239.390079273202 42.970059879589826,237.20934473228408 45.0538922152482,241.738555961987 44.550898203160614,249.11943771503866 47.9281437122263,255.74539842718514 46.0598802389577,261.0293529940536 42.25149700557813,263.0422788672149 35.71257484983653,262.8745352383121 28.023952095303684,258.84867757029133 16.742514970246702,257.67446525924606 14.299401197582483,255.57765326503431 12.071856287308037,242.91279171506176 12.359281437005848,239.64170210593147 13.724550898186862,238.71908466448076 43.1856287419796,237.1254702079459 45.0538922152482,241.57080785610015 44.62275449046865,249.6226771674701 47.856287424918264,255.74539842718514 45.988023951649666,261.11322500690585 42.61077844258398,263.0422788672149 35.56886227475479,262.8745352383121 27.377245509065688,258.68093306029914 16.239520957693458,257.1712308830465 14.299401197582483,255.40990806743503 12.143712575081736,242.577295961848 12.215568862389773,239.64170210593147 13.652694610413164,238.4674615408876 42.970059879589826,236.95772113272687 44.9820359274745,241.57080785610015 44.69461077824235,249.45493071863893 48.0,256.4163787237485 46.1317365267314,260.86160894221393 40.52694610739127,263.0422788672149 35.209580838214606,262.7906634105602 27.377245509065688,258.5970607919153 19.257485029753298,258.1776993183885 14.946107784286141,256.3325062174117 12.143712575081736,242.577295961848 12.359281437005848,239.30620497796917 16.598802395164967,238.21583833772456 43.40119760436937,237.29321924818214 45.12574850209057,242.07405206776457 44.40718562807888,249.03556444199057 48.0,256.0808886458981 45.77245508925989,261.3648409922025 42.395209580659866,262.9584070572164 36.143712574616075,262.8745352383121 27.952095807995647,258.7648053196608 23.281437125522643,258.1776993183885 23.35329341283068,251.8872507775086 27.520958083681762,253.31309012463316" stroke="#4DD2FF" stroke-linecap="round" stroke-linejoin="round" stroke-width="0.5"><title>2026-02-17 6.0km</title><desc>1771315721000</desc></polyline><polyline fill="none" points="72.66265865042806,252.90532582823653 69.99331997288391,252.40007161378162 69.19973279861733,258.3788927356363 64.43820975255221,257.95785045454977 61.191716766916215,255.9368444265565 58.738810955081135,242.12650016514817 59.24382097506896,239.01071886211867 89.47227788856253,236.7370329683181 91.92518370039761,241.95807986380532 91.42017368040979,249.03170204354683 94.66666666651145,256.61051366874017 93.15163660654798,260.65251723118126 89.18370073428378,263.0103432289907 81.175684702117,262.75771934667137 74.17768871039152,258.7157264012494 65.5203740815632,258.1262673935853 62.27388109546155,256.77893089089775 60.75885103549808,254.2526688433136 58.666666666511446,240.6107161793625 60.39812959218398,238.25282428099308 90.26586506329477,237.24229705776088 91.85303941136226,241.53702895576134 91.13159652613103,247.85276934917783 94.66666666651145,256.44209641125053 93.58450233750045,260.2314761446323 89.47227788856253,263.09455117193284 80.8871075483039,262.58930338086793 74.17768871039152,258.7157264012494 65.23179692681879,258.1262673935853 61.91315965214744,256.44209641125053 58.738810955081135,240.6107161793625 60.470273880753666,238.33703482506098 90.12157648615539,237.1580863984418 91.85303941136226,241.62123915506527 91.27588510327041,248.1053979297867 94.66666666651145,256.77893089089775 93.51235804893076,260.3156843795441 89.76085504330695,262.9261352769099 82.32999331969768,262.9261352769099 73.6726786904037,258.6315179980593 63.067468269728124,257.45259942521807 60.75885103549808,254.92633950116578 58.810955243650824,242.9686011407175 58.738810955081135,240.02124385518255 60.2538410150446,238.50545588764362 89.4001336004585,236.8212436720496 91.85303941136226,241.368608530669 91.49231796897948,249.03170204354683 94.66666666651145,256.02105311275227 92.71877087466419,261.24197438085685 89.61656646616757,263.0103432289907 83.55644622538239,263.2629670316819 74.10554442182183,258.7157264012494 69.8490313962102,258.3788927356363 69.92117568431422,252.40007161378162 72.87909151613712,252.65269876096863" stroke="#4DD2FF" stroke-linecap="round" stroke-linejoin="round" stroke-width="0.5"><title>2026-02-14 5.9km</title><desc>1771077344000</desc></polyline></svg>