<?xml version="1.0" encoding="utf-8" ?>
<svg baseProfile="full" height="300mm" version="1.1" viewBox="0,0,200,300" width="200mm" xmlns="http://www.w3.org/2000/svg" xmlns:ev="http://www.w3.org/2001/xml-events" xmlns:xlink="http://www.w3.org/1999/xlink"><defs /><rect fill="#222222" height="300" width="200" x="0" y="0" /><text fill="#FFFFFF" style="font-size:12px; font-family:Arial; font-weight:bold;" x="10" y="20">Over 10km Runs</text><text fill="#FFFFFF" style="font-size:4px; font-family:Arial" x="10" y="280">Runner</text><text fill="#FFFFFF" style="font-size:9px; font-family:Arial" x="10" y="290">absx</text><text fill="#FFFFFF" style="font-size:4px; font-family:Arial" x="65" y="280">SPECIAL TRACKS</text><rect fill="yellow" height="2.6" width="2.6" x="65" y="283" /><text fill="#FFFFFF" style="font-size:3px; font-family:Arial" x="70" y="285.5">Over 10.0 km</text><rect fill="red" height="2.6" width="2.6" x="65" y="287" /><text fill="#FFFFFF" style="font-size:3px; font-family:Arial" x="70" y="289.5">Over 20.0 km</text><text fill="#FFFFFF" style="font-size:4px; font-family:Arial" x="120" y="280">STATISTICS</text><text fill="#FFFFFF" style="font-size:3px; font-family:Arial" x="120" y="285">Number: 21</text><text fill="#FFFFFF" style="font-size:3px; font-family:Arial" x="120" y="290">Weekly: 3.0</text><text fill="#FFFFFF" style="font-size:3px; font-family:Arial" x="141" y="285">Total: 145.6 km</text><text fill="#FFFFFF" style="font-size:3px; font-family:Arial" x="141" y="290">Avg: 6.9 km</text><text fill="#FFFFFF" style="font-size:3px; font-family:Arial" x="167" y="285">Min: 5.4 km</text><text fill="#FFFFFF" style="font-size:3px; font-family:Arial" x="167" y="290">Max: 12.0 km</text><polyline fill="none" points="18.64925690367818,40.15099601307884 23.694031612947583,60.7547652721405 28.544776526279747,67.09434698987752 33.39552143961191,67.32076027756557 41.35074309632182,59.39628105121665 34.17164062522352,35.16983544290997 23.694031612947583,33.358501475071535 19.037316497415304,43.094403670635074 25.052240189164877,65.05662632663734 32.03731286339462,68.0 39.410445131361485,64.15097208041698 40.96268350351602,58.2642102134414 36.88805777672678,39.24533131043427 30.09701489843428,32.90566774457693 24.27612100262195,33.13208462158218 19.61940588708967,39.69816370937042 23.30597202014178,61.20759315509349 32.813432049937546,67.54717354243621 40.96268350351602,60.52835129504092 35.72387899737805,37.660417165607214 26.41044876538217,32.0 20.97761446237564,35.16983544290997 19.61940588708967,41.28307635639794 23.694031612947583,61.43400706141256 32.61940225213766,67.32076027756557 37.85820675920695,65.50945330713876 40.768653706647456,59.62269514705986 35.33581940457225,37.43400076380931 26.41044876538217,33.13208462158218 19.61940588708967,41.0566603357438 24.47015079949051,62.792489998508245 33.58955123554915,67.09434698987752 40.96268350351602,60.075523268198594 35.52984920050949,37.886833543656394 27.76865733973682,33.358501475071535 20.201495276764035,40.83024429040961 24.47015079949051,62.11324863717891 33.39552143961191,66.86793367820792 40.18656431790441,60.075523268198594 35.52984920050949,38.339666227810085 26.992538154125214,33.358501475071535 20.00746547896415,41.7359083276242 24.858210392296314,62.56607623514719 34.55970021802932,66.41510698292404 40.38059411291033,58.71703861979768 35.141789607703686,37.660417165607214 25.828359375707805,34.0377518911846 19.813435683958232,42.18874020362273 25.052240189164877,62.792489998508245 34.55970021802932,66.64152034255676 40.574623910710216,58.94345278758556 35.72387899737805,37.660417165607214 26.992538154125214,32.90566774457693 21.559703852050006,36.30191840115003 19.813435683958232,41.962324277265 24.47015079949051,62.56607623514719 33.20149164274335,67.32076027756557 38.24626635201275,65.28303982899524 40.768653706647456,59.16986693139188 35.141789607703686,37.43400076380931 26.60447856038809,33.358501475071535 19.61940588708967,41.962324277265 24.664180596359074,62.792489998508245 33.78358103148639,67.32076027756557 40.38059411291033,59.62269514705986 35.917908794246614,37.886833543656394 26.992538154125214,33.13208462158218 20.201495276764035,41.0566603357438 24.27612100262195,61.88683480233885 32.61940225213766,67.09434698987752 40.18656431790441,60.30193729349412 35.72387899737805,38.339666227810085 28.544776526279747,33.13208462158218 23.11194222420454,35.39625208219513 20.00746547896415,41.0566603357438 23.888061409816146,60.98117922549136 32.813432049937546,66.86793367820792 40.38059411291033,59.62269514705986 35.52984920050949,37.886833543656394 28.544776526279747,33.358501475071535 22.917912427335978,35.62266869726591 20.201495276764035,41.0566603357438 24.27612100262195,61.88683480233885 32.03731286339462,67.32076027756557 39.99253452103585,60.7547652721405 35.52984920050949,38.566082533914596 27.186567950062454,34.0377518911846 20.395525072701275,41.28307635639794 24.27612100262195,62.339662448270246 33.97761082928628,67.09434698987752 40.38059411291033,59.16986693139188 35.52984920050949,38.339666227810085 27.38059774786234,34.2641686485149 20.589554868638515,41.28307635639794 24.47015079949051,61.88683480233885 34.36567042116076,67.09434698987752 40.18656431790441,58.94345278758556 35.917908794246614,37.886833543656394 26.60447856038809,33.13208462158218 19.231346294283867,43.094403670635074 24.27612100262195,63.47173114679754 34.36567042116076,67.54717354243621 40.96268350351602,58.49062442872673 35.72387899737805,36.75475141755305 32.42537245713174,32.67925084405579 25.828359375707805,32.67925084405579 19.425376089289784,41.28307635639794 23.694031612947583,61.66042094328441 33.58955123554915,67.54717354243621 40.768653706647456,59.16986693139188 36.111938590183854,37.660417165607214 26.41044876538217,33.13208462158218 19.813435683958232,41.28307635639794 24.47015079949051,63.245317454217 34.36567042116076,67.09434698987752 40.574623910710216,57.58496742649004 36.111938590183854,38.339666227810085 27.57462754379958,33.13208462158218 20.201495276764035,40.15099601307884 24.27612100262195,61.66042094328441 33.39552143961191,66.41510698292404 38.634325944818556,63.47173114679754 40.18656431790441,58.2642102134414 35.917908794246614,38.11324989749119 26.60447856038809,34.0377518911846 20.00746547896415,41.50949235423468 25.24626998603344,62.792489998508245 34.75373001489788,66.18869359930977 40.38059411291033,58.037795974873006 35.33581940457225,37.20758433896117 25.24626998603344,34.2641686485149 20.201495276764035,42.415156106464565 24.858210392296314,62.56607623514719 34.36567042116076,66.41510698292404 39.79850472416729,57.811381712323055 35.52984920050949,38.79249881650321 31.843283067457378,34.943418780108914 25.24626998603344,34.7170020933263 20.201495276764035,42.415156106464565 25.052240189164877,63.245317454217 35.141789607703686,66.86793367820792 40.38059411291033,57.811381712323055 35.72387899737805,38.11324989749119 30.679104288108647,34.0377518911846 23.30597202014178,34.49058538326062 19.813435683958232,44.00006675743498 25.44029978197068,64.37738567800261 34.75373001489788,66.64152034255676 39.79850472416729,57.811381712323055 34.75373001489788,38.11324989749119 24.082091205753386,34.0377518911846" stroke="#4DD2FF" stroke-linecap="round" stroke-linejoin="round" stroke-width="0.5"><title>2026-03-29 9.9km</title><desc>1774773831000</desc></polyline><polyline fill="none" points="65.57637274637818,36.941210699267685 70.81905714515597,62.352979405084625 80.49785911198705,68.0 87.75696058850735,63.76473588705994 89.5717359567061,57.64711804362014 82.11099277343601,36.70591519866139 70.81905714515597,32.47059196373448 63.76159737724811,42.588295304914936 73.64204105176032,65.17649148032069 79.89293398987502,67.76470775902271 86.1438269270584,65.41178399254568 89.16845254134387,57.64711804362014 81.90935106575489,36.941210699267685 72.83547422196716,32.23529599397443 64.36652250029147,40.235345114488155 71.42398226913065,63.05885775736533 82.11099277343601,67.294123203028 89.16845254134387,57.41182471672073 81.90935106575489,37.176506174961105 77.06995008233935,33.176479724934325 70.21413202211261,33.176479724934325 64.36652250029147,42.588295304914936 71.62562397588044,62.82356499810703 81.50606765132397,67.294123203028 87.35367717314512,63.52944320207462 89.16845254134387,57.41182471672073 81.30442594364285,36.47061967314221 69.81084860675037,33.41177559643984 64.36652250029147,41.411820519017056 71.42398226913065,63.05885775736533 79.6912922821939,68.0 85.94218521937728,65.64707648032345 89.37009424902499,59.29417064390145 81.90935106575489,37.41180162644014 73.2387576373294,32.47059196373448 64.76980591658503,39.294164346996695 70.81905714515597,61.647100830916315 78.27980032842606,67.52941549406387 83.92576814256608,66.35295379604213 88.56352741923183,60.94122203369625 84.93397668097168,44.705948365386575 76.06174154393375,32.941183829680085 69.40756519231945,33.64707144303247 64.76980591658503,39.294164346996695 70.81905714515597,61.17651499109343 75.45681642089039,66.35295379604213 84.93397668097168,65.88236894388683 88.76516912598163,55.2941836589016 80.9011425273493,36.00002854829654 75.25517471320927,32.705887909280136 68.80264006834477,34.11766306147911 64.36652250029147,43.7647694745101 74.04532446805388,65.41178399254568 84.53069326467812,66.11766138207167 88.96681083366275,56.470651159994304 80.6995008205995,35.76473294850439 69.40756519231945,33.64707144303247 64.36652250029147,44.00006423401646 72.63383251428604,63.76473588705994 83.32084301952273,66.35295379604213 88.56352741923183,56.470651159994304 80.49785911198705,35.76473294850439 69.81084860675037,33.8823672644794 64.56816420797259,43.529474689625204 73.2387576373294,64.47061379533261 84.53069326467812,65.88236894388683 88.76516912598163,56.70594458584674 81.50606765132397,36.941210699267685 74.65024959109724,32.941183829680085 67.9960732376203,34.58825458120555 69.40756519231945,32.0 65.17308933101594,42.8235901882872 72.83547422196716,63.05885775736533 78.6830837437883,66.58824618463404 84.73233497329056,65.17649148032069 87.95860229525715,55.52947720838711 79.48965057451278,35.058846002910286 73.84368276037276,33.176479724934325 65.57637274637818,35.52943732473068 65.7780144540593,45.41183227370493 74.04532446805388,64.47061379533261 83.92576814256608,65.64707648032345 88.56352741923183,57.64711804362014 81.10278423503041,37.64709705254063 71.2223405605182,33.8823672644794 65.17308933101594,42.8235901882872 72.83547422196716,62.82356499810703 83.1192013118416,65.64707648032345 87.75696058850735,56.70594458584674 80.9011425273493,37.882392454426736 71.42398226913065,34.352958833798766 65.7780144540593,42.1177054643631 73.03711592964828,62.352979405084625 78.07815862074494,66.11766138207167 83.52248472720385,65.41178399254568 87.75696058850735,57.17653136397712 81.10278423503041,37.176506174961105 70.41577372979373,33.8823672644794 65.17308933101594,43.05888504721224 73.64204105176032,64.47061379533261 83.32084301952273,66.11766138207167 88.16024400293827,56.23535770946182 80.09457569755614,36.23532412271015 74.65024959109724,33.41177559643984 66.7862229924649,35.52943732473068" stroke="#4DD2FF" stroke-linecap="round" stroke-linejoin="round" stroke-width="0.5"><title>2026-03-26 6.5km</title><desc>1774530092000</desc></polyline><polyline fill="none" points="112.50492077320814,36.053008635528386 115.97818517871201,61.56295579741709 125.17212037183344,67.76159128104337 131.30141049902886,65.37750271218829 134.77467490639538,59.178860723041 129.25831378996372,36.29142068279907 119.4514495851472,32.0 111.89199176058173,39.86759839113802 116.38680452108383,61.80136516713537 127.62383642233908,67.2847737672273 134.57036523520947,58.463631712133065 128.84969444852322,35.81459656287916 119.65575925540179,32.23841247265227 112.096301429905,41.05965637648478 116.99973353277892,62.2781838318333 126.80659773852676,67.76159128104337 133.75312655139714,60.132499052910134 129.25831378996372,36.76824470190331 124.76350103039294,32.71523734321818 118.63421090040356,32.23841247265227 112.096301429905,41.298067898256704 117.20404320396483,62.993411641335115 127.4195267520845,67.04636497260071 134.16174589283764,57.98681224742904 128.84969444852322,35.576184465549886 118.42990123014897,32.71523734321818 112.50492077320814,39.86759839113802 117.81697221659124,64.90068469801918 127.4195267520845,67.04636497260071 133.95743622258306,58.225221992470324 128.6453847773373,36.053008635528386 119.24713991396129,32.23841247265227 112.30061110202223,40.34442166076042 116.99973353277892,62.75500239711255 121.69885596539825,67.04636497260071 127.82814609352499,66.8079561535269 133.95743622258306,58.463631712133065 128.6453847773373,36.053008635528386 118.83852057252079,32.0 111.89199176058173,41.77489086706191 120.06437859777361,68.0 128.44107510708272,67.2847737672273 134.36605556402355,57.033173015806824 128.2367654358968,34.86094802245498 118.63421090040356,32.23841247265227 111.89199176058173,41.298067898256704 116.79542386159301,62.51659312681295 126.80659773852676,66.8079561535269 133.95743622258306,57.98681224742904 128.44107510708272,35.81459656287916 118.83852057252079,32.23841247265227 112.096301429905,41.05965637648478 117.20404320396483,62.993411641335115 121.90316563565284,66.8079561535269 128.44107510708272,66.33113843994215 133.95743622258306,59.417270343517885 128.44107510708272,35.81459656287916 118.42990123014897,32.476824920624495 112.096301429905,42.01330231432803 116.59111419133842,62.2781838318333 127.01090740971267,67.04636497260071 134.16174589283764,57.74840247700922 129.46262346114963,37.48348054452799 124.55919135827571,32.476824920624495 118.42990123014897,32.476824920624495 112.096301429905,42.01330231432803 116.99973353277892,62.75500239711255 122.10747530683875,66.8079561535269 128.2367654358968,66.56954730884172 133.95743622258306,57.50999268144369 128.6453847773373,36.053008635528386 118.02128188777715,32.476824920624495 112.096301429905,41.77489086706191 117.20404320396483,62.51659312681295 128.0324557647109,66.56954730884172 133.95743622258306,57.033173015806824 128.2367654358968,35.33777234260924 118.02128188777715,32.476824920624495 112.096301429905,42.01330231432803 120.47299794014543,68.0 129.25831378996372,67.2847737672273" stroke="#4DD2FF" stroke-linecap="round" stroke-linejoin="round" stroke-width="0.5"><title>2026-03-25 5.4km</title><desc>1774445603000</desc></polyline><polyline fill="none" points="152.90596026484855,37.28556791890878 152.0476821193006,38.06459059350891 152.42913907277398,40.401651747117285 155.76688741729595,42.62741469364846 157.53112582792528,42.57177073380444 158.43708609277382,41.68146658362821 159.29536423832178,39.62263250758406 158.77086092694663,37.84201280324487 157.43576158955693,36.56218869588338 154.52715231804177,36.005742467415985 152.28609271533787,37.50814594281837 152.90596026484855,40.791160937573295 154.38410596037284,42.18226285208948 157.00662251655012,42.62741469364846 158.7231788081117,40.791160937573295 159.00927152344957,38.398457103583496 158.34172185440548,37.39685694250511 157.00662251655012,36.39525488863001 154.28874172177166,35.950097812572494 152.38145695393905,37.84201280324487 152.38145695393905,39.84520955017069 153.3827814569231,41.236313947534654 154.908609271748,42.34919483656995 157.1019867551513,42.46048279694514 158.77086092694663,40.290363354492 158.34172185440548,37.34121243370464 154.43178807967342,35.950097812572494 152.09536423860118,38.17587945354171 152.0,39.4556996645988 153.33509933785535,41.180669841589406 156.86357615911402,42.46048279694514 158.19867549696937,41.570178459456656 158.86622516578063,39.73392104066443 157.8649006623309,36.951700707897544 153.81192052992992,36.06138711667154 152.19072847696953,38.06459059350891 152.4768211923074,40.123430721694604 153.71655629156157,41.62582252448192 156.72052980144508,42.51612676831428 158.81854304648004,40.290363354492 158.0556291390676,37.062989801575895 154.1933774834033,35.950097812572494 152.33377483463846,37.67507939937059 153.00132450344972,40.90244922507554 156.6251655628439,42.62741469364846 158.7231788081117,40.51294011651771 158.7231788081117,38.28716829029145 157.8649006623309,36.951700707897544 154.47947019874118,35.89445315190824 152.33377483463846,38.17587945354171 153.23973509925418,41.180669841589406 156.76821192051284,42.73870259558316 158.7231788081117,40.401651747117285 158.0556291390676,37.22992339840857 154.33642384107225,36.005742467415985 152.4768211923074,38.12023502658121 152.95364238414913,40.791160937573295 154.71788079477847,42.18226285208948 156.91125827818178,42.57177073380444 158.77086092694663,40.51294011651771 158.4847682120744,37.67507939937059 157.292715231888,36.56218869588338 154.71788079477847,36.005742467415985 152.4768211923074,37.39685694250511 152.8582781457808,40.67987262661336 156.38675496703945,42.62741469364846 157.9125827816315,41.95968679105863 158.77086092694663,40.234719149477314 158.0556291390676,37.22992339840857 154.62251655641012,35.950097812572494 152.76291390741244,36.89605615223991 152.38145695393905,40.06778649898479 155.76688741729595,42.51612676831428 158.2463576158043,41.403246229863726 158.86622516578063,39.73392104066443 158.38940397347324,37.67507939937059 157.34039735095575,36.56218869588338 155.0516556291841,35.89445315190824 152.66754966881126,37.34121243370464 152.76291390741244,40.51294011651771 155.76688741729595,42.51612676831428 157.4834437086247,42.23790685279528 158.43708609277382,41.013737489294726 158.81854304648004,39.010545159108005 157.96026490069926,37.17427887197118 154.57483443710953,36.005742467415985 152.38145695393905,37.45250144554302 152.71523178811185,40.51294011651771 154.47947019874118,42.07097483339021 156.43443708634004,42.57177073380444 158.38940397347324,41.06938161252765 158.81854304648004,38.621034660201985 157.81721854303032,36.951700707897544 155.8622516556643,36.06138711667154 159.00927152344957,37.56379043427296 162.29933774843812,36.39525488863001 169.5947019867599,56.26000879338244 172.0264900662005,58.70827426802134 175.60264900675975,56.093081190250814 183.42251655622385,52.698875188827515 184.376158940373,52.921446739987005 187.61854304629378,61.212170443090145 188.0,64.10554684803355" stroke="#4DD2FF" stroke-linecap="round" stroke-linejoin="round" stroke-width="0.5"><title>2026-03-24 6.2km</title><desc>1774357706000</desc></polyline><polyline fill="none" points="20.08369303215295,80.18186927982606 23.489293404854834,103.55847302637994 33.305435655638576,107.76623564353213 39.715977534651756,99.11693719564937 35.108400559052825,78.31173038040288 26.49423491023481,73.4026082966011 19.482704730704427,80.88317096233368 24.891599440947175,102.85717848455533 33.50576508976519,106.36364898784086 41.7192718712613,100.75329353217967 35.70938886050135,76.67535755457357 26.0935760429129,72.46753619634546 18.2807281287387,79.94810200366192 22.687975670211017,100.9870586253237 28.697858680970967,107.5324712623842 35.30872999317944,108.0 39.11498923320323,104.2597673481796 37.31202432978898,84.6234428731259 29.29884698241949,73.6363762607798 23.68962283898145,73.87014419957995 19.482704730704427,78.31173038040288 23.088634536601603,100.9870586253237 30.901482451707125,107.5324712623842 37.11169489566237,105.1948261000216 39.715977534651756,99.35070246015675 35.30872999317944,79.0130326510407 26.49423491023481,72.93507229583338 19.08204586338252,79.71433470211923 23.68962283898145,101.68835375644267 32.90477678831667,107.29870685655624 39.715977534651756,100.51952841528691 34.90807112492621,77.84419541014358 26.0935760429129,72.7013042580802 18.681386996991932,80.41563653177582 23.88995227124542,101.9221187508665 33.50576508976519,106.83117797109298 39.715977534651756,99.58446770021692 35.108400559052825,78.07796290749684 24.69127000682056,73.16884030890651 19.08204586338252,81.11693814117461 23.489293404854834,101.68835375644267 34.30708282534033,107.29870685655624 39.715977534651756,98.41564125497825 34.30708282534033,77.14289277023636 25.091928874142468,73.4026082966011 18.881716429255903,81.81823952891864 24.090281705372036,102.38964866637252 33.9064239570871,106.83117797109298 39.715977534651756,99.8182329160627 34.30708282534033,76.9091251748614 25.893246609717607,72.93507229583338 18.881716429255903,81.58447242435068 24.090281705372036,102.38964866637252 34.90807112492621,106.83117797109298 39.91630696691573,99.11693719564937 34.50741225853562,77.61042788764462 25.893246609717607,73.87014419957995 19.282375297509134,81.35070529463701 24.891599440947175,103.32470820355229 34.70774169173092,106.83117797109298 39.51564810052514,99.58446770021692 34.10675339028239,76.9091251748614 25.69291717465967,72.93507229583338 19.282375297509134,81.58447242435068 24.69127000682056,102.85717848455533 34.50741225853562,106.36364898784086 39.715977534651756,99.58446770021692 33.9064239570871,76.67535755457357 25.091928874142468,73.4026082966011 19.08204586338252,82.28577366494574 23.68962283898145,101.45458873757161 33.50576508976519,106.36364898784086 39.51564810052514,98.88317190646194 34.90807112492621,78.07796290749684 25.091928874142468,73.4026082966011 19.282375297509134,81.35070529463701 24.69127000682056,103.09094335651025 34.90807112492621,106.5974134914577 39.715977534651756,98.64940659306012 34.70774169173092,77.37666034069844 26.0935760429129,73.4026082966011 19.282375297509134,80.64940375951119 24.891599440947175,103.09094335651025 34.70774169173092,106.5974134914577 39.51564810052514,98.181875892682 33.9064239570871,76.67535755457357 25.69291717465967,73.6363762607798 19.482704730704427,81.35070529463701 24.891599440947175,102.62341358792037 33.10510622151196,106.5974134914577 39.31531866732985,99.11693719564937 35.30872999317944,77.14289277023636 27.696211513131857,72.0 18.881716429255903,78.31173038040288 23.88995227124542,100.9870586253237 27.49588207900524,105.8961199063342 35.90971829369664,105.8961199063342 39.31531866732985,100.28576327278279 34.90807112492621,78.31173038040288 26.0935760429129,73.4026082966011 20.284022466279566,78.77926525217481 23.88995227124542,100.9870586253237 30.3004941502586,106.5974134914577 35.108400559052825,106.12988445954397 39.31531866732985,100.28576327278279 36.11004772782326,81.11693814117461 28.898188115097582,72.7013042580802 20.08369303215295,78.31173038040288 23.68962283898145,99.58446770021692 29.29884698241949,106.36364898784086 41.7192718712613,100.51952841528691 36.11004772782326,84.6234428731259" stroke="#4DD2FF" stroke-linecap="round" stroke-linejoin="round" stroke-width="0.5"><title>2026-03-22 7.4km</title><desc>1774161813000</desc></polyline><polyline fill="none" points="63.208284120075405,81.42287319037132 68.3845851002261,84.80543364421465 73.14678200054914,103.65103661082685 81.84296764619648,108.0 87.6404247423634,104.85908282105811 89.71094513405114,98.33562575466931 85.15580027271062,76.5906353474129 75.42435443215072,72.72483776905574 68.59163713827729,80.45642643305473 72.9397299606353,102.44298976659775 82.46412376407534,107.5167822514195 89.71094513405114,99.54367475421168 85.15580027271062,77.79869575891644 76.45961462706327,72.72483776905574 68.3845851002261,80.9396498624701 73.14678200054914,103.65103661082685 84.7416961947456,106.79195543844253 89.71094513405114,98.33562575466931 84.7416961947456,76.34902318916284 75.83845851011574,72.24161261529662 68.17753306031227,80.21481468016282 72.9397299606353,101.71816135616973 79.77244725357741,107.75839113793336 86.60516454745084,105.58391024242155 89.91799717303365,99.7852844784502 85.36285231076181,78.52353170164861 75.83845851011574,72.72483776905574 68.79868917819113,80.21481468016282 73.56088607944548,101.71816135616973 83.29233191907406,107.03356440132484 89.50389309506863,99.7852844784502 84.53464415576309,77.31547167035751 76.45961462706327,72.96645030775107 68.79868917819113,80.9396498624701 73.56088607944548,102.44298976659775 81.22181152831763,107.03356440132484 89.71094513405114,99.06045523029752 84.7416961947456,77.55708372755907 75.42435443215072,73.20806282153353 69.00574121717364,81.1812615392264 74.38909423537552,103.40942729311064 83.91348803695291,106.55034645018168 89.50389309506863,99.06045523029752 85.36285231076181,77.79869575891644 75.83845851011574,72.96645030775107 68.79868917819113,79.97320290235803 73.9749901574105,102.44298976659775 82.46412376407534,107.03356440132484 89.50389309506863,98.57723560580052 84.94874823372811,77.55708372755907 75.63140647020191,72.96645030775107 69.00574121717364,81.42287319037132 73.9749901574105,102.44298976659775 81.84296764619648,107.03356440132484 89.50389309506863,98.57723560580052 84.94874823372811,77.55708372755907 76.45961462706327,72.72483776905574 68.79868917819113,79.73159109940752 73.76793811749667,102.44298976659775 81.63591560628265,106.79195543844253 87.43337270338088,104.13425517105497 89.50389309506863,99.06045523029752 84.7416961947456,77.79869575891644 75.63140647020191,72.96645030775107 68.59163713827729,81.42287319037132 73.56088607944548,102.92620858014561 82.46412376407534,107.5167822514195 89.91799717303365,99.06045523029752 85.36285231076181,77.31547167035751 75.42435443215072,72.96645030775107 68.59163713827729,81.42287319037132 73.35383403953165,102.92620858014561 83.08527988009155,106.55034645018168 89.71094513405114,98.57723560580052 84.94874823372811,77.31547167035751 75.42435443215072,72.96645030775107 68.59163713827729,80.69803816080093 73.9749901574105,102.68459918629378 83.08527988009155,106.79195543844253 89.50389309506863,98.33562575466931 84.53464415576309,76.83224748028442 75.42435443215072,72.96645030775107 69.00574121717364,80.69803816080093 73.76793811749667,102.44298976659775 80.39360337145627,107.27517333859578 86.60516454745084,105.10069198720157 89.50389309506863,99.7852844784502 85.77695638965815,80.21481468016282 77.28782278392464,72.48322520474903 72.9397299606353,73.44967530947179 69.41984529606998,80.21481468016282 73.76793811749667,102.44298976659775 81.42886356730014,107.03356440132484 89.71094513405114,100.02689417731017 85.36285231076181,78.52353170164861 82.2570717241615,74.41612500837073 72.9397299606353,72.0 68.59163713827729,75.62418656121008 72.9397299606353,101.95977085176855 79.97949929349124,107.03356440132484 87.22632066439837,105.10069198720157 89.91799717303365,99.7852844784502 85.36285231076181,77.79869575891644 76.04551054909825,72.48322520474903 68.79868917819113,79.73159109940752 73.35383403953165,101.95977085176855 80.39360337145627,107.27517333859578 86.60516454745084,105.58391024242155 89.91799717303365,99.7852844784502 85.56990435067564,78.52353170164861 81.84296764619648,73.44967530947179 76.04551054909825,72.24161261529662 68.59163713827729,80.69803816080093 73.56088607944548,102.68459918629378 82.87822784204036,107.5167822514195 89.71094513405114,99.06045523029752 84.94874823372811,76.83224748028442 80.80770745035261,72.96645030775107 74.38909423537552,73.44967530947179 68.79868917819113,82.3893195418641 73.56088607944548,102.44298976659775 83.7064359979704,106.79195543844253 89.91799717303365,99.54367475421168 85.15580027271062,78.04030776582658 76.25256258808076,72.72483776905574 71.2833136478439,75.14096201607026 68.79868917819113,81.1812615392264 73.14678200054914,101.47655183519237 78.53013501875103,106.79195543844253 84.32759211584926,106.55034645018168 89.71094513405114,98.81884543085471 83.7064359979704,75.3825743009802 74.38909423537552,72.96645030775107 68.3845851002261,82.14770799176767 74.18204219639301,103.89264590339735 83.29233191907406,107.03356440132484 89.91799717303365,98.81884543085471 84.94874823372811,77.07385958754458 75.21730239223689,72.72483776905574 68.59163713827729,80.21481468016282 73.56088607944548,102.44298976659775 82.2570717241615,107.27517333859578 90.12504921294749,99.30206500552595 84.94874823372811,77.31547167035751 75.01025035232306,72.48322520474903 68.79868917819113,81.42287319037132 73.35383403953165,101.95977085176855 83.7064359979704,106.79195543844253 89.91799717303365,99.30206500552595 84.94874823372811,77.07385958754458 76.8737187050283,72.24161261529662 68.79868917819113,80.69803816080093 73.76793811749667,101.95977085176855 83.49938395898789,107.03356440132484 89.71094513405114,98.57723560580052 84.32759211584926,76.83224748028442 75.63140647020191,72.96645030775107 69.00574121717364,80.69803816080093 73.56088607944548,101.47655183519237 82.87822784204036,106.79195543844253 89.71094513405114,98.57723560580052 85.15580027271062,77.55708372755907 75.42435443215072,72.72483776905574 68.79868917819113,80.9396498624701 73.9749901574105,102.44298976659775 83.08527988009155,107.03356440132484 89.71094513405114,100.02689417731017 84.32759211584926,76.83224748028442 74.80319831427187,72.96645030775107 68.79868917819113,81.90609641629271 73.56088607944548,102.201380321756 78.53013501875103,106.79195543844253 83.91348803695291,106.55034645018168 89.71094513405114,98.81884543085471 84.53464415576309,76.5906353474129 76.66666666604578,72.48322520474903 68.79868917819113,79.97320290235803 73.9749901574105,102.68459918629378 82.46412376407534,107.03356440132484 89.71094513405114,99.06045523029752 84.94874823372811,77.07385958754458 76.45961462706327,72.72483776905574 71.2833136478439,75.14096201607026 69.00574121717364,81.1812615392264 73.76793811749667,102.44298976659775 83.91348803695291,106.79195543844253 89.50389309506863,99.7852844784502 84.7416961947456,77.07385958754458 75.21730239223689,72.96645030775107 68.59163713827729,81.1812615392264 74.18204219639301,103.1678179493174 81.63591560628265,107.03356440132484" stroke="yellow" stroke-linecap="round" stroke-linejoin="round" stroke-width="0.5"><title>2026-03-20 12.0km</title><desc>1774012772000</desc></polyline><polyline fill="none" points="112.60707673523575,86.54311504913494 117.10188902262598,104.1854574889876 122.82255920954049,108.0 130.17770659085363,107.04636497283354 134.87682853080332,97.03317301603965 129.97339694295079,77.00665667466819 120.37084341514856,72.0 111.78983813617378,80.10601003840566 116.08034077566117,101.32454640301876 126.70444255042821,107.52318253647536 134.26389958150685,100.37090857280418 129.5647776434198,77.2450686225202 121.18808201421052,72.0 112.40276708547026,79.86759839183651 117.3061986733228,102.2781838318333 125.06996535416692,107.04636497283354 130.7906355401501,105.13909371756017 133.8552802829072,99.6556799383834 129.76908729225397,78.67553978110664 120.37084341514856,72.47682492085733 112.60707673523575,80.34442166076042 117.3061986733228,102.03977451194078 126.29582325089723,107.28477376676165 133.8552802829072,99.6556799383834 129.3604679936543,77.96030431496911 120.77946271467954,72.0 112.60707673523575,79.39077502232976 117.10188902262598,101.80136516713537 127.11306184902787,106.80795615306124 133.6509706331417,99.6556799383834 128.95184869505465,77.2450686225202 120.16653376631439,72.47682492085733 112.81138638406992,79.39077502232976 117.3061986733228,101.80136516713537 126.9087522001937,106.80795615306124 133.6509706331417,99.41727034305222 128.33891974575818,77.00665667466819 120.37084341514856,72.71523734391667 112.60707673523575,79.39077502232976 117.10188902262598,101.32454640301876 126.29582325089723,106.80795615306124 133.6509706331417,98.70204140734859 128.95184869505465,77.96030431496911 120.16653376631439,72.47682492085733 112.81138638406992,80.82124483003281 117.51050832215697,101.56295579764992 126.70444255042821,107.04636497283354 133.6509706331417,99.41727034305222 129.3604679936543,78.9139515531715 120.57515306584537,72.71523734391667 113.01569603383541,80.10601003840566 117.71481797285378,102.03977451194078 126.29582325089723,106.56954730907455 133.6509706331417,99.17886072257534 128.95184869505465,77.96030431496911 120.57515306584537,72.71523734391667 112.60707673523575,80.5828332582023 117.71481797285378,102.03977451194078 126.29582325089723,107.04636497283354 133.6509706331417,99.89408950833604 129.15615834388882,78.67553978110664 121.59670131281018,72.95364974159747 116.48896007519215,74.38412360288203 112.81138638406992,80.5828332582023 117.71481797285378,101.80136516713537 125.68289430253208,107.04636497283354 131.60787413828075,104.42386658419855 133.6509706331417,99.17886072257534 129.3604679936543,78.43712798389606 121.18808201421052,72.71523734391667 113.01569603383541,79.62918671988882 117.91912762075663,102.2781838318333 126.9087522001937,106.80795615306124 133.6509706331417,100.37090857280418 129.76908729225397,79.15236330078915 120.57515306584537,72.95364974159747 112.60707673523575,80.10601003840566 118.12343727145344,102.51659312658012 126.70444255042821,106.80795615306124 133.8552802829072,99.41727034305222 129.5647776434198,78.43712798389606 119.55360481794924,72.95364974159747 112.81138638406992,79.86759839183651 117.10188902262598,101.08613698277622 123.8441074565053,106.09272954589687" stroke="#4DD2FF" stroke-linecap="round" stroke-linejoin="round" stroke-width="0.5"><title>2026-03-19 5.5km</title><desc>1773929179000</desc></polyline><polyline fill="none" points="158.5086130304262,85.2886561602354 163.27080943249166,103.1678179493174 170.72468206007034,107.27517333929427 176.9362425841391,106.30873743630946 181.49138696677983,97.36918609892018 175.2798264445737,74.8993497050833 165.13427758961916,72.72483776835725 159.12976908311248,82.3893195411656 164.51312153693289,104.13425517105497 167.41184978093952,107.75839113863185 175.90098249725997,107.75839113863185 181.69843898527324,99.30206500506029 175.90098249725997,75.86579879536293 165.7554336413741,72.72483776835725 159.3368211016059,82.14770799130201 164.3060695193708,103.65103661152534 168.44710986874998,107.5167822514195 176.31508653145283,107.27517333929427 181.49138696677983,98.33562575490214 176.52213854901493,76.83224748005159 171.5528901303187,72.2416126143653 165.96248565986753,72.0 158.30156101379544,82.3893195411656 164.51312153693289,104.37586441333406 174.03751434013247,108.0 181.28433495108038,99.06045523099601 176.10803451389074,76.83224748005159 166.79069372825325,72.4832252045162 159.54387311916798,81.42287319037132 164.51312153693289,103.1678179493174 169.6894219731912,107.5167822514195 175.69393047969788,107.5167822514195 181.28433495108038,99.78528447821736 176.10803451389074,77.55708372686058 166.37658969406039,72.4832252045162 159.54387311916798,81.18126153899357 164.51312153693289,103.1678179493174 175.0727744260803,107.75839113863185 181.49138696677983,99.06045523099601 176.52213854901493,77.79869575891644 166.79069372825325,72.72483776835725 159.54387311916798,81.18126153899357 164.51312153693289,103.1678179493174 173.6234103050083,108.0 181.07728293258697,100.510113498196 176.31508653145283,77.79869575891644 166.1695376764983,72.72483776835725 159.54387311916798,81.42287319037132 164.51312153693289,102.44298976683058 168.65416188631207,107.03356440202333 175.0727744260803,107.5167822514195 181.07728293258697,98.81884543132037 175.90098249725997,76.83224748005159 166.1695376764983,72.72483776835725 159.54387311916798,81.18126153899357 165.13427758961916,103.65103661152534 175.69393047969788,107.27517333929427 181.07728293258697,99.06045523099601 176.10803451389074,77.31547166942619 165.96248565986753,72.96645030751824 159.75092513579875,81.90609641629271 165.54838162474334,104.37586441333406 175.69393047969788,107.27517333929427 181.28433495108038,99.06045523099601 175.4868784621358,76.10741100483574 165.54838162474334,72.72483776835725 159.75092513579875,80.69803816010244 165.13427758961916,103.65103661152534 174.86572240944952,107.27517333929427 181.07728293258697,100.02689417707734 176.10803451389074,77.31547166942619 166.37658969406039,72.96645030751824 159.75092513579875,81.66448481590487 165.54838162474334,104.13425517105497 176.31508653145283,106.79195543914102 181.28433495108038,98.81884543132037 175.0727744260803,75.86579879536293 166.37658969406039,73.20806282083504 159.75092513579875,81.42287319037132 164.92722557112575,103.1678179493174 174.45161837432534,107.27517333929427 181.07728293258697,99.06045523099601 175.69393047969788,76.59063534718007 166.99774574674666,73.20806282083504 159.75092513579875,80.45642643258907 165.13427758961916,102.68459918629378 174.65867039188743,107.03356440202333 180.8702309159562,99.54367475491017 176.10803451389074,77.55708372686058 167.41184978093952,73.20806282083504 160.16502917092294,80.21481468016282 165.13427758961916,102.68459918629378 173.83046232257038,107.75839113863185 180.8702309159562,98.81884543132037 175.4868784621358,76.59063534718007 167.41184978093952,72.96645030751824 159.95797715336084,80.45642643258907 165.54838162474334,103.40942729311064 170.51763004343957,107.27517333929427 175.0727744260803,105.82551933266222" stroke="#4DD2FF" stroke-linecap="round" stroke-linejoin="round" stroke-width="0.5"><title>2026-03-18 6.4km</title><desc>1773842529000</desc></polyline><polyline fill="none" points="24.290531436912715,112.0 17.879900068975985,121.81823952589184 25.692857048474252,144.02600259776227 35.90980079211295,147.5324712623842 42.120099931024015,137.71434509032406 34.3071429496631,119.01303264941089 26.894850430078804,119.01303264941089 23.489202516153455,115.7402868277859 18.681228989735246,123.45460857241414 26.29385373927653,143.7922378233634 36.110133023001254,146.83117797062732 41.51910324022174,138.8831719039008 34.106810718774796,118.779265250545 24.09019920695573,115.50651908479631 18.681228989735246,123.68837548117153 26.29385373927653,144.72729677218013 35.90980079211295,147.76623564353213 41.91976770013571,139.81823291350156 35.30880410131067,119.71433470025659 30.901495035737753,115.50651908479631 24.490863667801023,115.03898352617398 18.08023229893297,122.75330770039 25.492524817585945,143.3247082021553 34.707807410508394,148.0 41.91976770013571,141.6883537543472 34.50747518055141,118.31173037854023 25.29219258762896,114.33768000337295 18.08023229893297,122.05200660671107 26.093521509319544,144.49353207205422 37.1117941737175,147.2987068563234 42.320432160981,138.41564125195146 34.3071429496631,117.84419540804811 23.689534745179117,114.5714478683658 17.879900068975985,123.68837548117153 26.093521509319544,144.25976734701544 35.50913633219898,147.5324712623842 41.71943547017872,138.18187588942237 33.90647848881781,117.61042788578197 23.088538055308163,114.5714478683658 17.679567838087678,122.98707468202338 25.091860357671976,143.5584730252158 35.70946856122464,147.2987068563234 41.71943547017872,138.18187588942237 33.10514956805855,116.67535755340941 23.489202516153455,114.80521570984274 17.879900068975985,123.68837548117153 26.093521509319544,144.49353207205422 36.71112971380353,147.2987068563234 41.71943547017872,138.8831719039008 34.106810718774796,117.61042788578197 24.09019920695573,114.5714478683658 17.879900068975985,123.92214236478321 25.89318927936256,144.49353207205422 36.911461943760514,147.2987068563234 41.91976770013571,138.8831719039008 34.3071429496631,118.07796290586703 24.290531436912715,114.5714478683658 17.879900068975985,122.51954069337808 25.492524817585945,143.3247082021553 34.90813964046538,147.76623564353213 39.91644539684057,144.49353207205422 41.51910324022174,138.64940659073181 33.90647848881781,118.07796290586703 23.889866976067424,115.03898352617398 18.280564528889954,124.62344286986627 26.093521509319544,144.49353207205422 36.110133023001254,147.5324712623842 41.51910324022174,138.18187588942237 33.90647848881781,117.84419540804811 22.68787359446287,115.03898352617398 17.879900068975985,124.38967605982907 27.696179351769388,146.83117797062732 37.712790864519775,146.59741349099204 41.51910324022174,137.71434509032406 33.30548179894686,116.90912517323159 26.894850430078804,114.10391211370006 21.686212442815304,115.7402868277859 17.679567838087678,123.92214236478321 27.09518266003579,146.12988445884548 38.11345532536507,146.83117797062732 41.31877100933343,137.24681419320405 32.70448510814458,116.44158990914002 21.686212442815304,116.44158990914002 21.686212442815304,122.28577366191894" stroke="#4DD2FF" stroke-linecap="round" stroke-linejoin="round" stroke-width="0.5"><title>2026-03-17 5.6km</title><desc>1773751527000</desc></polyline><polyline fill="none" points="66.56025370117277,119.44832081347704 64.432587813586,122.92419583396986 72.09218500740826,142.78624082473107 82.73051444534212,147.25517796445638 89.11351210717112,137.8207452117931 81.24114832282066,116.46899530291557 70.81558547634631,112.49655545060523 64.85812099184841,122.67591921566054 73.36878454033285,144.27588747628033 82.30498126707971,148.0 89.11351210717112,138.5655702187214 80.8156151464209,115.47588596516289 70.60281888768077,112.0 64.432587813586,122.42764257173985 72.94325136300176,144.02761309896596 84.21988056600094,147.25517796445638 89.11351210717112,139.55866986163892 79.96454879175872,115.22760856547393 70.81558547634631,112.74483313714154 64.64535440225154,120.93798216222785 72.94325136300176,143.53106426727027 82.73051444534212,147.25517796445638 88.47521233931184,137.07591997110285 80.17731537949294,115.72416333854198 70.17728570848703,112.99311079760082 64.85812099184841,122.17936590244062 73.58155112992972,144.524161827052 85.07094692066312,147.00690390076488 88.90074551850557,136.33109449595213 81.24114832282066,115.97244068630971 69.96451912075281,112.49655545060523 64.64535440225154,121.93108920590021 72.94325136300176,144.02761309896596 84.21988056600094,147.00690390076488 88.90074551850557,137.8207452117931 79.96454879175872,114.9793311401736 71.2411186536774,112.49655545060523 64.432587813586,120.93798216222785 72.517718186602,143.28278981195763 82.73051444534212,147.25517796445638 89.11351210717112,137.8207452117931 80.3900819690898,115.22760856547393 70.17728570848703,112.74483313714154 64.00705463718623,121.68281248398125 72.73048477433622,143.77933869650587 81.87944808974862,147.75172601430677 89.32627869490534,138.31729524233378 81.45391491241753,116.22071800776757 71.02835206501186,112.74483313714154 64.432587813586,121.43453573668376 72.30495159700513,143.03451533149928 82.94328103214502,147.25517796445638 89.11351210717112,137.32419507717714 80.8156151464209,115.22760856547393 70.17728570848703,112.99311079760082 64.00705463718623,121.93108920590021 73.79431771766394,145.02071044966578 83.79434738773853,147.00690390076488 89.11351210717112,136.33109449595213 81.24114832282066,115.22760856547393 70.81558547634631,112.49655545060523 64.432587813586,121.68281248398125 72.73048477433622,144.27588747628033 83.15604762174189,147.25517796445638 89.32627869490534,138.8138451683335 81.45391491241753,115.97244068630971 70.81558547634631,112.49655545060523 65.28365417011082,116.46899530291557 64.00705463718623,122.67591921566054 73.58155112992972,144.77243615104817 82.73051444534212,147.50345200207084 89.32627869490534,137.8207452117931 81.45391491241753,115.72416333854198 70.3900522980839,112.99311079760082 64.432587813586,122.17936590244062 72.94325136300176,144.27588747628033 83.36881421133876,147.25517796445638 89.32627869490534,138.8138451683335 80.8156151464209,115.47588596516289 70.17728570848703,112.74483313714154 64.00705463718623,122.17936590244062 72.73048477433622,144.27588747628033 84.0071139773354,147.25517796445638 89.32627869490534,137.07591997110285 80.60284855682403,114.9793311401736 69.75175253208727,113.24138843128458 64.432587813586,123.17247242527083 73.15601795259863,144.02761309896596 83.79434738773853,147.00690390076488 89.32627869490534,137.07591997110285 81.45391491241753,116.22071800776757 70.3900522980839,113.9862211770378 65.28365417011082,122.92419583396986 72.94325136300176,143.53106426727027 83.36881421133876,146.5103556937538 88.90074551850557,138.06902024010196 81.02838173415512,116.46899530291557 69.96451912075281,113.9862211770378 65.07088758051395,122.92419583396986 73.79431771766394,144.524161827052 84.0071139773354,146.5103556937538 88.6879789289087,136.08281928510405 80.60284855682403,115.72416333854198 69.75175253208727,113.73794362135231 65.07088758051395,123.42074899072759 73.36878454033285,143.77933869650587 83.15604762174189,147.00690390076488 88.47521233931184,137.57247015787289 82.09221467841417,118.7034897878766 78.68794925883412,116.46899530291557" stroke="#4DD2FF" stroke-linecap="round" stroke-linejoin="round" stroke-width="0.5"><title>2026-03-16 7.4km</title><desc>1773655562000</desc></polyline><polyline fill="none" points="111.99414659570903,117.7218924423214 116.08034001477063,140.60931806755252 125.47858487907797,147.0463649726007 133.85528138745576,139.6556799383834 129.56477829720825,117.00665667490102 119.96222376264632,112.0 112.40276593714952,120.34442166076042 116.48895935621113,142.0397745121736 124.86565586552024,148.0 131.4035653360188,145.139093717793 134.46821040008217,139.178860723041 130.38201698102057,117.96030431403778 125.06996553763747,112.23841247265227 118.53205606713891,112.0 112.19845626782626,121.05965637648478 117.91912705358118,144.66227565379813 125.68289454933256,148.0 132.83373303245753,144.42386658443138 134.67252007126808,138.22522199247032 130.17770731076598,118.9139515531715 122.8225591564551,112.0 113.22000462189317,117.48348054452799 116.69326902832836,140.370908573037 126.09151389170438,147.2847737672273 133.85528138745576,140.60931806755252 129.36046862602234,117.24506862228736 119.55360442120582,112.4768249206245 112.60707560926676,119.86759839113802 117.51050771120936,141.80136516713537 126.9087525755167,147.0463649726007 134.05959105864167,139.41727034351788 129.36046862602234,117.48348054452799 120.37084310501814,112.0 112.81138528045267,119.62918671942316 117.10188836883754,140.370908573037 125.68289454933256,147.0463649726007 133.85528138745576,139.8940895081032 129.97339763958007,118.43712798366323 125.06996553763747,112.71523734321818 118.12343672383577,112.71523734321818 113.01569494977593,118.19871616107412 116.89757869858295,139.8940895081032 124.86565586552024,147.0463649726007 130.58632665220648,145.3775027121883 134.05959105864167,139.41727034351788 129.36046862602234,117.00665667490102 122.41393981408328,112.0 115.87603034451604,113.90729908249341 112.81138528045267,120.10601003840566 117.51050771120936,141.5629557974171 126.50013323314488,146.8079561535269 133.85528138745576,140.84772753808647 129.36046862602234,117.00665667490102 120.98377211764455,112.23841247265227 112.81138528045267,119.62918671942316 117.10188836883754,140.84772753808647 126.29582356195897,146.56954730884172 133.65097171720117,139.178860723041 128.95184928458184,117.00665667490102 120.16653343383223,112.4768249206245 112.81138528045267,120.10601003840566 117.91912705358118,142.2781838318333 127.11306224577129,146.56954730884172 134.05959105864167,138.22522199247032 129.76908796839416,117.7218924423214 121.59670113027096,112.0 115.26310133002698,114.62253582500853 112.60707560926676,119.62918671942316 117.51050771120936,141.5629557974171 126.70444290526211,146.8079561535269 134.05959105864167,139.178860723041 129.15615895576775,116.76824470190331 121.18808178789914,112.23841247265227 114.85448198858649,115.09936019452289 112.60707560926676,120.82124482979998 116.69326902832836,140.370908573037 125.68289454933256,146.8079561535269 133.85528138745576,140.60931806755252 129.56477829720825,117.24506862228736 120.37084310501814,112.0 115.6717206723988,113.43047446128912 112.60707560926676,120.58283325773664 117.51050771120936,141.5629557974171 126.50013323314488,146.56954730884172 134.05959105864167,138.70204140804708 129.36046862602234,116.76824470190331 121.18808178789914,112.0 112.81138528045267,118.9139515531715 116.89757869858295,140.60931806755252 125.88720422051847,146.8079561535269 134.05959105864167,139.41727034351788 129.56477829720825,117.48348054452799 123.84410751052201,112.23841247265227 117.10188836883754,113.19206211389974 113.01569494977593,118.9139515531715 117.71481738239527,135.84112341399305" stroke="#4DD2FF" stroke-linecap="round" stroke-linejoin="round" stroke-width="0.5"><title>2026-03-13 6.0km</title><desc>1773408957000</desc></polyline><polyline fill="none" points="160.50732883997262,113.25875037512742 157.91841852292418,123.3287295922637 167.6268322095275,145.98602825473063 178.6297010537237,146.48952134908177 182.72880905494094,136.671386934584 173.66762294713408,114.26575019955635 163.52772420737892,112.2517501283437 157.27119094412774,121.56648628064431 167.41108968295157,145.98602825473063 179.06118610687554,146.23777481517754 182.72880905494094,136.16789177828468 173.88336547464132,115.02099978993647 163.31198168173432,112.75525030470453 158.1341610495001,123.0769806264434 167.84257473610342,145.73428166704252 177.55098842270672,146.48952134908177 182.08158147521317,136.41963936924003 173.66762294713408,115.02099978993647 166.97960463073105,112.2517501283437 159.86010126024485,114.76924995239824 157.27119094412774,122.06998450146057 166.11663452535868,144.2238015900366 174.9620781056583,147.2447607938666 182.2973240017891,138.4336191471666 174.0991079993546,116.02799887442961 165.25366441905499,112.50350022991188 157.91841852292418,120.81123875151388 165.25366441905499,142.96506746509112 176.04079073760659,146.7412678571418 182.08158147521317,138.6853665006347 173.66762294713408,115.27274960046634 165.03792189247906,112.50350022991188 157.91841852292418,121.56648628064431 165.46940694469959,142.96506746509112 175.60930568538606,146.99301433912478 182.2973240017891,138.4336191471666 173.88336547464132,115.27274960046634 163.0962391551584,113.00700035295449 158.1341610495001,122.82523163524456 166.11663452535868,143.46856119390577 176.90376084297895,146.7412678571418 182.08158147521317,137.6783769284375 173.23613789491355,114.76924995239824 165.25366441905499,112.2517501283437 158.1341610495001,121.31473713065498 165.68514947220683,142.71332056168467 170.2157425256446,146.7412678571418 177.11950336955488,146.7412678571418 182.08158147521317,136.92313447222114 174.0991079993546,116.02799887442961 163.9592092614621,112.75525030470453 158.34990357607603,122.82523163524456 166.97960463073105,144.72729505435564 175.17782063316554,147.2447607938666 182.08158147521317,138.18187176738866 173.88336547464132,115.77624914329499 163.9592092614621,113.00700035295449 158.1341610495001,121.81823540455662 166.54811957851052,143.72030801931396 175.60930568538606,147.2447607938666 182.08158147521317,137.9301243617665 174.53059305250645,117.03499753563665 165.90089199878275,112.50350022991188 158.56564610265195,120.81123875151388 165.68514947220683,143.2168143428862 176.4722757898271,146.7412678571418 181.86583894956857,137.42662946972996 173.88336547464132,116.02799887442961 163.74346673395485,113.00700035295449 158.34990357607603,122.57348261750303 166.97960463073105,144.47554833558388 177.98247347492725,145.98602825473063 182.08158147521317,137.42662946972996 173.88336547464132,115.27274960046634 167.84257473610342,112.0 161.58604147098958,114.01400028332137 158.34990357607603,122.06998450146057 166.7638621032238,144.2238015900366 176.2565332641825,146.7412678571418 182.08158147521317,138.18187176738866 173.23613789491355,114.76924995239824 166.97960463073105,112.2517501283437 161.15455641876906,114.51750008924864 158.34990357607603,120.81123875151388 166.11663452535868,148.0 177.33524589519948,146.48952134908177 182.08158147521317,138.18187176738866 173.02039536833763,114.26575019955635 162.66475410293788,113.51050037075765 157.91841852292418,122.06998450146057 166.7638621032238,144.47554833558388 177.33524589519948,146.48952134908177 182.51306652929634,137.42662946972996 173.23613789491355,114.51750008924864 162.23326905071735,113.25875037512742 157.91841852292418,122.32173357275315 167.19534715637565,144.72729505435564 177.55098842270672,146.48952134908177 182.2973240017891,136.671386934584 173.66762294713408,115.02099978993647 163.31198168173432,113.25875037512742 157.91841852292418,123.0769806264434 165.90089199878275,143.2168143428862 176.04079073760659,146.99301433912478 182.2973240017891,137.9301243617665 174.0991079993546,116.27974857925437 163.74346673395485,113.00700035295449 158.1341610495001,122.57348261750303 165.90089199878275,147.4965072227642" stroke="#4DD2FF" stroke-linecap="round" stroke-linejoin="round" stroke-width="0.5"><title>2026-03-12 7.1km</title><desc>1773318933000</desc></polyline><polyline fill="none" points="25.77041078079492,157.22585005743895 19.965092244558036,166.3226648288546 25.936277024447918,183.93551906489301 33.40025800000876,188.0 40.034907755441964,179.8710291722091 33.89785673189908,161.87103767495137 26.599741999991238,158.58069765474647 20.130958488211036,166.70976233435795 26.599741999991238,184.12906597950496 34.89305419381708,187.0322672566399 40.034907755441964,178.90329216315877 33.06852551177144,160.9032912198454 25.272812048904598,159.16134632006288 21.457888439297676,162.2581361150369 20.296824731864035,167.67750574252568 26.268009511753917,184.12906597950496 33.40025800000876,187.61290696344804 38.87384404800832,183.74197213049047 40.034907755441964,179.67748181137722 34.06372297462076,162.4516853048699 26.433875755406916,158.9677967854077 20.296824731864035,166.70976233435795 26.102143268100917,183.74197213049047 34.7271879510954,187.0322672566399 39.869041511788964,179.09683960536495 33.56612424366176,162.8387836230686 24.941079560667276,160.32264310284518 20.960289707407355,168.45170010370202 26.93147448822856,184.12906597950496 34.39545546285808,186.83872064680327 39.37144277989864,179.8710291722091 33.56612424366176,162.8387836230686 26.268009511753917,159.935544256703 20.960289707407355,166.3226648288546 27.09734073188156,184.12906597950496 35.0589204384014,186.64517401705962 39.703175268135965,179.8710291722091 33.23439175635576,162.4516853048699 26.268009511753917,159.74199480260722 20.960289707407355,166.3226648288546 26.76560824457556,183.93551906489301 34.7271879510954,186.4516273663612 39.37144277989864,179.48393442935776 33.73199048731476,163.41943094762973 25.936277024447918,160.32264310284518 21.126155951991677,167.29040844016708 27.429073219187558,184.51615974737797 35.22478668298572,186.06453400512692 39.20557653531432,179.48393442935776 33.06852551177144,162.6452344743302 25.936277024447918,160.32264310284518 20.960289707407355,167.67750574252568 26.599741999991238,183.16133120504674 33.56612424366176,186.64517401705962 39.37144277989864,180.06457651313394 33.06852551177144,162.4516853048699 25.77041078079492,160.32264310284518 21.126155951991677,166.9033110565506 27.26320697646588,183.74197213049047 34.7271879510954,186.25808069563936 39.20557653531432,179.67748181137722 32.73679302446544,162.6452344743302 25.60454453714192,160.32264310284518 20.960289707407355,167.67750574252568 27.429073219187558,184.32261287339497 34.39545546285808,186.4516273663612 39.20557653531432,179.48393442935776 32.90265926811844,162.4516853048699 25.77041078079492,160.51619249535725 21.126155951991677,167.09685975848697 27.09734073188156,184.12906597950496 35.39065292663872,186.06453400512692 39.039710292592645,178.90329216315877 32.90265926811844,162.2581361150369 26.268009511753917,160.12909369007684 21.955487170256674,163.22588185977656 21.126155951991677,167.48395710124169 26.93147448822856,183.548425175366 33.89785673189908,186.4516273663612 39.039710292592645,179.8710291722091 32.90265926811844,162.4516853048699 24.941079560667276,160.51619249535725 21.126155951991677,167.67750574252568 27.429073219187558,184.32261287339497 33.89785673189908,186.64517401705962 39.37144277989864,181.03231291275006 33.40025800000876,163.03233275131788 26.268009511753917,160.12909369007684 20.960289707407355,166.70976233435795 26.76560824457556,183.548425175366 34.89305419381708,186.25808069563936 39.20557653531432,179.8710291722091 33.40025800000876,163.22588185977656 27.09734073188156,160.12909369007684 20.960289707407355,166.3226648288546 26.76560824457556,183.35487820080016 33.40025800000876,186.64517401705962 37.71278034057468,184.32261287339497 39.039710292592645,179.8710291722091 33.40025800000876,163.22588185977656 25.272812048904598,160.51619249535725 20.960289707407355,167.67750574252568 26.93147448822856,183.93551906489301 35.39065292663872,186.25808069563936 39.20557653531432,179.48393442935776 33.73199048731476,164.00007808976807 27.09734073188156,159.35489583492745 25.272812048904598,152.0" stroke="#4DD2FF" stroke-linecap="round" stroke-linejoin="round" stroke-width="0.5"><title>2026-03-10 7.0km</title><desc>1773146401000</desc></polyline><polyline fill="none" points="83.76547958143055,156.98282919748453 85.20659197750501,160.34621525008697 84.77959571196698,161.09363178367494 69.56785375182517,166.6369416891248 69.51447921898216,168.31860973662697 72.55682761105709,174.23555201775162 68.44698855513707,176.41546324820956 68.92735935375094,178.53308363235556 67.05925069190562,179.84102185902884 66.52550535998307,181.64721752813784 68.87398482044227,187.25261735677486 70.52859534951858,188.0 72.2899549449794,187.3771811958286 72.9838238763623,185.13502808916382 70.7420934822876,179.46732551715104 67.85986868990585,179.2804772577947 66.8457525591366,181.46036995510804 68.7672357542906,186.81664371333318 70.15497361705638,187.75087255676044 71.64946054667234,187.50174500897992 72.77032574336044,185.19731023418717 70.68871894897893,179.6541737174848 68.12674135575071,179.2804772577947 66.8457525591366,181.58493501023622 68.87398482044227,187.00348959985422 71.48933694697917,187.68859067972517 72.87707481021062,185.3218745048507 70.79546801536344,179.9655872542644 68.18011588882655,179.34276001743274 66.8457525591366,181.70950003928738 68.92735935375094,187.06577154877596 71.70283507974818,187.56402690563118 72.87707481021062,185.44643874943722 70.7420934822876,179.84102185902884 68.12674135575071,179.34276001743274 66.89912709244527,181.83406504214508 68.92735935375094,187.12805349123664 71.32921334751882,187.68859067972517 72.82370027690195,185.3218745048507 70.79546801536344,179.90330455993535 68.18011588882655,179.34276001743274 66.79237802582793,181.52265248587355 69.46110468567349,187.50174500897992 71.54271148028784,187.6263087958796 72.82370027690195,186.13154162676074 70.15497361705638,179.34276001743274 67.64637055713683,179.6541737174848 66.95250162575394,182.02091249730438 69.08748295321129,187.25261735677486 71.96970774582587,187.31489927961957 72.77032574336044,185.0727459373884 70.47522081620991,179.59189099061769 68.0199922893662,179.46732551715104 66.89912709244527,181.83406504214508 69.03410842013545,187.12805349123664 70.68871894897893,187.81315442745108 72.02308227890171,187.31489927961957 72.82370027690195,185.3218745048507 70.3684717498254,179.5296082572313 68.50036308821291,179.09362893970683 67.21937429136597,180.2147179658059 67.64637055713683,183.70253694651183 69.51447921898216,187.4394631058094 71.75620961282402,187.4394631058094 72.77032574336044,186.13154162676074 70.20834815036505,179.46732551715104 67.85986868990585,179.5296082572313 66.89912709244527,181.70950003928738 68.87398482044227,186.9412076441804 71.70283507974818,187.50174500897992 72.77032574336044,185.0104637791519 70.52859534951858,179.71645643783268 68.7672357542906,179.09362893970683 67.53962149075232,179.84102185902884 66.95250162575394,181.3358048738446 67.43287242460065,183.20427834719885 69.62122828513384,187.56402690563118 71.64946054667234,187.56402690563118 72.77032574336044,186.0692595798173 70.20834815036505,179.46732551715104 68.0199922893662,179.4050427704933 66.89912709244527,181.58493501023622 68.82061028736643,186.81664371333318 71.59608601336367,187.50174500897992 72.77032574336044,185.44643874943722 70.42184628290124,179.59189099061769 68.7672357542906,179.15591171901906 67.53962149075232,179.7787391517777 67.16599975829013,182.456889664114 68.98073388682678,186.9412076441804 70.52859534951858,187.75087255676044 72.12983134551905,187.12805349123664 72.77032574336044,185.3218745048507 70.31509721674956,179.5296082572313 68.12674135575071,179.4050427704933 66.95250162575394,180.89982688351301 68.66048668767326,186.31838772876654 70.68871894897893,187.75087255676044 72.77032574336044,185.9446954660234 71.06234068167396,180.46384857292287 68.82061028736643,179.2181944916374 67.37949789129198,179.9655872542644 66.89912709244527,181.3358048738446 68.71386122098193,186.62979776842985 70.90221708174795,187.75087255676044 72.77032574336044,185.9446954660234 71.00896614836529,180.40156593103893 68.87398482044227,179.15591171901906 66.89912709244527,181.21123976656236 68.55373762128875,186.31838772876654 70.7420934822876,187.75087255676044 72.71695121051744,186.25610570143908 70.42184628290124,179.6541737174848 67.91324322321452,179.5296082572313 66.89912709244527,181.58493501023622 68.98073388682678,187.00348959985422 71.70283507974818,187.4394631058094 72.71695121051744,185.3218745048507 70.58196988282725,179.84102185902884 68.3936140218284,179.2804772577947 66.95250162575394,181.46036995510804 69.03410842013545,187.00348959985422 71.32921334751882,187.6263087958796 72.77032574336044,185.25959237269126 70.79546801536344,180.09015262307366 68.28686495544389,179.34276001743274 66.89912709244527,181.70950003928738 69.46110468567349,187.50174500897992 71.38258788036183,187.6263087958796 72.77032574336044,186.00697752606357 70.95559161482379,180.3392832824029 69.08748295321129,179.5296082572313 68.18011588882655,176.78916151210433 71.4359624136705,174.54696839803364 71.64946054667234,173.48815203789854 70.04822455067188,170.18712419946678 69.67460281844251,166.88607799680904 84.40597397973761,161.15591645240784 85.95383544242941,163.8964353997144 83.33848331589252,168.25632581999525 85.84708637581207,163.83415101864375 82.96486158343032,154.4914198295446 83.8188541145064,153.24571122258203 86.80782797350548,153.05885470594512 85.58021370996721,152.0 86.75445344019681,152.24914245377295" stroke="#4DD2FF" stroke-linecap="round" stroke-linejoin="round" stroke-width="0.5"><title>2026-03-09 9.6km</title><desc>1773060645000</desc></polyline><polyline fill="none" points="113.78957495186478,156.40290588815697 118.89437594637275,185.151098274393 129.10397793632,187.22302712779492 133.76488319318742,177.64034159481525 128.43813432753086,155.36692873947322 117.78463659994304,152.517989335116 112.67983560543507,160.54681013640948 118.22853233851492,184.37412450602278 128.43813432753086,187.48201811267063 133.9868310606107,178.9353012740612 128.6600821968168,155.88491736794822 118.89437594637275,152.0 112.67983560543507,160.02882248605601 118.22853233851492,184.11513319495134 128.21618645824492,187.48201811267063 133.9868310606107,178.67630939232185 128.88203006703407,156.40290588815697 118.45048020873219,152.258994681295 112.67983560543507,159.76982861943543 117.78463659994304,183.3381590996869 127.5503428503871,187.74100907007232 133.9868310606107,179.4532849555835 128.6600821968168,156.1439116410911 119.56021955423057,152.0 112.67983560543507,160.2878163245041 118.00658446922898,183.85614185687155 127.77229071967304,187.74100907007232 133.9868310606107,179.9712685283739 128.88203006703407,156.40290588815697 118.45048020873219,152.258994681295 112.67983560543507,160.2878163245041 118.22853233851492,184.37412450602278 127.5503428503871,187.74100907007232 133.9868310606107,179.7122767549008 128.6600821968168,155.88491736794822 118.89437594637275,152.0 112.67983560543507,159.51083472603932 117.5626887306571,183.0791676803492 127.77229071967304,187.74100907007232 133.9868310606107,178.9353012740612 128.88203006703407,156.1439116410911 118.00658446922898,152.517989335116 112.67983560543507,160.02882248605601 117.78463659994304,183.59715049201623 127.77229071967304,187.74100907007232 133.9868310606107,178.9353012740612 128.88203006703407,156.1439116410911 118.67242807615548,152.258994681295 112.67983560543507,160.02882248605601 118.45048020873219,184.37412450602278 127.99423858895898,187.74100907007232 133.9868310606107,179.19429312855937 128.6600821968168,155.88491736794822 117.78463659994304,152.517989335116 112.67983560543507,160.2878163245041 117.78463659994304,183.59715049201623 127.32839498110116,187.74100907007232 133.9868310606107,178.67630939232185 128.43813432753086,155.36692873947322 117.5626887306571,152.517989335116 112.67983560543507,161.06479767756537 119.11632381659001,185.151098274393 128.6600821968168,187.48201811267063 133.9868310606107,179.19429312855937 128.43813432753086,155.62592306709848 117.78463659994304,152.517989335116 112.67983560543507,160.02882248605601 117.78463659994304,183.3381590996869 127.32839498110116,187.74100907007232 133.9868310606107,179.7122767549008 128.88203006703407,156.40290588815697 119.33827168494463,152.0 112.67983560543507,159.76982861943543 117.78463659994304,183.59715049201623 127.5503428503871,187.74100907007232 133.9868310606107,179.7122767549008 129.10397793632,156.40290588815697 119.11632381659001,152.0 112.67983560543507,160.02882248605601 117.5626887306571,182.820176234236 126.44060350395739,188.0 133.9868310606107,179.9712685283739 129.10397793632,156.6619001077488 119.33827168494463,152.0 112.67983560543507,159.51083472603932 118.00658446922898,183.85614185687155 127.77229071967304,187.74100907007232 133.9868310606107,178.9353012740612" stroke="#4DD2FF" stroke-linecap="round" stroke-linejoin="round" stroke-width="0.5"><title>2026-03-07 5.8km</title><desc>1772888148000</desc></polyline><polyline fill="none" points="157.46066397521645,161.05811966047622 164.02888760808855,182.8903582454659 174.1797786746174,187.07097510341555 180.54896522592753,178.709733489668 174.97592699341476,156.64519420149736 165.8202213253826,152.92903962079436 158.65488645341247,159.89682434033602 163.63081344775856,182.19358800142072 173.38363035488874,187.07097510341555 180.3499281462282,178.9419906276744 174.97592699341476,157.34197249123827 165.62118424568325,153.16129946429282 158.85392353404313,161.05811966047622 163.4317763671279,182.19358800142072 171.9903707979247,187.53548760013655 179.95185398776084,179.87101893639192 175.3740011518821,158.2710098682437 164.8250359268859,153.39355928450823 159.0529606146738,160.82586064538918 163.63081344775856,181.49681753804907 170.19903707969934,187.07097510341555 176.17014947067946,185.67743702884763 179.75281690713018,180.33553294464946 174.97592699341476,157.80649122828618 168.60674044117332,153.39355928450823 156.86355273704976,156.87745365593582 162.2375538898632,180.33553294464946 170.19903707969934,187.07097510341555 176.96629779040813,185.44518059748225 180.15089106559753,179.87101893639192 176.17014947067946,158.73552841087803 165.8202213253826,153.16129946429282 159.0529606146738,160.59360160608776 163.8298505274579,182.42584477365017 172.5874820370227,187.3032313643489 180.3499281462282,178.9419906276744 175.3740011518821,157.57423187186942 166.0192584041506,153.16129946429282 159.0529606146738,161.75489656045102 164.02888760808855,183.3548716204241 174.1797786746174,187.3032313643489 180.3499281462282,179.17424774100073 175.57303823251277,157.57423187186942 166.81540672387928,153.16129946429282 160.84429433196783,156.64519420149736 159.0529606146738,161.98715547821485 164.22792468685657,182.8903582454659 173.7817045142874,186.8387188189663 179.95185398776084,180.56778991175815 175.1749640731141,157.80649122828618 165.4221471650526,153.39355928450823 158.85392353404313,162.45167324040085 164.02888760808855,183.3548716204241 167.61155504267663,186.8387188189663 175.57303823251277,186.606462509837 181.54415062535554,178.9419906276744 176.36918655131012,157.80649122828618 172.5874820370227,152.696779752383 168.00962920300663,152.46451985905878 159.2519976934418,158.73552841087803 163.23273928835988,182.42584477365017 173.1845932751894,187.53548760013655 180.54896522592753,178.2452191398479 175.97111239284277,158.73552841087803 166.21829548478127,153.62581907981075 159.2519976934418,161.29037865134887 163.8298505274579,182.8903582454659 172.78651911672205,187.53548760013655 180.15089106559753,179.17424774100073 175.3740011518821,158.2710098682437 166.61636964324862,153.39355928450823 159.0529606146738,160.36134254164062 164.02888760808855,182.8903582454659 172.5874820370227,187.53548760013655 179.95185398776084,179.40650483081117 174.77688991371542,156.1806752202101 165.4221471650526,153.39355928450823 159.0529606146738,160.36134254164062 164.02888760808855,183.12261494528502 172.78651911672205,187.3032313643489 180.15089106559753,179.6387618954759 175.7720753122121,158.2710098682437 167.4125179629773,152.696779752383 159.0529606146738,159.89682434033602 163.8298505274579,181.9613312049769 170.995185399428,188.0 179.95185398776084,181.49681753804907 176.17014947067946,159.20004685595632 168.20866628177464,152.0 159.84910893253982,157.57423187186942 162.43659096956253,179.6387618954759 167.01444380357862,186.8387188189663 175.1749640731141,186.606462509837 183.13644726295024,177.54844743316062" stroke="#4DD2FF" stroke-linecap="round" stroke-linejoin="round" stroke-width="0.5"><title>2026-03-03 6.2km</title><desc>1772541737000</desc></polyline><polyline fill="none" points="21.538086941465735,213.80579324893188 22.595826073549688,221.8286183917662 26.47420289181173,226.5600126956124 33.52579710818827,227.17715024144854 38.63820291403681,222.0343314249767 35.641275372356176,202.28578176232986 28.942260866984725,196.1143191830488 22.94840578455478,197.76004443748388 19.598898531869054,203.10864197160117 23.124695640057325,222.24004443641752 25.76904347166419,226.14858755795285 32.29176811967045,227.58857516397256 38.63820291403681,220.59433973836713 34.40724638476968,200.84577556489967 27.355652169324458,196.1143191830488 21.538086941465735,199.2000529016368 19.598898531869054,203.72578690119553 23.65356520563364,223.0628962678602 27.531942024827003,226.97143774759024 33.349507252685726,226.97143774759024 38.28562320396304,219.56577359919902 34.23095652926713,201.46292120788712 25.592753615230322,196.52575062564574 19.775188388302922,204.54864650580566 25.76904347166419,226.5600126956124 34.23095652926713,226.97143774759024 38.9907826250419,220.59433973836713 34.583536240272224,201.0514908010373 27.355652169324458,196.1143191830488 22.066956507973373,198.78862201992888 19.598898531869054,204.54864650580566 23.829855061136186,223.2686091719661 27.003072458319366,228.0 31.58660869859159,227.38286271377 38.28562320396304,219.77148687071167 34.23095652926713,200.84577556489967 25.76904347166419,196.32003491534851 19.422608676366508,203.52007194596808 23.65356520563364,223.0628962678602 30.528869565576315,227.38286271377 38.10933334752917,220.18291334749665 33.87837681826204,200.43434502906166 26.12162318173796,196.73146631533746 19.598898531869054,204.34293163730763 24.182434772141278,223.47432205383666 32.64434783067554,226.97143774759024 38.28562320396304,219.97720011952333 33.87837681826204,200.6400603079237 25.76904347166419,196.32003491534851 19.775188388302922,203.52007194596808 23.65356520563364,222.24004443641752 31.93918840959668,226.76572523266077 38.10933334752917,220.18291334749665 34.05466667376459,200.6400603079237 25.76904347166419,196.73146631533746 19.775188388302922,204.75436135276686 24.006144916638732,222.85718334221747 32.11547826509923,227.17715024144854 38.10933334752917,218.74292029999197 33.70208696369082,200.43434502906166 25.240173905156553,196.52575062564574 19.775188388302922,204.1372167469235 24.182434772141278,223.2686091719661 32.64434783067554,226.97143774759024 38.10933334752917,219.56577359919902 34.05466667376459,201.0514908010373 25.416463759727776,196.93718198267743 19.598898531869054,203.52007194596808 24.3587246267125,223.88574775354937 32.29176811967045,226.97143774759024 38.10933334752917,219.97720011952333 33.87837681826204,200.84577556489967 25.240173905156553,197.55432885640766 20.65663766488433,201.46292120788712 19.951478242874146,205.98864998226054 24.006144916638732,224.5028861410683 33.349507252685726,227.79428759252187 38.9907826250419,219.77148687071167 34.40724638476968,200.02291440637782 26.12162318173796,196.1143191830488 19.246318821795285,203.72578690119553 23.65356520563364,223.47432205383666 27.70823188032955,226.97143774759024 33.70208696369082,226.76572523266077 38.28562320396304,218.12578009895515 33.17321739718318,198.99433747166768 23.477275350131094,196.93718198267743 19.422608676366508,205.1657909823116 26.47420289181173,227.58857516397256 35.28869566228241,226.97143774759024 40.75368117913604,216.274358329596 34.05466667376459,199.40576830971986 21.185507231391966,192.0" stroke="#4DD2FF" stroke-linecap="round" stroke-linejoin="round" stroke-width="0.5"><title>2026-03-02 6.1km</title><desc>1772458755000</desc></polyline><polyline fill="none" points="69.5169660677202,215.40990968915867 69.44510978041217,218.09382805478526 68.439121756237,218.34544493909925 64.05588822392747,217.75833875266835 60.822355289477855,215.57765485125128 58.666666666511446,202.07405649137218 59.16966067859903,199.1384614018025 88.0558882234618,196.7899775565602 90.57085828389972,197.9642203428666 91.64870259491727,202.24180445616366 91.28942115791142,209.11944065848365 94.66666666651145,215.24216449150117 93.66067864280194,219.85514457843965 88.63073852332309,223.12615066865692 80.65469061909243,222.622919834801 74.33133732527494,218.6809339944739 65.99600798403844,218.34544493909925 61.9001996004954,216.66799754666863 60.534930139780045,214.2356925663189 58.666666666511446,200.39657490496757 60.31936127739027,198.38359234802192 90.06786427181214,197.3770991655765 91.64870259491727,201.82243447820656 91.07385229552165,209.11944065848365 94.45109780458733,216.83574244455667 92.79840319370851,220.77773739682743 88.91816367255524,223.04227888514288 80.22355289431289,222.53904799825978 74.40319361258298,218.84867846948327 69.80439121788368,218.2615726533113 69.37325349310413,216.83574244455667 69.30139720579609,218.2615726533113 67.4331337325275,218.42931721609784 62.25948103796691,216.91961488017114 60.60678642755374,214.90667399088852 58.666666666511446,200.14495236298535 60.31936127739027,198.38359234802192 89.99600798403844,197.29322467651218 91.64870259491727,201.9063084916561 91.07385229552165,208.8678208659403 94.45109780458733,216.75186999992002 92.15169660700485,221.5325852733804 87.91217564884573,223.21002244349802 80.58283433131874,222.53904799825978 74.90618762513623,219.10029511561152 65.13373253494501,218.17770035844296 61.46906187618151,216.24863514781464 58.666666666511446,201.319190213806 59.74451097799465,198.635215445247 90.06786427181214,197.3770991655765 91.7205588822253,200.98369386140257 91.21756487013772,209.0355674030725 94.37924151681364,216.33250764512923 92.22355289431289,221.4487133222283 88.48702594777569,223.21002244349802 81.37325349310413,222.87453529139748 74.54690618766472,219.01642290892778 69.66067864280194,218.34544493909925 76.27145708585158,220.190632999409 69.58882235502824,218.17770035844296 69.80439121788368,212.3066178293666 72.75049900170416,212.05499904160388 72.60678642708808,213.22921937220963" stroke="#4DD2FF" stroke-linecap="round" stroke-linejoin="round" stroke-width="0.5"><title>2026-02-27 6.1km</title><desc>1772195478000</desc></polyline><polyline fill="none" points="119.27345309406519,212.30661831400357 116.39920159708709,212.55823707510717 115.96806387184188,218.1777020767331 111.2255489025265,217.7583403828903 107.77644710568711,215.66152860893635 105.33333333348855,201.57081061444478 106.05189620750025,198.88683612796012 136.44710578769445,197.12547296629054 138.38722554873675,201.99018081265967 137.74051896156743,208.44845404312946 141.26147704571486,216.5002539793495 139.8962075849995,220.44225141673815 136.37524950085208,222.87453799665673 128.6147704590112,222.70679433242185 121.06986027956009,218.59706355025992 111.58483033953235,218.00995742558734 108.71057884255424,216.5002539793495 107.41716566868126,215.24216559296474 105.33333333348855,201.3191883895779 107.05788423167542,198.2158410960692 136.73453093785793,197.4609710110817 138.45908183557913,201.40306247322587 137.9560878239572,208.9516939187888 141.26147704571486,215.4937834290322 140.902195608709,218.76480807800544 138.89021956082433,221.61645965639036 136.23153692577034,223.04228162555955 129.26147704618052,223.1261534266523 120.35129740508273,218.4293189875316 109.71656686626375,217.33897846878972 107.41716566868126,214.82280235690996 105.47704590857029,201.99018081265967 105.62075848318636,199.7255791243515 107.20159680629149,198.38358990690904 136.80638722563162,197.20934749062872 138.38722554873675,202.2418028258253 137.74051896156743,208.19683398655616 141.26147704571486,215.4937834290322 139.75249500991777,220.7777396615711 135.94411177607253,222.95840981556103 128.90219560824335,222.95840981556103 120.78243512986228,218.59706355025992 110.00399201596156,217.42285086907214 107.20159680629149,213.39696570648812 105.40518962079659,201.4869365482591 106.4830339322798,198.55133868253324 135.80039920145646,196.78997478069505 138.24351297412068,200.98369196651038 138.0279441117309,209.87429953279207 141.33333333348855,216.5002539793495 138.24351297412068,221.95194740773877 134.43512974027544,223.21002521924675 127.75249500991777,222.6229224872659 120.6387225552462,218.59706355025992 110.65069860313088,217.84221273940057 107.34530938183889,214.73892968340078 105.40518962079659,201.4869365482591 106.62674650689587,198.55133868253324 136.08782435115427,196.87384934030706 138.53093812335283,201.73855872033164 137.74051896156743,208.70007402054034 141.18962075840682,215.82927375327563 139.17764471005648,221.19709976913873 135.72854291414842,223.04228162555955 130.05189620750025,223.04228162555955 120.85429141717032,218.59706355025992 116.6147704590112,218.26157438900555 116.6147704590112,212.3904912431608 119.560878243763,212.3904912431608" stroke="#4DD2FF" stroke-linecap="round" stroke-linejoin="round" stroke-width="0.5"><title>2026-02-22 7.4km</title><desc>1771753684000</desc></polyline><polyline fill="none" points="165.58083832310513,212.47436140535865 163.28143712552264,212.30661555565894 162.27544910134748,218.42931622918695 157.67664670664817,217.84220998105593 154.37125748489052,215.74539842718514 152.0,201.99017805431504 152.50299401208758,199.390079273202 182.97005987958983,197.20934473228408 185.0538922152482,201.738555961987 184.5508982031606,209.11943771503866 187.9281437122263,215.74539842718514 186.0598802389577,221.02935299405362 182.25149700557813,223.04227886721492 175.71257484983653,222.8745352383121 168.02395209530368,218.84867757029133 156.7425149702467,217.67446525924606 154.29940119758248,215.57765326503431 152.07185628730804,202.91279171506176 152.35928143700585,199.64170210593147 153.72455089818686,198.71908466448076 183.1856287419796,197.1254702079459 185.0538922152482,201.57080785610015 184.62275449046865,209.6226771674701 187.85628742491826,215.74539842718514 185.98802395164967,221.11322500690585 182.61077844258398,223.04227886721492 175.5688622747548,222.8745352383121 167.3772455090657,218.68093306029914 156.23952095769346,217.17123088304652 154.29940119758248,215.40990806743503 152.14371257508174,202.577295961848 152.21556886238977,199.64170210593147 153.65269461041316,198.4674615408876 182.97005987958983,196.95772113272687 184.9820359274745,201.57080785610015 184.69461077824235,209.45493071863893 188.0,216.4163787237485 186.1317365267314,220.86160894221393 180.52694610739127,223.04227886721492 175.2095808382146,222.79066341056023 167.3772455090657,218.59706079191528 159.2574850297533,218.17769931838848 154.94610778428614,216.33250621741172 152.14371257508174,202.577295961848 152.35928143700585,199.30620497796917 156.59880239516497,198.21583833772456 183.40119760436937,197.29321924818214 185.12574850209057,202.07405206776457 184.40718562807888,209.03556444199057 188.0,216.08088864589809 185.7724550892599,221.36484099220252 182.39520958065987,222.9584070572164 176.14371257461607,222.8745352383121 167.95209580799565,218.7648053196608 163.28143712552264,218.17769931838848 163.35329341283068,211.8872507775086 167.52095808368176,213.31309012463316" stroke="#4DD2FF" stroke-linecap="round" stroke-linejoin="round" stroke-width="0.5"><title>2026-02-17 6.0km</title><desc>1771315721000</desc></polyline><polyline fill="none" points="25.99599198391661,252.90532582823653 23.326653306372464,252.40007161378162 22.533066132105887,258.3788927356363 17.771543086040765,257.95785045454977 14.52505010040477,255.9368444265565 12.072144288569689,242.12650016514817 12.57715430855751,239.01071886211867 42.805611222051084,236.7370329683181 45.258517033886164,241.95807986380532 44.75350701389834,249.03170204354683 48.0,256.61051366874017 46.484969940036535,260.65251723118126 42.51703406777233,263.0103432289907 34.50901803560555,262.75771934667137 27.511022043880075,258.7157264012494 18.85370741505176,258.1262673935853 15.607214428950101,256.77893089089775 14.092184368986636,254.2526688433136 12.0,240.6107161793625 13.731462925672531,238.25282428099308 43.59919839678332,237.24229705776088 45.186372744850814,241.53702895576134 44.46492985961959,247.85276934917783 48.0,256.44209641125053 46.91783567098901,260.2314761446323 42.805611222051084,263.09455117193284 34.220440881792456,262.58930338086793 27.511022043880075,258.7157264012494 18.565130260307342,258.1262673935853 15.246492985635996,256.44209641125053 12.072144288569689,240.6107161793625 13.80360721424222,238.33703482506098 43.454909819643945,237.1580863984418 45.186372744850814,241.62123915506527 44.609218436758965,248.1053979297867 48.0,256.77893089089775 46.84569138241932,260.3156843795441 43.0941883767955,262.9261352769099 35.66332665318623,262.9261352769099 27.006012023892254,258.6315179980593 16.400801603216678,257.45259942521807 14.092184368986636,254.92633950116578 12.144288577139378,242.9686011407175 12.072144288569689,240.02124385518255 13.587174348533154,238.50545588764362 42.73346693394706,236.8212436720496 45.186372744850814,241.368608530669 44.82565130246803,249.03170204354683 48.0,256.02105311275227 46.05210420815274,261.24197438085685 42.94989979965612,263.0103432289907 36.88977955887094,263.2629670316819 27.438877755310386,258.7157264012494 23.182364729698747,258.3788927356363 23.254509017802775,252.40007161378162 26.212424849625677,252.65269876096863" stroke="#4DD2FF" stroke-linecap="round" stroke-linejoin="round" stroke-width="0.5"><title>2026-02-14 5.9km</title><desc>1771077344000</desc></polyline></svg>