<?xml version="1.0" encoding="utf-8" ?>
<svg baseProfile="full" height="200mm" version="1.1" viewBox="0,0,200,200" width="200mm" xmlns="http://www.w3.org/2000/svg" xmlns:ev="http://www.w3.org/2001/xml-events" xmlns:xlink="http://www.w3.org/1999/xlink"><defs /><rect fill="#1a1a1a" height="200" width="200" x="0" y="0" /><rect fill="#1a1a1a" height="200" width="180" x="10" y="0" /><text alignment-baseline="middle" fill="#e1ed5e" style="dominant-baseline: central; font-size:9.0px; font-family:Arial;" text-anchor="middle" x="100.0" y="100.0">2026</text><line stroke="#e1ed5e" stroke-width="0.3" x1="100.0" x2="100.0" y1="15.0" y2="10.0" /><path d="M 100.0 14.0 a86.0,86.0 0 0,1 42.46469731375804,11.215312516191453" fill="none" id="id1" stroke="none" /><text fill="#e1ed5e" style="font-size:6.75px; font-family:Arial;" text-anchor="middle"><textPath startOffset="22.20632615414155" xlink:href="#id1">January</textPath></text><line stroke="#e1ed5e" stroke-width="0.3" x1="143.23703022742887" x2="145.7803849466894" y1="26.81831364943548" y2="22.513508569990506" /><path d="M 143.74570117128098 25.957352633546492 a86.0,86.0 0 0,1 28.547481713284135,27.462654790039103" fill="none" id="id2" stroke="none" /><text fill="#e1ed5e" style="font-size:6.75px; font-family:Arial;" text-anchor="middle"><textPath startOffset="19.985693538727396" xlink:href="#id2">February</textPath></text><path d="M 112.77801427241765 83.33499621200491 l 9.762651288578084 -12.732386835427015 a37.04440820689035,37.04440820689035 0 0,0 0.5026881120165987,0.3923560449356652 l -9.980371955754112 12.562452401268127" fill="red" stroke="none" /><path d="M 113.6212207817346 84.01681056812373 l 3.572218247885361 -4.191653733747496 a26.50733186163359,26.50733186163359 0 0,0 0.3447293672733498,0.2989459102798547 l -3.643841413805475 4.129542830047971" fill="red" stroke="none" /><path d="M 113.89432698308785 84.25364557470407 l 6.351896553540469 -7.19856489102403 a30.600308657390297,30.600308657390297 0 0,0 0.39195937166710915,0.35190499393929553 l -6.474866912803567 7.088160888315437" fill="red" stroke="none" /><path d="M 114.16331599549186 84.49514656593476 l 29.99792478282221 -32.83930311459661 a65.47803188460809,65.47803188460809 0 0,0 0.8256222203654224,0.7673258742695482 l -30.55875488698248 32.31807265425242" fill="red" stroke="none" /><path d="M 114.42810811169701 84.74124197986012 l 21.42464738727583 -22.658099566375718 a52.18340891610313,52.18340891610313 0 0,0 0.6473644013366667,0.6227640411797304 l -21.811495032224915 22.285952438433686" fill="red" stroke="none" /><path d="M 114.68862486808459 84.99185889309783 l 7.355023241200052 -7.51501434884624 a31.51531300256715,31.51531300256715 0 0,0 0.38443309227519,0.3827822144045259 l -7.483292133642564 7.387296283791596" fill="red" stroke="none" /><path d="M 115.19652480421416 85.50635884689758 l 22.860704946591834 -21.80333058193493 a52.591091388558695,52.591091388558695 0 0,0 0.6191541125947377,0.6604704380440045 l -23.232626381157033 21.406590727012873" fill="red" stroke="none" /><path d="M 116.38621287248628 86.86637796730983 l 30.191676193369936 -24.198761894695544 a59.692601212653955,59.692601212653955 0 0,0 0.6357146038067548,0.8072929890058004 l -30.603744877770655 23.675476511736704" fill="red" stroke="none" /><path d="M 117.45458315368197 88.32363383020206 l 36.7846740036626 -24.607366404668802 a65.25646532349091,65.25646532349091 0 0,0 0.616528680229976,0.939015477591727 l -37.2027993192505 23.9705328630994" fill="red" stroke="none" /><line stroke="#e1ed5e" stroke-width="0.3" x1="172.23445277983987" x2="176.4835382374775" y1="55.19839476539836" y2="52.563006222186495" /><path d="M 173.08426987136738 54.67131705675599 a86.0,86.0 0 0,1 12.851231095245387,41.99856678651699" fill="none" id="id3" stroke="none" /><text fill="#e1ed5e" style="font-size:6.75px; font-family:Arial;" text-anchor="middle"><textPath startOffset="22.20632615414155" xlink:href="#id3">March</textPath></text><path d="M 118.03404312379186 89.2402003453031 l 27.266152413208317 -16.268029044108538 a52.750461987194214,52.750461987194214 0 0,0 0.4585279287134789,0.7837728641832308 l -27.542140016392125 15.796276767571412" fill="red" stroke="none" /><path d="M 118.21658344932153 89.55222093294921 l 28.38304047952981 -16.278559423958907 a53.7198484682003,53.7198484682003 0 0,0 0.45314574605095626,0.8060957188635245 l -28.6590438668732 15.787580195160588" fill="red" stroke="none" /><path d="M 118.73160827565052 90.50648371742162 l 21.564242228813242 -10.92914616343019 a45.17566501183686,45.17566501183686 0 0,0 0.3455722972534594,0.6966526641555639 l -21.74917453902011 10.556333910775676" fill="red" stroke="none" /><path d="M 118.89224826269711 90.83032412892265 l 27.55209963294521 -13.372882871785237 a51.626005134300925,51.626005134300925 0 0,0 0.3811518609884183,0.8028030250850653 l -27.778209687775387 12.89663743105963" fill="red" stroke="none" /><path d="M 119.196687751892 91.48605970444005 l 46.03223288009816 -20.41579711447045 a71.35644184954701,71.35644184954701 0 0,0 0.4883135050643062,1.1270948952738609 l -46.37683709500514 19.620403074609985" fill="red" stroke="none" /><path d="M 119.34039704204932 91.81776055985345 l 33.84989669586474 -14.320696684127793 a57.75456243569638,57.75456243569638 0 0,0 0.3794703380715798,0.9189175229575512 l -34.091388720822515 13.735904590716938" fill="red" stroke="none" /><path d="M 119.61058180528143 92.48833698450437 l 34.84124630647301 -13.345636753297303 a58.30976366233481,58.30976366233481 0 0,0 0.3509565034511327,0.9403889446533585 l -35.06580739842577 12.74392467161461" fill="red" stroke="none" /><path d="M 119.7369772167798 92.82701384747503 l 29.630503993867762 -10.768578820654186 a52.526640429123674,52.526640429123674 0 0,0 0.3015202228162744,0.8524382730514808 l -29.811477297493845 10.256942921176092" fill="red" stroke="none" /><path d="M 120.08093135843002 93.85539295169968 l 37.35269665676701 -11.429631377821636 a60.06226338763972,60.06226338763972 0 0,0 0.29400221344633687,0.991229307411702 l -37.543904767325046 10.784972683663405" fill="red" stroke="none" /><path d="M 120.18372546131832 94.20196356495316 l 27.9864689254852 -8.039475508584875 a50.11830368291197,50.11830368291197 0 0,0 0.23105308729897361,0.8312208887892645 l -28.12070878335054 7.556543316376658" fill="red" stroke="none" /><path d="M 120.28053869075195 94.5502522615342 l 32.55975448323469 -8.749395223950568 a54.714826542537786,54.714826542537786 0 0,0 0.23658604529250263,0.9116625420337431 l -32.705536860397494 8.187636256367975" fill="red" stroke="none" /><path d="M 120.37134235888165 94.90015583598534 l 28.078229918693086 -7.0292175382481545 a49.94472135929118,49.94472135929118 0 0,0 0.20160353197051206,0.8357767945862296 l -28.19506625092442 6.544855512002519" fill="red" stroke="none" /><path d="M 120.45610955862082 95.25157060432595 l 61.36832867586249 -14.245288187022162 a84.0,84.0 0 0,0 0.31482245199184966,1.4112873218001445 l -61.60444551485638 13.186822695672053" fill="red" stroke="none" /><path d="M 120.6074358757038 95.95851677861258 l 38.07875846290467 -7.467919072869027 a59.80414489916193,59.80414489916193 0 0,0 0.1894204478646494,1.011891606727509 l -38.201664634679176 6.811349388678956" fill="red" stroke="none" /><path d="M 120.73433829027371 96.67025291283417 l 31.862235272912695 -5.116786636993415 a53.270474773001965,53.270474773001965 0 0,0 0.13760044333932409,0.9066149984364809 l -31.945591609691316 4.567572526164851" fill="red" stroke="none" /><path d="M 120.78858239683441 97.02765380044208 l 27.84471039320278 -3.9812295776180444 a49.12788804427086,49.12788804427086 0 0,0 0.11248882928605895,0.8381724371125199 l -27.909115221546674 3.50133879844086" fill="red" stroke="none" /><path d="M 120.83666639777658 97.38593545837742 l 33.810384836036185 -4.241682736156245 a55.07541628792041,55.07541628792041 0 0,0 0.10991386927653019,0.9416749086925342 l -33.87838905831631 3.659064089138859" fill="red" stroke="none" /><path d="M 120.87857604477298 97.74499172005257 l 22.962241708519503 -2.4800563538349625 a44.095783680115076,44.095783680115076 0 0,0 0.07501086373087537,0.7553491610714969 l -23.001529697932607 2.0844316620590306" fill="red" stroke="none" /><path d="M 120.94382443527127 98.46500227214037 l 51.64820829941338 -3.785358430244775 a72.7867392194664,72.7867392194664 0 0,0 0.0808258924435089,1.2503407817143146 l -51.705714782861314 2.8957585842774254" fill="red" stroke="none" /><path d="M 120.98425023603335 99.18683210126433 l 39.62202316920014 -1.5354066484028384 a60.65176154468541,60.65176154468541 0 0,0 0.03144737673818532,1.0435853360645375 l -39.64258224039397 0.8531511649133019" fill="red" stroke="none" /><line stroke="#e1ed5e" stroke-width="0.3" x1="184.98032266829074" x2="189.97916517819016" y1="98.17113171792111" y2="98.06355123074" /><path d="M 185.9800911702706 98.14961562048488 a86.0,86.0 0 0,1 -9.607161424134198,41.387399972396054" fill="none" id="id4" stroke="none" /><text fill="#e1ed5e" style="font-size:6.75px; font-family:Arial;" text-anchor="middle"><textPath startOffset="21.466115282336823" xlink:href="#id4">April</textPath></text><path d="M 120.8583938346157 102.4346265915055 l 26.854471058591965 3.1344987470492676 a48.036784169571774,48.036784169571774 0 0,0 -0.10293251372693467,0.82047341060732 l -26.796537035618183 -3.5962899119439826" fill="red" stroke="none" /><path d="M 120.81339534386255 102.79330883721812 l 23.49092843497911 3.152653226818885 a44.70153879194095,44.70153879194095 0 0,0 -0.10891412634799365,0.7617451460066406 l -23.433180257614513 -3.556543844805935" fill="red" stroke="none" /><path d="M 120.70491114924044 103.5080841355445 l 51.81786062496011 8.779627861525366 a73.55637492383454,73.55637492383454 0 0,0 -0.22225779416903754,1.2465397428300005 l -51.65905638845189 -9.670286355088585" fill="red" stroke="none" /><path d="M 120.49622156327973 104.57218783832717 l 28.248664368363688 6.30156145000957 a49.94299078023394,49.94299078023394 0 0,0 -0.1943958001005686,0.8374520190224772 l -28.136008002332566 -6.786882126380611" fill="red" stroke="none" /><line stroke="#e1ed5e" stroke-width="0.3" x1="174.80103733775053" x2="179.2010983576182" y1="140.37084112569926" y2="142.7455964860345" /><path d="M 175.68104954172406 140.8457921977663 a86.0,86.0 0 0,1 -30.038265399797805,32.042727171017184" fill="none" id="id5" stroke="none" /><text fill="#e1ed5e" style="font-size:6.75px; font-family:Arial;" text-anchor="middle"><textPath startOffset="22.206326154141568" xlink:href="#id5">May</textPath></text><line stroke="#e1ed5e" stroke-width="0.3" x1="143.8653032363475" x2="146.44561519142675" y1="172.8068346515853" y2="177.08958963109032" /><path d="M 144.38136562736335 173.6633856474863 a86.0,86.0 0 0,1 -40.68145358897372,12.25698825130547" fill="none" id="id6" stroke="none" /><text fill="#e1ed5e" style="font-size:6.75px; font-family:Arial;" text-anchor="middle"><textPath startOffset="21.466115282336833" xlink:href="#id6">June</textPath></text><line stroke="#e1ed5e" stroke-width="0.3" x1="102.19456741930631" x2="102.32365962044197" y1="184.97166512339345" y2="189.96999836594603" /><path d="M 102.22038585953345 185.97133177190398 a86.0,86.0 0 0,1 -42.740103519485714,-10.115201625700543" fill="none" id="id7" stroke="none" /><text fill="#e1ed5e" style="font-size:6.75px; font-family:Arial;" text-anchor="middle"><textPath startOffset="22.20632615414155" xlink:href="#id7">July</textPath></text><line stroke="#e1ed5e" stroke-width="0.3" x1="58.666819895761336" x2="56.23545636021788" y1="174.27360380694188" y2="178.64263932499728" /><path d="M 58.180547188652646 175.14741091055294 a86.0,86.0 0 0,1 -31.652253787137756,-30.449443065178592" fill="none" id="id8" stroke="none" /><text fill="#e1ed5e" style="font-size:6.75px; font-family:Arial;" text-anchor="middle"><textPath startOffset="22.20632615414155" xlink:href="#id8">August</textPath></text><line stroke="#e1ed5e" stroke-width="0.3" x1="26.63291911575756" x2="22.317208475507996" y1="142.92168965132927" y2="145.44649492493687" /><path d="M 25.769776987707644 143.4266507060508 a86.0,86.0 0 0,1 -11.730757126820373,-40.83630448921669" fill="none" id="id9" stroke="none" /><text fill="#e1ed5e" style="font-size:6.75px; font-family:Arial;" text-anchor="middle"><textPath startOffset="21.46611528233685" xlink:href="#id9">September</textPath></text><line stroke="#e1ed5e" stroke-width="0.3" x1="15.007084014347285" x2="10.007500721073583" y1="101.09737516637583" y2="101.16192664675087" /><path d="M 14.007167355692545 101.11028546245083 a86.0,86.0 0 0,1 10.666146001902534,-42.60595125391555" fill="none" id="id10" stroke="none" /><text fill="#e1ed5e" style="font-size:6.75px; font-family:Arial;" text-anchor="middle"><textPath startOffset="22.20632615414155" xlink:href="#id10">October</textPath></text><line stroke="#e1ed5e" stroke-width="0.3" x1="26.266209847984243" x2="21.928928074336255" y1="57.711370442889674" y2="55.22380399835377" /><path d="M 25.398753493254645 57.213857153982495 a86.0,86.0 0 0,1 29.58750427330803,-30.492523968695096" fill="none" id="id11" stroke="none" /><text fill="#e1ed5e" style="font-size:6.75px; font-family:Arial;" text-anchor="middle"><textPath startOffset="21.46611528233685" xlink:href="#id11">November</textPath></text><line stroke="#e1ed5e" stroke-width="0.3" x1="56.762969772571076" x2="54.21961505331055" y1="26.818313649435495" y2="22.513508569990535" /><path d="M 56.25429882871897 25.957352633546506 a86.0,86.0 0 0,1 42.265352541879196,-11.944610805530505" fill="none" id="id12" stroke="none" /><text fill="#e1ed5e" style="font-size:6.75px; font-family:Arial;" text-anchor="middle"><textPath startOffset="22.20632615414155" xlink:href="#id12">December</textPath></text></svg>